<?xml version="1.0" encoding="utf-8" standalone="no"?>
<!DOCTYPE svg PUBLIC "-//W3C//DTD SVG 1.1//EN"
  "http://www.w3.org/Graphics/SVG/1.1/DTD/svg11.dtd">
<!-- Created with matplotlib (https://matplotlib.org/) -->
<svg height="360pt" version="1.1" viewBox="0 0 576 360" width="576pt" xmlns="http://www.w3.org/2000/svg" xmlns:xlink="http://www.w3.org/1999/xlink">
 <metadata>
  <rdf:RDF xmlns:cc="http://creativecommons.org/ns#" xmlns:dc="http://purl.org/dc/elements/1.1/" xmlns:rdf="http://www.w3.org/1999/02/22-rdf-syntax-ns#">
   <cc:Work>
    <dc:type rdf:resource="http://purl.org/dc/dcmitype/StillImage"/>
    <dc:date>2021-04-11T20:29:51.444864</dc:date>
    <dc:format>image/svg+xml</dc:format>
    <dc:creator>
     <cc:Agent>
      <dc:title>Matplotlib v3.3.4, https://matplotlib.org/</dc:title>
     </cc:Agent>
    </dc:creator>
   </cc:Work>
  </rdf:RDF>
 </metadata>
 <defs>
  <style type="text/css">*{stroke-linecap:butt;stroke-linejoin:round;}</style>
 </defs>
 <g id="figure_1">
  <g id="patch_1">
   <path d="M 0 360 
L 576 360 
L 576 0 
L 0 0 
z
" style="fill:none;"/>
  </g>
  <g id="axes_1">
   <g id="patch_2">
    <path d="M 72 320.4 
L 518.4 320.4 
L 518.4 43.2 
L 72 43.2 
z
" style="fill:none;"/>
   </g>
   <g id="matplotlib.axis_1">
    <g id="xtick_1">
     <g id="line2d_1">
      <defs>
       <path d="M 0 0 
L 0 3.5 
" id="mc20c0d048f" style="stroke:#000000;stroke-width:0.8;"/>
      </defs>
      <g>
       <use style="stroke:#000000;stroke-width:0.8;" x="92.290909" xlink:href="#mc20c0d048f" y="320.4"/>
      </g>
     </g>
     <g id="text_1">
      <!-- 0 -->
      <g transform="translate(89.109659 334.998438)scale(0.1 -0.1)">
       <defs>
        <path d="M 31.78125 66.40625 
Q 24.171875 66.40625 20.328125 58.90625 
Q 16.5 51.421875 16.5 36.375 
Q 16.5 21.390625 20.328125 13.890625 
Q 24.171875 6.390625 31.78125 6.390625 
Q 39.453125 6.390625 43.28125 13.890625 
Q 47.125 21.390625 47.125 36.375 
Q 47.125 51.421875 43.28125 58.90625 
Q 39.453125 66.40625 31.78125 66.40625 
z
M 31.78125 74.21875 
Q 44.046875 74.21875 50.515625 64.515625 
Q 56.984375 54.828125 56.984375 36.375 
Q 56.984375 17.96875 50.515625 8.265625 
Q 44.046875 -1.421875 31.78125 -1.421875 
Q 19.53125 -1.421875 13.0625 8.265625 
Q 6.59375 17.96875 6.59375 36.375 
Q 6.59375 54.828125 13.0625 64.515625 
Q 19.53125 74.21875 31.78125 74.21875 
z
" id="DejaVuSans-48"/>
       </defs>
       <use xlink:href="#DejaVuSans-48"/>
      </g>
     </g>
    </g>
    <g id="xtick_2">
     <g id="line2d_2">
      <g>
       <use style="stroke:#000000;stroke-width:0.8;" x="172.104839" xlink:href="#mc20c0d048f" y="320.4"/>
      </g>
     </g>
     <g id="text_2">
      <!-- 1 -->
      <g transform="translate(168.923589 334.998438)scale(0.1 -0.1)">
       <defs>
        <path d="M 12.40625 8.296875 
L 28.515625 8.296875 
L 28.515625 63.921875 
L 10.984375 60.40625 
L 10.984375 69.390625 
L 28.421875 72.90625 
L 38.28125 72.90625 
L 38.28125 8.296875 
L 54.390625 8.296875 
L 54.390625 0 
L 12.40625 0 
z
" id="DejaVuSans-49"/>
       </defs>
       <use xlink:href="#DejaVuSans-49"/>
      </g>
     </g>
    </g>
    <g id="xtick_3">
     <g id="line2d_3">
      <g>
       <use style="stroke:#000000;stroke-width:0.8;" x="251.918769" xlink:href="#mc20c0d048f" y="320.4"/>
      </g>
     </g>
     <g id="text_3">
      <!-- 2 -->
      <g transform="translate(248.737519 334.998438)scale(0.1 -0.1)">
       <defs>
        <path d="M 19.1875 8.296875 
L 53.609375 8.296875 
L 53.609375 0 
L 7.328125 0 
L 7.328125 8.296875 
Q 12.9375 14.109375 22.625 23.890625 
Q 32.328125 33.6875 34.8125 36.53125 
Q 39.546875 41.84375 41.421875 45.53125 
Q 43.3125 49.21875 43.3125 52.78125 
Q 43.3125 58.59375 39.234375 62.25 
Q 35.15625 65.921875 28.609375 65.921875 
Q 23.96875 65.921875 18.8125 64.3125 
Q 13.671875 62.703125 7.8125 59.421875 
L 7.8125 69.390625 
Q 13.765625 71.78125 18.9375 73 
Q 24.125 74.21875 28.421875 74.21875 
Q 39.75 74.21875 46.484375 68.546875 
Q 53.21875 62.890625 53.21875 53.421875 
Q 53.21875 48.921875 51.53125 44.890625 
Q 49.859375 40.875 45.40625 35.40625 
Q 44.1875 33.984375 37.640625 27.21875 
Q 31.109375 20.453125 19.1875 8.296875 
z
" id="DejaVuSans-50"/>
       </defs>
       <use xlink:href="#DejaVuSans-50"/>
      </g>
     </g>
    </g>
    <g id="xtick_4">
     <g id="line2d_4">
      <g>
       <use style="stroke:#000000;stroke-width:0.8;" x="331.732699" xlink:href="#mc20c0d048f" y="320.4"/>
      </g>
     </g>
     <g id="text_4">
      <!-- 3 -->
      <g transform="translate(328.551449 334.998438)scale(0.1 -0.1)">
       <defs>
        <path d="M 40.578125 39.3125 
Q 47.65625 37.796875 51.625 33 
Q 55.609375 28.21875 55.609375 21.1875 
Q 55.609375 10.40625 48.1875 4.484375 
Q 40.765625 -1.421875 27.09375 -1.421875 
Q 22.515625 -1.421875 17.65625 -0.515625 
Q 12.796875 0.390625 7.625 2.203125 
L 7.625 11.71875 
Q 11.71875 9.328125 16.59375 8.109375 
Q 21.484375 6.890625 26.8125 6.890625 
Q 36.078125 6.890625 40.9375 10.546875 
Q 45.796875 14.203125 45.796875 21.1875 
Q 45.796875 27.640625 41.28125 31.265625 
Q 36.765625 34.90625 28.71875 34.90625 
L 20.21875 34.90625 
L 20.21875 43.015625 
L 29.109375 43.015625 
Q 36.375 43.015625 40.234375 45.921875 
Q 44.09375 48.828125 44.09375 54.296875 
Q 44.09375 59.90625 40.109375 62.90625 
Q 36.140625 65.921875 28.71875 65.921875 
Q 24.65625 65.921875 20.015625 65.03125 
Q 15.375 64.15625 9.8125 62.3125 
L 9.8125 71.09375 
Q 15.4375 72.65625 20.34375 73.4375 
Q 25.25 74.21875 29.59375 74.21875 
Q 40.828125 74.21875 47.359375 69.109375 
Q 53.90625 64.015625 53.90625 55.328125 
Q 53.90625 49.265625 50.4375 45.09375 
Q 46.96875 40.921875 40.578125 39.3125 
z
" id="DejaVuSans-51"/>
       </defs>
       <use xlink:href="#DejaVuSans-51"/>
      </g>
     </g>
    </g>
    <g id="xtick_5">
     <g id="line2d_5">
      <g>
       <use style="stroke:#000000;stroke-width:0.8;" x="411.54663" xlink:href="#mc20c0d048f" y="320.4"/>
      </g>
     </g>
     <g id="text_5">
      <!-- 4 -->
      <g transform="translate(408.36538 334.998438)scale(0.1 -0.1)">
       <defs>
        <path d="M 37.796875 64.3125 
L 12.890625 25.390625 
L 37.796875 25.390625 
z
M 35.203125 72.90625 
L 47.609375 72.90625 
L 47.609375 25.390625 
L 58.015625 25.390625 
L 58.015625 17.1875 
L 47.609375 17.1875 
L 47.609375 0 
L 37.796875 0 
L 37.796875 17.1875 
L 4.890625 17.1875 
L 4.890625 26.703125 
z
" id="DejaVuSans-52"/>
       </defs>
       <use xlink:href="#DejaVuSans-52"/>
      </g>
     </g>
    </g>
    <g id="xtick_6">
     <g id="line2d_6">
      <g>
       <use style="stroke:#000000;stroke-width:0.8;" x="491.36056" xlink:href="#mc20c0d048f" y="320.4"/>
      </g>
     </g>
     <g id="text_6">
      <!-- 5 -->
      <g transform="translate(488.17931 334.998438)scale(0.1 -0.1)">
       <defs>
        <path d="M 10.796875 72.90625 
L 49.515625 72.90625 
L 49.515625 64.59375 
L 19.828125 64.59375 
L 19.828125 46.734375 
Q 21.96875 47.46875 24.109375 47.828125 
Q 26.265625 48.1875 28.421875 48.1875 
Q 40.625 48.1875 47.75 41.5 
Q 54.890625 34.8125 54.890625 23.390625 
Q 54.890625 11.625 47.5625 5.09375 
Q 40.234375 -1.421875 26.90625 -1.421875 
Q 22.3125 -1.421875 17.546875 -0.640625 
Q 12.796875 0.140625 7.71875 1.703125 
L 7.71875 11.625 
Q 12.109375 9.234375 16.796875 8.0625 
Q 21.484375 6.890625 26.703125 6.890625 
Q 35.15625 6.890625 40.078125 11.328125 
Q 45.015625 15.765625 45.015625 23.390625 
Q 45.015625 31 40.078125 35.4375 
Q 35.15625 39.890625 26.703125 39.890625 
Q 22.75 39.890625 18.8125 39.015625 
Q 14.890625 38.140625 10.796875 36.28125 
z
" id="DejaVuSans-53"/>
       </defs>
       <use xlink:href="#DejaVuSans-53"/>
      </g>
     </g>
    </g>
    <g id="text_7">
     <!-- Primes Quantity -->
     <g transform="translate(255.08125 348.676562)scale(0.1 -0.1)">
      <defs>
       <path d="M 19.671875 64.796875 
L 19.671875 37.40625 
L 32.078125 37.40625 
Q 38.96875 37.40625 42.71875 40.96875 
Q 46.484375 44.53125 46.484375 51.125 
Q 46.484375 57.671875 42.71875 61.234375 
Q 38.96875 64.796875 32.078125 64.796875 
z
M 9.8125 72.90625 
L 32.078125 72.90625 
Q 44.34375 72.90625 50.609375 67.359375 
Q 56.890625 61.8125 56.890625 51.125 
Q 56.890625 40.328125 50.609375 34.8125 
Q 44.34375 29.296875 32.078125 29.296875 
L 19.671875 29.296875 
L 19.671875 0 
L 9.8125 0 
z
" id="DejaVuSans-80"/>
       <path d="M 41.109375 46.296875 
Q 39.59375 47.171875 37.8125 47.578125 
Q 36.03125 48 33.890625 48 
Q 26.265625 48 22.1875 43.046875 
Q 18.109375 38.09375 18.109375 28.8125 
L 18.109375 0 
L 9.078125 0 
L 9.078125 54.6875 
L 18.109375 54.6875 
L 18.109375 46.1875 
Q 20.953125 51.171875 25.484375 53.578125 
Q 30.03125 56 36.53125 56 
Q 37.453125 56 38.578125 55.875 
Q 39.703125 55.765625 41.0625 55.515625 
z
" id="DejaVuSans-114"/>
       <path d="M 9.421875 54.6875 
L 18.40625 54.6875 
L 18.40625 0 
L 9.421875 0 
z
M 9.421875 75.984375 
L 18.40625 75.984375 
L 18.40625 64.59375 
L 9.421875 64.59375 
z
" id="DejaVuSans-105"/>
       <path d="M 52 44.1875 
Q 55.375 50.25 60.0625 53.125 
Q 64.75 56 71.09375 56 
Q 79.640625 56 84.28125 50.015625 
Q 88.921875 44.046875 88.921875 33.015625 
L 88.921875 0 
L 79.890625 0 
L 79.890625 32.71875 
Q 79.890625 40.578125 77.09375 44.375 
Q 74.3125 48.1875 68.609375 48.1875 
Q 61.625 48.1875 57.5625 43.546875 
Q 53.515625 38.921875 53.515625 30.90625 
L 53.515625 0 
L 44.484375 0 
L 44.484375 32.71875 
Q 44.484375 40.625 41.703125 44.40625 
Q 38.921875 48.1875 33.109375 48.1875 
Q 26.21875 48.1875 22.15625 43.53125 
Q 18.109375 38.875 18.109375 30.90625 
L 18.109375 0 
L 9.078125 0 
L 9.078125 54.6875 
L 18.109375 54.6875 
L 18.109375 46.1875 
Q 21.1875 51.21875 25.484375 53.609375 
Q 29.78125 56 35.6875 56 
Q 41.65625 56 45.828125 52.96875 
Q 50 49.953125 52 44.1875 
z
" id="DejaVuSans-109"/>
       <path d="M 56.203125 29.59375 
L 56.203125 25.203125 
L 14.890625 25.203125 
Q 15.484375 15.921875 20.484375 11.0625 
Q 25.484375 6.203125 34.421875 6.203125 
Q 39.59375 6.203125 44.453125 7.46875 
Q 49.3125 8.734375 54.109375 11.28125 
L 54.109375 2.78125 
Q 49.265625 0.734375 44.1875 -0.34375 
Q 39.109375 -1.421875 33.890625 -1.421875 
Q 20.796875 -1.421875 13.15625 6.1875 
Q 5.515625 13.8125 5.515625 26.8125 
Q 5.515625 40.234375 12.765625 48.109375 
Q 20.015625 56 32.328125 56 
Q 43.359375 56 49.78125 48.890625 
Q 56.203125 41.796875 56.203125 29.59375 
z
M 47.21875 32.234375 
Q 47.125 39.59375 43.09375 43.984375 
Q 39.0625 48.390625 32.421875 48.390625 
Q 24.90625 48.390625 20.390625 44.140625 
Q 15.875 39.890625 15.1875 32.171875 
z
" id="DejaVuSans-101"/>
       <path d="M 44.28125 53.078125 
L 44.28125 44.578125 
Q 40.484375 46.53125 36.375 47.5 
Q 32.28125 48.484375 27.875 48.484375 
Q 21.1875 48.484375 17.84375 46.4375 
Q 14.5 44.390625 14.5 40.28125 
Q 14.5 37.15625 16.890625 35.375 
Q 19.28125 33.59375 26.515625 31.984375 
L 29.59375 31.296875 
Q 39.15625 29.25 43.1875 25.515625 
Q 47.21875 21.78125 47.21875 15.09375 
Q 47.21875 7.46875 41.1875 3.015625 
Q 35.15625 -1.421875 24.609375 -1.421875 
Q 20.21875 -1.421875 15.453125 -0.5625 
Q 10.6875 0.296875 5.421875 2 
L 5.421875 11.28125 
Q 10.40625 8.6875 15.234375 7.390625 
Q 20.0625 6.109375 24.8125 6.109375 
Q 31.15625 6.109375 34.5625 8.28125 
Q 37.984375 10.453125 37.984375 14.40625 
Q 37.984375 18.0625 35.515625 20.015625 
Q 33.0625 21.96875 24.703125 23.78125 
L 21.578125 24.515625 
Q 13.234375 26.265625 9.515625 29.90625 
Q 5.8125 33.546875 5.8125 39.890625 
Q 5.8125 47.609375 11.28125 51.796875 
Q 16.75 56 26.8125 56 
Q 31.78125 56 36.171875 55.265625 
Q 40.578125 54.546875 44.28125 53.078125 
z
" id="DejaVuSans-115"/>
       <path id="DejaVuSans-32"/>
       <path d="M 39.40625 66.21875 
Q 28.65625 66.21875 22.328125 58.203125 
Q 16.015625 50.203125 16.015625 36.375 
Q 16.015625 22.609375 22.328125 14.59375 
Q 28.65625 6.59375 39.40625 6.59375 
Q 50.140625 6.59375 56.421875 14.59375 
Q 62.703125 22.609375 62.703125 36.375 
Q 62.703125 50.203125 56.421875 58.203125 
Q 50.140625 66.21875 39.40625 66.21875 
z
M 53.21875 1.3125 
L 66.21875 -12.890625 
L 54.296875 -12.890625 
L 43.5 -1.21875 
Q 41.890625 -1.3125 41.03125 -1.359375 
Q 40.1875 -1.421875 39.40625 -1.421875 
Q 24.03125 -1.421875 14.8125 8.859375 
Q 5.609375 19.140625 5.609375 36.375 
Q 5.609375 53.65625 14.8125 63.9375 
Q 24.03125 74.21875 39.40625 74.21875 
Q 54.734375 74.21875 63.90625 63.9375 
Q 73.09375 53.65625 73.09375 36.375 
Q 73.09375 23.6875 67.984375 14.640625 
Q 62.890625 5.609375 53.21875 1.3125 
z
" id="DejaVuSans-81"/>
       <path d="M 8.5 21.578125 
L 8.5 54.6875 
L 17.484375 54.6875 
L 17.484375 21.921875 
Q 17.484375 14.15625 20.5 10.265625 
Q 23.53125 6.390625 29.59375 6.390625 
Q 36.859375 6.390625 41.078125 11.03125 
Q 45.3125 15.671875 45.3125 23.6875 
L 45.3125 54.6875 
L 54.296875 54.6875 
L 54.296875 0 
L 45.3125 0 
L 45.3125 8.40625 
Q 42.046875 3.421875 37.71875 1 
Q 33.40625 -1.421875 27.6875 -1.421875 
Q 18.265625 -1.421875 13.375 4.4375 
Q 8.5 10.296875 8.5 21.578125 
z
M 31.109375 56 
z
" id="DejaVuSans-117"/>
       <path d="M 34.28125 27.484375 
Q 23.390625 27.484375 19.1875 25 
Q 14.984375 22.515625 14.984375 16.5 
Q 14.984375 11.71875 18.140625 8.90625 
Q 21.296875 6.109375 26.703125 6.109375 
Q 34.1875 6.109375 38.703125 11.40625 
Q 43.21875 16.703125 43.21875 25.484375 
L 43.21875 27.484375 
z
M 52.203125 31.203125 
L 52.203125 0 
L 43.21875 0 
L 43.21875 8.296875 
Q 40.140625 3.328125 35.546875 0.953125 
Q 30.953125 -1.421875 24.3125 -1.421875 
Q 15.921875 -1.421875 10.953125 3.296875 
Q 6 8.015625 6 15.921875 
Q 6 25.140625 12.171875 29.828125 
Q 18.359375 34.515625 30.609375 34.515625 
L 43.21875 34.515625 
L 43.21875 35.40625 
Q 43.21875 41.609375 39.140625 45 
Q 35.0625 48.390625 27.6875 48.390625 
Q 23 48.390625 18.546875 47.265625 
Q 14.109375 46.140625 10.015625 43.890625 
L 10.015625 52.203125 
Q 14.9375 54.109375 19.578125 55.046875 
Q 24.21875 56 28.609375 56 
Q 40.484375 56 46.34375 49.84375 
Q 52.203125 43.703125 52.203125 31.203125 
z
" id="DejaVuSans-97"/>
       <path d="M 54.890625 33.015625 
L 54.890625 0 
L 45.90625 0 
L 45.90625 32.71875 
Q 45.90625 40.484375 42.875 44.328125 
Q 39.84375 48.1875 33.796875 48.1875 
Q 26.515625 48.1875 22.3125 43.546875 
Q 18.109375 38.921875 18.109375 30.90625 
L 18.109375 0 
L 9.078125 0 
L 9.078125 54.6875 
L 18.109375 54.6875 
L 18.109375 46.1875 
Q 21.34375 51.125 25.703125 53.5625 
Q 30.078125 56 35.796875 56 
Q 45.21875 56 50.046875 50.171875 
Q 54.890625 44.34375 54.890625 33.015625 
z
" id="DejaVuSans-110"/>
       <path d="M 18.3125 70.21875 
L 18.3125 54.6875 
L 36.8125 54.6875 
L 36.8125 47.703125 
L 18.3125 47.703125 
L 18.3125 18.015625 
Q 18.3125 11.328125 20.140625 9.421875 
Q 21.96875 7.515625 27.59375 7.515625 
L 36.8125 7.515625 
L 36.8125 0 
L 27.59375 0 
Q 17.1875 0 13.234375 3.875 
Q 9.28125 7.765625 9.28125 18.015625 
L 9.28125 47.703125 
L 2.6875 47.703125 
L 2.6875 54.6875 
L 9.28125 54.6875 
L 9.28125 70.21875 
z
" id="DejaVuSans-116"/>
       <path d="M 32.171875 -5.078125 
Q 28.375 -14.84375 24.75 -17.8125 
Q 21.140625 -20.796875 15.09375 -20.796875 
L 7.90625 -20.796875 
L 7.90625 -13.28125 
L 13.1875 -13.28125 
Q 16.890625 -13.28125 18.9375 -11.515625 
Q 21 -9.765625 23.484375 -3.21875 
L 25.09375 0.875 
L 2.984375 54.6875 
L 12.5 54.6875 
L 29.59375 11.921875 
L 46.6875 54.6875 
L 56.203125 54.6875 
z
" id="DejaVuSans-121"/>
      </defs>
      <use xlink:href="#DejaVuSans-80"/>
      <use x="58.552734" xlink:href="#DejaVuSans-114"/>
      <use x="99.666016" xlink:href="#DejaVuSans-105"/>
      <use x="127.449219" xlink:href="#DejaVuSans-109"/>
      <use x="224.861328" xlink:href="#DejaVuSans-101"/>
      <use x="286.384766" xlink:href="#DejaVuSans-115"/>
      <use x="338.484375" xlink:href="#DejaVuSans-32"/>
      <use x="370.271484" xlink:href="#DejaVuSans-81"/>
      <use x="448.982422" xlink:href="#DejaVuSans-117"/>
      <use x="512.361328" xlink:href="#DejaVuSans-97"/>
      <use x="573.640625" xlink:href="#DejaVuSans-110"/>
      <use x="637.019531" xlink:href="#DejaVuSans-116"/>
      <use x="676.228516" xlink:href="#DejaVuSans-105"/>
      <use x="704.011719" xlink:href="#DejaVuSans-116"/>
      <use x="743.220703" xlink:href="#DejaVuSans-121"/>
     </g>
    </g>
    <g id="text_8">
     <!-- 1e7 -->
     <g transform="translate(499.521875 347.676562)scale(0.1 -0.1)">
      <defs>
       <path d="M 8.203125 72.90625 
L 55.078125 72.90625 
L 55.078125 68.703125 
L 28.609375 0 
L 18.3125 0 
L 43.21875 64.59375 
L 8.203125 64.59375 
z
" id="DejaVuSans-55"/>
      </defs>
      <use xlink:href="#DejaVuSans-49"/>
      <use x="63.623047" xlink:href="#DejaVuSans-101"/>
      <use x="125.146484" xlink:href="#DejaVuSans-55"/>
     </g>
    </g>
   </g>
   <g id="matplotlib.axis_2">
    <g id="ytick_1">
     <g id="line2d_7">
      <defs>
       <path d="M 0 0 
L -3.5 0 
" id="mbebc0e9626" style="stroke:#000000;stroke-width:0.8;"/>
      </defs>
      <g>
       <use style="stroke:#000000;stroke-width:0.8;" x="72" xlink:href="#mbebc0e9626" y="307.875517"/>
      </g>
     </g>
     <g id="text_9">
      <!-- 0 -->
      <g transform="translate(58.6375 311.674736)scale(0.1 -0.1)">
       <use xlink:href="#DejaVuSans-48"/>
      </g>
     </g>
    </g>
    <g id="ytick_2">
     <g id="line2d_8">
      <g>
       <use style="stroke:#000000;stroke-width:0.8;" x="72" xlink:href="#mbebc0e9626" y="270.117051"/>
      </g>
     </g>
     <g id="text_10">
      <!-- 500 -->
      <g transform="translate(45.9125 273.91627)scale(0.1 -0.1)">
       <use xlink:href="#DejaVuSans-53"/>
       <use x="63.623047" xlink:href="#DejaVuSans-48"/>
       <use x="127.246094" xlink:href="#DejaVuSans-48"/>
      </g>
     </g>
    </g>
    <g id="ytick_3">
     <g id="line2d_9">
      <g>
       <use style="stroke:#000000;stroke-width:0.8;" x="72" xlink:href="#mbebc0e9626" y="232.358586"/>
      </g>
     </g>
     <g id="text_11">
      <!-- 1000 -->
      <g transform="translate(39.55 236.157804)scale(0.1 -0.1)">
       <use xlink:href="#DejaVuSans-49"/>
       <use x="63.623047" xlink:href="#DejaVuSans-48"/>
       <use x="127.246094" xlink:href="#DejaVuSans-48"/>
       <use x="190.869141" xlink:href="#DejaVuSans-48"/>
      </g>
     </g>
    </g>
    <g id="ytick_4">
     <g id="line2d_10">
      <g>
       <use style="stroke:#000000;stroke-width:0.8;" x="72" xlink:href="#mbebc0e9626" y="194.60012"/>
      </g>
     </g>
     <g id="text_12">
      <!-- 1500 -->
      <g transform="translate(39.55 198.399339)scale(0.1 -0.1)">
       <use xlink:href="#DejaVuSans-49"/>
       <use x="63.623047" xlink:href="#DejaVuSans-53"/>
       <use x="127.246094" xlink:href="#DejaVuSans-48"/>
       <use x="190.869141" xlink:href="#DejaVuSans-48"/>
      </g>
     </g>
    </g>
    <g id="ytick_5">
     <g id="line2d_11">
      <g>
       <use style="stroke:#000000;stroke-width:0.8;" x="72" xlink:href="#mbebc0e9626" y="156.841654"/>
      </g>
     </g>
     <g id="text_13">
      <!-- 2000 -->
      <g transform="translate(39.55 160.640873)scale(0.1 -0.1)">
       <use xlink:href="#DejaVuSans-50"/>
       <use x="63.623047" xlink:href="#DejaVuSans-48"/>
       <use x="127.246094" xlink:href="#DejaVuSans-48"/>
       <use x="190.869141" xlink:href="#DejaVuSans-48"/>
      </g>
     </g>
    </g>
    <g id="ytick_6">
     <g id="line2d_12">
      <g>
       <use style="stroke:#000000;stroke-width:0.8;" x="72" xlink:href="#mbebc0e9626" y="119.083188"/>
      </g>
     </g>
     <g id="text_14">
      <!-- 2500 -->
      <g transform="translate(39.55 122.882407)scale(0.1 -0.1)">
       <use xlink:href="#DejaVuSans-50"/>
       <use x="63.623047" xlink:href="#DejaVuSans-53"/>
       <use x="127.246094" xlink:href="#DejaVuSans-48"/>
       <use x="190.869141" xlink:href="#DejaVuSans-48"/>
      </g>
     </g>
    </g>
    <g id="ytick_7">
     <g id="line2d_13">
      <g>
       <use style="stroke:#000000;stroke-width:0.8;" x="72" xlink:href="#mbebc0e9626" y="81.324723"/>
      </g>
     </g>
     <g id="text_15">
      <!-- 3000 -->
      <g transform="translate(39.55 85.123942)scale(0.1 -0.1)">
       <use xlink:href="#DejaVuSans-51"/>
       <use x="63.623047" xlink:href="#DejaVuSans-48"/>
       <use x="127.246094" xlink:href="#DejaVuSans-48"/>
       <use x="190.869141" xlink:href="#DejaVuSans-48"/>
      </g>
     </g>
    </g>
    <g id="ytick_8">
     <g id="line2d_14">
      <g>
       <use style="stroke:#000000;stroke-width:0.8;" x="72" xlink:href="#mbebc0e9626" y="43.566257"/>
      </g>
     </g>
     <g id="text_16">
      <!-- 3500 -->
      <g transform="translate(39.55 47.365476)scale(0.1 -0.1)">
       <use xlink:href="#DejaVuSans-51"/>
       <use x="63.623047" xlink:href="#DejaVuSans-53"/>
       <use x="127.246094" xlink:href="#DejaVuSans-48"/>
       <use x="190.869141" xlink:href="#DejaVuSans-48"/>
      </g>
     </g>
    </g>
    <g id="text_17">
     <!-- $\delta$ Quantity -->
     <g transform="translate(33.45 208.1)rotate(-90)scale(0.1 -0.1)">
      <defs>
       <path d="M 54.25 63.328125 
Q 49.953125 66.75 38.28125 66.75 
Q 25.921875 66.75 24.8125 61.03125 
Q 23.921875 56.546875 36.375 54.203125 
Q 46.140625 52.390625 50.828125 46.921875 
Q 56.5 40.328125 53.859375 26.8125 
Q 51.3125 13.875 43.171875 6.25 
Q 34.96875 -1.421875 23.25 -1.421875 
Q 11.578125 -1.421875 6.34375 6.25 
Q 1.125 13.875 3.765625 27.296875 
Q 5.671875 37.25 13.921875 45.3125 
Q 17.140625 48.4375 21.140625 50.203125 
Q 14.265625 54.046875 15.625 60.9375 
Q 18.21875 74.21875 39.75 74.21875 
Q 50.53125 74.21875 55.71875 70.796875 
z
M 27.390625 47.75 
Q 23.828125 46.34375 20.40625 42.78125 
Q 15.140625 37.25 13.234375 27.296875 
Q 11.28125 17.390625 14.359375 11.8125 
Q 17.484375 6.203125 24.75 6.203125 
Q 31.9375 6.203125 37.203125 11.859375 
Q 42.53125 17.53125 44.34375 26.8125 
Q 46.1875 36.53125 42.671875 41.21875 
Q 38.921875 46.234375 32.859375 46.78125 
Q 29.78125 47.078125 27.390625 47.75 
z
" id="DejaVuSans-Oblique-948"/>
      </defs>
      <use transform="translate(0 0.015625)" xlink:href="#DejaVuSans-Oblique-948"/>
      <use transform="translate(61.181641 0.015625)" xlink:href="#DejaVuSans-32"/>
      <use transform="translate(92.96875 0.015625)" xlink:href="#DejaVuSans-81"/>
      <use transform="translate(171.679688 0.015625)" xlink:href="#DejaVuSans-117"/>
      <use transform="translate(235.058594 0.015625)" xlink:href="#DejaVuSans-97"/>
      <use transform="translate(296.337891 0.015625)" xlink:href="#DejaVuSans-110"/>
      <use transform="translate(359.716797 0.015625)" xlink:href="#DejaVuSans-116"/>
      <use transform="translate(398.925781 0.015625)" xlink:href="#DejaVuSans-105"/>
      <use transform="translate(426.708984 0.015625)" xlink:href="#DejaVuSans-116"/>
      <use transform="translate(465.917969 0.015625)" xlink:href="#DejaVuSans-121"/>
     </g>
    </g>
   </g>
   <g id="line2d_15">
    <path clip-path="url(#pe3c6252c44)" d="M 92.290909 307.8 
L 92.410622 287.939047 
L 92.5693 279.103566 
L 92.572541 279.028049 
L 92.70646 274.723584 
L 92.710116 274.648067 
L 92.845656 270.041534 
L 92.851339 269.966017 
L 92.970652 268.380162 
L 92.9743 268.380162 
L 93.094021 265.132934 
L 93.102952 265.057417 
L 93.227126 262.565358 
L 93.236465 262.489841 
L 93.356992 260.677435 
L 93.359833 260.601918 
L 93.475491 258.789512 
L 93.485229 258.789512 
L 93.599674 257.430207 
L 93.612253 257.430207 
L 93.727097 255.919868 
L 93.743331 255.844351 
L 93.858989 254.107462 
L 93.861017 254.031945 
L 93.978702 252.748157 
L 93.984385 252.67264 
L 94.102885 251.237818 
L 94.130884 251.162301 
L 94.246143 250.331615 
L 94.246949 250.331615 
L 94.36058 249.349895 
L 94.47908 247.915073 
L 94.528588 247.839556 
L 94.647495 246.329218 
L 94.673874 246.253701 
L 94.790338 245.196464 
L 94.830924 245.120947 
L 94.949423 243.686125 
L 94.998118 243.610608 
L 95.11297 242.855439 
L 95.138127 242.779922 
L 95.251351 242.32682 
L 95.267586 242.32682 
L 95.38081 241.496134 
L 95.404347 241.420617 
L 95.520005 240.514414 
L 95.576817 240.438897 
L 95.694103 239.230626 
L 95.703026 239.155109 
L 95.819906 238.022355 
L 95.839381 237.946838 
L 95.953419 237.342703 
L 95.955853 237.342703 
L 96.069077 236.4365 
L 96.073946 236.4365 
L 96.186763 235.681331 
L 96.205024 235.605814 
L 96.317841 235.228229 
L 96.426604 235.152712 
L 96.540634 234.548577 
L 96.599481 234.47306 
L 96.712705 234.019958 
L 96.751255 233.944441 
L 96.866107 233.189272 
L 96.879093 233.113755 
L 96.992716 232.585136 
L 97.02113 232.509619 
L 97.13516 231.905484 
L 97.153014 231.829967 
L 97.266238 231.376865 
L 97.290589 231.301349 
L 97.406248 230.395145 
L 97.442771 230.319628 
L 97.555181 229.79101 
L 97.603069 229.715493 
L 97.717107 229.111358 
L 97.728872 229.035841 
L 97.84291 228.431705 
L 97.967898 228.356188 
L 98.081122 227.903087 
L 98.122522 227.82757 
L 98.237366 227.0724 
L 98.268613 226.996883 
L 98.381023 226.392748 
L 98.452449 226.317231 
L 98.565673 225.864129 
L 98.613968 225.788613 
L 98.727591 225.259994 
L 98.754784 225.184477 
L 98.869628 224.429308 
L 98.902911 224.353791 
L 99.017348 223.674138 
L 99.058739 223.598622 
L 99.171556 223.221037 
L 99.209707 223.14552 
L 99.322117 222.843452 
L 99.343627 222.767935 
L 99.457665 222.1638 
L 99.568447 222.088283 
L 99.681671 221.635181 
L 99.742952 221.559664 
L 99.856583 221.031046 
L 99.903658 220.955529 
L 100.016475 220.577944 
L 100.029053 220.502427 
L 100.142684 219.973809 
L 100.23724 219.898292 
L 100.35127 219.294156 
L 100.391855 219.218639 
L 100.504672 218.841055 
L 100.511568 218.841055 
L 100.623579 218.387953 
L 100.634131 218.312436 
L 100.746541 218.010369 
L 100.814718 217.934852 
L 100.927128 217.632784 
L 101.054558 217.557267 
L 101.16819 217.028648 
L 101.179547 216.953132 
L 101.291965 216.651064 
L 101.313874 216.575547 
L 101.425478 216.424513 
L 101.473366 216.348996 
L 101.584962 216.197962 
L 101.673428 216.122445 
L 101.785846 215.820378 
L 101.819527 215.744861 
L 101.930716 215.669344 
L 101.978197 215.593827 
L 102.091421 215.140725 
L 102.142558 215.065208 
L 102.254968 214.763141 
L 102.296766 214.763141 
L 102.409176 214.234522 
L 102.420542 214.159005 
L 102.533359 213.78142 
L 102.56704 213.705904 
L 102.678644 213.479353 
L 102.708271 213.403836 
L 102.820274 213.177285 
L 102.936339 213.101768 
L 103.049156 212.724183 
L 103.066604 212.648666 
L 103.180235 212.120048 
L 103.276012 212.044531 
L 103.388014 211.81798 
L 103.440771 211.742463 
L 103.553588 211.364879 
L 103.598228 211.289362 
L 103.712267 210.685226 
L 103.777195 210.609709 
L 103.889605 210.307642 
L 103.938308 210.307642 
L 104.049903 210.005574 
L 104.134722 209.930057 
L 104.247539 209.552472 
L 104.317743 209.476955 
L 104.431781 208.87282 
L 104.516192 208.797303 
L 104.627381 208.721786 
L 104.641181 208.646269 
L 104.753192 208.419718 
L 104.767391 208.344201 
L 104.880615 207.8911 
L 104.993025 207.815583 
L 105.107063 207.211447 
L 105.184171 207.13593 
L 105.295767 206.984897 
L 105.331476 206.90938 
L 105.443079 206.758346 
L 105.566448 206.682829 
L 105.678858 206.15421 
L 105.729588 206.078693 
L 105.843626 205.474558 
L 105.954407 205.399041 
L 106.067631 204.945939 
L 106.150422 204.945939 
L 106.262018 204.643872 
L 106.359016 204.568355 
L 106.471426 204.266287 
L 106.485625 204.19077 
L 106.597229 203.888702 
L 106.667433 203.888702 
L 106.779444 203.511118 
L 106.916604 203.435601 
L 107.029022 203.133533 
L 107.109778 203.058016 
L 107.222188 202.755948 
L 107.580121 202.680432 
L 107.691318 202.604915 
L 107.820361 202.529398 
L 107.933992 202.000779 
L 108.100381 201.925262 
L 108.214419 201.321127 
L 108.309373 201.24561 
L 108.421791 200.943542 
L 108.567476 200.868025 
L 108.679079 200.716991 
L 108.685975 200.641474 
L 108.797172 200.565957 
L 108.864535 200.490441 
L 108.976945 200.188373 
L 109.04837 200.112856 
L 109.162002 199.584237 
L 109.31459 199.50872 
L 109.427 199.206653 
L 109.460274 199.131136 
L 109.571878 198.980102 
L 109.660751 198.904585 
L 109.772762 198.678034 
L 110.00854 198.602517 
L 110.120136 198.30045 
L 110.16721 198.224933 
L 110.279221 197.998382 
L 110.422878 197.922865 
L 110.535288 197.620797 
L 110.600225 197.54528 
L 110.713042 196.865628 
L 110.764578 196.790111 
L 110.875774 196.714594 
L 110.976013 196.639077 
L 111.089237 196.185975 
L 111.118457 196.110458 
L 111.230052 195.959425 
L 111.337187 195.883908 
L 111.451632 195.204255 
L 111.596103 195.128738 
L 111.709327 194.675637 
L 111.838777 194.60012 
L 111.950788 194.373569 
L 112.194684 194.298052 
L 112.306287 194.147018 
L 112.445882 194.071501 
L 112.557079 193.995984 
L 112.584271 193.920467 
L 112.696274 193.693917 
L 112.803408 193.6184 
L 112.916632 193.165298 
L 113.005106 193.089781 
L 113.117923 192.712197 
L 113.151605 192.63668 
L 113.262801 192.561163 
L 113.309062 192.485646 
L 113.421472 192.183578 
L 113.518868 192.108061 
L 113.630472 191.957027 
L 113.705952 191.88151 
L 113.817548 191.730476 
L 114.024115 191.65496 
L 114.136525 191.352892 
L 114.219715 191.277375 
L 114.331725 191.050824 
L 114.430743 190.975307 
L 114.542346 190.824273 
L 114.594289 190.748756 
L 114.707513 190.295655 
L 114.777311 190.220138 
L 114.889322 189.993587 
L 114.945726 189.91807 
L 115.057737 189.464969 
L 115.142954 189.389452 
L 115.254151 189.313935 
L 115.29757 189.238418 
L 115.410794 188.785316 
L 115.569472 188.709799 
L 115.681882 188.407731 
L 115.699736 188.332215 
L 115.811747 188.105664 
L 115.914013 188.105664 
L 116.025608 187.803596 
L 116.210258 187.728079 
L 116.322261 187.501528 
L 116.66843 187.426011 
L 116.779619 187.350494 
L 116.874581 187.274978 
L 116.987398 186.897393 
L 117.142828 186.821876 
L 117.254839 186.595325 
L 117.363186 186.519808 
L 117.475197 186.066707 
L 117.494265 185.99119 
L 117.606683 185.689122 
L 117.663087 185.613605 
L 117.777125 185.00947 
L 118.004786 184.933953 
L 118.116797 184.707402 
L 118.324976 184.631885 
L 118.436173 184.556368 
L 118.483247 184.480851 
L 118.594851 184.329817 
L 118.769348 184.2543 
L 118.880952 184.103266 
L 119.303 184.027749 
L 119.415011 183.801199 
L 119.4215 183.725682 
L 119.533103 183.574648 
L 119.582612 183.499131 
L 119.695022 183.197063 
L 119.744124 183.121546 
L 119.855727 182.970512 
L 119.877644 182.894996 
L 119.990461 182.517411 
L 120.065941 182.441894 
L 120.177537 182.29086 
L 120.409668 182.215343 
L 120.522078 181.913275 
L 120.559822 181.913275 
L 120.671825 181.535691 
L 120.835372 181.460174 
L 120.94941 180.856038 
L 121.013125 180.780521 
L 121.125128 180.553971 
L 121.258234 180.478454 
L 121.36943 180.402937 
L 121.455055 180.402937 
L 121.566659 180.176386 
L 121.733047 180.100869 
L 121.84505 179.874318 
L 121.919724 179.798801 
L 122.031319 179.647767 
L 122.052015 179.572251 
L 122.163619 179.421217 
L 122.194866 179.3457 
L 122.306462 179.194666 
L 122.710664 179.119149 
L 122.822259 178.968115 
L 122.974848 178.892598 
L 123.086045 178.741564 
L 123.094968 178.741564 
L 123.206572 178.439497 
L 123.464267 178.36398 
L 123.575863 178.061912 
L 123.800283 177.986395 
L 123.912693 177.684327 
L 124.02998 177.60881 
L 124.141983 177.38226 
L 124.306336 177.306743 
L 124.418754 177.004675 
L 124.518178 176.929158 
L 124.630995 176.551573 
L 124.6732 176.476056 
L 124.784397 176.400539 
L 124.943881 176.325022 
L 125.055884 176.098472 
L 125.181288 176.022955 
L 125.292477 175.947438 
L 125.326565 175.871921 
L 125.438975 175.569853 
L 125.636203 175.494336 
L 125.747807 175.343302 
L 125.858597 175.267785 
L 125.969794 175.192269 
L 125.988861 175.192269 
L 126.100058 175.041235 
L 126.26117 174.965718 
L 126.372766 174.814684 
L 126.417406 174.739167 
L 126.52901 174.588133 
L 126.625593 174.512616 
L 126.737197 174.361582 
L 126.87233 174.286065 
L 126.98474 173.983998 
L 127.08133 173.908481 
L 127.192519 173.832964 
L 127.334149 173.757447 
L 127.445753 173.606413 
L 127.585762 173.530896 
L 127.697358 173.304345 
L 127.814645 173.228828 
L 127.926241 173.077794 
L 127.956275 173.002277 
L 128.068277 172.775727 
L 128.143757 172.70021 
L 128.255361 172.549176 
L 128.323538 172.549176 
L 128.434735 172.398142 
L 128.633177 172.322625 
L 128.74478 172.171591 
L 128.896962 172.096074 
L 129.008557 171.94504 
L 129.105547 171.869524 
L 129.217965 171.567456 
L 129.478901 171.491939 
L 129.591311 171.189871 
L 129.627842 171.114354 
L 129.73903 171.038837 
L 129.969541 170.96332 
L 130.081137 170.812286 
L 130.155404 170.73677 
L 130.266601 170.585736 
L 130.489393 170.510219 
L 130.600582 170.434702 
L 131.163861 170.359185 
L 131.276271 170.057117 
L 131.552227 169.9816 
L 131.663831 169.755049 
L 131.786385 169.679533 
L 131.898396 169.452982 
L 132.050985 169.377465 
L 132.16258 169.226431 
L 132.343574 169.150914 
L 132.455178 168.99988 
L 132.766844 168.924363 
L 132.878855 168.697812 
L 132.923894 168.622295 
L 133.035904 168.395745 
L 133.571584 168.320228 
L 133.683994 168.01816 
L 133.811017 167.942643 
L 133.922613 167.791609 
L 133.94453 167.716092 
L 134.056134 167.565058 
L 134.145813 167.489542 
L 134.257824 167.262991 
L 134.457079 167.187474 
L 134.568683 167.03644 
L 134.731416 166.960923 
L 134.843012 166.809889 
L 134.9956 166.734372 
L 135.107611 166.507821 
L 135.192828 166.432304 
L 135.305645 166.05472 
L 135.533713 165.979203 
L 135.64491 165.828169 
L 135.978899 165.752652 
L 136.091309 165.450584 
L 136.262973 165.375067 
L 136.37417 165.29955 
L 136.463849 165.224034 
L 136.575046 165.148517 
L 136.677311 165.073 
L 136.788508 164.997483 
L 136.950019 164.921966 
L 137.061623 164.770932 
L 137.229632 164.695415 
L 137.341235 164.544381 
L 137.518574 164.468864 
L 137.630178 164.31783 
L 137.669542 164.242313 
L 137.781545 164.015763 
L 138.462102 163.940246 
L 138.573706 163.789212 
L 138.762003 163.713695 
L 138.874006 163.487144 
L 139.040801 163.411627 
L 139.152397 163.260593 
L 139.382908 163.185076 
L 139.496132 162.731975 
L 139.845541 162.731975 
L 139.95673 162.580941 
L 140.266775 162.505424 
L 140.377972 162.429907 
L 140.723734 162.35439 
L 140.834923 162.278873 
L 140.882811 162.203356 
L 140.995221 161.901289 
L 140.996035 161.901289 
L 141.107631 161.674738 
L 141.354775 161.599221 
L 141.465971 161.523704 
L 141.534556 161.448187 
L 141.645752 161.297153 
L 141.778044 161.221636 
L 141.890462 160.919568 
L 142.062525 160.844052 
L 142.174935 160.541984 
L 142.367294 160.466467 
L 142.478898 160.315433 
L 142.671657 160.239916 
L 142.785288 159.711298 
L 143.030811 159.635781 
L 143.142 159.560264 
L 143.26659 159.484747 
L 143.378194 159.333713 
L 143.498721 159.258196 
L 143.610316 158.956128 
L 143.718672 158.880611 
L 143.829869 158.805094 
L 143.939437 158.729577 
L 144.05144 158.503027 
L 144.171568 158.42751 
L 144.283164 158.276476 
L 144.66991 158.200959 
L 144.781514 158.049925 
L 144.869573 157.974408 
L 144.981576 157.747857 
L 145.092772 157.747857 
L 145.204376 157.521307 
L 145.223045 157.44579 
L 145.33464 157.294756 
L 145.427169 157.219239 
L 145.538366 157.143722 
L 145.746137 157.068205 
L 145.857741 156.841654 
L 146.066335 156.766137 
L 146.178338 156.539586 
L 146.421826 156.46407 
L 146.53343 156.162002 
L 146.675874 156.086485 
L 146.787469 155.935451 
L 146.955885 155.859934 
L 147.067082 155.784417 
L 147.137286 155.7089 
L 147.248483 155.633383 
L 147.828802 155.557866 
L 147.939999 155.482349 
L 148.065394 155.406832 
L 148.176998 155.255799 
L 148.463905 155.180282 
L 148.575102 155.104765 
L 148.685078 155.029248 
L 148.796274 154.953731 
L 148.88474 154.878214 
L 148.99715 154.576146 
L 149.032867 154.500629 
L 149.144463 154.349595 
L 149.230095 154.274079 
L 149.341292 154.198562 
L 149.436653 154.123045 
L 149.548664 153.896494 
L 150.272233 153.820977 
L 150.383837 153.669943 
L 150.797361 153.594426 
L 150.908558 153.443392 
L 151.032333 153.367875 
L 151.144743 153.065808 
L 151.182894 152.990291 
L 151.294897 152.76374 
L 151.569234 152.688223 
L 151.680423 152.612706 
L 152.076507 152.537189 
L 152.187696 152.461672 
L 152.566325 152.386155 
L 152.677522 152.310638 
L 152.912901 152.235121 
L 153.02409 152.159604 
L 153.139748 152.084088 
L 153.251352 151.933054 
L 153.518378 151.857537 
L 153.630381 151.630986 
L 153.974522 151.555469 
L 154.086118 151.404435 
L 154.131979 151.328918 
L 154.243168 151.253401 
L 154.573909 151.177884 
L 154.685513 150.951334 
L 154.720823 150.875817 
L 154.832418 150.724783 
L 155.175339 150.649266 
L 155.287342 150.422715 
L 155.557616 150.347198 
L 155.668812 150.271681 
L 156.13997 150.196164 
L 156.251566 150.04513 
L 156.414299 149.969613 
L 156.526309 149.743063 
L 156.722723 149.667546 
L 156.834319 149.516512 
L 157.29574 149.440995 
L 157.407335 149.289961 
L 157.565606 149.214444 
L 157.676803 149.138927 
L 157.759179 149.06341 
L 157.87119 148.836859 
L 158.05137 148.761343 
L 158.162974 148.610309 
L 158.441365 148.534792 
L 158.553368 148.308241 
L 158.701494 148.232724 
L 158.813904 147.930656 
L 159.091082 147.855139 
L 159.202271 147.779622 
L 159.467277 147.704105 
L 159.578466 147.628589 
L 159.904338 147.553072 
L 160.015942 147.402038 
L 160.289871 147.326521 
L 160.401467 147.175487 
L 160.506167 147.09997 
L 160.617771 146.948936 
L 161.046316 146.873419 
L 161.158319 146.646868 
L 161.634752 146.571352 
L 161.746348 146.420318 
L 161.849428 146.344801 
L 161.961031 146.193767 
L 162.607093 146.11825 
L 162.71829 146.042733 
L 162.934179 145.967216 
L 163.045783 145.816182 
L 163.316871 145.740665 
L 163.428059 145.665148 
L 163.953195 145.589631 
L 164.064384 145.514114 
L 164.150016 145.438598 
L 164.261205 145.363081 
L 164.430027 145.287564 
L 164.541224 145.212047 
L 164.66662 145.13653 
L 164.777817 145.061013 
L 164.848835 144.985496 
L 164.960032 144.909979 
L 164.974231 144.909979 
L 165.085428 144.758945 
L 165.259526 144.683428 
L 165.371122 144.532394 
L 165.499766 144.456877 
L 165.610962 144.381361 
L 165.851609 144.305844 
L 165.96362 144.079293 
L 166.431928 144.079293 
L 166.543939 143.701708 
L 166.66528 143.626191 
L 166.776876 143.324123 
L 166.897403 143.324123 
L 167.009007 143.097573 
L 167.290647 143.022056 
L 167.402649 142.795505 
L 167.546307 142.719988 
L 167.65791 142.568954 
L 167.787776 142.493437 
L 167.899371 142.342403 
L 168.289366 142.266886 
L 168.402183 141.889302 
L 168.581956 141.813785 
L 168.69356 141.662751 
L 168.837624 141.587234 
L 168.948821 141.511717 
L 169.397247 141.4362 
L 169.508444 141.360683 
L 169.862315 141.285166 
L 169.973512 141.209649 
L 170.085922 141.209649 
L 170.197119 141.058616 
L 170.28153 141.058616 
L 170.392719 140.907582 
L 170.670304 140.832065 
L 170.782306 140.605514 
L 170.945853 140.529997 
L 171.05705 140.45448 
L 171.132123 140.378963 
L 171.243727 140.227929 
L 171.598005 140.152412 
L 171.709601 140.001378 
L 171.875175 139.925862 
L 171.987992 139.548277 
L 172.439268 139.47276 
L 172.550863 139.321726 
L 173.119418 139.246209 
L 173.231014 139.095175 
L 173.49926 139.019658 
L 173.610864 138.868625 
L 173.84096 138.793108 
L 173.952157 138.717591 
L 174.54871 138.642074 
L 174.659907 138.566557 
L 174.846176 138.49104 
L 174.957365 138.415523 
L 175.549864 138.340006 
L 175.661061 138.264489 
L 175.941072 138.188972 
L 176.052269 138.113455 
L 176.253144 138.037938 
L 176.364341 137.962421 
L 176.523426 137.886904 
L 176.634615 137.811387 
L 176.68129 137.735871 
L 176.793293 137.50932 
L 176.944253 137.433803 
L 177.056264 137.207252 
L 177.26485 137.131735 
L 177.376861 136.905184 
L 177.758738 136.829667 
L 177.871954 136.376566 
L 178.413316 136.301049 
L 178.52492 136.074498 
L 178.779774 135.998981 
L 178.890971 135.923464 
L 179.458711 135.847947 
L 179.5699 135.77243 
L 180.032533 135.696913 
L 180.144544 135.470363 
L 180.349075 135.394846 
L 180.460272 135.319329 
L 180.838902 135.243812 
L 180.95009 135.168295 
L 181.227675 135.092778 
L 181.339678 134.866227 
L 181.663523 134.79071 
L 181.774712 134.639676 
L 181.781209 134.639676 
L 181.892805 134.413126 
L 181.905391 134.413126 
L 182.016987 134.186575 
L 182.174444 134.111058 
L 182.285641 134.035541 
L 182.562412 133.960024 
L 182.6736 133.884507 
L 183.41666 133.80899 
L 183.527849 133.733473 
L 184.478688 133.657956 
L 184.591505 133.280372 
L 185.261918 133.204855 
L 185.373921 132.978304 
L 185.669352 132.902787 
L 185.780956 132.751753 
L 186.138483 132.676236 
L 186.250486 132.449685 
L 186.517519 132.374168 
L 186.628708 132.298651 
L 187.091748 132.223135 
L 187.202945 132.147618 
L 187.362836 132.072101 
L 187.474033 131.921067 
L 187.810864 131.84555 
L 187.922053 131.770033 
L 188.099399 131.694516 
L 188.212216 131.316931 
L 188.572991 131.241414 
L 188.684587 131.014864 
L 188.942282 130.939347 
L 189.053886 130.788313 
L 189.509208 130.712796 
L 189.620405 130.637279 
L 190.287977 130.561762 
L 190.400794 130.184177 
L 190.481957 130.10866 
L 190.593153 130.033144 
L 191.266408 129.957627 
L 191.378411 129.580042 
L 191.763936 129.504525 
L 191.875947 129.277974 
L 192.142166 129.202457 
L 192.253355 129.12694 
L 192.340608 129.051423 
L 192.452211 128.90039 
L 192.912004 128.824873 
L 193.023192 128.749356 
L 193.174567 128.673839 
L 193.285756 128.598322 
L 193.433069 128.598322 
L 193.544266 128.447288 
L 193.732563 128.371771 
L 193.844166 128.220737 
L 193.9789 128.14522 
L 194.090089 128.069703 
L 194.200879 128.069703 
L 194.312483 127.767636 
L 194.482925 127.692119 
L 194.594122 127.616602 
L 195.152524 127.541085 
L 195.263721 127.390051 
L 195.346504 127.314534 
L 195.457701 127.239017 
L 195.731223 127.1635 
L 195.842819 127.012466 
L 196.057502 126.936949 
L 196.168691 126.861432 
L 196.172754 126.861432 
L 196.28435 126.634882 
L 196.752259 126.559365 
L 196.863456 126.483848 
L 197.055815 126.408331 
L 197.167818 126.18178 
L 197.3058 126.106263 
L 197.416989 126.030746 
L 197.540365 125.955229 
L 197.651554 125.804195 
L 197.832955 125.728678 
L 197.944152 125.653162 
L 198.108505 125.577645 
L 198.219702 125.502128 
L 198.675032 125.426611 
L 198.786221 125.351094 
L 199.453394 125.275577 
L 199.564582 125.20006 
L 199.852719 125.124543 
L 199.964315 124.973509 
L 200.698036 124.897992 
L 200.809233 124.822475 
L 200.93138 124.746958 
L 201.042577 124.671441 
L 201.410655 124.595924 
L 201.521851 124.520408 
L 202.076598 124.444891 
L 202.187795 124.293857 
L 202.40694 124.21834 
L 202.518129 124.142823 
L 202.825341 124.067306 
L 202.936529 123.991789 
L 203.070449 123.991789 
L 203.181646 123.840755 
L 203.343565 123.765238 
L 203.454761 123.689721 
L 203.943366 123.614204 
L 204.05497 123.463171 
L 204.795994 123.387654 
L 204.907183 123.312137 
L 205.637257 123.23662 
L 205.748853 123.085586 
L 206.095421 123.085586 
L 206.206618 122.934552 
L 206.261809 122.859035 
L 206.373812 122.632484 
L 206.533703 122.556967 
L 206.6449 122.48145 
L 207.090493 122.405933 
L 207.202496 122.179383 
L 207.344126 122.103866 
L 207.45573 121.952832 
L 207.602228 121.877315 
L 207.714231 121.650764 
L 208.508827 121.575247 
L 208.620024 121.49973 
L 209.14393 121.49973 
L 209.255127 121.348696 
L 209.942181 121.27318 
L 210.054184 121.046629 
L 210.375188 120.971112 
L 210.486377 120.895595 
L 210.826863 120.820078 
L 210.938459 120.669044 
L 211.132853 120.593527 
L 211.244042 120.442493 
L 212.278479 120.366976 
L 212.390074 120.215942 
L 213.059266 120.140426 
L 213.170463 120.064909 
L 213.566141 119.989392 
L 213.677737 119.838358 
L 213.796236 119.838358 
L 213.907433 119.687324 
L 214.266987 119.687324 
L 214.378184 119.53629 
L 214.719476 119.460773 
L 214.830665 119.385256 
L 215.657322 119.309739 
L 215.768518 119.234222 
L 215.826551 119.234222 
L 215.938147 119.007672 
L 216.180829 118.932155 
L 216.292425 118.781121 
L 217.057394 118.705604 
L 217.16859 118.55457 
L 217.918546 118.479053 
L 218.030142 118.328019 
L 218.347083 118.252502 
L 218.458687 118.101468 
L 219.416015 118.025951 
L 219.527611 117.874918 
L 219.868504 117.799401 
L 219.979693 117.723884 
L 220.485753 117.648367 
L 220.596942 117.57285 
L 221.418323 117.497333 
L 221.529919 117.346299 
L 221.727961 117.270782 
L 221.839158 117.195265 
L 222.106997 117.119748 
L 222.218593 116.968714 
L 223.123164 116.893197 
L 223.234768 116.666647 
L 223.448223 116.59113 
L 223.559826 116.440096 
L 223.679539 116.364579 
L 223.791143 116.213545 
L 224.500513 116.138028 
L 224.61171 115.986994 
L 225.208263 115.911477 
L 225.319452 115.83596 
L 225.422532 115.760444 
L 225.533729 115.684927 
L 226.119323 115.60941 
L 226.23052 115.533893 
L 226.439513 115.458376 
L 226.551524 115.080791 
L 227.013343 115.005274 
L 227.12454 114.929757 
L 227.998263 114.85424 
L 228.111487 114.401139 
L 228.878076 114.325622 
L 228.989273 114.250105 
L 229.520897 114.174588 
L 229.632086 114.099071 
L 229.733546 114.023554 
L 229.844742 113.948037 
L 230.442102 113.87252 
L 230.553299 113.797003 
L 230.560195 113.797003 
L 230.671391 113.645969 
L 231.3487 113.570453 
L 231.459897 113.419419 
L 231.648601 113.343902 
L 231.759798 113.268385 
L 232.192804 113.192868 
L 232.304408 113.041834 
L 232.498795 112.966317 
L 232.610391 112.815283 
L 233.179352 112.739766 
L 233.290948 112.588732 
L 233.408235 112.513215 
L 233.521858 111.984597 
L 233.805932 111.90908 
L 233.917128 111.833563 
L 234.230422 111.758046 
L 234.342425 111.531495 
L 234.5847 111.455978 
L 234.695897 111.380461 
L 235.240499 111.304945 
L 235.35251 111.078394 
L 235.809054 111.002877 
L 235.920251 110.92736 
L 236.580112 110.851843 
L 236.691708 110.700809 
L 237.29922 110.625292 
L 237.410417 110.549775 
L 238.654652 110.474258 
L 238.766256 110.323224 
L 239.590063 110.247708 
L 239.701667 110.096674 
L 239.922839 110.021157 
L 240.034435 109.870123 
L 240.440664 109.794606 
L 240.551853 109.719089 
L 241.013273 109.643572 
L 241.12447 109.568055 
L 241.75227 109.492538 
L 241.863459 109.417021 
L 242.381284 109.341504 
L 242.492888 109.19047 
L 242.936853 109.114954 
L 243.04805 109.039437 
L 244.103174 108.96392 
L 244.214371 108.888403 
L 244.663611 108.812886 
L 244.774808 108.737369 
L 245.041834 108.661852 
L 245.15303 108.586335 
L 245.71955 108.510818 
L 245.830746 108.435301 
L 246.969875 108.359784 
L 247.081479 108.20875 
L 247.141538 108.133233 
L 247.252735 108.057717 
L 248.044481 107.9822 
L 248.155678 107.906683 
L 248.564741 107.831166 
L 248.676344 107.680132 
L 248.846787 107.604615 
L 248.957984 107.529098 
L 249.120716 107.453581 
L 249.232312 107.302547 
L 249.611349 107.22703 
L 249.722545 107.075996 
L 250.025288 107.000479 
L 250.136883 106.849446 
L 250.306927 106.773929 
L 250.41893 106.547378 
L 250.601544 106.471861 
L 250.712741 106.396344 
L 251.280074 106.320827 
L 251.391271 106.169793 
L 251.476496 106.094276 
L 251.588092 105.943242 
L 251.788162 105.867726 
L 251.899359 105.792209 
L 251.959419 105.716692 
L 252.070607 105.565658 
L 252.558813 105.490141 
L 252.670002 105.414624 
L 252.856679 105.339107 
L 252.967876 105.26359 
L 253.30552 105.188073 
L 253.417523 104.961522 
L 254.095239 104.886005 
L 254.206436 104.810488 
L 255.025375 104.734972 
L 255.136572 104.659455 
L 256.485108 104.583938 
L 256.596297 104.508421 
L 256.807732 104.432904 
L 256.918928 104.357387 
L 257.380341 104.28187 
L 257.491538 104.130836 
L 258.927318 104.055319 
L 259.038515 103.979802 
L 259.207338 103.979802 
L 259.318534 103.828768 
L 260.199967 103.753251 
L 260.311164 103.677734 
L 261.15811 103.602218 
L 261.269706 103.451184 
L 262.290749 103.375667 
L 262.401938 103.30015 
L 263.053683 103.224633 
L 263.164879 103.149116 
L 263.200995 103.073599 
L 263.312599 102.922565 
L 263.510234 102.847048 
L 263.621423 102.771531 
L 264.58971 102.696014 
L 264.702527 102.31843 
L 265.198842 102.242913 
L 265.310445 102.091879 
L 265.676488 102.016362 
L 265.787685 101.940845 
L 267.775794 101.865328 
L 267.886983 101.789811 
L 268.610153 101.714294 
L 268.72135 101.638777 
L 268.875558 101.56326 
L 268.986755 101.487743 
L 269.398659 101.412227 
L 269.509855 101.33671 
L 270.440398 101.261193 
L 270.551587 101.110159 
L 270.741105 101.034642 
L 270.852709 100.808091 
L 271.112838 100.732574 
L 271.224027 100.657057 
L 272.030802 100.58154 
L 272.141991 100.506023 
L 272.880988 100.430506 
L 272.992185 100.35499 
L 273.404903 100.279473 
L 273.516092 100.203956 
L 273.865102 100.128439 
L 273.976698 99.977405 
L 275.78584 99.901888 
L 275.897029 99.826371 
L 276.601938 99.750854 
L 276.713134 99.675337 
L 277.023587 99.675337 
L 277.134775 99.524303 
L 277.166031 99.448786 
L 277.277626 99.297752 
L 277.60796 99.222236 
L 277.719157 99.146719 
L 278.253216 99.071202 
L 278.364413 98.995685 
L 279.083927 98.920168 
L 279.19593 98.693617 
L 280.346831 98.6181 
L 280.458435 98.467066 
L 280.898337 98.467066 
L 281.009534 98.316032 
L 281.664527 98.240515 
L 281.775724 98.164999 
L 282.864123 98.089482 
L 282.975319 98.013965 
L 283.569031 97.938448 
L 283.680228 97.862931 
L 284.137586 97.787414 
L 284.248775 97.711897 
L 284.566538 97.63638 
L 284.677727 97.560863 
L 285.372084 97.485346 
L 285.483281 97.409829 
L 285.740162 97.334312 
L 285.851358 97.258795 
L 285.865557 97.258795 
L 285.976754 97.107761 
L 286.42356 97.032245 
L 286.534757 96.956728 
L 286.657719 96.956728 
L 286.768915 96.805694 
L 287.468947 96.730177 
L 287.580144 96.579143 
L 288.171422 96.503626 
L 288.282618 96.428109 
L 288.506225 96.352592 
L 288.617821 96.201558 
L 289.347081 96.126041 
L 289.45827 96.050524 
L 289.937951 95.975007 
L 290.04914 95.899491 
L 290.27234 95.823974 
L 290.383537 95.748457 
L 290.577923 95.67294 
L 290.68912 95.597423 
L 290.963856 95.521906 
L 291.075052 95.446389 
L 291.794974 95.370872 
L 291.906578 95.219838 
L 292.076614 95.144321 
L 292.18781 95.068804 
L 293.13418 94.993287 
L 293.245369 94.91777 
L 293.433674 94.842254 
L 293.545677 94.615703 
L 294.23151 94.540186 
L 294.342707 94.464669 
L 294.841456 94.389152 
L 294.952653 94.238118 
L 295.345481 94.162601 
L 295.456678 94.087084 
L 295.879133 94.011567 
L 295.99033 93.93605 
L 296.945622 93.860533 
L 297.056819 93.785016 
L 297.32588 93.7095 
L 297.437069 93.633983 
L 298.831466 93.558466 
L 298.942655 93.482949 
L 299.867922 93.407432 
L 299.979118 93.256398 
L 300.706343 93.180881 
L 300.81754 93.105364 
L 301.134082 93.029847 
L 301.246492 92.727779 
L 301.726573 92.652263 
L 301.837769 92.576746 
L 302.194482 92.501229 
L 302.306086 92.350195 
L 303.237434 92.274678 
L 303.348631 92.199161 
L 304.385901 92.123644 
L 304.497098 92.048127 
L 304.557565 91.97261 
L 304.668762 91.821576 
L 305.26328 91.746059 
L 305.374883 91.595025 
L 305.714963 91.595025 
L 305.826151 91.443992 
L 306.75426 91.368475 
L 306.865456 91.292958 
L 307.428328 91.217441 
L 307.539924 91.066407 
L 309.034959 90.99089 
L 309.146562 90.839856 
L 309.225291 90.764339 
L 309.33648 90.688822 
L 309.94562 90.613305 
L 310.056808 90.537788 
L 310.359551 90.462272 
L 310.471561 90.235721 
L 310.588433 90.160204 
L 310.700037 90.00917 
L 311.376532 89.933653 
L 311.488136 89.782619 
L 311.794525 89.707102 
L 311.905722 89.631585 
L 312.465752 89.556068 
L 312.576941 89.480551 
L 313.144682 89.405034 
L 313.255878 89.329518 
L 316.338883 89.254001 
L 316.45008 89.178484 
L 317.338417 89.102967 
L 317.449606 89.02745 
L 317.724756 88.951933 
L 317.835945 88.876416 
L 318.309537 88.800899 
L 318.420734 88.725382 
L 318.579811 88.649865 
L 318.691008 88.574348 
L 318.932062 88.498831 
L 319.043258 88.423314 
L 319.616274 88.347797 
L 319.727471 88.27228 
L 320.41087 88.196764 
L 320.522059 88.121247 
L 320.938839 88.04573 
L 321.050028 87.970213 
L 321.208706 87.970213 
L 321.319903 87.819179 
L 321.720441 87.743662 
L 321.831638 87.592628 
L 321.959069 87.517111 
L 322.070665 87.366077 
L 323.003234 87.29056 
L 323.114431 87.215043 
L 323.600195 87.139527 
L 323.711392 87.06401 
L 323.827856 86.988493 
L 323.93946 86.837459 
L 324.258029 86.761942 
L 324.369218 86.686425 
L 324.55793 86.686425 
L 324.669119 86.535391 
L 325.659721 86.459874 
L 325.771732 86.233323 
L 325.91661 86.157806 
L 326.028206 86.006773 
L 326.498957 85.931256 
L 326.610154 85.855739 
L 326.862166 85.780222 
L 326.973363 85.704705 
L 327.108903 85.629188 
L 327.2201 85.553671 
L 328.562139 85.478154 
L 328.673336 85.402637 
L 329.768638 85.32712 
L 329.879835 85.251603 
L 330.027547 85.251603 
L 330.138743 85.100569 
L 331.239322 85.025052 
L 331.350518 84.949536 
L 331.918666 84.874019 
L 332.030262 84.722985 
L 332.944171 84.647468 
L 333.05536 84.571951 
L 333.206328 84.496434 
L 333.317525 84.420917 
L 333.866597 84.3454 
L 333.977786 84.269883 
L 334.225336 84.194366 
L 334.33694 84.043332 
L 335.241503 83.967815 
L 335.353107 83.816782 
L 336.068567 83.816782 
L 336.179756 83.665748 
L 336.937829 83.590231 
L 337.049433 83.439197 
L 337.420751 83.36368 
L 337.531948 83.288163 
L 337.682916 83.212646 
L 337.794105 83.137129 
L 338.097661 83.061612 
L 338.20885 82.986095 
L 338.38701 82.910578 
L 338.498199 82.835061 
L 339.369903 82.759545 
L 339.481092 82.684028 
L 341.154287 82.608511 
L 341.265476 82.532994 
L 341.319861 82.532994 
L 341.43105 82.38196 
L 342.11729 82.306443 
L 342.228487 82.230926 
L 343.107086 82.155409 
L 343.219089 81.928858 
L 344.295723 81.853341 
L 344.40692 81.777824 
L 344.930428 81.702307 
L 345.042024 81.551274 
L 346.656372 81.475757 
L 346.767569 81.40024 
L 347.462732 81.324723 
L 347.573929 81.249206 
L 347.74153 81.173689 
L 347.853134 81.022655 
L 348.842515 80.947138 
L 348.953712 80.871621 
L 349.907792 80.796104 
L 350.018989 80.720587 
L 350.488111 80.64507 
L 350.599308 80.494037 
L 351.468162 80.41852 
L 351.579359 80.343003 
L 352.55779 80.343003 
L 352.668979 80.191969 
L 353.439223 80.116452 
L 353.55042 80.040935 
L 353.816639 79.965418 
L 353.927828 79.889901 
L 354.804401 79.814384 
L 354.915996 79.66335 
L 355.115252 79.587833 
L 355.226856 79.4368 
L 355.48333 79.361283 
L 355.594527 79.285766 
L 357.42193 79.210249 
L 357.533119 79.134732 
L 358.066372 79.059215 
L 358.177561 78.983698 
L 358.998128 78.908181 
L 359.109732 78.757147 
L 359.558972 78.68163 
L 359.671382 78.379562 
L 360.710272 78.304046 
L 360.821876 78.153012 
L 360.971216 78.077495 
L 361.082413 78.001978 
L 361.348632 77.926461 
L 361.459821 77.850944 
L 362.368854 77.775427 
L 362.481271 77.473359 
L 363.672343 77.397842 
L 363.783947 77.246809 
L 364.178403 77.171292 
L 364.2896 77.095775 
L 365.009114 77.095775 
L 365.12071 76.869224 
L 366.099548 76.793707 
L 366.210745 76.71819 
L 366.282162 76.71819 
L 366.393359 76.567156 
L 367.444022 76.491639 
L 367.555219 76.416122 
L 368.645245 76.340605 
L 368.756442 76.265088 
L 368.978421 76.189571 
L 369.089617 76.114055 
L 369.753534 76.038538 
L 369.86473 75.963021 
L 371.349621 75.887504 
L 371.461632 75.660953 
L 372.126362 75.585436 
L 372.237551 75.509919 
L 372.481047 75.434402 
L 372.592236 75.358885 
L 373.38399 75.283368 
L 373.495187 75.132334 
L 375.261716 75.056818 
L 375.372905 74.981301 
L 375.796174 74.905784 
L 375.907371 74.830267 
L 376.818838 74.75475 
L 376.930035 74.679233 
L 377.674707 74.603716 
L 377.786718 74.377165 
L 378.234737 74.301648 
L 378.345934 74.226131 
L 378.523281 74.150614 
L 378.63447 74.075097 
L 378.979417 74.075097 
L 379.091021 73.848547 
L 382.06567 73.77303 
L 382.176859 73.697513 
L 383.443826 73.621996 
L 383.555429 73.470962 
L 384.995273 73.395445 
L 385.107276 73.168894 
L 385.248099 73.093377 
L 385.359695 72.942343 
L 385.80975 72.866826 
L 385.920947 72.79131 
L 386.166055 72.715793 
L 386.277252 72.640276 
L 386.394531 72.564759 
L 386.505727 72.489242 
L 387.790141 72.413725 
L 387.901338 72.262691 
L 388.30878 72.187174 
L 388.419977 72.111657 
L 389.128533 72.03614 
L 389.23973 71.960623 
L 389.97223 71.885106 
L 390.083834 71.734073 
L 390.951068 71.658556 
L 391.062664 71.432005 
L 392.687564 71.356488 
L 392.79876 71.280971 
L 393.471608 71.205454 
L 393.583204 71.05442 
L 393.93302 70.978903 
L 394.044217 70.903386 
L 394.613985 70.827869 
L 394.725181 70.752352 
L 395.204041 70.676835 
L 395.315238 70.601319 
L 395.913818 70.525802 
L 396.025015 70.450285 
L 396.4844 70.374768 
L 396.595597 70.299251 
L 397.121946 70.223734 
L 397.233135 70.148217 
L 398.259454 70.0727 
L 398.37105 69.921666 
L 398.999257 69.846149 
L 399.110454 69.770632 
L 401.921964 69.695115 
L 402.03316 69.619598 
L 403.723396 69.544082 
L 403.834992 69.393048 
L 405.30771 69.317531 
L 405.419306 69.166497 
L 406.488238 69.09098 
L 406.599427 69.015463 
L 407.433387 68.939946 
L 407.544584 68.864429 
L 407.991797 68.788912 
L 408.103393 68.637878 
L 411.046388 68.562361 
L 411.157585 68.486844 
L 411.728166 68.411328 
L 411.839363 68.335811 
L 412.722824 68.260294 
L 412.834427 68.10926 
L 415.379318 68.033743 
L 415.490507 67.958226 
L 416.12399 67.882709 
L 416.235187 67.807192 
L 416.845133 67.807192 
L 416.95633 67.656158 
L 417.558965 67.580641 
L 417.670162 67.505124 
L 419.325902 67.429607 
L 419.437099 67.354091 
L 420.028376 67.278574 
L 420.139565 67.12754 
L 421.653675 67.052023 
L 421.765686 66.825472 
L 422.576915 66.749955 
L 422.688112 66.674438 
L 423.709554 66.598921 
L 423.820751 66.523404 
L 426.719106 66.447887 
L 426.830295 66.37237 
L 428.156108 66.296853 
L 428.267305 66.221337 
L 429.739209 66.14582 
L 429.850398 66.070303 
L 430.092673 66.070303 
L 430.20387 65.919269 
L 431.005362 65.843752 
L 431.116558 65.768235 
L 432.825047 65.692718 
L 432.936244 65.617201 
L 433.569727 65.541684 
L 433.680924 65.466167 
L 434.600915 65.39065 
L 434.712104 65.315133 
L 435.699873 65.239616 
L 435.811062 65.164099 
L 437.490746 65.088583 
L 437.601943 65.013066 
L 438.135188 64.937549 
L 438.246385 64.862032 
L 439.135528 64.786515 
L 439.246724 64.710998 
L 439.613581 64.635481 
L 439.725185 64.484447 
L 441.091169 64.40893 
L 441.202772 64.106862 
L 443.882796 64.031346 
L 443.993993 63.955829 
L 444.652634 63.880312 
L 444.76383 63.804795 
L 444.861626 63.729278 
L 444.972823 63.653761 
L 445.133529 63.578244 
L 445.244725 63.42721 
L 445.682194 63.351693 
L 445.79339 63.276176 
L 446.829854 63.200659 
L 446.941043 63.125142 
L 447.241758 63.049625 
L 447.352946 62.974108 
L 449.244473 62.898592 
L 449.355662 62.823075 
L 450.03135 62.747558 
L 450.142547 62.672041 
L 451.254084 62.596524 
L 451.365281 62.521007 
L 451.585232 62.44549 
L 451.696429 62.369973 
L 453.781927 62.294456 
L 453.893123 62.218939 
L 455.436046 62.143422 
L 455.547243 62.067905 
L 455.805337 61.992388 
L 455.916534 61.916871 
L 456.282178 61.841355 
L 456.393375 61.690321 
L 457.528041 61.614804 
L 457.63923 61.539287 
L 457.906671 61.539287 
L 458.018266 61.312736 
L 459.038496 61.237219 
L 459.149693 61.161702 
L 459.65169 61.086185 
L 459.762879 61.010668 
L 462.609291 60.935151 
L 462.720488 60.859634 
L 463.742338 60.784117 
L 463.853535 60.708601 
L 465.047048 60.708601 
L 465.158237 60.557567 
L 466.682899 60.48205 
L 466.794095 60.406533 
L 469.244838 60.331016 
L 469.356027 60.255499 
L 469.846667 60.255499 
L 469.957856 60.104465 
L 471.331956 60.028948 
L 471.443153 59.953431 
L 472.444307 59.877914 
L 472.555504 59.802397 
L 473.372008 59.72688 
L 473.483205 59.651364 
L 473.693012 59.575847 
L 473.804209 59.50033 
L 474.492069 59.424813 
L 474.603266 59.349296 
L 475.885245 59.273779 
L 475.996434 59.198262 
L 477.006519 59.122745 
L 477.118123 58.971711 
L 478.777103 58.896194 
L 478.8883 58.820677 
L 479.553031 58.74516 
L 479.664227 58.669643 
L 480.407686 58.594126 
L 480.51929 58.443093 
L 480.646713 58.443093 
L 480.758317 58.216542 
L 481.439273 58.141025 
L 481.55047 58.065508 
L 481.737554 57.989991 
L 481.84915 57.838957 
L 483.194038 57.76344 
L 483.305227 57.687923 
L 484.465466 57.612406 
L 484.576663 57.536889 
L 485.067702 57.461372 
L 485.178899 57.385856 
L 485.471082 57.310339 
L 485.582279 57.159305 
L 486.395942 57.083788 
L 486.507138 57.008271 
L 487.674274 56.932754 
L 487.78547 56.857237 
L 489.082056 56.78172 
L 489.193252 56.706203 
L 491.176892 56.630686 
L 491.288089 56.479652 
L 492.97589 56.404135 
L 493.087079 56.328619 
L 494.058207 56.328619 
L 494.169403 56.177585 
L 494.772039 56.102068 
L 494.883235 56.026551 
L 496.257336 55.951034 
L 496.368533 55.875517 
L 498.109091 55.8 
L 498.109091 55.8 
" style="fill:none;stroke:#2ca02c;stroke-linecap:square;stroke-width:2;"/>
   </g>
   <g id="patch_3">
    <path d="M 72 320.4 
L 72 43.2 
" style="fill:none;stroke:#000000;stroke-linecap:square;stroke-linejoin:miter;stroke-width:0.8;"/>
   </g>
   <g id="patch_4">
    <path d="M 518.4 320.4 
L 518.4 43.2 
" style="fill:none;stroke:#000000;stroke-linecap:square;stroke-linejoin:miter;stroke-width:0.8;"/>
   </g>
   <g id="patch_5">
    <path d="M 72 320.4 
L 518.4 320.4 
" style="fill:none;stroke:#000000;stroke-linecap:square;stroke-linejoin:miter;stroke-width:0.8;"/>
   </g>
   <g id="patch_6">
    <path d="M 72 43.2 
L 518.4 43.2 
" style="fill:none;stroke:#000000;stroke-linecap:square;stroke-linejoin:miter;stroke-width:0.8;"/>
   </g>
   <g id="text_18">
    <!-- $\delta$ vs Primes Quantity -->
    <g transform="translate(232.74 37.2)scale(0.12 -0.12)">
     <defs>
      <path d="M 2.984375 54.6875 
L 12.5 54.6875 
L 29.59375 8.796875 
L 46.6875 54.6875 
L 56.203125 54.6875 
L 35.6875 0 
L 23.484375 0 
z
" id="DejaVuSans-118"/>
     </defs>
     <use transform="translate(0 0.015625)" xlink:href="#DejaVuSans-Oblique-948"/>
     <use transform="translate(61.181641 0.015625)" xlink:href="#DejaVuSans-32"/>
     <use transform="translate(92.96875 0.015625)" xlink:href="#DejaVuSans-118"/>
     <use transform="translate(152.148438 0.015625)" xlink:href="#DejaVuSans-115"/>
     <use transform="translate(204.248047 0.015625)" xlink:href="#DejaVuSans-32"/>
     <use transform="translate(236.035156 0.015625)" xlink:href="#DejaVuSans-80"/>
     <use transform="translate(296.337891 0.015625)" xlink:href="#DejaVuSans-114"/>
     <use transform="translate(337.451172 0.015625)" xlink:href="#DejaVuSans-105"/>
     <use transform="translate(365.234375 0.015625)" xlink:href="#DejaVuSans-109"/>
     <use transform="translate(462.646484 0.015625)" xlink:href="#DejaVuSans-101"/>
     <use transform="translate(524.169922 0.015625)" xlink:href="#DejaVuSans-115"/>
     <use transform="translate(576.269531 0.015625)" xlink:href="#DejaVuSans-32"/>
     <use transform="translate(608.056641 0.015625)" xlink:href="#DejaVuSans-81"/>
     <use transform="translate(686.767578 0.015625)" xlink:href="#DejaVuSans-117"/>
     <use transform="translate(750.146484 0.015625)" xlink:href="#DejaVuSans-97"/>
     <use transform="translate(811.425781 0.015625)" xlink:href="#DejaVuSans-110"/>
     <use transform="translate(874.804688 0.015625)" xlink:href="#DejaVuSans-116"/>
     <use transform="translate(914.013672 0.015625)" xlink:href="#DejaVuSans-105"/>
     <use transform="translate(941.796875 0.015625)" xlink:href="#DejaVuSans-116"/>
     <use transform="translate(981.005859 0.015625)" xlink:href="#DejaVuSans-121"/>
    </g>
   </g>
   <g id="legend_1">
    <g id="line2d_16">
     <path d="M 81 56.298437 
L 101 56.298437 
" style="fill:none;stroke:#2ca02c;stroke-linecap:square;stroke-width:2;"/>
    </g>
    <g id="line2d_17"/>
    <g id="text_19">
     <!-- $\delta^{1}$ -->
     <g transform="translate(109 59.798437)scale(0.1 -0.1)">
      <use transform="translate(0 0.684375)" xlink:href="#DejaVuSans-Oblique-948"/>
      <use transform="translate(68.382161 38.965625)scale(0.7)" xlink:href="#DejaVuSans-49"/>
     </g>
    </g>
   </g>
  </g>
 </g>
 <defs>
  <clipPath id="pe3c6252c44">
   <rect height="277.2" width="446.4" x="72" y="43.2"/>
  </clipPath>
 </defs>
</svg>
