<?xml version="1.0" encoding="utf-8" standalone="no"?>
<!DOCTYPE svg PUBLIC "-//W3C//DTD SVG 1.1//EN"
  "http://www.w3.org/Graphics/SVG/1.1/DTD/svg11.dtd">
<!-- Created with matplotlib (https://matplotlib.org/) -->
<svg height="360pt" version="1.1" viewBox="0 0 576 360" width="576pt" xmlns="http://www.w3.org/2000/svg" xmlns:xlink="http://www.w3.org/1999/xlink">
 <metadata>
  <rdf:RDF xmlns:cc="http://creativecommons.org/ns#" xmlns:dc="http://purl.org/dc/elements/1.1/" xmlns:rdf="http://www.w3.org/1999/02/22-rdf-syntax-ns#">
   <cc:Work>
    <dc:type rdf:resource="http://purl.org/dc/dcmitype/StillImage"/>
    <dc:date>2021-04-11T20:28:28.607823</dc:date>
    <dc:format>image/svg+xml</dc:format>
    <dc:creator>
     <cc:Agent>
      <dc:title>Matplotlib v3.3.4, https://matplotlib.org/</dc:title>
     </cc:Agent>
    </dc:creator>
   </cc:Work>
  </rdf:RDF>
 </metadata>
 <defs>
  <style type="text/css">*{stroke-linecap:butt;stroke-linejoin:round;}</style>
 </defs>
 <g id="figure_1">
  <g id="patch_1">
   <path d="M 0 360 
L 576 360 
L 576 0 
L 0 0 
z
" style="fill:none;"/>
  </g>
  <g id="axes_1">
   <g id="patch_2">
    <path d="M 72 320.4 
L 518.4 320.4 
L 518.4 43.2 
L 72 43.2 
z
" style="fill:none;"/>
   </g>
   <g id="matplotlib.axis_1">
    <g id="xtick_1">
     <g id="line2d_1">
      <defs>
       <path d="M 0 0 
L 0 3.5 
" id="ma52da78dcd" style="stroke:#000000;stroke-width:0.8;"/>
      </defs>
      <g>
       <use style="stroke:#000000;stroke-width:0.8;" x="92.290909" xlink:href="#ma52da78dcd" y="320.4"/>
      </g>
     </g>
     <g id="text_1">
      <!-- 0 -->
      <g transform="translate(89.109659 334.998438)scale(0.1 -0.1)">
       <defs>
        <path d="M 31.78125 66.40625 
Q 24.171875 66.40625 20.328125 58.90625 
Q 16.5 51.421875 16.5 36.375 
Q 16.5 21.390625 20.328125 13.890625 
Q 24.171875 6.390625 31.78125 6.390625 
Q 39.453125 6.390625 43.28125 13.890625 
Q 47.125 21.390625 47.125 36.375 
Q 47.125 51.421875 43.28125 58.90625 
Q 39.453125 66.40625 31.78125 66.40625 
z
M 31.78125 74.21875 
Q 44.046875 74.21875 50.515625 64.515625 
Q 56.984375 54.828125 56.984375 36.375 
Q 56.984375 17.96875 50.515625 8.265625 
Q 44.046875 -1.421875 31.78125 -1.421875 
Q 19.53125 -1.421875 13.0625 8.265625 
Q 6.59375 17.96875 6.59375 36.375 
Q 6.59375 54.828125 13.0625 64.515625 
Q 19.53125 74.21875 31.78125 74.21875 
z
" id="DejaVuSans-48"/>
       </defs>
       <use xlink:href="#DejaVuSans-48"/>
      </g>
     </g>
    </g>
    <g id="xtick_2">
     <g id="line2d_2">
      <g>
       <use style="stroke:#000000;stroke-width:0.8;" x="172.104839" xlink:href="#ma52da78dcd" y="320.4"/>
      </g>
     </g>
     <g id="text_2">
      <!-- 1 -->
      <g transform="translate(168.923589 334.998438)scale(0.1 -0.1)">
       <defs>
        <path d="M 12.40625 8.296875 
L 28.515625 8.296875 
L 28.515625 63.921875 
L 10.984375 60.40625 
L 10.984375 69.390625 
L 28.421875 72.90625 
L 38.28125 72.90625 
L 38.28125 8.296875 
L 54.390625 8.296875 
L 54.390625 0 
L 12.40625 0 
z
" id="DejaVuSans-49"/>
       </defs>
       <use xlink:href="#DejaVuSans-49"/>
      </g>
     </g>
    </g>
    <g id="xtick_3">
     <g id="line2d_3">
      <g>
       <use style="stroke:#000000;stroke-width:0.8;" x="251.918769" xlink:href="#ma52da78dcd" y="320.4"/>
      </g>
     </g>
     <g id="text_3">
      <!-- 2 -->
      <g transform="translate(248.737519 334.998438)scale(0.1 -0.1)">
       <defs>
        <path d="M 19.1875 8.296875 
L 53.609375 8.296875 
L 53.609375 0 
L 7.328125 0 
L 7.328125 8.296875 
Q 12.9375 14.109375 22.625 23.890625 
Q 32.328125 33.6875 34.8125 36.53125 
Q 39.546875 41.84375 41.421875 45.53125 
Q 43.3125 49.21875 43.3125 52.78125 
Q 43.3125 58.59375 39.234375 62.25 
Q 35.15625 65.921875 28.609375 65.921875 
Q 23.96875 65.921875 18.8125 64.3125 
Q 13.671875 62.703125 7.8125 59.421875 
L 7.8125 69.390625 
Q 13.765625 71.78125 18.9375 73 
Q 24.125 74.21875 28.421875 74.21875 
Q 39.75 74.21875 46.484375 68.546875 
Q 53.21875 62.890625 53.21875 53.421875 
Q 53.21875 48.921875 51.53125 44.890625 
Q 49.859375 40.875 45.40625 35.40625 
Q 44.1875 33.984375 37.640625 27.21875 
Q 31.109375 20.453125 19.1875 8.296875 
z
" id="DejaVuSans-50"/>
       </defs>
       <use xlink:href="#DejaVuSans-50"/>
      </g>
     </g>
    </g>
    <g id="xtick_4">
     <g id="line2d_4">
      <g>
       <use style="stroke:#000000;stroke-width:0.8;" x="331.732699" xlink:href="#ma52da78dcd" y="320.4"/>
      </g>
     </g>
     <g id="text_4">
      <!-- 3 -->
      <g transform="translate(328.551449 334.998438)scale(0.1 -0.1)">
       <defs>
        <path d="M 40.578125 39.3125 
Q 47.65625 37.796875 51.625 33 
Q 55.609375 28.21875 55.609375 21.1875 
Q 55.609375 10.40625 48.1875 4.484375 
Q 40.765625 -1.421875 27.09375 -1.421875 
Q 22.515625 -1.421875 17.65625 -0.515625 
Q 12.796875 0.390625 7.625 2.203125 
L 7.625 11.71875 
Q 11.71875 9.328125 16.59375 8.109375 
Q 21.484375 6.890625 26.8125 6.890625 
Q 36.078125 6.890625 40.9375 10.546875 
Q 45.796875 14.203125 45.796875 21.1875 
Q 45.796875 27.640625 41.28125 31.265625 
Q 36.765625 34.90625 28.71875 34.90625 
L 20.21875 34.90625 
L 20.21875 43.015625 
L 29.109375 43.015625 
Q 36.375 43.015625 40.234375 45.921875 
Q 44.09375 48.828125 44.09375 54.296875 
Q 44.09375 59.90625 40.109375 62.90625 
Q 36.140625 65.921875 28.71875 65.921875 
Q 24.65625 65.921875 20.015625 65.03125 
Q 15.375 64.15625 9.8125 62.3125 
L 9.8125 71.09375 
Q 15.4375 72.65625 20.34375 73.4375 
Q 25.25 74.21875 29.59375 74.21875 
Q 40.828125 74.21875 47.359375 69.109375 
Q 53.90625 64.015625 53.90625 55.328125 
Q 53.90625 49.265625 50.4375 45.09375 
Q 46.96875 40.921875 40.578125 39.3125 
z
" id="DejaVuSans-51"/>
       </defs>
       <use xlink:href="#DejaVuSans-51"/>
      </g>
     </g>
    </g>
    <g id="xtick_5">
     <g id="line2d_5">
      <g>
       <use style="stroke:#000000;stroke-width:0.8;" x="411.54663" xlink:href="#ma52da78dcd" y="320.4"/>
      </g>
     </g>
     <g id="text_5">
      <!-- 4 -->
      <g transform="translate(408.36538 334.998438)scale(0.1 -0.1)">
       <defs>
        <path d="M 37.796875 64.3125 
L 12.890625 25.390625 
L 37.796875 25.390625 
z
M 35.203125 72.90625 
L 47.609375 72.90625 
L 47.609375 25.390625 
L 58.015625 25.390625 
L 58.015625 17.1875 
L 47.609375 17.1875 
L 47.609375 0 
L 37.796875 0 
L 37.796875 17.1875 
L 4.890625 17.1875 
L 4.890625 26.703125 
z
" id="DejaVuSans-52"/>
       </defs>
       <use xlink:href="#DejaVuSans-52"/>
      </g>
     </g>
    </g>
    <g id="xtick_6">
     <g id="line2d_6">
      <g>
       <use style="stroke:#000000;stroke-width:0.8;" x="491.36056" xlink:href="#ma52da78dcd" y="320.4"/>
      </g>
     </g>
     <g id="text_6">
      <!-- 5 -->
      <g transform="translate(488.17931 334.998438)scale(0.1 -0.1)">
       <defs>
        <path d="M 10.796875 72.90625 
L 49.515625 72.90625 
L 49.515625 64.59375 
L 19.828125 64.59375 
L 19.828125 46.734375 
Q 21.96875 47.46875 24.109375 47.828125 
Q 26.265625 48.1875 28.421875 48.1875 
Q 40.625 48.1875 47.75 41.5 
Q 54.890625 34.8125 54.890625 23.390625 
Q 54.890625 11.625 47.5625 5.09375 
Q 40.234375 -1.421875 26.90625 -1.421875 
Q 22.3125 -1.421875 17.546875 -0.640625 
Q 12.796875 0.140625 7.71875 1.703125 
L 7.71875 11.625 
Q 12.109375 9.234375 16.796875 8.0625 
Q 21.484375 6.890625 26.703125 6.890625 
Q 35.15625 6.890625 40.078125 11.328125 
Q 45.015625 15.765625 45.015625 23.390625 
Q 45.015625 31 40.078125 35.4375 
Q 35.15625 39.890625 26.703125 39.890625 
Q 22.75 39.890625 18.8125 39.015625 
Q 14.890625 38.140625 10.796875 36.28125 
z
" id="DejaVuSans-53"/>
       </defs>
       <use xlink:href="#DejaVuSans-53"/>
      </g>
     </g>
    </g>
    <g id="text_7">
     <!-- Primes Quantity -->
     <g transform="translate(255.08125 348.676562)scale(0.1 -0.1)">
      <defs>
       <path d="M 19.671875 64.796875 
L 19.671875 37.40625 
L 32.078125 37.40625 
Q 38.96875 37.40625 42.71875 40.96875 
Q 46.484375 44.53125 46.484375 51.125 
Q 46.484375 57.671875 42.71875 61.234375 
Q 38.96875 64.796875 32.078125 64.796875 
z
M 9.8125 72.90625 
L 32.078125 72.90625 
Q 44.34375 72.90625 50.609375 67.359375 
Q 56.890625 61.8125 56.890625 51.125 
Q 56.890625 40.328125 50.609375 34.8125 
Q 44.34375 29.296875 32.078125 29.296875 
L 19.671875 29.296875 
L 19.671875 0 
L 9.8125 0 
z
" id="DejaVuSans-80"/>
       <path d="M 41.109375 46.296875 
Q 39.59375 47.171875 37.8125 47.578125 
Q 36.03125 48 33.890625 48 
Q 26.265625 48 22.1875 43.046875 
Q 18.109375 38.09375 18.109375 28.8125 
L 18.109375 0 
L 9.078125 0 
L 9.078125 54.6875 
L 18.109375 54.6875 
L 18.109375 46.1875 
Q 20.953125 51.171875 25.484375 53.578125 
Q 30.03125 56 36.53125 56 
Q 37.453125 56 38.578125 55.875 
Q 39.703125 55.765625 41.0625 55.515625 
z
" id="DejaVuSans-114"/>
       <path d="M 9.421875 54.6875 
L 18.40625 54.6875 
L 18.40625 0 
L 9.421875 0 
z
M 9.421875 75.984375 
L 18.40625 75.984375 
L 18.40625 64.59375 
L 9.421875 64.59375 
z
" id="DejaVuSans-105"/>
       <path d="M 52 44.1875 
Q 55.375 50.25 60.0625 53.125 
Q 64.75 56 71.09375 56 
Q 79.640625 56 84.28125 50.015625 
Q 88.921875 44.046875 88.921875 33.015625 
L 88.921875 0 
L 79.890625 0 
L 79.890625 32.71875 
Q 79.890625 40.578125 77.09375 44.375 
Q 74.3125 48.1875 68.609375 48.1875 
Q 61.625 48.1875 57.5625 43.546875 
Q 53.515625 38.921875 53.515625 30.90625 
L 53.515625 0 
L 44.484375 0 
L 44.484375 32.71875 
Q 44.484375 40.625 41.703125 44.40625 
Q 38.921875 48.1875 33.109375 48.1875 
Q 26.21875 48.1875 22.15625 43.53125 
Q 18.109375 38.875 18.109375 30.90625 
L 18.109375 0 
L 9.078125 0 
L 9.078125 54.6875 
L 18.109375 54.6875 
L 18.109375 46.1875 
Q 21.1875 51.21875 25.484375 53.609375 
Q 29.78125 56 35.6875 56 
Q 41.65625 56 45.828125 52.96875 
Q 50 49.953125 52 44.1875 
z
" id="DejaVuSans-109"/>
       <path d="M 56.203125 29.59375 
L 56.203125 25.203125 
L 14.890625 25.203125 
Q 15.484375 15.921875 20.484375 11.0625 
Q 25.484375 6.203125 34.421875 6.203125 
Q 39.59375 6.203125 44.453125 7.46875 
Q 49.3125 8.734375 54.109375 11.28125 
L 54.109375 2.78125 
Q 49.265625 0.734375 44.1875 -0.34375 
Q 39.109375 -1.421875 33.890625 -1.421875 
Q 20.796875 -1.421875 13.15625 6.1875 
Q 5.515625 13.8125 5.515625 26.8125 
Q 5.515625 40.234375 12.765625 48.109375 
Q 20.015625 56 32.328125 56 
Q 43.359375 56 49.78125 48.890625 
Q 56.203125 41.796875 56.203125 29.59375 
z
M 47.21875 32.234375 
Q 47.125 39.59375 43.09375 43.984375 
Q 39.0625 48.390625 32.421875 48.390625 
Q 24.90625 48.390625 20.390625 44.140625 
Q 15.875 39.890625 15.1875 32.171875 
z
" id="DejaVuSans-101"/>
       <path d="M 44.28125 53.078125 
L 44.28125 44.578125 
Q 40.484375 46.53125 36.375 47.5 
Q 32.28125 48.484375 27.875 48.484375 
Q 21.1875 48.484375 17.84375 46.4375 
Q 14.5 44.390625 14.5 40.28125 
Q 14.5 37.15625 16.890625 35.375 
Q 19.28125 33.59375 26.515625 31.984375 
L 29.59375 31.296875 
Q 39.15625 29.25 43.1875 25.515625 
Q 47.21875 21.78125 47.21875 15.09375 
Q 47.21875 7.46875 41.1875 3.015625 
Q 35.15625 -1.421875 24.609375 -1.421875 
Q 20.21875 -1.421875 15.453125 -0.5625 
Q 10.6875 0.296875 5.421875 2 
L 5.421875 11.28125 
Q 10.40625 8.6875 15.234375 7.390625 
Q 20.0625 6.109375 24.8125 6.109375 
Q 31.15625 6.109375 34.5625 8.28125 
Q 37.984375 10.453125 37.984375 14.40625 
Q 37.984375 18.0625 35.515625 20.015625 
Q 33.0625 21.96875 24.703125 23.78125 
L 21.578125 24.515625 
Q 13.234375 26.265625 9.515625 29.90625 
Q 5.8125 33.546875 5.8125 39.890625 
Q 5.8125 47.609375 11.28125 51.796875 
Q 16.75 56 26.8125 56 
Q 31.78125 56 36.171875 55.265625 
Q 40.578125 54.546875 44.28125 53.078125 
z
" id="DejaVuSans-115"/>
       <path id="DejaVuSans-32"/>
       <path d="M 39.40625 66.21875 
Q 28.65625 66.21875 22.328125 58.203125 
Q 16.015625 50.203125 16.015625 36.375 
Q 16.015625 22.609375 22.328125 14.59375 
Q 28.65625 6.59375 39.40625 6.59375 
Q 50.140625 6.59375 56.421875 14.59375 
Q 62.703125 22.609375 62.703125 36.375 
Q 62.703125 50.203125 56.421875 58.203125 
Q 50.140625 66.21875 39.40625 66.21875 
z
M 53.21875 1.3125 
L 66.21875 -12.890625 
L 54.296875 -12.890625 
L 43.5 -1.21875 
Q 41.890625 -1.3125 41.03125 -1.359375 
Q 40.1875 -1.421875 39.40625 -1.421875 
Q 24.03125 -1.421875 14.8125 8.859375 
Q 5.609375 19.140625 5.609375 36.375 
Q 5.609375 53.65625 14.8125 63.9375 
Q 24.03125 74.21875 39.40625 74.21875 
Q 54.734375 74.21875 63.90625 63.9375 
Q 73.09375 53.65625 73.09375 36.375 
Q 73.09375 23.6875 67.984375 14.640625 
Q 62.890625 5.609375 53.21875 1.3125 
z
" id="DejaVuSans-81"/>
       <path d="M 8.5 21.578125 
L 8.5 54.6875 
L 17.484375 54.6875 
L 17.484375 21.921875 
Q 17.484375 14.15625 20.5 10.265625 
Q 23.53125 6.390625 29.59375 6.390625 
Q 36.859375 6.390625 41.078125 11.03125 
Q 45.3125 15.671875 45.3125 23.6875 
L 45.3125 54.6875 
L 54.296875 54.6875 
L 54.296875 0 
L 45.3125 0 
L 45.3125 8.40625 
Q 42.046875 3.421875 37.71875 1 
Q 33.40625 -1.421875 27.6875 -1.421875 
Q 18.265625 -1.421875 13.375 4.4375 
Q 8.5 10.296875 8.5 21.578125 
z
M 31.109375 56 
z
" id="DejaVuSans-117"/>
       <path d="M 34.28125 27.484375 
Q 23.390625 27.484375 19.1875 25 
Q 14.984375 22.515625 14.984375 16.5 
Q 14.984375 11.71875 18.140625 8.90625 
Q 21.296875 6.109375 26.703125 6.109375 
Q 34.1875 6.109375 38.703125 11.40625 
Q 43.21875 16.703125 43.21875 25.484375 
L 43.21875 27.484375 
z
M 52.203125 31.203125 
L 52.203125 0 
L 43.21875 0 
L 43.21875 8.296875 
Q 40.140625 3.328125 35.546875 0.953125 
Q 30.953125 -1.421875 24.3125 -1.421875 
Q 15.921875 -1.421875 10.953125 3.296875 
Q 6 8.015625 6 15.921875 
Q 6 25.140625 12.171875 29.828125 
Q 18.359375 34.515625 30.609375 34.515625 
L 43.21875 34.515625 
L 43.21875 35.40625 
Q 43.21875 41.609375 39.140625 45 
Q 35.0625 48.390625 27.6875 48.390625 
Q 23 48.390625 18.546875 47.265625 
Q 14.109375 46.140625 10.015625 43.890625 
L 10.015625 52.203125 
Q 14.9375 54.109375 19.578125 55.046875 
Q 24.21875 56 28.609375 56 
Q 40.484375 56 46.34375 49.84375 
Q 52.203125 43.703125 52.203125 31.203125 
z
" id="DejaVuSans-97"/>
       <path d="M 54.890625 33.015625 
L 54.890625 0 
L 45.90625 0 
L 45.90625 32.71875 
Q 45.90625 40.484375 42.875 44.328125 
Q 39.84375 48.1875 33.796875 48.1875 
Q 26.515625 48.1875 22.3125 43.546875 
Q 18.109375 38.921875 18.109375 30.90625 
L 18.109375 0 
L 9.078125 0 
L 9.078125 54.6875 
L 18.109375 54.6875 
L 18.109375 46.1875 
Q 21.34375 51.125 25.703125 53.5625 
Q 30.078125 56 35.796875 56 
Q 45.21875 56 50.046875 50.171875 
Q 54.890625 44.34375 54.890625 33.015625 
z
" id="DejaVuSans-110"/>
       <path d="M 18.3125 70.21875 
L 18.3125 54.6875 
L 36.8125 54.6875 
L 36.8125 47.703125 
L 18.3125 47.703125 
L 18.3125 18.015625 
Q 18.3125 11.328125 20.140625 9.421875 
Q 21.96875 7.515625 27.59375 7.515625 
L 36.8125 7.515625 
L 36.8125 0 
L 27.59375 0 
Q 17.1875 0 13.234375 3.875 
Q 9.28125 7.765625 9.28125 18.015625 
L 9.28125 47.703125 
L 2.6875 47.703125 
L 2.6875 54.6875 
L 9.28125 54.6875 
L 9.28125 70.21875 
z
" id="DejaVuSans-116"/>
       <path d="M 32.171875 -5.078125 
Q 28.375 -14.84375 24.75 -17.8125 
Q 21.140625 -20.796875 15.09375 -20.796875 
L 7.90625 -20.796875 
L 7.90625 -13.28125 
L 13.1875 -13.28125 
Q 16.890625 -13.28125 18.9375 -11.515625 
Q 21 -9.765625 23.484375 -3.21875 
L 25.09375 0.875 
L 2.984375 54.6875 
L 12.5 54.6875 
L 29.59375 11.921875 
L 46.6875 54.6875 
L 56.203125 54.6875 
z
" id="DejaVuSans-121"/>
      </defs>
      <use xlink:href="#DejaVuSans-80"/>
      <use x="58.552734" xlink:href="#DejaVuSans-114"/>
      <use x="99.666016" xlink:href="#DejaVuSans-105"/>
      <use x="127.449219" xlink:href="#DejaVuSans-109"/>
      <use x="224.861328" xlink:href="#DejaVuSans-101"/>
      <use x="286.384766" xlink:href="#DejaVuSans-115"/>
      <use x="338.484375" xlink:href="#DejaVuSans-32"/>
      <use x="370.271484" xlink:href="#DejaVuSans-81"/>
      <use x="448.982422" xlink:href="#DejaVuSans-117"/>
      <use x="512.361328" xlink:href="#DejaVuSans-97"/>
      <use x="573.640625" xlink:href="#DejaVuSans-110"/>
      <use x="637.019531" xlink:href="#DejaVuSans-116"/>
      <use x="676.228516" xlink:href="#DejaVuSans-105"/>
      <use x="704.011719" xlink:href="#DejaVuSans-116"/>
      <use x="743.220703" xlink:href="#DejaVuSans-121"/>
     </g>
    </g>
    <g id="text_8">
     <!-- 1e7 -->
     <g transform="translate(499.521875 347.676562)scale(0.1 -0.1)">
      <defs>
       <path d="M 8.203125 72.90625 
L 55.078125 72.90625 
L 55.078125 68.703125 
L 28.609375 0 
L 18.3125 0 
L 43.21875 64.59375 
L 8.203125 64.59375 
z
" id="DejaVuSans-55"/>
      </defs>
      <use xlink:href="#DejaVuSans-49"/>
      <use x="63.623047" xlink:href="#DejaVuSans-101"/>
      <use x="125.146484" xlink:href="#DejaVuSans-55"/>
     </g>
    </g>
   </g>
   <g id="matplotlib.axis_2">
    <g id="ytick_1">
     <g id="line2d_7">
      <defs>
       <path d="M 0 0 
L -3.5 0 
" id="m27adb47762" style="stroke:#000000;stroke-width:0.8;"/>
      </defs>
      <g>
       <use style="stroke:#000000;stroke-width:0.8;" x="72" xlink:href="#m27adb47762" y="307.801046"/>
      </g>
     </g>
     <g id="text_9">
      <!-- 0 -->
      <g transform="translate(58.6375 311.600265)scale(0.1 -0.1)">
       <use xlink:href="#DejaVuSans-48"/>
      </g>
     </g>
    </g>
    <g id="ytick_2">
     <g id="line2d_8">
      <g>
       <use style="stroke:#000000;stroke-width:0.8;" x="72" xlink:href="#m27adb47762" y="255.503481"/>
      </g>
     </g>
     <g id="text_10">
      <!-- 50000 -->
      <g transform="translate(33.1875 259.3027)scale(0.1 -0.1)">
       <use xlink:href="#DejaVuSans-53"/>
       <use x="63.623047" xlink:href="#DejaVuSans-48"/>
       <use x="127.246094" xlink:href="#DejaVuSans-48"/>
       <use x="190.869141" xlink:href="#DejaVuSans-48"/>
       <use x="254.492188" xlink:href="#DejaVuSans-48"/>
      </g>
     </g>
    </g>
    <g id="ytick_3">
     <g id="line2d_9">
      <g>
       <use style="stroke:#000000;stroke-width:0.8;" x="72" xlink:href="#m27adb47762" y="203.205916"/>
      </g>
     </g>
     <g id="text_11">
      <!-- 100000 -->
      <g transform="translate(26.825 207.005135)scale(0.1 -0.1)">
       <use xlink:href="#DejaVuSans-49"/>
       <use x="63.623047" xlink:href="#DejaVuSans-48"/>
       <use x="127.246094" xlink:href="#DejaVuSans-48"/>
       <use x="190.869141" xlink:href="#DejaVuSans-48"/>
       <use x="254.492188" xlink:href="#DejaVuSans-48"/>
       <use x="318.115234" xlink:href="#DejaVuSans-48"/>
      </g>
     </g>
    </g>
    <g id="ytick_4">
     <g id="line2d_10">
      <g>
       <use style="stroke:#000000;stroke-width:0.8;" x="72" xlink:href="#m27adb47762" y="150.908351"/>
      </g>
     </g>
     <g id="text_12">
      <!-- 150000 -->
      <g transform="translate(26.825 154.70757)scale(0.1 -0.1)">
       <use xlink:href="#DejaVuSans-49"/>
       <use x="63.623047" xlink:href="#DejaVuSans-53"/>
       <use x="127.246094" xlink:href="#DejaVuSans-48"/>
       <use x="190.869141" xlink:href="#DejaVuSans-48"/>
       <use x="254.492188" xlink:href="#DejaVuSans-48"/>
       <use x="318.115234" xlink:href="#DejaVuSans-48"/>
      </g>
     </g>
    </g>
    <g id="ytick_5">
     <g id="line2d_11">
      <g>
       <use style="stroke:#000000;stroke-width:0.8;" x="72" xlink:href="#m27adb47762" y="98.610787"/>
      </g>
     </g>
     <g id="text_13">
      <!-- 200000 -->
      <g transform="translate(26.825 102.410005)scale(0.1 -0.1)">
       <use xlink:href="#DejaVuSans-50"/>
       <use x="63.623047" xlink:href="#DejaVuSans-48"/>
       <use x="127.246094" xlink:href="#DejaVuSans-48"/>
       <use x="190.869141" xlink:href="#DejaVuSans-48"/>
       <use x="254.492188" xlink:href="#DejaVuSans-48"/>
       <use x="318.115234" xlink:href="#DejaVuSans-48"/>
      </g>
     </g>
    </g>
    <g id="ytick_6">
     <g id="line2d_12">
      <g>
       <use style="stroke:#000000;stroke-width:0.8;" x="72" xlink:href="#m27adb47762" y="46.313222"/>
      </g>
     </g>
     <g id="text_14">
      <!-- 250000 -->
      <g transform="translate(26.825 50.11244)scale(0.1 -0.1)">
       <use xlink:href="#DejaVuSans-50"/>
       <use x="63.623047" xlink:href="#DejaVuSans-53"/>
       <use x="127.246094" xlink:href="#DejaVuSans-48"/>
       <use x="190.869141" xlink:href="#DejaVuSans-48"/>
       <use x="254.492188" xlink:href="#DejaVuSans-48"/>
       <use x="318.115234" xlink:href="#DejaVuSans-48"/>
      </g>
     </g>
    </g>
    <g id="text_15">
     <!-- $\delta$ Quantity -->
     <g transform="translate(20.725 208.1)rotate(-90)scale(0.1 -0.1)">
      <defs>
       <path d="M 54.25 63.328125 
Q 49.953125 66.75 38.28125 66.75 
Q 25.921875 66.75 24.8125 61.03125 
Q 23.921875 56.546875 36.375 54.203125 
Q 46.140625 52.390625 50.828125 46.921875 
Q 56.5 40.328125 53.859375 26.8125 
Q 51.3125 13.875 43.171875 6.25 
Q 34.96875 -1.421875 23.25 -1.421875 
Q 11.578125 -1.421875 6.34375 6.25 
Q 1.125 13.875 3.765625 27.296875 
Q 5.671875 37.25 13.921875 45.3125 
Q 17.140625 48.4375 21.140625 50.203125 
Q 14.265625 54.046875 15.625 60.9375 
Q 18.21875 74.21875 39.75 74.21875 
Q 50.53125 74.21875 55.71875 70.796875 
z
M 27.390625 47.75 
Q 23.828125 46.34375 20.40625 42.78125 
Q 15.140625 37.25 13.234375 27.296875 
Q 11.28125 17.390625 14.359375 11.8125 
Q 17.484375 6.203125 24.75 6.203125 
Q 31.9375 6.203125 37.203125 11.859375 
Q 42.53125 17.53125 44.34375 26.8125 
Q 46.1875 36.53125 42.671875 41.21875 
Q 38.921875 46.234375 32.859375 46.78125 
Q 29.78125 47.078125 27.390625 47.75 
z
" id="DejaVuSans-Oblique-948"/>
      </defs>
      <use transform="translate(0 0.015625)" xlink:href="#DejaVuSans-Oblique-948"/>
      <use transform="translate(61.181641 0.015625)" xlink:href="#DejaVuSans-32"/>
      <use transform="translate(92.96875 0.015625)" xlink:href="#DejaVuSans-81"/>
      <use transform="translate(171.679688 0.015625)" xlink:href="#DejaVuSans-117"/>
      <use transform="translate(235.058594 0.015625)" xlink:href="#DejaVuSans-97"/>
      <use transform="translate(296.337891 0.015625)" xlink:href="#DejaVuSans-110"/>
      <use transform="translate(359.716797 0.015625)" xlink:href="#DejaVuSans-116"/>
      <use transform="translate(398.925781 0.015625)" xlink:href="#DejaVuSans-105"/>
      <use transform="translate(426.708984 0.015625)" xlink:href="#DejaVuSans-116"/>
      <use transform="translate(465.917969 0.015625)" xlink:href="#DejaVuSans-121"/>
     </g>
    </g>
   </g>
   <g id="line2d_13">
    <path clip-path="url(#pb1a96a4beb)" d="M 92.290909 307.8 
L 92.410622 307.524915 
L 92.580251 307.395217 
L 92.831864 307.284346 
L 92.961314 307.257151 
L 93.359833 307.14628 
L 93.477519 307.121178 
L 94.193785 307.010307 
L 94.318374 306.995663 
L 95.339418 306.884793 
L 95.453855 306.877471 
L 96.870161 306.7666 
L 96.992317 306.758233 
L 98.840815 306.647362 
L 98.963378 306.637948 
L 101.718882 306.527077 
L 101.839002 306.523939 
L 105.022652 306.413069 
L 105.143993 306.406793 
L 109.445668 306.295922 
L 109.565788 306.292784 
L 114.430743 306.181913 
L 114.550463 306.179821 
L 119.89387 306.068951 
L 120.014405 306.064767 
L 126.625593 305.953896 
L 126.745306 305.951804 
L 135.204194 305.840933 
L 135.324721 305.836749 
L 144.796934 305.725879 
L 144.916647 305.723787 
L 156.457725 305.612916 
L 156.577438 305.610824 
L 168.632279 305.499953 
L 168.751593 305.498907 
L 184.478688 305.388036 
L 184.599215 305.382807 
L 199.453394 305.271936 
L 199.5727 305.27089 
L 221.992959 305.160019 
L 222.11268 305.157927 
L 243.726173 305.047056 
L 243.845479 305.04601 
L 270.741105 304.936185 
L 270.854736 304.933047 
L 301.229851 304.822177 
L 301.349164 304.821131 
L 332.483972 304.71026 
L 332.603278 304.709214 
L 366.282162 304.599389 
L 366.395387 304.597297 
L 411.046388 304.486426 
L 411.165702 304.48538 
L 466.682899 304.37451 
L 466.802213 304.373464 
L 498.109091 304.309661 
L 498.109091 304.309661 
" style="fill:none;stroke:#2ca02c;stroke-linecap:square;stroke-width:2;"/>
   </g>
   <g id="line2d_14">
    <path clip-path="url(#pb1a96a4beb)" d="M 92.290909 307.8 
L 92.420359 305.766671 
L 92.490165 305.281349 
L 92.622456 304.683065 
L 92.648029 304.572194 
L 92.889897 303.895464 
L 92.958473 303.784593 
L 93.349282 303.085898 
L 93.465746 302.975027 
L 93.692194 302.698896 
L 93.773357 302.593254 
L 93.892264 302.454143 
L 94.015632 302.345364 
L 94.141435 302.196839 
L 94.251012 302.085968 
L 94.430784 301.930121 
L 94.561057 301.81925 
L 94.679149 301.730345 
L 94.892612 301.62052 
L 95.011918 301.561946 
L 95.164099 301.452122 
L 95.291937 301.376813 
L 95.500115 301.270126 
L 95.618615 301.179128 
L 95.775266 301.072441 
L 95.888889 301.027465 
L 96.101944 300.919732 
L 96.221258 300.837102 
L 96.414424 300.735645 
L 96.528462 300.646739 
L 96.856769 300.535868 
L 96.995964 300.483571 
L 97.202531 300.3727 
L 97.349029 300.299483 
L 97.571822 300.188612 
L 97.689914 300.161418 
L 97.97074 300.050547 
L 98.106288 300.007663 
L 98.283219 299.896792 
L 98.398479 299.836127 
L 98.674028 299.725256 
L 98.805921 299.691786 
L 99.07376 299.581961 
L 99.18617 299.530709 
L 99.437776 299.420884 
L 99.552221 299.37277 
L 99.904871 299.2619 
L 100.02337 299.209602 
L 100.387394 299.099777 
L 100.511975 299.040158 
L 100.970147 298.934517 
L 101.084584 298.884311 
L 101.520033 298.774486 
L 101.64056 298.735786 
L 102.093456 298.627007 
L 102.208301 298.603996 
L 102.708271 298.493125 
L 102.820681 298.477436 
L 103.209862 298.368657 
L 103.323493 298.354014 
L 103.820614 298.243143 
L 103.934652 298.21804 
L 104.53526 298.107169 
L 104.651732 298.072653 
L 105.172806 297.969104 
L 105.285216 297.944001 
L 105.846467 297.83313 
L 105.97998 297.79443 
L 106.641055 297.683559 
L 106.757934 297.644859 
L 107.51113 297.535034 
L 107.633285 297.487966 
L 108.355234 297.380233 
L 108.469273 297.337349 
L 109.082866 297.234846 
L 109.194869 297.209743 
L 109.931025 297.098872 
L 110.0548 297.086321 
L 110.641209 296.976496 
L 110.75646 296.951393 
L 111.421191 296.840522 
L 111.546993 296.822741 
L 112.326983 296.715008 
L 112.440207 296.695135 
L 113.244133 296.584264 
L 113.360198 296.568575 
L 114.38651 296.45875 
L 114.502575 296.427372 
L 115.240758 296.317547 
L 115.355195 296.310225 
L 116.273973 296.199354 
L 116.398555 296.184711 
L 117.360345 296.07384 
L 117.473976 296.060243 
L 118.34568 295.949372 
L 118.45971 295.931591 
L 119.773343 295.82072 
L 119.886975 295.798755 
L 120.77085 295.693114 
L 120.883667 295.670103 
L 122.077588 295.560278 
L 122.190405 295.544589 
L 123.392434 295.433718 
L 123.504844 295.410707 
L 124.934543 295.300882 
L 125.048988 295.292514 
L 126.265632 295.181644 
L 126.391028 295.164908 
L 127.556542 295.055083 
L 127.671794 295.043578 
L 128.81255 294.936891 
L 128.92496 294.915972 
L 130.287703 294.807193 
L 130.401326 294.793596 
L 131.798565 294.684817 
L 131.910975 294.668081 
L 133.268027 294.558257 
L 133.38288 294.548843 
L 134.802833 294.44111 
L 134.915251 294.428559 
L 136.206968 294.318734 
L 136.321413 294.310366 
L 137.958077 294.200541 
L 138.07008 294.185898 
L 139.799273 294.075027 
L 139.912904 294.071889 
L 141.56459 293.961018 
L 141.683895 293.959972 
L 143.498313 293.849102 
L 143.623302 293.833412 
L 145.598426 293.723587 
L 145.710428 293.70476 
L 147.747639 293.593889 
L 147.861677 293.58866 
L 149.160697 293.477789 
L 149.273514 293.465237 
L 151.183302 293.354367 
L 151.303829 293.349137 
L 153.331294 293.240358 
L 153.443305 293.227807 
L 155.957755 293.123211 
L 156.069351 293.109614 
L 159.220133 292.998743 
L 159.340253 292.995605 
L 162.389975 292.884735 
L 162.509289 292.883689 
L 164.707612 292.777002 
L 164.819615 292.767588 
L 166.758208 292.656717 
L 166.880363 292.64835 
L 169.046625 292.540617 
L 169.158221 292.51656 
L 171.510345 292.405689 
L 171.6325 292.397321 
L 173.616954 292.28645 
L 173.731391 292.279129 
L 176.367182 292.168258 
L 176.479999 292.155706 
L 179.498075 292.045882 
L 179.61292 292.036468 
L 181.905391 291.925597 
L 182.027538 291.91723 
L 184.661709 291.806359 
L 184.782644 291.801129 
L 187.628242 291.691304 
L 187.741059 291.678753 
L 191.143846 291.567882 
L 191.256663 291.56056 
L 194.244306 291.449689 
L 194.364833 291.445506 
L 196.951921 291.338818 
L 197.063932 291.329405 
L 200.519476 291.218534 
L 200.639596 291.215396 
L 204.091086 291.104525 
L 204.205124 291.099296 
L 207.090493 290.988425 
L 207.204931 290.981103 
L 211.369438 290.87337 
L 211.481042 290.86814 
L 215.808689 290.761453 
L 215.920699 290.747856 
L 219.360009 290.636985 
L 219.479323 290.635939 
L 223.123164 290.529252 
L 223.234361 290.518793 
L 226.64932 290.410014 
L 226.761738 290.398508 
L 230.112582 290.287637 
L 230.226205 290.2845 
L 234.088385 290.173629 
L 234.208912 290.169445 
L 238.585262 290.058574 
L 238.697265 290.05439 
L 242.136575 289.944565 
L 242.249799 289.942474 
L 247.77989 289.831603 
L 247.902445 289.822189 
L 252.706932 289.711318 
L 252.819749 289.705043 
L 258.575068 289.594172 
L 258.687485 289.588942 
L 263.459912 289.478071 
L 263.580031 289.474933 
L 269.137308 289.365108 
L 269.250939 289.360925 
L 273.404903 289.250054 
L 273.524209 289.249008 
L 278.320986 289.141275 
L 278.432989 289.133953 
L 283.639236 289.023082 
L 283.763011 289.010531 
L 289.961081 288.89966 
L 290.074713 288.895476 
L 294.634083 288.785651 
L 294.746493 288.781468 
L 300.953894 288.670597 
L 301.073208 288.669551 
L 307.060649 288.55868 
L 307.173474 288.552404 
L 310.626983 288.442579 
L 310.739401 288.43212 
L 317.023096 288.324387 
L 317.135099 288.320203 
L 321.46356 288.213516 
L 321.575164 288.206194 
L 326.507481 288.095324 
L 326.626787 288.094278 
L 333.096759 287.986545 
L 333.209169 287.976085 
L 340.145822 287.86626 
L 340.260674 287.856847 
L 346.808146 287.747022 
L 346.921777 287.743884 
L 355.078729 287.633013 
L 355.19074 287.625691 
L 363.641503 287.515867 
L 363.753913 287.507499 
L 371.431598 287.396628 
L 371.550911 287.395582 
L 379.166094 287.284711 
L 379.278911 287.27739 
L 385.556923 287.167565 
L 385.668527 287.158151 
L 393.553577 287.049372 
L 393.665181 287.043097 
L 401.835525 286.934318 
L 401.947935 286.93118 
L 407.29744 286.820309 
L 407.411071 286.816125 
L 416.500185 286.705254 
L 416.619906 286.703162 
L 427.111128 286.592292 
L 427.223131 286.589154 
L 437.019996 286.478283 
L 437.139717 286.476191 
L 444.885571 286.366366 
L 444.998795 286.364274 
L 455.196206 286.253403 
L 455.315519 286.252357 
L 467.956769 286.144624 
L 468.068772 286.138349 
L 476.257378 286.027478 
L 476.377099 286.025386 
L 482.90144 285.916607 
L 483.014257 285.910331 
L 490.842903 285.79946 
L 490.95532 285.796323 
L 498.109091 285.711601 
L 498.109091 285.711601 
" style="fill:none;stroke:#d62728;stroke-linecap:square;stroke-width:2;"/>
   </g>
   <g id="line2d_15">
    <path clip-path="url(#pb1a96a4beb)" d="M 92.290909 307.8 
L 92.534804 291.783348 
L 92.777479 282.313305 
L 93.242147 271.411354 
L 93.248636 271.300484 
L 93.508359 266.719217 
L 93.519724 266.626127 
L 93.679616 264.113752 
L 93.683271 264.027984 
L 93.814757 262.281246 
L 93.820032 262.179788 
L 93.979109 260.082656 
L 94.05419 259.148621 
L 94.183234 257.46987 
L 94.19744 257.369458 
L 94.376 254.941805 
L 94.388986 254.830934 
L 94.425102 254.455438 
L 94.550912 252.976463 
L 94.560243 252.867684 
L 95.015166 249.337598 
L 95.027745 249.234049 
L 95.168161 248.246671 
L 95.196567 248.158811 
L 95.32075 247.260339 
L 95.339011 247.154698 
L 95.466841 246.209158 
L 95.728591 244.663242 
L 95.746046 244.561785 
L 95.871035 243.758494 
L 95.902689 243.647623 
L 96.05325 242.94056 
L 96.072725 242.853746 
L 96.1965 241.908206 
L 96.235864 241.804657 
L 96.396977 240.385301 
L 96.407935 240.285936 
L 96.541855 239.395831 
L 96.55322 239.28496 
L 96.67172 238.6804 
L 96.808074 238.018313 
L 96.815784 237.918948 
L 96.944835 237.217115 
L 96.972427 237.108336 
L 97.197255 235.648188 
L 97.220792 235.56242 
L 97.340098 234.968319 
L 97.371752 234.862678 
L 97.525562 234.090766 
L 97.570609 233.981987 
L 97.780822 232.946495 
L 97.838448 232.838762 
L 97.962224 232.239432 
L 97.973988 232.150527 
L 98.095329 231.556426 
L 98.1489 231.458107 
L 98.270234 230.735354 
L 98.287282 230.624484 
L 98.691475 228.370459 
L 98.718261 228.259588 
L 98.824988 227.691636 
L 98.943081 227.181212 
L 98.992997 227.070341 
L 99.193066 226.278556 
L 99.31238 225.643663 
L 99.457258 224.981576 
L 99.574537 224.478474 
L 99.664631 223.940855 
L 99.812749 223.465993 
L 99.866321 223.36349 
L 99.992123 222.631324 
L 100.216137 221.788287 
L 100.330981 221.390826 
L 100.390642 221.279955 
L 100.668219 220.415999 
L 100.681612 220.31245 
L 100.807415 219.585514 
L 100.855303 219.480918 
L 100.975016 219.239304 
L 100.999774 219.130525 
L 101.116646 218.726788 
L 101.162507 218.64102 
L 101.276138 218.363842 
L 101.31144 218.262385 
L 101.441712 217.712215 
L 101.509889 217.603436 
L 101.686413 216.745756 
L 101.731053 216.635931 
L 101.873497 216.316916 
L 101.905966 216.207091 
L 102.31909 214.664313 
L 102.367785 214.553442 
L 102.489126 214.258484 
L 102.517939 214.147613 
L 102.877493 212.922804 
L 102.992744 212.447942 
L 103.153042 211.817233 
L 103.195655 211.71473 
L 103.312941 211.443829 
L 103.375436 211.337142 
L 103.495556 210.957461 
L 103.539789 210.848682 
L 103.689128 210.56 
L 103.740672 210.451221 
L 103.864855 210.217974 
L 103.907052 210.121746 
L 104.026366 209.775536 
L 104.04869 209.664666 
L 104.196402 209.382259 
L 104.241856 209.27348 
L 104.406217 208.591519 
L 104.461408 208.481695 
L 104.584369 208.23485 
L 104.603445 208.133393 
L 104.718289 207.819607 
L 104.749943 207.72861 
L 104.867629 207.287218 
L 104.894008 207.176347 
L 105.056333 206.652326 
L 105.094891 206.570742 
L 105.212577 206.01325 
L 105.2491 205.919114 
L 105.365165 205.637753 
L 105.370848 205.528974 
L 105.488126 205.012274 
L 105.570909 204.911863 
L 105.693472 204.469425 
L 105.805475 204.358555 
L 105.995807 203.961093 
L 106.02462 203.85336 
L 106.156512 203.374314 
L 106.212917 203.281225 
L 106.328575 202.974761 
L 106.356981 202.872258 
L 106.475074 202.47375 
L 106.5185 202.373339 
L 106.63862 201.988429 
L 106.678392 201.878604 
L 106.802574 201.400604 
L 106.866689 201.289733 
L 107.160101 200.842066 
L 107.167811 200.743747 
L 107.281841 200.605681 
L 107.31553 200.51573 
L 107.430375 200.272023 
L 107.511537 200.166382 
L 107.632878 199.820172 
L 107.66494 199.720807 
L 107.783838 199.476054 
L 107.826451 199.369367 
L 107.945358 199.034662 
L 108.035452 198.935297 
L 108.151916 198.625696 
L 108.295581 198.517963 
L 108.415701 198.115271 
L 108.520401 198.022182 
L 108.635653 197.78998 
L 108.642956 197.682247 
L 108.757401 197.522217 
L 108.774441 197.436449 
L 108.888072 197.231442 
L 108.963552 197.122664 
L 109.086115 196.88837 
L 109.226523 196.779591 
L 109.355574 196.358073 
L 109.449723 196.251386 
L 109.569444 196.072528 
L 109.687129 195.977347 
L 109.802788 195.736778 
L 109.858793 195.629045 
L 109.978913 195.422993 
L 110.044249 195.313168 
L 110.162749 195.035991 
L 110.214292 194.934533 
L 110.335626 194.343571 
L 110.378238 194.233746 
L 110.495924 194.077899 
L 110.532854 194.004683 
L 110.646078 193.782941 
L 110.728055 193.678346 
L 110.85021 193.279838 
L 110.944358 193.173151 
L 111.085581 192.787195 
L 111.1566 192.692014 
L 111.273878 192.389734 
L 111.335566 192.283047 
L 111.450818 192.087454 
L 111.581082 191.99541 
L 111.697147 191.689992 
L 111.795766 191.580168 
L 111.922781 191.334369 
L 112.009228 191.223498 
L 112.152071 191.067651 
L 112.378519 190.79152 
L 112.429249 190.690063 
L 112.543279 190.509113 
L 112.603347 190.408702 
L 112.72306 190.139893 
L 112.776631 190.033206 
L 112.895937 189.838659 
L 112.993741 189.730926 
L 113.11995 189.538471 
L 113.146329 189.433876 
L 113.262394 189.150423 
L 113.36628 189.040598 
L 113.591914 188.461141 
L 113.662933 188.352362 
L 113.790364 188.189193 
L 113.832976 188.079369 
L 113.947413 187.967452 
L 114.011943 187.880638 
L 114.125159 187.700734 
L 114.171427 187.601369 
L 114.2879 187.41519 
L 114.34796 187.3221 
L 114.462397 187.081531 
L 114.599972 186.97066 
L 114.732264 186.871295 
L 114.7834 186.76147 
L 114.898245 186.650599 
L 114.963181 186.539728 
L 115.135651 186.228035 
L 115.187187 186.121348 
L 115.304067 185.831619 
L 115.407545 185.72284 
L 115.526859 185.556534 
L 115.563789 185.454031 
L 115.687158 185.130832 
L 115.890068 185.024145 
L 116.023988 184.731279 
L 116.162777 184.6225 
L 116.278435 184.349506 
L 116.323889 184.240727 
L 116.438733 184.143454 
L 116.566563 184.037813 
L 116.683036 183.827577 
L 116.752841 183.716706 
L 117.047865 183.254395 
L 117.201675 183.14457 
L 117.370497 182.85798 
L 117.492644 182.752339 
L 117.611958 182.600676 
L 117.694741 182.497127 
L 117.813241 182.30258 
L 117.950002 182.192755 
L 118.119639 181.90198 
L 118.13019 181.804707 
L 118.245848 181.551587 
L 118.335934 181.455359 
L 118.456869 181.073587 
L 118.721867 180.964808 
L 118.834684 180.869626 
L 118.839959 180.768169 
L 118.953998 180.57153 
L 119.066 180.464843 
L 119.186935 180.288077 
L 119.320048 180.183482 
L 119.440168 179.974292 
L 119.519304 179.864467 
L 119.667023 179.685609 
L 119.714912 179.578922 
L 119.829349 179.385421 
L 119.963676 179.274551 
L 120.081361 179.135439 
L 120.179572 179.036074 
L 120.293603 178.911605 
L 120.362187 178.802827 
L 120.476632 178.726472 
L 120.594317 178.64175 
L 120.690493 178.544477 
L 120.804531 178.425238 
L 120.92019 178.317505 
L 121.050454 178.122958 
L 121.167334 178.012087 
L 121.30166 177.65228 
L 121.358472 177.562328 
L 121.473723 177.30607 
L 121.615353 177.198337 
L 121.728984 177.048766 
L 121.811775 176.941033 
L 121.945288 176.710924 
L 121.984245 176.602145 
L 122.124255 176.384587 
L 122.312959 176.274762 
L 122.44201 176.192132 
L 122.549958 176.083353 
L 122.664803 175.990264 
L 122.781275 175.880439 
L 122.899775 175.625227 
L 122.984992 175.515402 
L 123.11445 175.281109 
L 123.20373 175.175467 
L 123.31614 175.034264 
L 123.391628 174.925485 
L 123.505658 174.671319 
L 123.592504 174.573 
L 123.704507 174.470496 
L 123.790139 174.369039 
L 123.90377 174.168216 
L 123.984526 174.069897 
L 124.100184 173.823052 
L 124.134273 173.712182 
L 124.469475 173.156781 
L 124.50113 173.05637 
L 124.621657 172.760366 
L 124.628153 172.669368 
L 124.74097 172.564773 
L 124.823354 172.453902 
L 124.949971 172.297009 
L 125.03032 172.190322 
L 125.152467 171.991592 
L 125.21821 171.89118 
L 125.331035 171.72069 
L 125.437762 171.615049 
L 125.555041 171.439329 
L 125.617942 171.347286 
L 125.731166 171.191439 
L 125.837494 171.088936 
L 125.955587 170.847321 
L 126.067183 170.738542 
L 126.182442 170.698796 
L 126.29201 170.593155 
L 126.408882 170.366183 
L 126.548892 170.256359 
L 126.665364 170.173728 
L 126.894654 170.064949 
L 127.028573 169.892367 
L 127.136522 169.783589 
L 127.2538 169.74175 
L 127.302495 169.631926 
L 127.41694 169.528376 
L 127.443318 169.424827 
L 127.556135 169.338013 
L 127.697358 169.232372 
L 127.81261 169.089077 
L 127.980219 168.98239 
L 128.103587 168.694753 
L 128.292291 168.583882 
L 128.542276 168.247086 
L 128.747622 168.139353 
L 128.862059 167.965725 
L 128.902237 167.8559 
L 129.042239 167.638342 
L 129.217151 167.527472 
L 129.343768 167.327695 
L 129.422089 167.218916 
L 129.540182 167.050518 
L 129.673695 166.939647 
L 129.804773 166.738824 
L 129.995513 166.635275 
L 130.110357 166.549507 
L 130.321792 166.440728 
L 130.439885 166.370649 
L 130.521853 166.2671 
L 130.635077 166.103932 
L 130.694331 165.999337 
L 130.807148 165.953315 
L 130.948778 165.852904 
L 131.062002 165.719022 
L 131.170358 165.608151 
L 131.336339 165.487867 
L 131.400453 165.378042 
L 131.520174 165.317376 
L 131.700761 165.208598 
L 131.841577 164.983718 
L 131.904071 164.880169 
L 132.020951 164.628095 
L 132.25186 164.531867 
L 132.365491 164.379158 
L 132.588691 164.268287 
L 132.703535 164.220174 
L 132.912943 164.115578 
L 133.028194 164.037132 
L 133.113005 163.926261 
L 133.22745 163.78715 
L 133.342294 163.693014 
L 133.456332 163.541351 
L 133.625155 163.436756 
L 133.741619 163.210831 
L 133.912469 163.101006 
L 134.037058 163.041386 
L 134.164082 162.936791 
L 134.27852 162.761072 
L 134.370234 162.657522 
L 134.483051 162.618822 
L 134.610075 162.5341 
L 134.723299 162.303991 
L 134.844233 162.195212 
L 134.960298 162.055054 
L 135.083259 161.951505 
L 135.196076 161.819715 
L 135.295094 161.710936 
L 135.420896 161.604249 
L 135.623807 161.388783 
L 135.801154 161.287326 
L 135.913971 161.156582 
L 136.118502 161.054079 
L 136.232532 160.904508 
L 136.417182 160.799913 
L 136.529592 160.749707 
L 136.670415 160.524828 
L 136.904166 160.413957 
L 137.044575 160.193261 
L 137.231659 160.08239 
L 137.347317 159.907716 
L 137.512484 159.809397 
L 137.625708 159.674469 
L 137.833488 159.563598 
L 137.977153 159.40566 
L 138.168698 159.302111 
L 138.281922 159.217389 
L 138.476309 159.106518 
L 138.591968 159.025979 
L 138.871165 158.916155 
L 138.993727 158.8011 
L 139.22585 158.690229 
L 139.34435 158.577266 
L 139.545233 158.466395 
L 139.671443 158.398409 
L 139.855278 158.305319 
L 139.968095 158.166207 
L 140.265562 158.057429 
L 140.379592 158.005131 
L 140.545166 157.901582 
L 140.657991 157.841963 
L 140.878349 157.73423 
L 140.993194 157.628589 
L 141.097487 157.520856 
L 141.226538 157.33886 
L 141.273205 157.227989 
L 141.394953 157.151635 
L 141.501281 157.043902 
L 141.613284 156.982191 
L 141.700537 156.877595 
L 141.813354 156.754173 
L 141.917239 156.653762 
L 142.030871 156.566948 
L 142.212679 156.463399 
L 142.325089 156.425745 
L 142.40788 156.316966 
L 142.522317 156.2563 
L 142.691953 156.148567 
L 142.804363 156.118235 
L 142.894457 156.012594 
L 143.00808 155.946699 
L 143.073823 155.845242 
L 143.188268 155.674751 
L 143.261314 155.578524 
L 143.373724 155.49694 
L 143.497092 155.387115 
L 143.622895 155.23859 
L 143.702845 155.127719 
L 143.822965 155.014756 
L 143.861116 154.911207 
L 143.973119 154.865185 
L 144.073357 154.754314 
L 144.238524 154.486551 
L 144.362706 154.389277 
L 144.47593 154.277361 
L 144.618773 154.16649 
L 144.74539 154.096411 
L 144.910158 153.987632 
L 145.025409 153.959391 
L 145.110627 153.852704 
L 145.222638 153.802499 
L 145.413776 153.692674 
L 145.526593 153.647698 
L 145.687705 153.536827 
L 145.814322 153.382026 
L 145.877623 153.276385 
L 145.994095 153.18225 
L 146.178338 153.072425 
L 146.295217 152.984565 
L 146.444964 152.87997 
L 146.561836 152.77642 
L 146.777325 152.666596 
L 146.895825 152.592333 
L 147.02731 152.502381 
L 147.141748 152.306788 
L 147.247262 152.202193 
L 147.36292 152.059944 
L 147.475338 151.949073 
L 147.654704 151.790088 
L 147.830023 151.683401 
L 147.950957 151.473165 
L 148.10922 151.366478 
L 148.227313 151.278618 
L 148.451327 151.169839 
L 148.566171 151.020268 
L 148.716732 150.926133 
L 148.829956 150.799572 
L 149.071417 150.689748 
L 149.186668 150.580969 
L 149.288128 150.494155 
L 149.400131 150.42303 
L 149.547036 150.351905 
L 149.762526 150.24208 
L 149.896039 150.074728 
L 150.049034 149.969087 
L 150.161851 149.912606 
L 150.443897 149.801735 
L 150.568487 149.743162 
L 150.811975 149.632291 
L 150.923978 149.616602 
L 151.091587 149.505731 
L 151.206839 149.333149 
L 151.401633 149.233783 
L 151.51445 149.146969 
L 151.723849 149.042374 
L 151.837887 148.889665 
L 152.047694 148.7903 
L 152.159697 148.693027 
L 152.323244 148.590523 
L 152.436875 148.516261 
L 152.559022 148.420033 
L 152.674274 148.244313 
L 152.768023 148.134489 
L 152.884895 147.998515 
L 153.110936 147.887644 
L 153.235118 147.7569 
L 153.480634 147.648121 
L 153.593052 147.598962 
L 153.780942 147.505872 
L 153.89498 147.304003 
L 154.231811 147.194178 
L 154.346248 146.99754 
L 154.502491 146.887715 
L 154.617336 146.809268 
L 154.750849 146.699443 
L 154.864887 146.653422 
L 155.121768 146.546735 
L 155.234585 146.474564 
L 155.378649 146.371015 
L 155.495121 146.26119 
L 155.657447 146.163916 
L 155.769857 146.086516 
L 155.859544 145.989242 
L 155.973989 145.698468 
L 156.217884 145.593873 
L 156.332322 145.527978 
L 156.467463 145.428613 
L 156.582307 145.245571 
L 156.976356 145.1347 
L 157.097697 145.032197 
L 157.337131 144.923418 
L 157.457658 144.699585 
L 157.613902 144.593943 
L 157.729153 144.48621 
L 157.837916 144.386845 
L 157.952353 144.274928 
L 158.134967 144.167195 
L 158.249819 144.109668 
L 158.392263 144.005073 
L 158.503859 143.983108 
L 158.608559 143.879559 
L 158.723411 143.728942 
L 158.783471 143.62853 
L 158.89913 143.471638 
L 159.036697 143.360767 
L 159.208361 143.225839 
L 159.50542 143.116014 
L 159.62392 143.063717 
L 159.8179 142.955984 
L 159.935585 142.890089 
L 160.056926 142.779218 
L 160.203425 142.709139 
L 160.313001 142.598268 
L 160.472486 142.494719 
L 160.709078 142.404767 
L 160.820275 142.375481 
L 161.099073 142.26461 
L 161.220406 142.161061 
L 161.495964 142.05542 
L 161.610401 141.976973 
L 161.725245 141.871332 
L 161.838469 141.824264 
L 162.120516 141.718623 
L 162.23536 141.549179 
L 162.566508 141.443538 
L 162.679732 141.40693 
L 162.796611 141.296059 
L 162.910235 141.222842 
L 163.05552 141.056536 
L 163.138718 140.949849 
L 163.251535 140.863035 
L 163.414675 140.75321 
L 163.528298 140.666396 
L 163.568069 140.555525 
L 163.701582 140.517871 
L 163.903679 140.407 
L 164.016903 140.380852 
L 164.338313 140.274165 
L 164.45113 140.178983 
L 164.65282 140.078572 
L 164.768079 139.941552 
L 165.007505 139.830681 
L 165.122357 139.7742 
L 165.281435 139.666467 
L 165.401155 139.580699 
L 165.559019 139.483425 
L 165.671429 139.383014 
L 165.844306 139.272143 
L 165.958744 139.162318 
L 166.299637 139.056677 
L 166.412454 138.941623 
L 166.491182 138.831798 
L 166.60562 138.810879 
L 166.807317 138.703146 
L 166.92094 138.645618 
L 167.211511 138.546253 
L 167.324735 138.450026 
L 167.734204 138.347522 
L 167.848243 138.139378 
L 168.005292 138.028507 
L 168.118109 138.007588 
L 168.425313 137.896717 
L 168.540158 137.827685 
L 168.710201 137.734595 
L 168.822204 137.664516 
L 168.944758 137.553645 
L 169.102215 137.325628 
L 169.396433 137.2294 
L 169.511286 137.062048 
L 169.781967 136.974188 
L 169.894376 136.875869 
L 170.217407 136.768136 
L 170.329817 136.729436 
L 170.615918 136.620657 
L 170.727522 136.604967 
L 170.854546 136.504556 
L 170.967363 136.437615 
L 171.399148 136.336158 
L 171.512779 136.253528 
L 171.719346 136.153116 
L 171.831349 136.097681 
L 172.18522 135.990994 
L 172.305348 135.875939 
L 172.543967 135.778666 
L 172.656784 135.708587 
L 172.93599 135.605038 
L 173.049613 135.521362 
L 173.206263 135.410491 
L 173.327605 135.367607 
L 173.49764 135.257782 
L 173.610864 135.146911 
L 173.709881 135.03604 
L 173.83934 135.008846 
L 173.901427 134.897975 
L 174.015872 134.858229 
L 174.340523 134.750496 
L 174.456589 134.649039 
L 174.697643 134.542351 
L 174.820205 134.365586 
L 174.972386 134.258899 
L 175.086416 134.213923 
L 175.342084 134.107236 
L 175.455715 134.078995 
L 175.784429 133.968124 
L 175.916322 133.870851 
L 176.059979 133.762072 
L 176.17361 133.68258 
L 176.740129 133.575892 
L 176.852946 133.557065 
L 177.134992 133.449332 
L 177.24943 133.378208 
L 177.428803 133.293486 
L 177.541213 133.201442 
L 177.831784 133.104168 
L 177.946628 132.916943 
L 178.438482 132.808164 
L 178.551706 132.797705 
L 178.715651 132.686834 
L 178.853227 132.63872 
L 178.956713 132.527849 
L 179.073178 132.427438 
L 179.177886 132.317613 
L 179.29882 132.275775 
L 179.403113 132.178502 
L 179.514709 132.125158 
L 179.679476 132.019517 
L 179.792701 131.972449 
L 179.847078 131.861578 
L 179.963143 131.8302 
L 180.264257 131.719329 
L 180.39615 131.685858 
L 180.847418 131.586493 
L 180.960235 131.470393 
L 181.241467 131.365797 
L 181.354691 131.288397 
L 181.63471 131.192169 
L 181.74712 131.125229 
L 181.932177 130.955784 
L 182.17972 130.853281 
L 182.292944 130.726721 
L 182.481648 130.627356 
L 182.594066 130.559369 
L 182.751116 130.467325 
L 182.864747 130.319846 
L 183.062781 130.208975 
L 183.174792 130.146218 
L 183.54611 130.035347 
L 183.66461 129.941212 
L 184.070839 129.832433 
L 184.185683 129.774905 
L 184.619504 129.664035 
L 184.744093 129.649391 
L 185.323598 129.54375 
L 185.435601 129.506096 
L 185.485118 129.397317 
L 185.598342 129.359663 
L 185.690455 129.261343 
L 185.802466 129.222643 
L 186.252521 129.111772 
L 186.366144 129.02705 
L 186.533753 128.926639 
L 186.64657 128.871204 
L 186.740719 128.760333 
L 186.852722 128.706989 
L 187.163581 128.600302 
L 187.275584 128.589843 
L 187.410725 128.481064 
L 187.529224 128.38902 
L 187.671261 128.278149 
L 187.815325 128.2133 
L 188.348977 128.112889 
L 188.463007 127.931939 
L 188.848948 127.824206 
L 188.961765 127.802241 
L 189.123276 127.693462 
L 189.318477 127.587821 
L 189.431294 127.467537 
L 189.575765 127.365034 
L 189.687768 127.32215 
L 189.818448 127.220692 
L 189.93045 127.165257 
L 190.402821 127.054386 
L 190.519701 126.952929 
L 190.887779 126.842058 
L 191.00465 126.803358 
L 191.382872 126.693533 
L 191.499345 126.675752 
L 191.981868 126.573249 
L 192.094278 126.513629 
L 192.371041 126.411126 
L 192.483052 126.377656 
L 192.875481 126.272015 
L 192.989104 126.216579 
L 193.301184 126.105708 
L 193.424553 126.014711 
L 193.698474 125.905932 
L 193.811291 125.828531 
L 194.028409 125.730212 
L 194.140412 125.672684 
L 194.362398 125.569135 
L 194.474808 125.530435 
L 194.769026 125.42584 
L 194.88225 125.223971 
L 195.333518 125.127744 
L 195.445529 125.045114 
L 195.638288 124.934243 
L 195.751512 124.834877 
L 196.056281 124.73342 
L 196.170319 124.657066 
L 196.406505 124.558746 
L 196.518915 124.504357 
L 196.923516 124.396624 
L 197.035925 124.345372 
L 197.214892 124.253329 
L 197.32731 124.174882 
L 197.559026 124.082839 
L 197.671037 124.015898 
L 197.84148 123.905027 
L 197.955111 123.869464 
L 198.117843 123.758594 
L 198.233502 123.744996 
L 198.44615 123.646677 
L 198.557746 123.614252 
L 198.73103 123.506519 
L 198.843855 123.417613 
L 198.94612 123.309881 
L 199.058937 123.294191 
L 199.159982 123.191688 
L 199.272392 123.152988 
L 199.507364 123.045255 
L 199.618968 122.990865 
L 199.9002 122.88627 
L 200.012203 122.84234 
L 200.186708 122.734607 
L 200.302766 122.687539 
L 200.518662 122.58922 
L 200.631072 122.543198 
L 200.984137 122.433373 
L 201.106292 122.352835 
L 201.369662 122.245102 
L 201.4837 122.164564 
L 201.635475 122.058923 
L 201.747892 122.036958 
L 202.085529 121.928179 
L 202.211739 121.774424 
L 202.876469 121.669829 
L 202.989286 121.613348 
L 203.35493 121.50666 
L 203.468154 121.481558 
L 203.773331 121.372779 
L 203.888582 121.323619 
L 204.082969 121.215886 
L 204.1966 121.089326 
L 204.491225 120.999374 
L 204.605255 120.81947 
L 204.740803 120.709646 
L 204.85362 120.588315 
L 204.954258 120.48895 
L 205.066268 120.427239 
L 205.162851 120.329965 
L 205.275261 120.247335 
L 205.759812 120.13751 
L 205.878718 120.107178 
L 206.089339 119.996307 
L 206.202962 119.88439 
L 206.599853 119.775611 
L 206.71876 119.698211 
L 207.089272 119.589432 
L 207.201275 119.523537 
L 207.44355 119.412666 
L 207.59736 119.32376 
L 208.016566 119.216027 
L 208.131419 119.135489 
L 208.386272 119.025664 
L 208.505171 118.969183 
L 208.796548 118.862496 
L 208.908152 118.835301 
L 209.191819 118.739073 
L 209.306663 118.565445 
L 209.604129 118.46085 
L 209.71614 118.400185 
L 209.896727 118.289314 
L 210.02253 118.224465 
L 210.374781 118.113594 
L 210.494095 118.056067 
L 210.810629 117.946242 
L 210.929128 117.893945 
L 211.130818 117.786212 
L 211.24567 117.69103 
L 211.739551 117.585389 
L 211.851554 117.547735 
L 212.27685 117.447323 
L 212.388861 117.402348 
L 212.857577 117.291477 
L 213.015033 117.193157 
L 213.277198 117.08647 
L 213.390015 116.951543 
L 213.782843 116.845901 
L 213.895253 116.818707 
L 213.973982 116.71202 
L 214.0864 116.669136 
L 214.21585 116.558265 
L 214.329481 116.48714 
L 214.446768 116.376269 
L 214.560798 116.323972 
L 214.652919 116.230882 
L 214.765329 116.15139 
L 215.133814 116.040519 
L 215.248259 115.991359 
L 215.455225 115.904545 
L 215.567228 115.827145 
L 215.847646 115.719412 
L 215.96696 115.638874 
L 216.277412 115.530095 
L 216.394283 115.491395 
L 216.755058 115.384708 
L 216.867875 115.268607 
L 217.227836 115.157736 
L 217.343087 115.145185 
L 217.996867 115.037452 
L 218.109277 114.90357 
L 218.447728 114.797929 
L 218.560138 114.734126 
L 219.021558 114.624301 
L 219.133968 114.613841 
L 219.544659 114.510292 
L 219.658689 114.384778 
L 219.817367 114.277045 
L 219.933433 114.228931 
L 220.358322 114.118061 
L 220.490215 114.08459 
L 220.985316 113.974765 
L 221.096912 113.961168 
L 221.457687 113.852389 
L 221.579028 113.778126 
L 222.063978 113.668301 
L 222.176388 113.609728 
L 222.93446 113.500949 
L 223.049712 113.475846 
L 223.15928 113.367067 
L 223.271291 113.34824 
L 223.575654 113.253059 
L 223.688471 113.157877 
L 223.945352 113.047006 
L 224.058576 113.036547 
L 224.439232 112.926722 
L 224.554085 112.916262 
L 224.780932 112.810621 
L 224.892943 112.769829 
L 225.108839 112.667326 
L 225.221249 112.556455 
L 225.656283 112.447676 
L 225.767887 112.393287 
L 226.02883 112.283462 
L 226.164778 112.163178 
L 226.534476 112.052307 
L 226.648921 112.010469 
L 226.832756 111.90169 
L 226.945573 111.861944 
L 227.31405 111.752119 
L 227.427681 111.686224 
L 227.57256 111.580583 
L 227.685377 111.504228 
L 227.995422 111.409047 
L 228.107026 111.364071 
L 228.293702 111.254246 
L 228.405298 111.217638 
L 228.548149 111.155926 
L 228.988459 111.051331 
L 229.100877 111.02832 
L 229.360599 110.931047 
L 229.472195 110.894439 
L 229.867465 110.792981 
L 229.979468 110.757419 
L 230.670577 110.647594 
L 230.782995 110.632951 
L 231.061785 110.531494 
L 231.174203 110.479196 
L 231.53335 110.391336 
L 231.64576 110.298246 
L 231.950936 110.187376 
L 232.066595 110.13194 
L 232.394087 110.030483 
L 232.506912 109.977139 
L 232.980496 109.866268 
L 233.097376 109.826522 
L 233.438668 109.715651 
L 233.551078 109.684273 
L 234.196334 109.578632 
L 234.309957 109.526334 
L 234.581452 109.438474 
L 234.692649 109.409188 
L 234.929241 109.303547 
L 235.043678 109.251249 
L 235.499009 109.146654 
L 235.611419 109.004405 
L 236.12965 108.897718 
L 236.241653 108.883074 
L 236.699825 108.774295 
L 236.813049 108.756514 
L 236.955086 108.646689 
L 237.070337 108.507578 
L 237.442071 108.396707 
L 237.569494 108.374742 
L 237.972474 108.263871 
L 238.108014 108.148816 
L 238.459459 108.048405 
L 238.573896 107.936488 
L 238.963077 107.825618 
L 239.099838 107.779596 
L 239.33481 107.670817 
L 239.447627 107.556808 
L 239.730073 107.448029 
L 239.841677 107.426064 
L 240.12575 107.319377 
L 240.237753 107.279631 
L 240.46298 107.170852 
L 240.578639 107.066257 
L 240.902484 106.956432 
L 241.025038 106.907272 
L 241.446687 106.801631 
L 241.559097 106.776528 
L 241.815579 106.670887 
L 241.928396 106.557925 
L 242.699446 106.4481 
L 242.812263 106.368607 
L 243.000975 106.266104 
L 243.113385 106.196025 
L 243.604832 106.0862 
L 243.717649 106.051684 
L 243.806521 105.961732 
L 243.918524 105.8927 
L 244.477749 105.79438 
L 244.589751 105.739991 
L 244.837709 105.630166 
L 244.955802 105.581006 
L 245.510557 105.472227 
L 245.62418 105.456538 
L 245.926922 105.347759 
L 246.046236 105.290232 
L 246.482898 105.187728 
L 246.596928 105.109282 
L 247.192268 105.000503 
L 247.304271 104.957619 
L 247.767719 104.851978 
L 247.88297 104.767256 
L 248.755887 104.656385 
L 248.88169 104.638604 
L 249.322406 104.538193 
L 249.435223 104.481711 
L 250.063838 104.375024 
L 250.177062 104.352013 
L 250.749264 104.241142 
L 250.872225 104.230683 
L 251.218394 104.12295 
L 251.330804 104.087388 
L 251.730943 103.989068 
L 251.842539 103.970241 
L 252.607508 103.85937 
L 252.722759 103.833221 
L 252.982082 103.722351 
L 253.094085 103.695156 
L 253.585939 103.590561 
L 253.701597 103.508977 
L 253.974712 103.399152 
L 254.093619 103.368819 
L 254.766059 103.258994 
L 254.878876 103.243305 
L 254.962881 103.134526 
L 255.076105 103.095826 
L 255.309449 102.986001 
L 255.425921 102.935795 
L 255.750572 102.824924 
L 255.875569 102.809235 
L 256.196165 102.716145 
L 256.30939 102.601091 
L 256.552064 102.494404 
L 256.666916 102.428509 
L 256.929073 102.318684 
L 257.082068 102.113677 
L 257.456635 102.004899 
L 257.572293 101.936912 
L 257.901821 101.827087 
L 258.041424 101.613713 
L 258.549096 101.509118 
L 258.662727 101.446361 
L 259.235336 101.339674 
L 259.347347 101.314571 
L 259.738555 101.2037 
L 259.857055 101.132575 
L 260.137473 101.021704 
L 260.249077 100.993464 
L 260.837106 100.883639 
L 260.952764 100.868995 
L 261.300546 100.7644 
L 261.41377 100.700597 
L 261.608971 100.589726 
L 261.723416 100.570899 
L 262.160477 100.460028 
L 262.278977 100.430742 
L 262.785843 100.321963 
L 262.905157 100.26339 
L 263.30773 100.155657 
L 263.420547 100.125324 
L 263.708676 100.025959 
L 263.820678 99.957972 
L 263.934717 99.952742 
L 264.139248 99.861744 
L 264.251259 99.793757 
L 264.622178 99.682887 
L 264.752035 99.6536 
L 265.299487 99.545867 
L 265.412711 99.528086 
L 265.914709 99.420353 
L 266.027119 99.40048 
L 266.211361 99.300068 
L 266.323364 99.226852 
L 266.503951 99.115981 
L 266.619609 99.072051 
L 267.179241 98.962226 
L 267.295298 98.946537 
L 267.558269 98.835666 
L 267.710051 98.75199 
L 268.641807 98.641119 
L 268.769238 98.619154 
L 269.089835 98.512467 
L 269.202244 98.451802 
L 269.777288 98.351391 
L 269.889291 98.307461 
L 270.37709 98.19659 
L 270.489092 98.141154 
L 270.606778 98.096179 
L 271.514598 97.991583 
L 271.627008 97.953929 
L 271.745507 97.857702 
L 271.857111 97.830507 
L 272.070973 97.719636 
L 272.193535 97.710223 
L 272.459339 97.60249 
L 272.579874 97.508354 
L 273.086741 97.425724 
L 273.198743 97.350415 
L 273.797731 97.252096 
L 273.909335 97.224901 
L 274.37643 97.11403 
L 274.491274 97.077422 
L 274.797265 96.967597 
L 274.909268 96.93831 
L 275.401935 96.82744 
L 275.515965 96.792923 
L 276.381579 96.682052 
L 276.500893 96.648582 
L 276.992739 96.537711 
L 277.129101 96.492735 
L 277.74026 96.381864 
L 277.910702 96.250075 
L 278.666341 96.14025 
L 278.780371 96.133974 
L 279.653288 96.029379 
L 279.766512 95.973943 
L 280.335067 95.863073 
L 280.451132 95.846337 
L 280.859787 95.743834 
L 280.972197 95.696766 
L 281.405204 95.595309 
L 281.517215 95.56393 
L 281.82564 95.45306 
L 281.956311 95.358924 
L 282.320733 95.249099 
L 282.432337 95.220858 
L 283.044718 95.109988 
L 283.158748 95.080701 
L 283.582017 94.970876 
L 283.699703 94.904981 
L 284.489837 94.79411 
L 284.614019 94.780513 
L 285.622883 94.670688 
L 285.738134 94.62885 
L 286.242159 94.517979 
L 286.365121 94.50752 
L 286.925965 94.397695 
L 287.046899 94.32657 
L 287.415384 94.223021 
L 287.529414 94.11215 
L 287.868679 94.001279 
L 287.986772 93.933292 
L 288.542341 93.826605 
L 288.654344 93.76071 
L 288.864558 93.655069 
L 288.976162 93.615323 
L 289.62263 93.504452 
L 289.737882 93.453201 
L 290.050768 93.346514 
L 290.165613 93.300492 
L 290.764193 93.190667 
L 290.885127 93.148829 
L 291.329499 93.041096 
L 291.441909 92.977293 
L 291.786857 92.866422 
L 291.916722 92.838181 
L 292.498263 92.734632 
L 292.61108 92.696978 
L 293.206005 92.596567 
L 293.318415 92.540085 
L 294.064316 92.429214 
L 294.218931 92.335079 
L 295.203851 92.232576 
L 295.315455 92.216886 
L 295.85032 92.107061 
L 295.964358 92.032799 
L 296.616909 91.928204 
L 296.728513 91.910423 
L 297.351037 91.800598 
L 297.463854 91.784908 
L 297.904978 91.675084 
L 298.02145 91.623832 
L 299.405288 91.512961 
L 299.523381 91.486812 
L 300.276585 91.376987 
L 300.390216 91.303771 
L 300.582568 91.199176 
L 300.694986 91.129097 
L 301.231072 91.020318 
L 301.345916 90.997307 
L 301.777709 90.90108 
L 301.889712 90.855058 
L 302.295127 90.744187 
L 302.440812 90.6762 
L 302.808482 90.568467 
L 302.920493 90.537089 
L 303.260564 90.427264 
L 303.372982 90.376012 
L 304.0998 90.265141 
L 304.220327 90.260957 
L 304.549855 90.166822 
L 304.661451 90.127076 
L 305.403696 90.026664 
L 305.515292 89.997378 
L 306.300964 89.886507 
L 306.421084 89.883369 
L 306.929164 89.777728 
L 307.041175 89.708695 
L 307.37597 89.597824 
L 307.49894 89.587365 
L 308.084534 89.480678 
L 308.196537 89.454529 
L 308.452205 89.343658 
L 308.564208 89.334245 
L 309.252076 89.225466 
L 309.369355 89.162709 
L 309.991473 89.052884 
L 310.105104 88.908542 
L 310.626983 88.798717 
L 310.753193 88.6481 
L 311.138726 88.53723 
L 311.252756 88.492254 
L 311.643565 88.391842 
L 311.755975 88.306074 
L 311.998657 88.204617 
L 312.11066 88.177422 
L 312.270551 88.075965 
L 312.382155 88.058184 
L 313.298084 87.954635 
L 313.409688 87.934762 
L 313.929947 87.830167 
L 314.043977 87.776823 
L 314.807733 87.671182 
L 314.92055 87.617838 
L 315.880711 87.506968 
L 316.004894 87.44944 
L 316.343345 87.358443 
L 316.455355 87.28941 
L 317.20571 87.179585 
L 317.335168 87.095909 
L 318.028304 86.994451 
L 318.141936 86.928557 
L 318.482821 86.818732 
L 318.599293 86.782123 
L 319.001867 86.696355 
L 319.114277 86.608495 
L 319.908058 86.502854 
L 320.020061 86.471476 
L 320.509073 86.362697 
L 320.62189 86.321905 
L 321.58368 86.21208 
L 321.696904 86.209988 
L 322.372593 86.101209 
L 322.489065 86.047866 
L 323.242668 85.940133 
L 323.356299 85.893065 
L 323.961377 85.786378 
L 324.07338 85.77278 
L 324.796143 85.671323 
L 324.908146 85.619026 
L 325.5676 85.51443 
L 325.679611 85.498741 
L 326.541977 85.389962 
L 326.656821 85.353354 
L 327.559365 85.245621 
L 327.672589 85.199599 
L 328.239108 85.115923 
L 328.351518 84.999822 
L 328.978911 84.888952 
L 329.092542 84.829332 
L 329.636339 84.727875 
L 329.747535 84.717416 
L 330.763295 84.606545 
L 330.877741 84.599223 
L 331.858606 84.488352 
L 331.970202 84.473709 
L 332.441766 84.362838 
L 332.554583 84.279162 
L 333.860914 84.168291 
L 334.003757 84.10658 
L 334.390503 83.998847 
L 334.502514 83.972698 
L 334.817428 83.871241 
L 334.929024 83.846138 
L 335.60512 83.736313 
L 335.727674 83.688199 
L 336.301911 83.581512 
L 336.415135 83.55118 
L 336.869652 83.443447 
L 336.981655 83.420436 
L 337.599718 83.313749 
L 337.711729 83.306427 
L 338.243752 83.195556 
L 338.37321 83.168362 
L 338.912545 83.062721 
L 339.024955 83.027158 
L 339.403584 82.924655 
L 339.515587 82.876541 
L 340.149885 82.769854 
L 340.263516 82.714419 
L 340.940011 82.607732 
L 341.054855 82.542883 
L 341.561729 82.437242 
L 341.675352 82.370301 
L 341.844989 82.26466 
L 341.957806 82.236419 
L 342.29585 82.125548 
L 342.415571 82.123456 
L 343.447972 82.013631 
L 343.560789 81.959242 
L 344.450746 81.849417 
L 344.566811 81.816993 
L 344.673946 81.718673 
L 344.785956 81.663238 
L 345.267258 81.552367 
L 345.379668 81.547137 
L 345.962422 81.437312 
L 346.081329 81.40698 
L 347.279711 81.298201 
L 347.394148 81.212433 
L 347.657526 81.102608 
L 347.792667 80.988599 
L 348.786518 80.877728 
L 348.899335 80.837982 
L 349.683371 80.727111 
L 349.812829 80.699917 
L 350.546551 80.598459 
L 350.658554 80.560805 
L 351.085478 80.452026 
L 351.205598 80.362074 
L 351.660929 80.259571 
L 351.774153 80.195768 
L 352.30577 80.091173 
L 352.418994 80.049335 
L 353.086565 79.940556 
L 353.202631 79.893488 
L 353.687995 79.783663 
L 353.800405 79.765882 
L 354.16889 79.655011 
L 354.281707 79.645598 
L 354.529657 79.534727 
L 354.65384 79.478245 
L 355.156244 79.368421 
L 355.26784 79.33495 
L 355.685427 79.225125 
L 355.797845 79.220941 
L 355.951646 79.132036 
L 356.738531 79.03267 
L 356.850534 78.995016 
L 357.266501 78.90088 
L 357.378096 78.86741 
L 358.479489 78.756539 
L 358.610974 78.724115 
L 359.350786 78.617428 
L 359.462381 78.599646 
L 359.976152 78.488776 
L 360.096679 78.484592 
L 361.071861 78.378951 
L 361.183864 78.356986 
L 361.408285 78.259712 
L 361.519881 78.217874 
L 361.674097 78.107003 
L 361.788941 78.060981 
L 362.389956 77.959524 
L 362.50156 77.936513 
L 362.654555 77.825642 
L 362.776703 77.817275 
L 363.677219 77.71268 
L 363.788815 77.684439 
L 364.505895 77.574614 
L 364.617499 77.551603 
L 365.153586 77.442824 
L 365.267217 77.403078 
L 365.401943 77.293253 
L 365.521256 77.189704 
L 367.031304 77.079879 
L 367.145749 77.038041 
L 368.297057 76.931354 
L 368.40906 76.908343 
L 369.370036 76.80061 
L 369.48935 76.634304 
L 370.203588 76.525525 
L 370.316405 76.45963 
L 370.649589 76.348759 
L 370.762406 76.315289 
L 371.890576 76.21174 
L 372.002994 76.166764 
L 373.118178 76.057985 
L 373.229782 76.052755 
L 373.553219 75.947114 
L 373.666843 75.877035 
L 374.18264 75.770348 
L 374.294651 75.756751 
L 374.603475 75.652156 
L 374.716699 75.605088 
L 375.519412 75.498401 
L 375.631415 75.485849 
L 376.329419 75.3823 
L 376.441023 75.369749 
L 377.068824 75.274567 
L 377.182862 75.131272 
L 378.460371 75.023539 
L 378.574003 74.978563 
L 378.894599 74.894887 
L 379.00661 74.820624 
L 379.678643 74.709753 
L 379.791053 74.706616 
L 381.178954 74.602021 
L 381.291364 74.526712 
L 381.760494 74.418979 
L 381.872497 74.405382 
L 382.574971 74.300787 
L 382.686567 74.289281 
L 383.462087 74.17841 
L 383.578559 74.159583 
L 384.210821 74.05185 
L 384.325674 73.912739 
L 385.066698 73.817557 
L 385.178701 73.774673 
L 385.847893 73.663802 
L 385.968021 73.660664 
L 386.676577 73.549794 
L 386.789394 73.536196 
L 387.547467 73.425325 
L 387.660284 73.388717 
L 388.184597 73.284122 
L 388.296201 73.2768 
L 389.533134 73.181619 
L 389.645144 73.132459 
L 389.867123 73.044599 
L 389.97832 73.010083 
L 391.085794 72.903396 
L 391.198212 72.876201 
L 392.0833 72.77056 
L 392.196931 72.698389 
L 393.019526 72.587518 
L 393.13437 72.453637 
L 393.470794 72.352179 
L 393.586452 72.217252 
L 394.989365 72.11684 
L 395.101368 72.07814 
L 396.126467 71.967269 
L 396.2612 71.926477 
L 396.568404 71.816652 
L 396.68447 71.800963 
L 397.039155 71.69846 
L 397.150759 71.689046 
L 397.636522 71.579221 
L 397.748118 71.534245 
L 398.261074 71.448477 
L 398.373085 71.39095 
L 398.487115 71.293677 
L 398.599525 71.170254 
L 398.780926 71.062521 
L 398.892937 71.054154 
L 399.596625 70.945375 
L 399.709035 70.940145 
L 400.007722 70.853331 
L 400.119318 70.793712 
L 401.199201 70.689117 
L 401.311211 70.67029 
L 402.053449 70.560465 
L 402.165053 70.554189 
L 402.738875 70.443318 
L 402.850886 70.432859 
L 404.054137 70.332447 
L 404.165733 70.305253 
L 404.782176 70.198566 
L 404.893771 70.161957 
L 405.408356 70.053178 
L 405.524014 70.0218 
L 406.297092 69.913021 
L 406.414785 69.850264 
L 407.053137 69.741485 
L 407.166768 69.717428 
L 407.296219 69.608649 
L 407.409036 69.578316 
L 408.254768 69.472675 
L 408.367178 69.414102 
L 409.43935 69.303231 
L 409.560284 69.298001 
L 410.171037 69.188177 
L 410.284261 69.163074 
L 411.510649 69.056387 
L 411.624273 69.010365 
L 412.476087 68.902632 
L 412.588098 68.892172 
L 413.56328 68.783393 
L 413.676097 68.76875 
L 415.221862 68.661017 
L 415.334679 68.613949 
L 416.554563 68.504124 
L 416.666981 68.386978 
L 417.395825 68.276107 
L 417.509456 68.247866 
L 418.139691 68.138041 
L 418.252109 68.129674 
L 418.757754 68.020895 
L 418.870978 68.009389 
L 419.205375 67.907932 
L 419.316971 67.894335 
L 420.182178 67.783464 
L 420.294588 67.754177 
L 420.927265 67.645398 
L 421.041702 67.580549 
L 422.2762 67.473862 
L 422.387804 67.467587 
L 423.393826 67.364038 
L 423.50543 67.328475 
L 423.615406 67.239569 
L 423.727816 67.157985 
L 424.436779 67.047114 
L 424.54879 67.025149 
L 425.347847 66.922646 
L 425.459443 66.869303 
L 426.26783 66.764707 
L 426.381868 66.706134 
L 427.064054 66.596309 
L 427.176464 66.586896 
L 428.152453 66.481255 
L 428.26487 66.447784 
L 428.783094 66.342143 
L 428.894698 66.321224 
L 429.071231 66.213491 
L 429.183233 66.105758 
L 429.546443 66.008485 
L 429.658039 65.991749 
L 430.379588 65.880879 
L 430.502143 65.831719 
L 431.318248 65.720848 
L 431.431065 65.697837 
L 432.527589 65.586966 
L 432.639185 65.578599 
L 432.704113 65.467728 
L 432.817337 65.434257 
L 433.461372 65.324433 
L 433.572976 65.316065 
L 434.248664 65.209378 
L 434.363102 65.160218 
L 435.32043 65.049347 
L 435.432026 65.037842 
L 436.167375 64.931155 
L 436.279785 64.918603 
L 436.749315 64.81087 
L 436.86376 64.757527 
L 437.337344 64.646656 
L 437.450568 64.644564 
L 438.057673 64.549383 
L 438.169683 64.494993 
L 438.519093 64.398766 
L 438.630689 64.346468 
L 439.672428 64.235597 
L 439.792955 64.231413 
L 440.477575 64.120543 
L 440.640715 64.004442 
L 441.813932 63.894617 
L 441.927563 63.833952 
L 443.196149 63.723081 
L 443.309373 63.713668 
L 444.530079 63.602797 
L 444.65182 63.594429 
L 444.9639 63.497156 
L 445.075903 63.44695 
L 445.616044 63.338171 
L 445.728462 63.308884 
L 447.019364 63.202197 
L 447.134216 63.147808 
L 448.066786 63.036937 
L 448.177983 63.021248 
L 448.54646 62.936526 
L 448.658471 62.871677 
L 449.328884 62.763944 
L 449.441294 62.731519 
L 449.924623 62.625878 
L 450.036626 62.600775 
L 450.769134 62.500364 
L 450.88073 62.465848 
L 451.93018 62.356023 
L 452.042182 62.344517 
L 452.881011 62.235738 
L 452.993014 62.158338 
L 453.591602 62.055835 
L 453.702791 62.01818 
L 454.509965 61.909402 
L 454.626845 61.85292 
L 455.541153 61.744141 
L 455.653156 61.708579 
L 456.859248 61.598754 
L 456.972473 61.596662 
L 457.975255 61.486837 
L 458.088479 61.459642 
L 459.057164 61.348772 
L 459.176877 61.34668 
L 460.886189 61.235809 
L 460.998191 61.223257 
L 461.562691 61.119708 
L 461.674287 61.108203 
L 461.913314 61.017205 
L 462.024918 60.984781 
L 463.151875 60.876002 
L 463.264284 60.872864 
L 463.894112 60.77559 
L 464.005716 60.752579 
L 464.90379 60.661582 
L 465.015394 60.624973 
L 466.072146 60.514102 
L 466.186177 60.486908 
L 467.339113 60.378129 
L 467.452337 60.330015 
L 468.595528 60.226466 
L 468.710372 60.150111 
L 470.279266 60.041333 
L 470.391676 60.036103 
L 471.006084 59.925232 
L 471.119308 59.913726 
L 472.006432 59.808085 
L 472.118842 59.754742 
L 473.326554 59.644917 
L 473.438158 59.636549 
L 474.780197 59.525679 
L 474.892607 59.520449 
L 475.545573 59.417946 
L 475.657177 59.40644 
L 476.022413 59.301845 
L 476.134009 59.280926 
L 477.036553 59.178423 
L 477.148556 59.15855 
L 478.883432 59.047679 
L 478.995842 59.043495 
L 479.823304 58.948313 
L 479.935315 58.885556 
L 480.817563 58.774685 
L 480.934841 58.751675 
L 481.737147 58.64185 
L 481.849557 58.638712 
L 482.532548 58.528887 
L 482.650242 58.50483 
L 483.552371 58.393959 
L 483.671685 58.392913 
L 483.96631 58.292502 
L 484.079534 58.21301 
L 484.639564 58.103185 
L 484.756843 58.08122 
L 485.924792 57.980808 
L 486.037609 57.901316 
L 486.159756 57.892949 
L 487.422261 57.788353 
L 487.534264 57.756975 
L 488.0042 57.64715 
L 488.116618 57.64192 
L 488.584927 57.531049 
L 488.741577 57.434822 
L 489.382771 57.323951 
L 489.504112 57.249688 
L 490.040198 57.139864 
L 490.158698 57.046774 
L 490.736989 56.942179 
L 490.849399 56.875238 
L 491.748288 56.767505 
L 491.861105 56.739264 
L 492.643521 56.628393 
L 492.758772 56.616888 
L 493.537133 56.507063 
L 493.648737 56.490328 
L 494.856857 56.390962 
L 494.969674 56.284275 
L 495.681478 56.189094 
L 495.793082 56.153532 
L 496.095417 56.049982 
L 496.207013 56.023834 
L 497.442325 55.922376 
L 497.554336 55.861711 
L 498.109091 55.8 
L 498.109091 55.8 
" style="fill:none;stroke:#1f77b4;stroke-linecap:square;stroke-width:2;"/>
   </g>
   <g id="patch_3">
    <path d="M 72 320.4 
L 72 43.2 
" style="fill:none;stroke:#000000;stroke-linecap:square;stroke-linejoin:miter;stroke-width:0.8;"/>
   </g>
   <g id="patch_4">
    <path d="M 518.4 320.4 
L 518.4 43.2 
" style="fill:none;stroke:#000000;stroke-linecap:square;stroke-linejoin:miter;stroke-width:0.8;"/>
   </g>
   <g id="patch_5">
    <path d="M 72 320.4 
L 518.4 320.4 
" style="fill:none;stroke:#000000;stroke-linecap:square;stroke-linejoin:miter;stroke-width:0.8;"/>
   </g>
   <g id="patch_6">
    <path d="M 72 43.2 
L 518.4 43.2 
" style="fill:none;stroke:#000000;stroke-linecap:square;stroke-linejoin:miter;stroke-width:0.8;"/>
   </g>
   <g id="text_16">
    <!-- $\delta$ vs Primes Quantity -->
    <g transform="translate(232.74 37.2)scale(0.12 -0.12)">
     <defs>
      <path d="M 2.984375 54.6875 
L 12.5 54.6875 
L 29.59375 8.796875 
L 46.6875 54.6875 
L 56.203125 54.6875 
L 35.6875 0 
L 23.484375 0 
z
" id="DejaVuSans-118"/>
     </defs>
     <use transform="translate(0 0.015625)" xlink:href="#DejaVuSans-Oblique-948"/>
     <use transform="translate(61.181641 0.015625)" xlink:href="#DejaVuSans-32"/>
     <use transform="translate(92.96875 0.015625)" xlink:href="#DejaVuSans-118"/>
     <use transform="translate(152.148438 0.015625)" xlink:href="#DejaVuSans-115"/>
     <use transform="translate(204.248047 0.015625)" xlink:href="#DejaVuSans-32"/>
     <use transform="translate(236.035156 0.015625)" xlink:href="#DejaVuSans-80"/>
     <use transform="translate(296.337891 0.015625)" xlink:href="#DejaVuSans-114"/>
     <use transform="translate(337.451172 0.015625)" xlink:href="#DejaVuSans-105"/>
     <use transform="translate(365.234375 0.015625)" xlink:href="#DejaVuSans-109"/>
     <use transform="translate(462.646484 0.015625)" xlink:href="#DejaVuSans-101"/>
     <use transform="translate(524.169922 0.015625)" xlink:href="#DejaVuSans-115"/>
     <use transform="translate(576.269531 0.015625)" xlink:href="#DejaVuSans-32"/>
     <use transform="translate(608.056641 0.015625)" xlink:href="#DejaVuSans-81"/>
     <use transform="translate(686.767578 0.015625)" xlink:href="#DejaVuSans-117"/>
     <use transform="translate(750.146484 0.015625)" xlink:href="#DejaVuSans-97"/>
     <use transform="translate(811.425781 0.015625)" xlink:href="#DejaVuSans-110"/>
     <use transform="translate(874.804688 0.015625)" xlink:href="#DejaVuSans-116"/>
     <use transform="translate(914.013672 0.015625)" xlink:href="#DejaVuSans-105"/>
     <use transform="translate(941.796875 0.015625)" xlink:href="#DejaVuSans-116"/>
     <use transform="translate(981.005859 0.015625)" xlink:href="#DejaVuSans-121"/>
    </g>
   </g>
   <g id="legend_1">
    <g id="line2d_16">
     <path d="M 81 56.298437 
L 101 56.298437 
" style="fill:none;stroke:#2ca02c;stroke-linecap:square;stroke-width:2;"/>
    </g>
    <g id="line2d_17"/>
    <g id="text_17">
     <!-- $\delta^{1}$ -->
     <g transform="translate(109 59.798437)scale(0.1 -0.1)">
      <use transform="translate(0 0.684375)" xlink:href="#DejaVuSans-Oblique-948"/>
      <use transform="translate(68.382161 38.965625)scale(0.7)" xlink:href="#DejaVuSans-49"/>
     </g>
    </g>
    <g id="line2d_18">
     <path d="M 81 70.976562 
L 101 70.976562 
" style="fill:none;stroke:#d62728;stroke-linecap:square;stroke-width:2;"/>
    </g>
    <g id="line2d_19"/>
    <g id="text_18">
     <!-- $\delta^{10}$ -->
     <g transform="translate(109 74.476562)scale(0.1 -0.1)">
      <use transform="translate(0 0.765625)" xlink:href="#DejaVuSans-Oblique-948"/>
      <use transform="translate(68.382161 39.046875)scale(0.7)" xlink:href="#DejaVuSans-49"/>
      <use transform="translate(112.918294 39.046875)scale(0.7)" xlink:href="#DejaVuSans-48"/>
     </g>
    </g>
    <g id="line2d_20">
     <path d="M 81 85.654687 
L 101 85.654687 
" style="fill:none;stroke:#1f77b4;stroke-linecap:square;stroke-width:2;"/>
    </g>
    <g id="line2d_21"/>
    <g id="text_19">
     <!-- $\delta^{100}$ -->
     <g transform="translate(109 89.154687)scale(0.1 -0.1)">
      <use transform="translate(0 0.765625)" xlink:href="#DejaVuSans-Oblique-948"/>
      <use transform="translate(68.382161 39.046875)scale(0.7)" xlink:href="#DejaVuSans-49"/>
      <use transform="translate(112.918294 39.046875)scale(0.7)" xlink:href="#DejaVuSans-48"/>
      <use transform="translate(157.454427 39.046875)scale(0.7)" xlink:href="#DejaVuSans-48"/>
     </g>
    </g>
   </g>
  </g>
 </g>
 <defs>
  <clipPath id="pb1a96a4beb">
   <rect height="277.2" width="446.4" x="72" y="43.2"/>
  </clipPath>
 </defs>
</svg>
