<?xml version="1.0" encoding="utf-8" standalone="no"?>
<!DOCTYPE svg PUBLIC "-//W3C//DTD SVG 1.1//EN"
  "http://www.w3.org/Graphics/SVG/1.1/DTD/svg11.dtd">
<!-- Created with matplotlib (https://matplotlib.org/) -->
<svg height="360pt" version="1.1" viewBox="0 0 576 360" width="576pt" xmlns="http://www.w3.org/2000/svg" xmlns:xlink="http://www.w3.org/1999/xlink">
 <metadata>
  <rdf:RDF xmlns:cc="http://creativecommons.org/ns#" xmlns:dc="http://purl.org/dc/elements/1.1/" xmlns:rdf="http://www.w3.org/1999/02/22-rdf-syntax-ns#">
   <cc:Work>
    <dc:type rdf:resource="http://purl.org/dc/dcmitype/StillImage"/>
    <dc:date>2021-04-11T20:29:16.475591</dc:date>
    <dc:format>image/svg+xml</dc:format>
    <dc:creator>
     <cc:Agent>
      <dc:title>Matplotlib v3.3.4, https://matplotlib.org/</dc:title>
     </cc:Agent>
    </dc:creator>
   </cc:Work>
  </rdf:RDF>
 </metadata>
 <defs>
  <style type="text/css">*{stroke-linecap:butt;stroke-linejoin:round;}</style>
 </defs>
 <g id="figure_1">
  <g id="patch_1">
   <path d="M 0 360 
L 576 360 
L 576 0 
L 0 0 
z
" style="fill:none;"/>
  </g>
  <g id="axes_1">
   <g id="patch_2">
    <path d="M 72 320.4 
L 518.4 320.4 
L 518.4 43.2 
L 72 43.2 
z
" style="fill:none;"/>
   </g>
   <g id="matplotlib.axis_1">
    <g id="xtick_1">
     <g id="line2d_1">
      <defs>
       <path d="M 0 0 
L 0 3.5 
" id="m6d16f50db3" style="stroke:#000000;stroke-width:0.8;"/>
      </defs>
      <g>
       <use style="stroke:#000000;stroke-width:0.8;" x="92.290909" xlink:href="#m6d16f50db3" y="320.4"/>
      </g>
     </g>
     <g id="text_1">
      <!-- 0 -->
      <g transform="translate(89.109659 334.998438)scale(0.1 -0.1)">
       <defs>
        <path d="M 31.78125 66.40625 
Q 24.171875 66.40625 20.328125 58.90625 
Q 16.5 51.421875 16.5 36.375 
Q 16.5 21.390625 20.328125 13.890625 
Q 24.171875 6.390625 31.78125 6.390625 
Q 39.453125 6.390625 43.28125 13.890625 
Q 47.125 21.390625 47.125 36.375 
Q 47.125 51.421875 43.28125 58.90625 
Q 39.453125 66.40625 31.78125 66.40625 
z
M 31.78125 74.21875 
Q 44.046875 74.21875 50.515625 64.515625 
Q 56.984375 54.828125 56.984375 36.375 
Q 56.984375 17.96875 50.515625 8.265625 
Q 44.046875 -1.421875 31.78125 -1.421875 
Q 19.53125 -1.421875 13.0625 8.265625 
Q 6.59375 17.96875 6.59375 36.375 
Q 6.59375 54.828125 13.0625 64.515625 
Q 19.53125 74.21875 31.78125 74.21875 
z
" id="DejaVuSans-48"/>
       </defs>
       <use xlink:href="#DejaVuSans-48"/>
      </g>
     </g>
    </g>
    <g id="xtick_2">
     <g id="line2d_2">
      <g>
       <use style="stroke:#000000;stroke-width:0.8;" x="172.104839" xlink:href="#m6d16f50db3" y="320.4"/>
      </g>
     </g>
     <g id="text_2">
      <!-- 1 -->
      <g transform="translate(168.923589 334.998438)scale(0.1 -0.1)">
       <defs>
        <path d="M 12.40625 8.296875 
L 28.515625 8.296875 
L 28.515625 63.921875 
L 10.984375 60.40625 
L 10.984375 69.390625 
L 28.421875 72.90625 
L 38.28125 72.90625 
L 38.28125 8.296875 
L 54.390625 8.296875 
L 54.390625 0 
L 12.40625 0 
z
" id="DejaVuSans-49"/>
       </defs>
       <use xlink:href="#DejaVuSans-49"/>
      </g>
     </g>
    </g>
    <g id="xtick_3">
     <g id="line2d_3">
      <g>
       <use style="stroke:#000000;stroke-width:0.8;" x="251.918769" xlink:href="#m6d16f50db3" y="320.4"/>
      </g>
     </g>
     <g id="text_3">
      <!-- 2 -->
      <g transform="translate(248.737519 334.998438)scale(0.1 -0.1)">
       <defs>
        <path d="M 19.1875 8.296875 
L 53.609375 8.296875 
L 53.609375 0 
L 7.328125 0 
L 7.328125 8.296875 
Q 12.9375 14.109375 22.625 23.890625 
Q 32.328125 33.6875 34.8125 36.53125 
Q 39.546875 41.84375 41.421875 45.53125 
Q 43.3125 49.21875 43.3125 52.78125 
Q 43.3125 58.59375 39.234375 62.25 
Q 35.15625 65.921875 28.609375 65.921875 
Q 23.96875 65.921875 18.8125 64.3125 
Q 13.671875 62.703125 7.8125 59.421875 
L 7.8125 69.390625 
Q 13.765625 71.78125 18.9375 73 
Q 24.125 74.21875 28.421875 74.21875 
Q 39.75 74.21875 46.484375 68.546875 
Q 53.21875 62.890625 53.21875 53.421875 
Q 53.21875 48.921875 51.53125 44.890625 
Q 49.859375 40.875 45.40625 35.40625 
Q 44.1875 33.984375 37.640625 27.21875 
Q 31.109375 20.453125 19.1875 8.296875 
z
" id="DejaVuSans-50"/>
       </defs>
       <use xlink:href="#DejaVuSans-50"/>
      </g>
     </g>
    </g>
    <g id="xtick_4">
     <g id="line2d_4">
      <g>
       <use style="stroke:#000000;stroke-width:0.8;" x="331.732699" xlink:href="#m6d16f50db3" y="320.4"/>
      </g>
     </g>
     <g id="text_4">
      <!-- 3 -->
      <g transform="translate(328.551449 334.998438)scale(0.1 -0.1)">
       <defs>
        <path d="M 40.578125 39.3125 
Q 47.65625 37.796875 51.625 33 
Q 55.609375 28.21875 55.609375 21.1875 
Q 55.609375 10.40625 48.1875 4.484375 
Q 40.765625 -1.421875 27.09375 -1.421875 
Q 22.515625 -1.421875 17.65625 -0.515625 
Q 12.796875 0.390625 7.625 2.203125 
L 7.625 11.71875 
Q 11.71875 9.328125 16.59375 8.109375 
Q 21.484375 6.890625 26.8125 6.890625 
Q 36.078125 6.890625 40.9375 10.546875 
Q 45.796875 14.203125 45.796875 21.1875 
Q 45.796875 27.640625 41.28125 31.265625 
Q 36.765625 34.90625 28.71875 34.90625 
L 20.21875 34.90625 
L 20.21875 43.015625 
L 29.109375 43.015625 
Q 36.375 43.015625 40.234375 45.921875 
Q 44.09375 48.828125 44.09375 54.296875 
Q 44.09375 59.90625 40.109375 62.90625 
Q 36.140625 65.921875 28.71875 65.921875 
Q 24.65625 65.921875 20.015625 65.03125 
Q 15.375 64.15625 9.8125 62.3125 
L 9.8125 71.09375 
Q 15.4375 72.65625 20.34375 73.4375 
Q 25.25 74.21875 29.59375 74.21875 
Q 40.828125 74.21875 47.359375 69.109375 
Q 53.90625 64.015625 53.90625 55.328125 
Q 53.90625 49.265625 50.4375 45.09375 
Q 46.96875 40.921875 40.578125 39.3125 
z
" id="DejaVuSans-51"/>
       </defs>
       <use xlink:href="#DejaVuSans-51"/>
      </g>
     </g>
    </g>
    <g id="xtick_5">
     <g id="line2d_5">
      <g>
       <use style="stroke:#000000;stroke-width:0.8;" x="411.54663" xlink:href="#m6d16f50db3" y="320.4"/>
      </g>
     </g>
     <g id="text_5">
      <!-- 4 -->
      <g transform="translate(408.36538 334.998438)scale(0.1 -0.1)">
       <defs>
        <path d="M 37.796875 64.3125 
L 12.890625 25.390625 
L 37.796875 25.390625 
z
M 35.203125 72.90625 
L 47.609375 72.90625 
L 47.609375 25.390625 
L 58.015625 25.390625 
L 58.015625 17.1875 
L 47.609375 17.1875 
L 47.609375 0 
L 37.796875 0 
L 37.796875 17.1875 
L 4.890625 17.1875 
L 4.890625 26.703125 
z
" id="DejaVuSans-52"/>
       </defs>
       <use xlink:href="#DejaVuSans-52"/>
      </g>
     </g>
    </g>
    <g id="xtick_6">
     <g id="line2d_6">
      <g>
       <use style="stroke:#000000;stroke-width:0.8;" x="491.36056" xlink:href="#m6d16f50db3" y="320.4"/>
      </g>
     </g>
     <g id="text_6">
      <!-- 5 -->
      <g transform="translate(488.17931 334.998438)scale(0.1 -0.1)">
       <defs>
        <path d="M 10.796875 72.90625 
L 49.515625 72.90625 
L 49.515625 64.59375 
L 19.828125 64.59375 
L 19.828125 46.734375 
Q 21.96875 47.46875 24.109375 47.828125 
Q 26.265625 48.1875 28.421875 48.1875 
Q 40.625 48.1875 47.75 41.5 
Q 54.890625 34.8125 54.890625 23.390625 
Q 54.890625 11.625 47.5625 5.09375 
Q 40.234375 -1.421875 26.90625 -1.421875 
Q 22.3125 -1.421875 17.546875 -0.640625 
Q 12.796875 0.140625 7.71875 1.703125 
L 7.71875 11.625 
Q 12.109375 9.234375 16.796875 8.0625 
Q 21.484375 6.890625 26.703125 6.890625 
Q 35.15625 6.890625 40.078125 11.328125 
Q 45.015625 15.765625 45.015625 23.390625 
Q 45.015625 31 40.078125 35.4375 
Q 35.15625 39.890625 26.703125 39.890625 
Q 22.75 39.890625 18.8125 39.015625 
Q 14.890625 38.140625 10.796875 36.28125 
z
" id="DejaVuSans-53"/>
       </defs>
       <use xlink:href="#DejaVuSans-53"/>
      </g>
     </g>
    </g>
    <g id="text_7">
     <!-- Primes Quantity -->
     <g transform="translate(255.08125 348.676562)scale(0.1 -0.1)">
      <defs>
       <path d="M 19.671875 64.796875 
L 19.671875 37.40625 
L 32.078125 37.40625 
Q 38.96875 37.40625 42.71875 40.96875 
Q 46.484375 44.53125 46.484375 51.125 
Q 46.484375 57.671875 42.71875 61.234375 
Q 38.96875 64.796875 32.078125 64.796875 
z
M 9.8125 72.90625 
L 32.078125 72.90625 
Q 44.34375 72.90625 50.609375 67.359375 
Q 56.890625 61.8125 56.890625 51.125 
Q 56.890625 40.328125 50.609375 34.8125 
Q 44.34375 29.296875 32.078125 29.296875 
L 19.671875 29.296875 
L 19.671875 0 
L 9.8125 0 
z
" id="DejaVuSans-80"/>
       <path d="M 41.109375 46.296875 
Q 39.59375 47.171875 37.8125 47.578125 
Q 36.03125 48 33.890625 48 
Q 26.265625 48 22.1875 43.046875 
Q 18.109375 38.09375 18.109375 28.8125 
L 18.109375 0 
L 9.078125 0 
L 9.078125 54.6875 
L 18.109375 54.6875 
L 18.109375 46.1875 
Q 20.953125 51.171875 25.484375 53.578125 
Q 30.03125 56 36.53125 56 
Q 37.453125 56 38.578125 55.875 
Q 39.703125 55.765625 41.0625 55.515625 
z
" id="DejaVuSans-114"/>
       <path d="M 9.421875 54.6875 
L 18.40625 54.6875 
L 18.40625 0 
L 9.421875 0 
z
M 9.421875 75.984375 
L 18.40625 75.984375 
L 18.40625 64.59375 
L 9.421875 64.59375 
z
" id="DejaVuSans-105"/>
       <path d="M 52 44.1875 
Q 55.375 50.25 60.0625 53.125 
Q 64.75 56 71.09375 56 
Q 79.640625 56 84.28125 50.015625 
Q 88.921875 44.046875 88.921875 33.015625 
L 88.921875 0 
L 79.890625 0 
L 79.890625 32.71875 
Q 79.890625 40.578125 77.09375 44.375 
Q 74.3125 48.1875 68.609375 48.1875 
Q 61.625 48.1875 57.5625 43.546875 
Q 53.515625 38.921875 53.515625 30.90625 
L 53.515625 0 
L 44.484375 0 
L 44.484375 32.71875 
Q 44.484375 40.625 41.703125 44.40625 
Q 38.921875 48.1875 33.109375 48.1875 
Q 26.21875 48.1875 22.15625 43.53125 
Q 18.109375 38.875 18.109375 30.90625 
L 18.109375 0 
L 9.078125 0 
L 9.078125 54.6875 
L 18.109375 54.6875 
L 18.109375 46.1875 
Q 21.1875 51.21875 25.484375 53.609375 
Q 29.78125 56 35.6875 56 
Q 41.65625 56 45.828125 52.96875 
Q 50 49.953125 52 44.1875 
z
" id="DejaVuSans-109"/>
       <path d="M 56.203125 29.59375 
L 56.203125 25.203125 
L 14.890625 25.203125 
Q 15.484375 15.921875 20.484375 11.0625 
Q 25.484375 6.203125 34.421875 6.203125 
Q 39.59375 6.203125 44.453125 7.46875 
Q 49.3125 8.734375 54.109375 11.28125 
L 54.109375 2.78125 
Q 49.265625 0.734375 44.1875 -0.34375 
Q 39.109375 -1.421875 33.890625 -1.421875 
Q 20.796875 -1.421875 13.15625 6.1875 
Q 5.515625 13.8125 5.515625 26.8125 
Q 5.515625 40.234375 12.765625 48.109375 
Q 20.015625 56 32.328125 56 
Q 43.359375 56 49.78125 48.890625 
Q 56.203125 41.796875 56.203125 29.59375 
z
M 47.21875 32.234375 
Q 47.125 39.59375 43.09375 43.984375 
Q 39.0625 48.390625 32.421875 48.390625 
Q 24.90625 48.390625 20.390625 44.140625 
Q 15.875 39.890625 15.1875 32.171875 
z
" id="DejaVuSans-101"/>
       <path d="M 44.28125 53.078125 
L 44.28125 44.578125 
Q 40.484375 46.53125 36.375 47.5 
Q 32.28125 48.484375 27.875 48.484375 
Q 21.1875 48.484375 17.84375 46.4375 
Q 14.5 44.390625 14.5 40.28125 
Q 14.5 37.15625 16.890625 35.375 
Q 19.28125 33.59375 26.515625 31.984375 
L 29.59375 31.296875 
Q 39.15625 29.25 43.1875 25.515625 
Q 47.21875 21.78125 47.21875 15.09375 
Q 47.21875 7.46875 41.1875 3.015625 
Q 35.15625 -1.421875 24.609375 -1.421875 
Q 20.21875 -1.421875 15.453125 -0.5625 
Q 10.6875 0.296875 5.421875 2 
L 5.421875 11.28125 
Q 10.40625 8.6875 15.234375 7.390625 
Q 20.0625 6.109375 24.8125 6.109375 
Q 31.15625 6.109375 34.5625 8.28125 
Q 37.984375 10.453125 37.984375 14.40625 
Q 37.984375 18.0625 35.515625 20.015625 
Q 33.0625 21.96875 24.703125 23.78125 
L 21.578125 24.515625 
Q 13.234375 26.265625 9.515625 29.90625 
Q 5.8125 33.546875 5.8125 39.890625 
Q 5.8125 47.609375 11.28125 51.796875 
Q 16.75 56 26.8125 56 
Q 31.78125 56 36.171875 55.265625 
Q 40.578125 54.546875 44.28125 53.078125 
z
" id="DejaVuSans-115"/>
       <path id="DejaVuSans-32"/>
       <path d="M 39.40625 66.21875 
Q 28.65625 66.21875 22.328125 58.203125 
Q 16.015625 50.203125 16.015625 36.375 
Q 16.015625 22.609375 22.328125 14.59375 
Q 28.65625 6.59375 39.40625 6.59375 
Q 50.140625 6.59375 56.421875 14.59375 
Q 62.703125 22.609375 62.703125 36.375 
Q 62.703125 50.203125 56.421875 58.203125 
Q 50.140625 66.21875 39.40625 66.21875 
z
M 53.21875 1.3125 
L 66.21875 -12.890625 
L 54.296875 -12.890625 
L 43.5 -1.21875 
Q 41.890625 -1.3125 41.03125 -1.359375 
Q 40.1875 -1.421875 39.40625 -1.421875 
Q 24.03125 -1.421875 14.8125 8.859375 
Q 5.609375 19.140625 5.609375 36.375 
Q 5.609375 53.65625 14.8125 63.9375 
Q 24.03125 74.21875 39.40625 74.21875 
Q 54.734375 74.21875 63.90625 63.9375 
Q 73.09375 53.65625 73.09375 36.375 
Q 73.09375 23.6875 67.984375 14.640625 
Q 62.890625 5.609375 53.21875 1.3125 
z
" id="DejaVuSans-81"/>
       <path d="M 8.5 21.578125 
L 8.5 54.6875 
L 17.484375 54.6875 
L 17.484375 21.921875 
Q 17.484375 14.15625 20.5 10.265625 
Q 23.53125 6.390625 29.59375 6.390625 
Q 36.859375 6.390625 41.078125 11.03125 
Q 45.3125 15.671875 45.3125 23.6875 
L 45.3125 54.6875 
L 54.296875 54.6875 
L 54.296875 0 
L 45.3125 0 
L 45.3125 8.40625 
Q 42.046875 3.421875 37.71875 1 
Q 33.40625 -1.421875 27.6875 -1.421875 
Q 18.265625 -1.421875 13.375 4.4375 
Q 8.5 10.296875 8.5 21.578125 
z
M 31.109375 56 
z
" id="DejaVuSans-117"/>
       <path d="M 34.28125 27.484375 
Q 23.390625 27.484375 19.1875 25 
Q 14.984375 22.515625 14.984375 16.5 
Q 14.984375 11.71875 18.140625 8.90625 
Q 21.296875 6.109375 26.703125 6.109375 
Q 34.1875 6.109375 38.703125 11.40625 
Q 43.21875 16.703125 43.21875 25.484375 
L 43.21875 27.484375 
z
M 52.203125 31.203125 
L 52.203125 0 
L 43.21875 0 
L 43.21875 8.296875 
Q 40.140625 3.328125 35.546875 0.953125 
Q 30.953125 -1.421875 24.3125 -1.421875 
Q 15.921875 -1.421875 10.953125 3.296875 
Q 6 8.015625 6 15.921875 
Q 6 25.140625 12.171875 29.828125 
Q 18.359375 34.515625 30.609375 34.515625 
L 43.21875 34.515625 
L 43.21875 35.40625 
Q 43.21875 41.609375 39.140625 45 
Q 35.0625 48.390625 27.6875 48.390625 
Q 23 48.390625 18.546875 47.265625 
Q 14.109375 46.140625 10.015625 43.890625 
L 10.015625 52.203125 
Q 14.9375 54.109375 19.578125 55.046875 
Q 24.21875 56 28.609375 56 
Q 40.484375 56 46.34375 49.84375 
Q 52.203125 43.703125 52.203125 31.203125 
z
" id="DejaVuSans-97"/>
       <path d="M 54.890625 33.015625 
L 54.890625 0 
L 45.90625 0 
L 45.90625 32.71875 
Q 45.90625 40.484375 42.875 44.328125 
Q 39.84375 48.1875 33.796875 48.1875 
Q 26.515625 48.1875 22.3125 43.546875 
Q 18.109375 38.921875 18.109375 30.90625 
L 18.109375 0 
L 9.078125 0 
L 9.078125 54.6875 
L 18.109375 54.6875 
L 18.109375 46.1875 
Q 21.34375 51.125 25.703125 53.5625 
Q 30.078125 56 35.796875 56 
Q 45.21875 56 50.046875 50.171875 
Q 54.890625 44.34375 54.890625 33.015625 
z
" id="DejaVuSans-110"/>
       <path d="M 18.3125 70.21875 
L 18.3125 54.6875 
L 36.8125 54.6875 
L 36.8125 47.703125 
L 18.3125 47.703125 
L 18.3125 18.015625 
Q 18.3125 11.328125 20.140625 9.421875 
Q 21.96875 7.515625 27.59375 7.515625 
L 36.8125 7.515625 
L 36.8125 0 
L 27.59375 0 
Q 17.1875 0 13.234375 3.875 
Q 9.28125 7.765625 9.28125 18.015625 
L 9.28125 47.703125 
L 2.6875 47.703125 
L 2.6875 54.6875 
L 9.28125 54.6875 
L 9.28125 70.21875 
z
" id="DejaVuSans-116"/>
       <path d="M 32.171875 -5.078125 
Q 28.375 -14.84375 24.75 -17.8125 
Q 21.140625 -20.796875 15.09375 -20.796875 
L 7.90625 -20.796875 
L 7.90625 -13.28125 
L 13.1875 -13.28125 
Q 16.890625 -13.28125 18.9375 -11.515625 
Q 21 -9.765625 23.484375 -3.21875 
L 25.09375 0.875 
L 2.984375 54.6875 
L 12.5 54.6875 
L 29.59375 11.921875 
L 46.6875 54.6875 
L 56.203125 54.6875 
z
" id="DejaVuSans-121"/>
      </defs>
      <use xlink:href="#DejaVuSans-80"/>
      <use x="58.552734" xlink:href="#DejaVuSans-114"/>
      <use x="99.666016" xlink:href="#DejaVuSans-105"/>
      <use x="127.449219" xlink:href="#DejaVuSans-109"/>
      <use x="224.861328" xlink:href="#DejaVuSans-101"/>
      <use x="286.384766" xlink:href="#DejaVuSans-115"/>
      <use x="338.484375" xlink:href="#DejaVuSans-32"/>
      <use x="370.271484" xlink:href="#DejaVuSans-81"/>
      <use x="448.982422" xlink:href="#DejaVuSans-117"/>
      <use x="512.361328" xlink:href="#DejaVuSans-97"/>
      <use x="573.640625" xlink:href="#DejaVuSans-110"/>
      <use x="637.019531" xlink:href="#DejaVuSans-116"/>
      <use x="676.228516" xlink:href="#DejaVuSans-105"/>
      <use x="704.011719" xlink:href="#DejaVuSans-116"/>
      <use x="743.220703" xlink:href="#DejaVuSans-121"/>
     </g>
    </g>
    <g id="text_8">
     <!-- 1e7 -->
     <g transform="translate(499.521875 347.676562)scale(0.1 -0.1)">
      <defs>
       <path d="M 8.203125 72.90625 
L 55.078125 72.90625 
L 55.078125 68.703125 
L 28.609375 0 
L 18.3125 0 
L 43.21875 64.59375 
L 8.203125 64.59375 
z
" id="DejaVuSans-55"/>
      </defs>
      <use xlink:href="#DejaVuSans-49"/>
      <use x="63.623047" xlink:href="#DejaVuSans-101"/>
      <use x="125.146484" xlink:href="#DejaVuSans-55"/>
     </g>
    </g>
   </g>
   <g id="matplotlib.axis_2">
    <g id="ytick_1">
     <g id="line2d_7">
      <defs>
       <path d="M 0 0 
L -3.5 0 
" id="mb65666772a" style="stroke:#000000;stroke-width:0.8;"/>
      </defs>
      <g>
       <use style="stroke:#000000;stroke-width:0.8;" x="72" xlink:href="#mb65666772a" y="307.811933"/>
      </g>
     </g>
     <g id="text_9">
      <!-- 0 -->
      <g transform="translate(58.6375 311.611152)scale(0.1 -0.1)">
       <use xlink:href="#DejaVuSans-48"/>
      </g>
     </g>
    </g>
    <g id="ytick_2">
     <g id="line2d_8">
      <g>
       <use style="stroke:#000000;stroke-width:0.8;" x="72" xlink:href="#mb65666772a" y="248.147192"/>
      </g>
     </g>
     <g id="text_10">
      <!-- 5000 -->
      <g transform="translate(39.55 251.946411)scale(0.1 -0.1)">
       <use xlink:href="#DejaVuSans-53"/>
       <use x="63.623047" xlink:href="#DejaVuSans-48"/>
       <use x="127.246094" xlink:href="#DejaVuSans-48"/>
       <use x="190.869141" xlink:href="#DejaVuSans-48"/>
      </g>
     </g>
    </g>
    <g id="ytick_3">
     <g id="line2d_9">
      <g>
       <use style="stroke:#000000;stroke-width:0.8;" x="72" xlink:href="#mb65666772a" y="188.482451"/>
      </g>
     </g>
     <g id="text_11">
      <!-- 10000 -->
      <g transform="translate(33.1875 192.28167)scale(0.1 -0.1)">
       <use xlink:href="#DejaVuSans-49"/>
       <use x="63.623047" xlink:href="#DejaVuSans-48"/>
       <use x="127.246094" xlink:href="#DejaVuSans-48"/>
       <use x="190.869141" xlink:href="#DejaVuSans-48"/>
       <use x="254.492188" xlink:href="#DejaVuSans-48"/>
      </g>
     </g>
    </g>
    <g id="ytick_4">
     <g id="line2d_10">
      <g>
       <use style="stroke:#000000;stroke-width:0.8;" x="72" xlink:href="#mb65666772a" y="128.81771"/>
      </g>
     </g>
     <g id="text_12">
      <!-- 15000 -->
      <g transform="translate(33.1875 132.616929)scale(0.1 -0.1)">
       <use xlink:href="#DejaVuSans-49"/>
       <use x="63.623047" xlink:href="#DejaVuSans-53"/>
       <use x="127.246094" xlink:href="#DejaVuSans-48"/>
       <use x="190.869141" xlink:href="#DejaVuSans-48"/>
       <use x="254.492188" xlink:href="#DejaVuSans-48"/>
      </g>
     </g>
    </g>
    <g id="ytick_5">
     <g id="line2d_11">
      <g>
       <use style="stroke:#000000;stroke-width:0.8;" x="72" xlink:href="#mb65666772a" y="69.152969"/>
      </g>
     </g>
     <g id="text_13">
      <!-- 20000 -->
      <g transform="translate(33.1875 72.952188)scale(0.1 -0.1)">
       <use xlink:href="#DejaVuSans-50"/>
       <use x="63.623047" xlink:href="#DejaVuSans-48"/>
       <use x="127.246094" xlink:href="#DejaVuSans-48"/>
       <use x="190.869141" xlink:href="#DejaVuSans-48"/>
       <use x="254.492188" xlink:href="#DejaVuSans-48"/>
      </g>
     </g>
    </g>
    <g id="text_14">
     <!-- $\delta$ Quantity -->
     <g transform="translate(27.0875 208.1)rotate(-90)scale(0.1 -0.1)">
      <defs>
       <path d="M 54.25 63.328125 
Q 49.953125 66.75 38.28125 66.75 
Q 25.921875 66.75 24.8125 61.03125 
Q 23.921875 56.546875 36.375 54.203125 
Q 46.140625 52.390625 50.828125 46.921875 
Q 56.5 40.328125 53.859375 26.8125 
Q 51.3125 13.875 43.171875 6.25 
Q 34.96875 -1.421875 23.25 -1.421875 
Q 11.578125 -1.421875 6.34375 6.25 
Q 1.125 13.875 3.765625 27.296875 
Q 5.671875 37.25 13.921875 45.3125 
Q 17.140625 48.4375 21.140625 50.203125 
Q 14.265625 54.046875 15.625 60.9375 
Q 18.21875 74.21875 39.75 74.21875 
Q 50.53125 74.21875 55.71875 70.796875 
z
M 27.390625 47.75 
Q 23.828125 46.34375 20.40625 42.78125 
Q 15.140625 37.25 13.234375 27.296875 
Q 11.28125 17.390625 14.359375 11.8125 
Q 17.484375 6.203125 24.75 6.203125 
Q 31.9375 6.203125 37.203125 11.859375 
Q 42.53125 17.53125 44.34375 26.8125 
Q 46.1875 36.53125 42.671875 41.21875 
Q 38.921875 46.234375 32.859375 46.78125 
Q 29.78125 47.078125 27.390625 47.75 
z
" id="DejaVuSans-Oblique-948"/>
      </defs>
      <use transform="translate(0 0.015625)" xlink:href="#DejaVuSans-Oblique-948"/>
      <use transform="translate(61.181641 0.015625)" xlink:href="#DejaVuSans-32"/>
      <use transform="translate(92.96875 0.015625)" xlink:href="#DejaVuSans-81"/>
      <use transform="translate(171.679688 0.015625)" xlink:href="#DejaVuSans-117"/>
      <use transform="translate(235.058594 0.015625)" xlink:href="#DejaVuSans-97"/>
      <use transform="translate(296.337891 0.015625)" xlink:href="#DejaVuSans-110"/>
      <use transform="translate(359.716797 0.015625)" xlink:href="#DejaVuSans-116"/>
      <use transform="translate(398.925781 0.015625)" xlink:href="#DejaVuSans-105"/>
      <use transform="translate(426.708984 0.015625)" xlink:href="#DejaVuSans-116"/>
      <use transform="translate(465.917969 0.015625)" xlink:href="#DejaVuSans-121"/>
     </g>
    </g>
   </g>
   <g id="line2d_12">
    <path clip-path="url(#pcc2fef11aa)" d="M 92.290909 307.8 
L 92.410622 304.661635 
L 92.5693 303.26548 
L 92.596485 303.158083 
L 92.731626 302.454039 
L 92.752728 302.346643 
L 92.884214 301.749995 
L 92.952391 301.642599 
L 93.081035 301.129482 
L 93.114717 301.022085 
L 93.239306 300.628298 
L 93.274608 300.520902 
L 93.395135 300.246444 
L 93.447892 300.139047 
L 93.566392 299.924254 
L 93.616307 299.816858 
L 93.734807 299.602065 
L 93.80217 299.494668 
L 93.923511 299.196344 
L 93.984385 299.088948 
L 94.103292 298.862222 
L 94.223819 298.754825 
L 94.340291 298.587764 
L 94.42064 298.480367 
L 94.537919 298.301373 
L 94.596765 298.193977 
L 94.714451 298.00305 
L 94.830924 297.895653 
L 94.94983 297.668927 
L 95.070764 297.573463 
L 95.183581 297.466067 
L 95.339418 297.35867 
L 95.451828 297.27514 
L 95.553687 297.167743 
L 95.670965 296.988749 
L 95.763086 296.893285 
L 95.87631 296.75009 
L 95.968025 296.642693 
L 96.084497 296.475632 
L 96.217204 296.368236 
L 96.329614 296.320504 
L 96.599481 296.213107 
L 96.712705 296.14151 
L 96.856769 296.034113 
L 96.9704 295.950582 
L 97.05197 295.855119 
L 97.16438 295.771588 
L 97.324271 295.664192 
L 97.438309 295.568728 
L 97.603069 295.461332 
L 97.717107 295.365868 
L 97.887957 295.258471 
L 97.99996 295.222673 
L 98.182582 295.127209 
L 98.295806 294.995947 
L 98.522653 294.88855 
L 98.63547 294.769221 
L 98.825395 294.661824 
L 98.93984 294.554428 
L 99.157357 294.447031 
L 99.270174 294.387366 
L 99.437776 294.27997 
L 99.549379 294.256104 
L 99.764055 294.148707 
L 99.876872 294.089043 
L 100.033116 293.981646 
L 100.145933 293.921981 
L 100.368725 293.814585 
L 100.481949 293.742987 
L 100.718949 293.63559 
L 100.831359 293.587859 
L 101.108936 293.480462 
L 101.221346 293.43273 
L 101.616616 293.325334 
L 101.729433 293.265669 
L 102.101973 293.158273 
L 102.214391 293.110541 
L 102.420542 293.003144 
L 102.533359 292.943479 
L 102.936339 292.836083 
L 103.049156 292.776418 
L 103.276012 292.669022 
L 103.388014 292.633223 
L 103.632724 292.525826 
L 103.746355 292.442296 
L 104.134722 292.334899 
L 104.247539 292.275234 
L 104.486972 292.167838 
L 104.598568 292.143972 
L 104.873312 292.036575 
L 104.984509 292.01271 
L 105.172806 291.905313 
L 105.284808 291.869514 
L 105.644362 291.762118 
L 105.757586 291.69052 
L 106.036791 291.583123 
L 106.148794 291.547325 
L 106.475074 291.439928 
L 106.587891 291.380263 
L 107.009133 291.272867 
L 107.121143 291.237068 
L 107.884891 291.129671 
L 107.997301 291.08194 
L 108.236735 290.974543 
L 108.348738 290.938744 
L 108.880769 290.831348 
L 108.993179 290.783616 
L 109.332851 290.676219 
L 109.444854 290.64042 
L 110.00854 290.544957 
L 110.120136 290.497225 
L 110.552336 290.389829 
L 110.66556 290.318231 
L 110.980474 290.222767 
L 111.092477 290.163103 
L 111.392378 290.055706 
L 111.504796 290.007974 
L 111.84893 289.900578 
L 111.960525 289.876712 
L 112.716164 289.769315 
L 112.82776 289.745449 
L 113.02905 289.638053 
L 113.141053 289.602254 
L 113.666181 289.494857 
L 113.778184 289.459059 
L 114.338214 289.351662 
L 114.450225 289.315863 
L 114.806123 289.208467 
L 114.917727 289.184601 
L 115.256585 289.077204 
L 115.369809 289.005607 
L 115.793079 288.910143 
L 115.904267 288.886277 
L 116.66843 288.778881 
L 116.779619 288.766948 
L 117.212633 288.659551 
L 117.324229 288.635685 
L 117.581517 288.528289 
L 117.695148 288.444758 
L 118.324976 288.337361 
L 118.436173 288.325429 
L 119.372398 288.218032 
L 119.484401 288.182233 
L 119.87521 288.074837 
L 119.988426 288.003239 
L 120.559822 287.907775 
L 120.671825 287.848111 
L 121.00176 287.740714 
L 121.11417 287.692982 
L 121.856008 287.585586 
L 121.967604 287.56172 
L 122.774371 287.454323 
L 122.885568 287.44239 
L 123.464267 287.346927 
L 123.575863 287.299195 
L 124.305937 287.191798 
L 124.418754 287.132134 
L 124.943881 287.024737 
L 125.055884 286.988938 
L 125.677196 286.881542 
L 125.788393 286.869609 
L 126.501817 286.762212 
L 126.613421 286.738346 
L 127.263538 286.63095 
L 127.375141 286.607084 
L 127.956275 286.499687 
L 128.068277 286.463889 
L 128.896962 286.356492 
L 129.008557 286.332626 
L 129.582388 286.22523 
L 129.694391 286.189431 
L 131.163861 286.082034 
L 131.276271 286.034302 
L 132.050985 285.926906 
L 132.16258 285.90304 
L 132.937693 285.795644 
L 133.049297 285.771778 
L 133.94453 285.664381 
L 134.056134 285.640515 
L 134.768745 285.533119 
L 134.879941 285.521186 
L 135.254516 285.425722 
L 135.366112 285.389923 
L 136.388369 285.282527 
L 136.499973 285.258661 
L 137.518574 285.151264 
L 137.630178 285.127398 
L 138.764031 285.020002 
L 138.875634 284.996136 
L 139.484766 284.888739 
L 139.595963 284.876807 
L 140.929071 284.76941 
L 141.041489 284.721678 
L 141.819843 284.626215 
L 141.931446 284.590416 
L 142.671657 284.483019 
L 142.785288 284.399489 
L 143.555532 284.304025 
L 143.666729 284.280159 
L 144.454013 284.172763 
L 144.56521 284.16083 
L 145.208024 284.053433 
L 145.319627 284.029567 
L 146.104885 283.922171 
L 146.216489 283.898305 
L 146.955885 283.790908 
L 147.067082 283.778975 
L 148.594178 283.671579 
L 148.705773 283.647713 
L 149.230095 283.540316 
L 149.341292 283.528383 
L 150.797361 283.43292 
L 150.908558 283.409054 
L 151.344813 283.301657 
L 151.45601 283.289724 
L 153.221725 283.182328 
L 153.333329 283.158462 
L 154.573909 283.051065 
L 154.685513 283.015267 
L 156.056772 282.90787 
L 156.168376 282.884004 
L 157.29574 282.776608 
L 157.407335 282.752742 
L 158.223441 282.645345 
L 158.334638 282.633412 
L 159.091082 282.526016 
L 159.202271 282.514083 
L 160.506167 282.406686 
L 160.617771 282.38282 
L 161.877027 282.275424 
L 161.988623 282.251558 
L 164.150016 282.144161 
L 164.261205 282.132228 
L 165.259526 282.024832 
L 165.371122 282.000966 
L 166.477382 281.893569 
L 166.589393 281.857771 
L 167.327576 281.750374 
L 167.439172 281.726508 
L 168.368502 281.619112 
L 168.480505 281.583313 
L 170.085922 281.475916 
L 170.197119 281.45205 
L 171.132123 281.344654 
L 171.243727 281.320788 
L 172.039535 281.213391 
L 172.150724 281.201458 
L 173.84096 281.094062 
L 173.952157 281.082129 
L 176.253144 280.974732 
L 176.364341 280.9628 
L 177.033533 280.867336 
L 177.145137 280.831537 
L 177.853693 280.724141 
L 177.96489 280.712208 
L 180.032533 280.604811 
L 180.144544 280.569012 
L 181.663523 280.461616 
L 181.774712 280.43775 
L 182.562412 280.330353 
L 182.6736 280.31842 
L 185.261918 280.211024 
L 185.373921 280.175225 
L 187.077956 280.067828 
L 187.189552 280.043962 
L 188.129832 279.948499 
L 188.241436 279.9127 
L 189.819254 279.805304 
L 189.93045 279.793371 
L 191.266408 279.697907 
L 191.378411 279.638242 
L 192.537836 279.530846 
L 192.649033 279.518913 
L 193.9789 279.411516 
L 194.090089 279.399583 
L 195.331491 279.292187 
L 195.443095 279.268321 
L 196.752259 279.160924 
L 196.863456 279.148991 
L 197.823218 279.041595 
L 197.934814 279.017729 
L 200.655016 278.910332 
L 200.76662 278.886467 
L 202.748639 278.77907 
L 202.860235 278.755204 
L 205.117804 278.647808 
L 205.229001 278.635875 
L 206.533703 278.528478 
L 206.6449 278.516545 
L 207.635503 278.409149 
L 207.747107 278.385283 
L 210.375188 278.277886 
L 210.486377 278.265953 
L 212.772766 278.158557 
L 212.883955 278.146624 
L 214.719476 278.039227 
L 214.830665 278.027294 
L 217.057394 277.919898 
L 217.16859 277.896032 
L 219.61527 277.788635 
L 219.726467 277.776702 
L 222.106997 277.669306 
L 222.218593 277.64544 
L 223.775316 277.538043 
L 223.886513 277.52611 
L 226.275966 277.418714 
L 226.387163 277.406781 
L 228.030731 277.299384 
L 228.142734 277.23972 
L 230.560195 277.144256 
L 230.671391 277.12039 
L 232.498795 277.012994 
L 232.610391 276.989128 
L 233.461798 276.881731 
L 233.573402 276.857865 
L 235.240499 276.750469 
L 235.35251 276.71467 
L 238.663583 276.607273 
L 238.77478 276.59534 
L 241.013273 276.487944 
L 241.12447 276.476011 
L 244.300809 276.368614 
L 244.412006 276.356682 
L 247.141538 276.249285 
L 247.252735 276.237352 
L 249.148308 276.129955 
L 249.259505 276.118023 
L 250.349939 276.010626 
L 250.461136 275.998693 
L 251.788162 275.891297 
L 251.899359 275.879364 
L 253.314851 275.771967 
L 253.426047 275.748101 
L 257.380341 275.640705 
L 257.491538 275.616839 
L 262.002206 275.509442 
L 262.113403 275.497509 
L 264.58971 275.390113 
L 264.702527 275.330448 
L 268.737177 275.223051 
L 268.848365 275.211118 
L 270.741919 275.103722 
L 270.853116 275.091789 
L 273.865102 274.984392 
L 273.976698 274.960527 
L 277.409112 274.85313 
L 277.520309 274.841197 
L 280.40405 274.733801 
L 280.515247 274.721868 
L 284.137586 274.614471 
L 284.248775 274.602538 
L 286.42356 274.495142 
L 286.534757 274.483209 
L 288.533817 274.375812 
L 288.645014 274.363879 
L 290.963856 274.256483 
L 291.075052 274.24455 
L 293.451935 274.137153 
L 293.563531 274.113287 
L 296.380316 274.005891 
L 296.491513 273.993958 
L 300.706343 273.886561 
L 300.81754 273.874628 
L 302.23628 273.767232 
L 302.347477 273.755299 
L 305.304679 273.647902 
L 305.415868 273.635969 
L 309.114501 273.528573 
L 309.226504 273.492774 
L 310.781607 273.385377 
L 310.892795 273.373444 
L 316.338883 273.266048 
L 316.45008 273.254115 
L 318.932062 273.146718 
L 319.043258 273.134785 
L 321.720441 273.027389 
L 321.831638 273.003523 
L 323.889137 272.896127 
L 324.000334 272.884194 
L 325.91661 272.776797 
L 326.028206 272.752931 
L 329.768638 272.645535 
L 329.879835 272.633602 
L 333.117455 272.526205 
L 333.229051 272.502339 
L 336.068567 272.406876 
L 336.179756 272.38301 
L 338.348452 272.275613 
L 338.460056 272.251747 
L 343.107086 272.144351 
L 343.219089 272.108552 
L 347.68309 272.001155 
L 347.794694 271.97729 
L 351.468162 271.869893 
L 351.579359 271.85796 
L 355.107143 271.750564 
L 355.219146 271.714765 
L 359.278546 271.607368 
L 359.389743 271.595435 
L 361.321439 271.488039 
L 361.433035 271.464173 
L 364.178403 271.356776 
L 364.2896 271.344843 
L 367.760157 271.237447 
L 367.871354 271.225514 
L 371.544415 271.118117 
L 371.655611 271.106184 
L 375.796174 270.998788 
L 375.907371 270.986855 
L 378.523281 270.879458 
L 378.63447 270.867525 
L 384.995273 270.760129 
L 385.107276 270.72433 
L 386.996767 270.616933 
L 387.107963 270.605 
L 390.847174 270.497604 
L 390.959185 270.461805 
L 394.613985 270.354409 
L 394.725181 270.342476 
L 398.259454 270.235079 
L 398.37105 270.211213 
L 405.37386 270.103817 
L 405.485049 270.091884 
L 411.262692 269.984487 
L 411.373888 269.972554 
L 416.845133 269.877091 
L 416.95633 269.853225 
L 421.701156 269.745828 
L 421.812353 269.721962 
L 429.739209 269.614566 
L 429.850398 269.602633 
L 434.600915 269.495236 
L 434.712104 269.483303 
L 439.613581 269.375907 
L 439.725185 269.352041 
L 444.827538 269.244644 
L 444.939142 269.220778 
L 448.388596 269.113382 
L 448.499793 269.101449 
L 453.911792 268.994052 
L 454.022981 268.98212 
L 457.906671 268.886656 
L 458.018266 268.850857 
L 465.047048 268.755394 
L 465.158237 268.731528 
L 472.444307 268.624131 
L 472.555504 268.612198 
L 477.006519 268.504802 
L 477.118123 268.480936 
L 480.690539 268.373539 
L 480.801735 268.361606 
L 484.835978 268.25421 
L 484.947175 268.242277 
L 489.082056 268.13488 
L 489.193252 268.122947 
L 495.675397 268.015551 
L 495.786585 268.003618 
L 498.109091 267.979752 
L 498.109091 267.979752 
" style="fill:none;stroke:#2ca02c;stroke-linecap:square;stroke-width:2;"/>
   </g>
   <g id="line2d_13">
    <path clip-path="url(#pcc2fef11aa)" d="M 92.290909 307.8 
L 92.420359 284.602349 
L 92.486509 279.411516 
L 92.680896 269.626499 
L 92.684958 269.554901 
L 92.813195 265.366436 
L 92.818064 265.25904 
L 93.222665 256.655384 
L 93.225506 256.583786 
L 93.350902 254.018202 
L 93.51891 252.34759 
L 93.524593 252.240193 
L 93.647147 250.521849 
L 93.878464 246.989696 
L 93.884147 246.882299 
L 94.018474 245.521943 
L 94.031052 245.450346 
L 94.147932 243.875197 
L 94.159297 243.779733 
L 94.298892 242.061388 
L 94.30823 241.953992 
L 94.479894 240.175983 
L 94.482328 240.092452 
L 94.600014 239.269079 
L 94.615027 239.161682 
L 94.741237 238.254778 
L 94.784663 238.159314 
L 94.912493 237.156947 
L 94.935216 237.04955 
L 95.070764 236.333573 
L 95.080909 236.23811 
L 95.203463 235.211876 
L 95.21929 235.10448 
L 95.372693 233.863453 
L 95.404347 233.767989 
L 95.520819 233.135543 
L 95.536638 233.052013 
L 95.657979 231.834852 
L 95.675842 231.727455 
L 95.80083 230.880216 
L 95.841416 230.772819 
L 95.957074 230.343233 
L 95.987914 230.259703 
L 96.103573 229.185737 
L 96.126703 229.102207 
L 96.243175 228.278833 
L 96.265084 228.171437 
L 96.408749 227.216801 
L 96.414424 227.204868 
L 96.528462 226.190567 
L 96.575943 226.095104 
L 96.69485 225.617786 
L 96.727311 225.522322 
L 96.847846 224.949541 
L 96.873817 224.877943 
L 96.986634 224.412558 
L 97.003267 224.305161 
L 97.116491 223.720447 
L 97.252845 222.980604 
L 97.275983 222.873208 
L 97.416392 221.99017 
L 97.42573 221.882773 
L 97.565732 221.035534 
L 97.573043 220.94007 
L 97.688701 220.653679 
L 97.701687 220.546283 
L 97.820586 220.080898 
L 97.883088 219.985434 
L 98.005642 219.293323 
L 98.03689 219.185927 
L 98.158638 218.55348 
L 98.182175 218.493816 
L 98.297426 217.503381 
L 98.325018 217.41985 
L 98.439056 216.703873 
L 98.465434 216.620343 
L 98.578658 216.047561 
L 98.59083 215.99983 
L 98.704054 215.534445 
L 98.739364 215.47478 
L 98.852181 215.06906 
L 98.883835 214.961663 
L 99.005583 214.329217 
L 99.030741 214.245686 
L 99.146399 213.684838 
L 99.157357 213.601307 
L 99.272609 213.076257 
L 99.305883 212.980794 
L 99.422356 212.336414 
L 99.434934 212.252884 
L 99.551 211.656236 
L 99.585088 211.560773 
L 99.702774 211.155053 
L 99.729152 211.047656 
L 99.853335 210.665802 
L 99.871189 210.558405 
L 100.00024 210.033355 
L 100.018095 209.925959 
L 100.146739 209.412842 
L 100.216544 209.317379 
L 100.329768 208.708798 
L 100.384552 208.613335 
L 100.508328 207.861559 
L 100.569601 207.754162 
L 100.687694 207.324576 
L 100.736396 207.241046 
L 100.849213 206.906923 
L 100.876813 206.799526 
L 100.996933 206.525069 
L 101.02047 206.417672 
L 101.136942 205.940354 
L 101.171837 205.832958 
L 101.284654 205.427237 
L 101.302915 205.319841 
L 101.425885 204.973785 
L 101.517192 204.866389 
L 101.636099 204.389071 
L 101.683173 204.329406 
L 101.79599 204.054948 
L 101.823175 203.959485 
L 101.941267 203.541832 
L 102.00539 203.434435 
L 102.119428 203.076447 
L 102.234679 202.813922 
L 102.264306 202.706525 
L 102.37915 202.587196 
L 102.436776 202.479799 
L 102.560959 202.097945 
L 102.601943 202.002481 
L 102.718008 201.560962 
L 102.809723 201.453566 
L 102.933905 201.071711 
L 102.976917 200.976248 
L 103.096231 200.475064 
L 103.142898 200.367667 
L 103.263425 200.09321 
L 103.352306 199.985813 
L 103.475674 199.615892 
L 103.516659 199.56816 
L 103.629476 199.138574 
L 103.681019 199.04311 
L 103.794642 198.816384 
L 103.868502 198.708988 
L 103.991464 198.362932 
L 104.061269 198.255536 
L 104.173272 198.076541 
L 104.198836 198.064608 
L 104.311254 197.70662 
L 104.340474 197.646955 
L 104.45369 197.312833 
L 104.53526 197.217369 
L 104.650519 196.823582 
L 104.756839 196.740051 
L 104.87047 196.37013 
L 104.873312 196.37013 
L 104.985315 195.96441 
L 105.086774 195.857013 
L 105.209328 195.510957 
L 105.237327 195.451293 
L 105.350144 195.200701 
L 105.378151 195.093304 
L 105.492995 194.854645 
L 105.579027 194.747249 
L 105.691844 194.30573 
L 105.77382 194.234132 
L 105.887044 193.947741 
L 105.910175 193.852278 
L 106.022992 193.637485 
L 106.092797 193.530088 
L 106.219414 193.076636 
L 106.348864 192.96924 
L 106.461681 192.742513 
L 106.499018 192.635117 
L 106.617925 192.408391 
L 106.678799 192.32486 
L 106.79243 191.907207 
L 106.85249 191.883341 
L 106.9649 191.477621 
L 107.01887 191.370224 
L 107.137777 191.143498 
L 107.167811 191.048035 
L 107.279814 190.904839 
L 107.408865 190.797443 
L 107.522089 190.666181 
L 107.579714 190.558784 
L 107.692124 190.093399 
L 107.803321 189.986002 
L 107.923034 189.735411 
L 107.973764 189.628014 
L 108.090236 189.460953 
L 108.121483 189.353556 
L 108.235514 189.091031 
L 108.342656 188.983635 
L 108.459934 188.434719 
L 108.537849 188.351189 
L 108.651073 187.921602 
L 108.838157 187.826139 
L 108.953408 187.456217 
L 109.039447 187.360754 
L 109.154699 187.110162 
L 109.185946 187.06243 
L 109.298763 186.716375 
L 109.337313 186.65671 
L 109.449324 186.477716 
L 109.513845 186.370319 
L 109.62869 186.25099 
L 109.745162 186.143593 
L 109.862441 185.761739 
L 109.994333 185.654342 
L 110.110806 185.487281 
L 110.132315 185.391817 
L 110.249594 185.021896 
L 110.301138 184.926432 
L 110.413548 184.699706 
L 110.446415 184.604243 
L 110.560046 184.437182 
L 110.635933 184.329785 
L 110.757275 184.031461 
L 110.849803 183.924065 
L 110.963434 183.673473 
L 110.984529 183.578009 
L 111.101408 183.231954 
L 111.173648 183.124557 
L 111.287678 183.029094 
L 111.306346 182.921697 
L 111.419163 182.766569 
L 111.467866 182.683038 
L 111.581082 182.468245 
L 111.63344 182.360849 
L 111.749904 182.038659 
L 111.826606 181.931262 
L 111.942264 181.788067 
L 112.003545 181.680671 
L 112.115141 181.632939 
L 112.141519 181.561341 
L 112.25353 181.430079 
L 112.326983 181.334615 
L 112.4398 181.107889 
L 112.541252 181.000492 
L 112.654883 180.833431 
L 112.740507 180.726035 
L 112.853731 180.403845 
L 112.916632 180.332247 
L 113.02905 180.177119 
L 113.085862 180.105521 
L 113.197458 179.93846 
L 113.244133 179.842996 
L 113.358163 179.664002 
L 113.488435 179.556606 
L 113.605307 179.389544 
L 113.675112 179.282148 
L 113.787115 179.138953 
L 113.939296 179.031556 
L 114.059017 178.780964 
L 114.224591 178.709366 
L 114.337815 178.434909 
L 114.442515 178.375244 
L 114.555332 177.957591 
L 114.601999 177.897926 
L 114.714409 177.6712 
L 114.778532 177.587669 
L 114.891349 177.408675 
L 114.969263 177.301279 
L 115.08979 177.026821 
L 115.163243 176.919424 
L 115.279308 176.764296 
L 115.391319 176.656899 
L 115.503322 176.6211 
L 115.532949 176.585302 
L 115.644545 176.310844 
L 115.728549 176.203447 
L 115.841366 176.143783 
L 115.864903 176.048319 
L 115.978127 175.917057 
L 116.032919 175.80966 
L 116.151012 175.594867 
L 116.256925 175.48747 
L 116.375018 175.28461 
L 116.524765 175.20108 
L 116.636369 175.129482 
L 116.71469 175.022085 
L 116.829941 174.890823 
L 116.900154 174.807292 
L 117.01175 174.652164 
L 117.073438 174.592499 
L 117.185441 174.365773 
L 117.234135 174.258377 
L 117.352635 174.043584 
L 117.42244 173.936187 
L 117.534443 173.804925 
L 117.69961 173.697528 
L 117.821358 173.387272 
L 117.958526 173.279875 
L 118.073371 173.160546 
L 118.131403 173.088948 
L 118.245034 172.778691 
L 118.336341 172.671295 
L 118.449973 172.432636 
L 118.545741 172.325239 
L 118.657752 172.28944 
L 118.779899 172.182044 
L 118.894345 172.074647 
L 119.080614 171.967251 
L 119.194645 171.776324 
L 119.324917 171.668927 
L 119.439354 171.56153 
L 119.566378 171.454134 
L 119.684471 171.251274 
L 119.744124 171.179676 
L 119.857348 170.917151 
L 119.955559 170.809755 
L 120.068783 170.738157 
L 120.273721 170.63076 
L 120.388565 170.404034 
L 120.499355 170.296638 
L 120.623944 169.902851 
L 120.702673 169.807387 
L 120.815897 169.592594 
L 120.878391 169.509063 
L 120.990394 169.246538 
L 121.203042 169.151075 
L 121.318294 168.900483 
L 121.482247 168.805019 
L 121.594657 168.661824 
L 121.715999 168.56636 
L 121.828001 168.387366 
L 121.955025 168.291903 
L 122.067036 168.16064 
L 122.120599 168.065177 
L 122.23261 167.969713 
L 122.337717 167.874249 
L 122.451747 167.683322 
L 122.566999 167.575926 
L 122.684285 167.384999 
L 122.828756 167.289535 
L 122.940759 167.194071 
L 123.004882 167.098608 
L 123.117292 166.955412 
L 123.26217 166.848016 
L 123.37458 166.716753 
L 123.392841 166.633223 
L 123.505658 166.454229 
L 123.767416 166.346832 
L 123.881853 166.239436 
L 124.066503 166.143972 
L 124.178913 166.060441 
L 124.272247 165.964978 
L 124.385064 165.845648 
L 124.511681 165.738252 
L 124.631402 165.48766 
L 124.831471 165.380263 
L 124.949157 165.177403 
L 125.12569 165.070007 
L 125.240534 164.843281 
L 125.307091 164.735884 
L 125.422342 164.604622 
L 125.590757 164.497225 
L 125.70438 164.330164 
L 125.853728 164.222767 
L 125.970193 164.067639 
L 126.085851 163.960242 
L 126.199482 163.876712 
L 126.29201 163.769315 
L 126.406855 163.649986 
L 126.6398 163.554522 
L 126.751396 163.435193 
L 126.944162 163.351662 
L 127.056572 163.160735 
L 127.115419 163.10107 
L 127.227015 162.969808 
L 127.293572 162.874344 
L 127.409637 162.564088 
L 127.485524 162.468624 
L 127.597934 162.325429 
L 127.706289 162.218032 
L 127.826002 161.96744 
L 127.931109 161.860044 
L 128.047175 161.704915 
L 128.149847 161.597519 
L 128.26794 161.394659 
L 128.435948 161.299195 
L 128.547552 161.23953 
L 128.748835 161.179866 
L 128.860439 160.929274 
L 128.896962 160.917341 
L 129.008557 160.714481 
L 129.104741 160.654816 
L 129.216337 160.547419 
L 129.261791 160.475822 
L 129.373387 160.332626 
L 129.529224 160.237163 
L 129.642041 160.117833 
L 129.78367 160.010437 
L 129.897301 159.926906 
L 129.965479 159.819509 
L 130.077082 159.771778 
L 130.150535 159.664381 
L 130.262945 159.616649 
L 130.312861 159.509253 
L 130.427298 159.401856 
L 130.533626 159.29446 
L 130.647257 159.210929 
L 130.833527 159.103533 
L 130.948371 158.984203 
L 131.007625 158.876807 
L 131.119221 158.817142 
L 131.175633 158.709745 
L 131.291292 158.56655 
L 131.390309 158.483019 
L 131.501506 158.435287 
L 131.701168 158.36369 
L 131.813985 158.053433 
L 131.947498 157.946037 
L 132.062749 157.695445 
L 132.312327 157.588048 
L 132.425551 157.51645 
L 132.554603 157.409054 
L 132.667827 157.277791 
L 132.879661 157.182328 
L 132.992885 157.039132 
L 133.046456 156.931736 
L 133.164141 156.740809 
L 133.380852 156.633412 
L 133.492448 156.609546 
L 133.650312 156.537949 
L 133.762315 156.406686 
L 133.831713 156.29929 
L 133.943716 156.239625 
L 134.10767 156.144161 
L 134.221301 155.893569 
L 134.457079 155.786173 
L 134.574358 155.607179 
L 134.604392 155.499782 
L 134.718023 155.416252 
L 134.86006 155.308855 
L 134.973284 155.237257 
L 135.084473 155.153727 
L 135.196891 154.927001 
L 135.349471 154.819604 
L 135.462695 154.688342 
L 135.63882 154.592878 
L 135.751238 154.43775 
L 135.814547 154.366152 
L 135.92655 154.222957 
L 136.079138 154.139426 
L 136.191141 154.03203 
L 136.254042 153.936566 
L 136.366859 153.829169 
L 136.42205 153.745639 
L 136.534061 153.662108 
L 136.677311 153.554712 
L 136.790535 153.483114 
L 136.859119 153.471181 
L 136.970723 153.268321 
L 137.40373 153.160924 
L 137.515733 153.065461 
L 137.702002 152.98193 
L 137.814013 152.767137 
L 137.892742 152.659741 
L 138.009206 152.504612 
L 138.292881 152.421082 
L 138.404477 152.313685 
L 138.515673 152.301752 
L 138.546107 152.218221 
L 138.658924 152.039227 
L 139.034711 151.955697 
L 139.146315 151.800568 
L 139.287538 151.705105 
L 139.399948 151.621574 
L 139.473401 151.514177 
L 139.585005 151.335183 
L 139.746923 151.227787 
L 139.859333 151.180055 
L 140.222949 151.072658 
L 140.337395 150.965262 
L 140.58291 150.857865 
L 140.694921 150.750469 
L 140.861708 150.643072 
L 140.974118 150.559542 
L 141.266309 150.452145 
L 141.381967 150.177687 
L 141.480984 150.070291 
L 141.594616 149.903229 
L 141.996375 149.795833 
L 142.110006 149.712302 
L 142.194824 149.604906 
L 142.306827 149.533308 
L 142.457388 149.425912 
L 142.568984 149.402046 
L 142.682208 149.330448 
L 142.793812 149.234984 
L 142.965069 149.127588 
L 143.077886 148.960527 
L 143.184206 148.85313 
L 143.297837 148.769599 
L 143.471121 148.674136 
L 143.583938 148.519007 
L 143.805517 148.423544 
L 143.917927 148.292281 
L 143.962974 148.268416 
L 144.074977 147.982025 
L 144.263282 147.886561 
L 144.376506 147.755299 
L 144.826154 147.647902 
L 144.942618 147.480841 
L 145.237244 147.373444 
L 145.350061 147.31378 
L 145.598426 147.206383 
L 145.710428 146.99159 
L 145.850438 146.884194 
L 145.966902 146.729065 
L 146.151145 146.621669 
L 146.263156 146.514272 
L 146.428323 146.430742 
L 146.539919 146.371077 
L 146.734305 146.275613 
L 146.846316 146.168217 
L 147.155954 146.072753 
L 147.267957 145.965357 
L 147.44287 145.85796 
L 147.555687 145.798295 
L 147.82434 145.690899 
L 147.939185 145.45224 
L 148.151426 145.380642 
L 148.26303 145.297111 
L 148.296304 145.225514 
L 148.408315 145.094251 
L 148.456602 145.010721 
L 148.568613 144.831726 
L 148.716732 144.72433 
L 148.830363 144.557269 
L 149.075072 144.449872 
L 149.18951 144.342476 
L 149.355491 144.235079 
L 149.467094 144.211213 
L 149.791339 144.103817 
L 149.904563 144.032219 
L 150.041324 143.99642 
L 150.152928 143.865158 
L 150.262496 143.757761 
L 150.374499 143.638432 
L 150.603381 143.542968 
L 150.714985 143.447504 
L 150.919516 143.352041 
L 151.031519 143.292376 
L 151.1066 143.196913 
L 151.219417 142.958254 
L 151.526621 142.850857 
L 151.640659 142.65993 
L 152.01766 142.552533 
L 152.131291 142.469003 
L 152.294431 142.361606 
L 152.405628 142.266143 
L 152.579718 142.158746 
L 152.692942 142.087148 
L 152.882867 141.979752 
L 152.995277 141.860422 
L 153.177085 141.764959 
L 153.288689 141.693361 
L 153.331701 141.621763 
L 153.443305 141.550166 
L 153.609286 141.442769 
L 153.722103 141.383104 
L 153.825989 141.275708 
L 153.937992 141.239909 
L 154.288622 141.156378 
L 154.399819 141.072848 
L 154.626267 140.965451 
L 154.73989 140.881921 
L 155.073879 140.774524 
L 155.190759 140.59553 
L 155.392042 140.488133 
L 155.503238 140.4762 
L 155.861172 140.380737 
L 155.974396 140.237541 
L 156.219098 140.165944 
L 156.330701 140.058547 
L 156.468277 139.951151 
L 156.58028 139.915352 
L 157.258403 139.807955 
L 157.372441 139.712492 
L 157.6557 139.617028 
L 157.767296 139.521565 
L 158.254281 139.414168 
L 158.368726 139.306771 
L 158.590705 139.211308 
L 158.703115 139.127777 
L 159.091082 139.032314 
L 159.203492 138.93685 
L 159.68398 138.829454 
L 159.79639 138.781722 
L 159.863761 138.674325 
L 159.975357 138.61466 
L 160.118615 138.507264 
L 160.230618 138.471465 
L 160.737891 138.364069 
L 160.849894 138.268605 
L 161.133161 138.161208 
L 161.244757 138.137343 
L 161.515845 138.029946 
L 161.627449 137.958348 
L 162.122136 137.862885 
L 162.234147 137.80322 
L 162.305572 137.755488 
L 162.417168 137.624226 
L 162.580308 137.516829 
L 162.691912 137.492963 
L 162.702056 137.492963 
L 162.813245 137.325902 
L 162.924034 137.218506 
L 163.036444 137.170774 
L 163.385048 137.063377 
L 163.496236 137.051444 
L 163.579434 136.955981 
L 163.691437 136.860517 
L 163.953195 136.788919 
L 164.064791 136.66959 
L 164.430842 136.562193 
L 164.544473 136.478663 
L 164.707612 136.407065 
L 164.819208 136.299669 
L 164.973824 136.204205 
L 165.087455 135.953613 
L 165.228271 135.846216 
L 165.339874 135.786552 
L 165.719318 135.679155 
L 165.830914 135.655289 
L 165.908828 135.631423 
L 166.020432 135.512094 
L 166.32074 135.404697 
L 166.432743 135.3331 
L 166.553677 135.225703 
L 166.66568 135.106374 
L 166.776876 134.998977 
L 166.889693 134.939312 
L 167.067846 134.855782 
L 167.17945 134.80805 
L 167.234641 134.700653 
L 167.346245 134.652922 
L 167.646138 134.557458 
L 167.758955 134.438129 
L 167.90262 134.342665 
L 168.014216 134.283 
L 168.092944 134.247201 
L 168.204548 134.104006 
L 168.515407 134.020475 
L 168.626596 133.948878 
L 168.983715 133.841481 
L 169.098161 133.531225 
L 169.165931 133.435761 
L 169.277535 133.388029 
L 169.487748 133.328364 
L 169.599344 133.137437 
L 169.905335 133.030041 
L 170.018966 132.94651 
L 170.264889 132.851047 
L 170.377299 132.767516 
L 170.651635 132.660119 
L 170.765266 132.576589 
L 170.945853 132.516924 
L 171.057449 132.397594 
L 171.350047 132.290198 
L 171.464891 132.170868 
L 171.636148 132.075405 
L 171.747752 132.01574 
L 171.836217 131.908344 
L 171.94822 131.765148 
L 172.22053 131.657752 
L 172.332939 131.502623 
L 172.560202 131.395227 
L 172.672205 131.263964 
L 172.948975 131.156568 
L 173.060571 131.08497 
L 173.237918 130.989507 
L 173.349514 130.917909 
L 173.616954 130.810512 
L 173.729364 130.726982 
L 173.890875 130.643451 
L 174.002886 130.452524 
L 174.167646 130.35706 
L 174.279242 130.309329 
L 174.5134 130.249664 
L 174.625004 130.130334 
L 174.966703 130.022938 
L 175.07952 129.963273 
L 175.365621 129.855877 
L 175.477632 129.796212 
L 175.781588 129.688815 
L 175.893591 129.653016 
L 176.30144 129.54562 
L 176.414664 129.402424 
L 176.662215 129.295028 
L 176.774218 129.259229 
L 176.930868 129.163766 
L 177.043685 129.044436 
L 177.380109 128.948972 
L 177.492112 128.841576 
L 177.908884 128.746112 
L 178.020488 128.686448 
L 178.111795 128.626783 
L 178.223399 128.471655 
L 178.839834 128.364258 
L 178.951845 128.328459 
L 179.27284 128.244928 
L 179.384851 128.137532 
L 179.557321 128.030135 
L 179.670545 127.958538 
L 179.909979 127.863074 
L 180.021982 127.755678 
L 180.264664 127.648281 
L 180.379509 127.528952 
L 180.848639 127.445421 
L 180.960235 127.290293 
L 181.283673 127.182896 
L 181.398118 127.0755 
L 181.635923 127.003902 
L 181.747527 126.872639 
L 181.904984 126.812975 
L 182.01658 126.598182 
L 182.332715 126.490785 
L 182.448373 126.34759 
L 182.772218 126.252126 
L 182.883814 126.180528 
L 183.154096 126.108931 
L 183.265285 125.989601 
L 183.41666 125.929937 
L 183.527849 125.870272 
L 183.710471 125.774808 
L 183.822067 125.727076 
L 184.202324 125.61968 
L 184.31392 125.488417 
L 184.50019 125.428753 
L 184.611387 125.345222 
L 184.89384 125.261691 
L 185.005436 125.21396 
L 185.463201 125.106563 
L 185.575204 125.070764 
L 185.802466 124.963368 
L 185.916903 124.855971 
L 186.138483 124.748575 
L 186.250486 124.68891 
L 186.716367 124.605379 
L 186.827971 124.462184 
L 187.075921 124.36672 
L 187.188339 124.28319 
L 187.318196 124.247391 
L 187.430199 124.056464 
L 187.661923 123.972933 
L 187.773527 123.877469 
L 188.336806 123.770073 
L 188.448402 123.746207 
L 188.561626 123.662676 
L 188.673628 123.579146 
L 188.862341 123.471749 
L 188.973936 123.447883 
L 189.080664 123.35242 
L 189.192674 123.292755 
L 189.628115 123.185358 
L 189.740932 123.125694 
L 189.897982 123.018297 
L 190.009993 122.982498 
L 190.287977 122.875102 
L 190.400794 122.696108 
L 191.143846 122.612577 
L 191.255857 122.529046 
L 191.405196 122.433583 
L 191.5168 122.373918 
L 192.119028 122.30232 
L 192.231039 122.135259 
L 192.471279 122.027862 
L 192.582883 122.003997 
L 192.912004 121.944332 
L 193.023599 121.813069 
L 193.361244 121.717606 
L 193.474061 121.598276 
L 193.788161 121.49088 
L 193.899765 121.467014 
L 194.073863 121.359617 
L 194.185866 121.323819 
L 194.394052 121.216422 
L 194.507676 121.132891 
L 194.603045 121.049361 
L 194.714649 121.001629 
L 194.770247 120.96583 
L 194.881436 120.834568 
L 195.05472 120.739104 
L 195.166731 120.679439 
L 195.601765 120.619775 
L 195.713776 120.452713 
L 196.015297 120.369183 
L 196.127707 120.249853 
L 196.66258 120.142457 
L 196.77499 120.058926 
L 196.951921 119.999261 
L 197.063525 119.891865 
L 197.986358 119.796401 
L 198.098361 119.665139 
L 198.706279 119.557742 
L 198.818282 119.498077 
L 199.106419 119.414547 
L 199.218014 119.319083 
L 199.475303 119.211687 
L 199.586906 119.128156 
L 199.857994 119.056558 
L 199.96959 118.925296 
L 200.202128 118.829832 
L 200.313724 118.722436 
L 200.585626 118.615039 
L 200.697629 118.57924 
L 200.991041 118.471844 
L 201.103451 118.424112 
L 201.297838 118.328649 
L 201.409434 118.257051 
L 201.527933 118.209319 
L 201.63913 118.137721 
L 201.79456 118.042258 
L 201.90697 117.946794 
L 202.103384 117.839398 
L 202.214988 117.803599 
L 202.425201 117.732001 
L 202.53639 117.600739 
L 203.406873 117.505275 
L 203.51807 117.481409 
L 204.038329 117.385946 
L 204.150739 117.302415 
L 204.261528 117.24275 
L 204.372725 117.171153 
L 204.580505 117.063756 
L 204.694942 116.95636 
L 204.954258 116.848963 
L 205.068703 116.741566 
L 205.165693 116.63417 
L 205.276889 116.598371 
L 205.542702 116.502907 
L 205.655112 116.407444 
L 205.887642 116.31198 
L 205.999245 116.252316 
L 206.641652 116.144919 
L 206.753256 116.073321 
L 207.137161 115.977858 
L 207.249163 115.846595 
L 207.471956 115.739199 
L 207.583967 115.7034 
L 208.191072 115.596003 
L 208.303074 115.50054 
L 208.796955 115.417009 
L 208.908152 115.38121 
L 209.249444 115.273814 
L 209.360641 115.261881 
L 210.126823 115.154484 
L 210.238427 115.011289 
L 210.662103 114.903892 
L 210.773292 114.880027 
L 211.132853 114.808429 
L 211.244042 114.724898 
L 211.626734 114.617502 
L 211.73833 114.593636 
L 212.408743 114.486239 
L 212.520746 114.45044 
L 212.866508 114.343044 
L 212.978104 114.319178 
L 213.278004 114.259513 
L 213.389201 114.187916 
L 213.597388 114.080519 
L 213.708984 114.032787 
L 213.971148 113.925391 
L 214.082744 113.806061 
L 214.886263 113.698665 
L 214.997867 113.674799 
L 215.446701 113.567402 
L 215.559925 113.495805 
L 215.808689 113.412274 
L 215.920292 113.257146 
L 216.486006 113.149749 
L 216.600443 113.042352 
L 217.16088 112.934956 
L 217.272883 112.863358 
L 217.544378 112.755962 
L 217.656381 112.648565 
L 217.998081 112.565035 
L 218.109684 112.481504 
L 218.597068 112.374107 
L 218.709885 112.254778 
L 219.021966 112.147381 
L 219.133968 112.111583 
L 219.344589 112.028052 
L 219.456185 111.98032 
L 219.887572 111.872924 
L 220.004858 111.681996 
L 220.485753 111.5746 
L 220.597349 111.503002 
L 221.137905 111.395606 
L 221.249908 111.359807 
L 221.424006 111.276276 
L 221.536009 111.109215 
L 222.098473 111.013751 
L 222.210077 110.977952 
L 222.954749 110.894422 
L 223.066353 110.775092 
L 223.123164 110.763159 
L 223.234361 110.64383 
L 223.775316 110.548366 
L 223.887319 110.476769 
L 224.337374 110.381305 
L 224.449377 110.32164 
L 224.782153 110.214244 
L 224.89335 110.202311 
L 225.037414 110.094914 
L 225.151851 109.892054 
L 225.422532 109.832389 
L 225.533729 109.748859 
L 226.051146 109.641462 
L 226.165584 109.534066 
L 226.487401 109.438602 
L 226.599005 109.402803 
L 226.7386 109.295407 
L 226.850204 109.271541 
L 227.166339 109.164144 
L 227.277527 109.152211 
L 227.773036 109.056748 
L 227.887066 108.877754 
L 228.158154 108.78229 
L 228.269351 108.710692 
L 228.59563 108.603296 
L 228.706827 108.591363 
L 229.088697 108.483966 
L 229.199894 108.472033 
L 229.474629 108.364637 
L 229.587853 108.293039 
L 229.655224 108.197576 
L 229.76682 108.125978 
L 230.019647 108.030514 
L 230.13125 107.982782 
L 230.560195 107.875386 
L 230.671798 107.85152 
L 231.246028 107.756056 
L 231.358038 107.672526 
L 231.534571 107.612861 
L 231.64576 107.541263 
L 231.857195 107.433867 
L 231.968791 107.410001 
L 232.299532 107.302604 
L 232.410728 107.290671 
L 232.507718 107.219074 
L 232.618915 107.135543 
L 233.277556 107.028147 
L 233.389566 106.944616 
L 233.415945 106.932683 
L 233.527134 106.789488 
L 234.18943 106.682091 
L 234.301848 106.634359 
L 234.656533 106.526963 
L 234.768129 106.491164 
L 235.186936 106.3957 
L 235.298532 106.336036 
L 235.817578 106.228639 
L 235.929174 106.204773 
L 236.618255 106.097377 
L 236.730665 106.049645 
L 237.491986 105.942248 
L 237.60521 105.810986 
L 237.980998 105.715522 
L 238.092594 105.679723 
L 238.406295 105.58426 
L 238.517891 105.441064 
L 238.7902 105.345601 
L 238.902203 105.285936 
L 239.252019 105.214338 
L 239.363623 105.035344 
L 239.891991 104.951814 
L 240.003595 104.892149 
L 240.34124 104.808618 
L 240.452836 104.737021 
L 240.731634 104.629624 
L 240.844451 104.522227 
L 241.106608 104.414831 
L 241.218619 104.379032 
L 241.740091 104.271636 
L 241.854536 104.164239 
L 242.469351 104.056843 
L 242.581761 104.009111 
L 243.439258 103.901714 
L 243.55126 103.865915 
L 243.807335 103.758519 
L 243.921366 103.663055 
L 244.523602 103.579525 
L 244.635205 103.495994 
L 244.838108 103.460195 
L 244.949712 103.352799 
L 245.862808 103.257335 
L 245.97481 103.19767 
L 246.35506 103.090274 
L 246.466257 103.078341 
L 246.835149 102.970944 
L 246.946745 102.935145 
L 247.60742 102.839682 
L 247.719016 102.803883 
L 248.014048 102.696486 
L 248.127272 102.624889 
L 248.632519 102.529425 
L 248.744521 102.46976 
L 249.111378 102.38623 
L 249.222575 102.350431 
L 249.789501 102.243034 
L 249.903132 102.159504 
L 250.349939 102.052107 
L 250.46195 102.016308 
L 250.810138 101.908912 
L 250.922548 101.86118 
L 251.726474 101.765716 
L 251.83767 101.706052 
L 251.933854 101.610588 
L 252.046264 101.527057 
L 252.706932 101.431594 
L 252.818536 101.359996 
L 253.301051 101.276466 
L 253.412655 101.204868 
L 253.924797 101.097471 
L 254.039234 100.990075 
L 254.846408 100.882678 
L 254.958419 100.811081 
L 255.468534 100.703684 
L 255.58013 100.655952 
L 256.013543 100.548556 
L 256.125147 100.488891 
L 256.935562 100.40536 
L 257.046758 100.357629 
L 257.640063 100.250232 
L 257.75126 100.238299 
L 258.144495 100.142835 
L 258.255692 100.11897 
L 258.880244 100.011573 
L 258.991848 99.987707 
L 259.612345 99.880311 
L 259.725569 99.808713 
L 259.846096 99.713249 
L 259.957293 99.641652 
L 260.189416 99.570054 
L 260.301427 99.438792 
L 261.016879 99.331395 
L 261.129297 99.283663 
L 261.865445 99.176267 
L 261.977456 99.140468 
L 262.532617 99.080803 
L 262.643806 98.997272 
L 263.111308 98.901809 
L 263.223319 98.842144 
L 263.591804 98.734748 
L 263.7034 98.687016 
L 264.118145 98.579619 
L 264.230563 98.531887 
L 264.822647 98.424491 
L 264.934657 98.388692 
L 265.676488 98.281296 
L 265.789305 98.221631 
L 266.388301 98.114234 
L 266.499896 98.05457 
L 267.137035 97.959106 
L 267.249852 97.851709 
L 267.702341 97.744313 
L 267.813937 97.696581 
L 268.833352 97.589185 
L 268.946169 97.52952 
L 269.398659 97.422123 
L 269.511068 97.374392 
L 270.081243 97.266995 
L 270.192847 97.20733 
L 270.953346 97.099934 
L 271.065764 97.052202 
L 271.16194 96.956738 
L 271.273544 96.789677 
L 271.741046 96.682281 
L 271.852642 96.658415 
L 272.585956 96.551018 
L 272.699994 96.455555 
L 272.820521 96.431689 
L 272.932125 96.264627 
L 273.798545 96.157231 
L 273.910141 96.109499 
L 274.383733 96.025968 
L 274.495337 95.966304 
L 275.418169 95.882773 
L 275.529765 95.811175 
L 276.035418 95.703779 
L 276.147421 95.66798 
L 276.601938 95.584449 
L 276.713134 95.46512 
L 276.957437 95.357723 
L 277.071068 95.274193 
L 277.60796 95.202595 
L 277.719157 95.083265 
L 278.125785 94.999735 
L 278.236982 94.94007 
L 278.533227 94.844606 
L 278.644424 94.820741 
L 279.096913 94.713344 
L 279.20811 94.701411 
L 279.808718 94.605948 
L 279.919914 94.582082 
L 280.403244 94.486618 
L 280.514839 94.450819 
L 281.482312 94.343423 
L 281.595943 94.259892 
L 282.099154 94.152496 
L 282.211165 94.080898 
L 282.606834 94.033166 
L 282.718031 93.937702 
L 283.151445 93.830306 
L 283.263049 93.80644 
L 283.43227 93.722909 
L 283.54468 93.60358 
L 283.707014 93.496183 
L 283.821044 93.40072 
L 284.277188 93.293323 
L 284.388784 93.269457 
L 285.080707 93.162061 
L 285.195958 93.030798 
L 286.031945 92.935335 
L 286.143142 92.87567 
L 286.882538 92.780206 
L 286.994142 92.732475 
L 287.416597 92.625078 
L 287.528201 92.589279 
L 288.231889 92.505749 
L 288.343085 92.458017 
L 289.028512 92.362553 
L 289.1397 92.326754 
L 289.624251 92.219358 
L 289.736661 92.171626 
L 290.498788 92.06423 
L 290.612826 91.968766 
L 291.322603 91.885235 
L 291.435013 91.74204 
L 291.818918 91.634643 
L 291.931328 91.551113 
L 292.076614 91.455649 
L 292.18781 91.407917 
L 292.880132 91.300521 
L 292.992143 91.264722 
L 293.310305 91.181191 
L 293.421494 91.145393 
L 293.801345 91.049929 
L 293.912533 91.002197 
L 294.564278 90.906734 
L 294.676289 90.835136 
L 295.12715 90.727739 
L 295.238347 90.703873 
L 295.65796 90.620343 
L 295.77037 90.465215 
L 296.563753 90.357818 
L 296.674941 90.345885 
L 297.037744 90.262354 
L 297.149755 90.178824 
L 297.960576 90.071427 
L 298.072986 90.023695 
L 298.620031 89.916299 
L 298.731228 89.904366 
L 299.510395 89.796969 
L 299.621592 89.785036 
L 300.513984 89.67764 
L 300.626809 89.617975 
L 301.231878 89.510579 
L 301.343482 89.486713 
L 301.905539 89.379316 
L 302.017949 89.331584 
L 302.6981 89.27192 
L 302.809704 89.15259 
L 303.0256 89.080993 
L 303.137196 88.961663 
L 304.160267 88.866199 
L 304.27227 88.782669 
L 304.93538 88.687205 
L 305.046577 88.663339 
L 305.449549 88.567876 
L 305.560746 88.532077 
L 306.261193 88.42468 
L 306.372789 88.400814 
L 306.946619 88.293418 
L 307.057816 88.281485 
L 307.202686 88.174088 
L 307.31429 88.054759 
L 308.136884 87.947362 
L 308.248081 87.935429 
L 308.629145 87.851899 
L 308.741148 87.768368 
L 308.951769 87.672905 
L 309.063364 87.434246 
L 309.281288 87.326849 
L 309.392485 87.302983 
L 309.995942 87.195587 
L 310.108759 87.135922 
L 310.510926 87.028525 
L 310.62415 86.956928 
L 310.691513 86.909196 
L 310.802709 86.837598 
L 311.254384 86.730202 
L 311.365573 86.718269 
L 311.946706 86.610872 
L 312.059523 86.551208 
L 312.561928 86.467677 
L 312.673532 86.408012 
L 313.672252 86.300616 
L 313.784255 86.193219 
L 314.310604 86.133554 
L 314.422199 86.026158 
L 314.808946 85.942627 
L 314.92055 85.882962 
L 315.010636 85.882962 
L 315.121832 85.7517 
L 315.877064 85.644303 
L 315.988252 85.63237 
L 317.20571 85.536907 
L 317.31812 85.453376 
L 317.325431 85.453376 
L 317.43662 85.310181 
L 317.991375 85.214717 
L 318.102978 85.155053 
L 318.68127 85.047656 
L 318.796114 84.928327 
L 319.361014 84.832863 
L 319.47221 84.785131 
L 319.908872 84.677735 
L 320.020061 84.665802 
L 320.412083 84.558405 
L 320.52328 84.510673 
L 320.938839 84.439076 
L 321.050028 84.367478 
L 321.674588 84.260081 
L 321.786184 84.224283 
L 322.251659 84.116886 
L 322.362855 84.104953 
L 322.935057 84.00949 
L 323.046661 83.973691 
L 323.957314 83.866294 
L 324.068511 83.842428 
L 324.305103 83.735032 
L 324.41792 83.675367 
L 325.175985 83.579903 
L 325.288403 83.460574 
L 325.490093 83.36511 
L 325.602096 83.305446 
L 325.882921 83.198049 
L 325.994118 83.186116 
L 326.297674 83.07872 
L 326.40927 83.030988 
L 327.005017 82.923591 
L 327.116613 82.899725 
L 327.76795 82.792329 
L 327.879147 82.780396 
L 328.277658 82.672999 
L 328.389262 82.517871 
L 328.957002 82.446273 
L 329.068191 82.374676 
L 329.69762 82.279212 
L 329.809224 82.23148 
L 330.172018 82.159883 
L 330.283622 82.088285 
L 331.590359 81.980888 
L 331.701548 81.968955 
L 332.280247 81.885425 
L 332.391444 81.813827 
L 333.162901 81.706431 
L 333.274505 81.610967 
L 333.768793 81.50357 
L 333.87999 81.443906 
L 334.70177 81.336509 
L 334.813366 81.312643 
L 335.026828 81.229113 
L 335.138025 81.193314 
L 336.094946 81.085917 
L 336.206542 81.062051 
L 337.436171 80.954655 
L 337.547368 80.942722 
L 338.01487 80.859191 
L 338.126474 80.799526 
L 338.244566 80.727929 
L 338.356162 80.608599 
L 339.007907 80.525069 
L 339.119104 80.477337 
L 340.145822 80.381873 
L 340.258639 80.274477 
L 341.25696 80.16708 
L 341.368962 80.131281 
L 341.774784 80.047751 
L 341.88638 80.000019 
L 342.578303 79.892622 
L 342.693554 79.76136 
L 343.552672 79.677829 
L 343.663868 79.630098 
L 344.484834 79.534634 
L 344.596845 79.463036 
L 345.178785 79.35564 
L 345.289981 79.343707 
L 345.583792 79.23631 
L 345.696202 79.188578 
L 346.489585 79.105048 
L 346.601181 79.03345 
L 347.609638 78.926054 
L 347.721241 78.902188 
L 348.970752 78.806724 
L 349.081949 78.723193 
L 349.679724 78.615797 
L 349.791319 78.568065 
L 350.490952 78.460669 
L 350.602556 78.436803 
L 351.63455 78.329406 
L 351.746553 78.293607 
L 352.53019 78.186211 
L 352.645442 78.054948 
L 353.48589 77.947552 
L 353.597901 77.911753 
L 354.349884 77.840155 
L 354.46148 77.780491 
L 355.107143 77.673094 
L 355.218739 77.613429 
L 355.456951 77.506033 
L 355.568148 77.4941 
L 356.183777 77.386703 
L 356.295373 77.362837 
L 356.388715 77.303173 
L 356.500311 77.231575 
L 358.204346 77.124178 
L 358.317163 77.064514 
L 359.091869 76.957117 
L 359.203473 76.933251 
L 359.750518 76.825855 
L 359.862113 76.790056 
L 360.950927 76.682659 
L 361.062124 76.670726 
L 361.847381 76.56333 
L 361.958578 76.551397 
L 362.745863 76.444 
L 362.857059 76.432067 
L 363.725507 76.324671 
L 363.837111 76.288872 
L 364.294468 76.193408 
L 364.405657 76.169543 
L 365.009114 76.062146 
L 365.12071 75.883152 
L 365.85768 75.775755 
L 365.969683 75.680292 
L 366.501308 75.584828 
L 366.612504 75.537096 
L 367.102729 75.4297 
L 367.213926 75.417767 
L 368.031245 75.322303 
L 368.142442 75.298437 
L 369.031178 75.191041 
L 369.142374 75.179108 
L 371.133317 75.071711 
L 371.245328 75.035912 
L 372.153547 74.928516 
L 372.266771 74.856918 
L 372.530149 74.749522 
L 372.641345 74.737589 
L 373.613279 74.654058 
L 373.724476 74.618259 
L 374.1242 74.510863 
L 374.235804 74.486997 
L 375.288901 74.3796 
L 375.400098 74.367667 
L 376.111088 74.260271 
L 376.222285 74.248338 
L 376.818838 74.140941 
L 376.930035 74.117075 
L 378.046033 74.009679 
L 378.15723 73.997746 
L 378.424663 73.890349 
L 378.537887 73.818752 
L 379.196128 73.711355 
L 379.307724 73.651691 
L 379.601535 73.544294 
L 379.713139 73.520428 
L 380.130318 73.424964 
L 380.241515 73.401099 
L 380.785718 73.341434 
L 380.896907 73.281769 
L 381.88751 73.174373 
L 381.998707 73.126641 
L 382.206079 73.031177 
L 382.317276 73.007311 
L 383.448295 72.899915 
L 383.559484 72.887982 
L 384.291585 72.780585 
L 384.409271 72.589658 
L 385.061015 72.553859 
L 385.172611 72.446463 
L 385.645796 72.339066 
L 385.757807 72.303267 
L 386.590546 72.195871 
L 386.701742 72.183938 
L 387.547874 72.088474 
L 387.659877 71.981078 
L 389.004757 71.873681 
L 389.116361 71.814016 
L 389.73361 71.718553 
L 389.84602 71.635022 
L 390.014028 71.527626 
L 390.125225 71.50376 
L 390.921848 71.408296 
L 391.033045 71.38443 
L 392.141333 71.288967 
L 392.252522 71.253168 
L 392.935921 71.145771 
L 393.047524 71.121905 
L 393.553577 71.062241 
L 393.664773 70.990643 
L 394.650915 70.919045 
L 394.762111 70.859381 
L 394.874521 70.751984 
L 394.98571 70.740051 
L 395.877703 70.632655 
L 395.989306 70.608789 
L 396.53675 70.501392 
L 396.647947 70.477526 
L 397.070809 70.405929 
L 397.182006 70.358197 
L 398.036254 70.2508 
L 398.147443 70.238867 
L 398.463171 70.143404 
L 398.574775 70.095672 
L 399.903421 69.988275 
L 400.014618 69.96441 
L 401.270219 69.857013 
L 401.382629 69.809281 
L 402.10702 69.713818 
L 402.219023 69.654153 
L 402.841548 69.558689 
L 402.954365 69.451293 
L 403.789139 69.343896 
L 403.901141 69.284231 
L 404.809767 69.224567 
L 404.921371 69.129103 
L 405.15066 69.021707 
L 405.26307 68.973975 
L 405.837707 68.866578 
L 405.948904 68.771115 
L 406.41113 68.723383 
L 406.522327 68.639852 
L 406.954519 68.580188 
L 407.065716 68.460858 
L 407.692702 68.353462 
L 407.803899 68.317663 
L 408.029533 68.222199 
L 408.141137 68.150601 
L 409.397959 68.043205 
L 409.509148 68.019339 
L 410.144259 67.911942 
L 410.255855 67.864211 
L 411.510649 67.756814 
L 411.622245 67.721015 
L 412.270741 67.613619 
L 412.381938 67.601686 
L 413.679745 67.494289 
L 413.790941 67.482356 
L 414.717022 67.37496 
L 414.828211 67.363027 
L 416.497344 67.25563 
L 416.608541 67.112435 
L 417.487141 67.040837 
L 417.598329 66.993105 
L 418.438778 66.885709 
L 418.550382 66.861843 
L 419.325902 66.754446 
L 419.437099 66.706715 
L 420.927664 66.611251 
L 421.03886 66.575452 
L 422.832176 66.468056 
L 422.946206 66.372592 
L 423.663294 66.265196 
L 423.774483 66.253263 
L 424.621428 66.145866 
L 424.732625 66.133933 
L 425.752041 66.03847 
L 425.863636 65.990738 
L 427.110721 65.883341 
L 427.222317 65.811744 
L 428.276228 65.704347 
L 428.387832 65.668548 
L 429.419419 65.561152 
L 429.53143 65.525353 
L 430.437621 65.417956 
L 430.548818 65.39409 
L 430.777692 65.298627 
L 430.889296 65.238962 
L 431.504925 65.131565 
L 431.616521 65.1077 
L 432.784063 65.000303 
L 432.895667 64.976437 
L 434.775819 64.880974 
L 434.887423 64.821309 
L 435.993277 64.761644 
L 436.104474 64.690046 
L 436.969673 64.58265 
L 437.082091 64.534918 
L 437.591799 64.439454 
L 437.703394 64.391723 
L 438.360822 64.284326 
L 438.47486 64.188863 
L 438.95372 64.164997 
L 439.064916 64.045667 
L 440.287243 63.938271 
L 440.39844 63.866673 
L 441.765636 63.759276 
L 441.880081 63.65188 
L 442.429153 63.639947 
L 442.54035 63.496752 
L 444.011848 63.401288 
L 444.12385 63.341623 
L 445.07184 63.24616 
L 445.183444 63.210361 
L 446.711354 63.102964 
L 446.822543 62.935903 
L 448.134149 62.828506 
L 448.245346 62.816574 
L 449.660431 62.72111 
L 449.772035 62.673378 
L 450.523204 62.577915 
L 450.635215 62.494384 
L 452.140801 62.386987 
L 452.251989 62.375054 
L 453.161836 62.267658 
L 453.273033 62.255725 
L 454.035567 62.172194 
L 454.146756 62.136395 
L 455.042803 62.040932 
L 455.154 61.9932 
L 456.135272 61.909669 
L 456.247275 61.826139 
L 457.555226 61.718742 
L 457.666423 61.706809 
L 459.378575 61.599413 
L 459.489764 61.551681 
L 460.879293 61.444284 
L 460.990888 61.396553 
L 462.559376 61.289156 
L 462.670573 61.277223 
L 463.630335 61.169827 
L 463.741931 61.145961 
L 465.204098 61.06243 
L 465.315295 61.026631 
L 466.349723 60.919235 
L 466.46092 60.907302 
L 467.346823 60.799905 
L 467.458012 60.787972 
L 468.019263 60.692509 
L 468.13046 60.668643 
L 468.19823 60.561246 
L 468.310233 60.525447 
L 468.650719 60.418051 
L 468.762315 60.382252 
L 469.331277 60.274856 
L 469.442872 60.25099 
L 469.832867 60.143593 
L 469.944463 60.119727 
L 471.006898 60.036197 
L 471.118502 59.976532 
L 472.461754 59.881068 
L 472.572951 59.857202 
L 472.913836 59.749806 
L 473.025033 59.714007 
L 474.484766 59.60661 
L 474.596362 59.582745 
L 475.213212 59.475348 
L 475.324401 59.463415 
L 476.701343 59.356019 
L 476.812539 59.344086 
L 477.061304 59.272488 
L 477.172907 59.141225 
L 478.087216 59.033829 
L 478.202467 58.902567 
L 478.986104 58.79517 
L 479.097301 58.783237 
L 480.162163 58.675841 
L 480.274173 58.604243 
L 481.190916 58.496846 
L 481.302919 58.461047 
L 481.835765 58.353651 
L 481.947768 58.282053 
L 482.901033 58.174657 
L 483.013044 58.06726 
L 483.753662 57.971797 
L 483.865257 57.912132 
L 484.752788 57.804735 
L 484.863977 57.792802 
L 485.846064 57.697339 
L 485.957252 57.673473 
L 487.455535 57.589942 
L 487.566732 57.54221 
L 488.224966 57.482546 
L 488.33657 57.363216 
L 488.936371 57.25582 
L 489.047967 57.184222 
L 489.393322 57.088758 
L 489.504519 56.981362 
L 490.257308 56.921697 
L 490.368505 56.838166 
L 491.333136 56.73077 
L 491.445953 56.671105 
L 492.893506 56.563709 
L 493.00511 56.515977 
L 494.396251 56.420513 
L 494.507854 56.372782 
L 495.414046 56.289251 
L 495.525243 56.20572 
L 496.417634 56.12219 
L 496.528831 56.074458 
L 497.053959 55.978994 
L 497.165563 55.943195 
L 497.762515 55.835799 
L 497.873712 55.8 
L 498.109091 55.8 
L 498.109091 55.8 
" style="fill:none;stroke:#d62728;stroke-linecap:square;stroke-width:2;"/>
   </g>
   <g id="patch_3">
    <path d="M 72 320.4 
L 72 43.2 
" style="fill:none;stroke:#000000;stroke-linecap:square;stroke-linejoin:miter;stroke-width:0.8;"/>
   </g>
   <g id="patch_4">
    <path d="M 518.4 320.4 
L 518.4 43.2 
" style="fill:none;stroke:#000000;stroke-linecap:square;stroke-linejoin:miter;stroke-width:0.8;"/>
   </g>
   <g id="patch_5">
    <path d="M 72 320.4 
L 518.4 320.4 
" style="fill:none;stroke:#000000;stroke-linecap:square;stroke-linejoin:miter;stroke-width:0.8;"/>
   </g>
   <g id="patch_6">
    <path d="M 72 43.2 
L 518.4 43.2 
" style="fill:none;stroke:#000000;stroke-linecap:square;stroke-linejoin:miter;stroke-width:0.8;"/>
   </g>
   <g id="text_15">
    <!-- $\delta$ vs Primes Quantity -->
    <g transform="translate(232.74 37.2)scale(0.12 -0.12)">
     <defs>
      <path d="M 2.984375 54.6875 
L 12.5 54.6875 
L 29.59375 8.796875 
L 46.6875 54.6875 
L 56.203125 54.6875 
L 35.6875 0 
L 23.484375 0 
z
" id="DejaVuSans-118"/>
     </defs>
     <use transform="translate(0 0.015625)" xlink:href="#DejaVuSans-Oblique-948"/>
     <use transform="translate(61.181641 0.015625)" xlink:href="#DejaVuSans-32"/>
     <use transform="translate(92.96875 0.015625)" xlink:href="#DejaVuSans-118"/>
     <use transform="translate(152.148438 0.015625)" xlink:href="#DejaVuSans-115"/>
     <use transform="translate(204.248047 0.015625)" xlink:href="#DejaVuSans-32"/>
     <use transform="translate(236.035156 0.015625)" xlink:href="#DejaVuSans-80"/>
     <use transform="translate(296.337891 0.015625)" xlink:href="#DejaVuSans-114"/>
     <use transform="translate(337.451172 0.015625)" xlink:href="#DejaVuSans-105"/>
     <use transform="translate(365.234375 0.015625)" xlink:href="#DejaVuSans-109"/>
     <use transform="translate(462.646484 0.015625)" xlink:href="#DejaVuSans-101"/>
     <use transform="translate(524.169922 0.015625)" xlink:href="#DejaVuSans-115"/>
     <use transform="translate(576.269531 0.015625)" xlink:href="#DejaVuSans-32"/>
     <use transform="translate(608.056641 0.015625)" xlink:href="#DejaVuSans-81"/>
     <use transform="translate(686.767578 0.015625)" xlink:href="#DejaVuSans-117"/>
     <use transform="translate(750.146484 0.015625)" xlink:href="#DejaVuSans-97"/>
     <use transform="translate(811.425781 0.015625)" xlink:href="#DejaVuSans-110"/>
     <use transform="translate(874.804688 0.015625)" xlink:href="#DejaVuSans-116"/>
     <use transform="translate(914.013672 0.015625)" xlink:href="#DejaVuSans-105"/>
     <use transform="translate(941.796875 0.015625)" xlink:href="#DejaVuSans-116"/>
     <use transform="translate(981.005859 0.015625)" xlink:href="#DejaVuSans-121"/>
    </g>
   </g>
   <g id="legend_1">
    <g id="line2d_14">
     <path d="M 81 56.298437 
L 101 56.298437 
" style="fill:none;stroke:#2ca02c;stroke-linecap:square;stroke-width:2;"/>
    </g>
    <g id="line2d_15"/>
    <g id="text_16">
     <!-- $\delta^{1}$ -->
     <g transform="translate(109 59.798437)scale(0.1 -0.1)">
      <use transform="translate(0 0.684375)" xlink:href="#DejaVuSans-Oblique-948"/>
      <use transform="translate(68.382161 38.965625)scale(0.7)" xlink:href="#DejaVuSans-49"/>
     </g>
    </g>
    <g id="line2d_16">
     <path d="M 81 70.976562 
L 101 70.976562 
" style="fill:none;stroke:#d62728;stroke-linecap:square;stroke-width:2;"/>
    </g>
    <g id="line2d_17"/>
    <g id="text_17">
     <!-- $\delta^{10}$ -->
     <g transform="translate(109 74.476562)scale(0.1 -0.1)">
      <use transform="translate(0 0.765625)" xlink:href="#DejaVuSans-Oblique-948"/>
      <use transform="translate(68.382161 39.046875)scale(0.7)" xlink:href="#DejaVuSans-49"/>
      <use transform="translate(112.918294 39.046875)scale(0.7)" xlink:href="#DejaVuSans-48"/>
     </g>
    </g>
   </g>
  </g>
 </g>
 <defs>
  <clipPath id="pcc2fef11aa">
   <rect height="277.2" width="446.4" x="72" y="43.2"/>
  </clipPath>
 </defs>
</svg>
