<?xml version="1.0" encoding="utf-8" standalone="no"?>
<!DOCTYPE svg PUBLIC "-//W3C//DTD SVG 1.1//EN"
  "http://www.w3.org/Graphics/SVG/1.1/DTD/svg11.dtd">
<!-- Created with matplotlib (https://matplotlib.org/) -->
<svg height="360pt" version="1.1" viewBox="0 0 576 360" width="576pt" xmlns="http://www.w3.org/2000/svg" xmlns:xlink="http://www.w3.org/1999/xlink">
 <metadata>
  <rdf:RDF xmlns:cc="http://creativecommons.org/ns#" xmlns:dc="http://purl.org/dc/elements/1.1/" xmlns:rdf="http://www.w3.org/1999/02/22-rdf-syntax-ns#">
   <cc:Work>
    <dc:type rdf:resource="http://purl.org/dc/dcmitype/StillImage"/>
    <dc:date>2021-04-11T20:28:03.613371</dc:date>
    <dc:format>image/svg+xml</dc:format>
    <dc:creator>
     <cc:Agent>
      <dc:title>Matplotlib v3.3.4, https://matplotlib.org/</dc:title>
     </cc:Agent>
    </dc:creator>
   </cc:Work>
  </rdf:RDF>
 </metadata>
 <defs>
  <style type="text/css">*{stroke-linecap:butt;stroke-linejoin:round;}</style>
 </defs>
 <g id="figure_1">
  <g id="patch_1">
   <path d="M 0 360 
L 576 360 
L 576 0 
L 0 0 
z
" style="fill:none;"/>
  </g>
  <g id="axes_1">
   <g id="patch_2">
    <path d="M 72 320.4 
L 518.4 320.4 
L 518.4 43.2 
L 72 43.2 
z
" style="fill:none;"/>
   </g>
   <g id="matplotlib.axis_1">
    <g id="xtick_1">
     <g id="line2d_1">
      <defs>
       <path d="M 0 0 
L 0 3.5 
" id="mf97788d7fa" style="stroke:#000000;stroke-width:0.8;"/>
      </defs>
      <g>
       <use style="stroke:#000000;stroke-width:0.8;" x="92.290909" xlink:href="#mf97788d7fa" y="320.4"/>
      </g>
     </g>
     <g id="text_1">
      <!-- 0 -->
      <g transform="translate(89.109659 334.998438)scale(0.1 -0.1)">
       <defs>
        <path d="M 31.78125 66.40625 
Q 24.171875 66.40625 20.328125 58.90625 
Q 16.5 51.421875 16.5 36.375 
Q 16.5 21.390625 20.328125 13.890625 
Q 24.171875 6.390625 31.78125 6.390625 
Q 39.453125 6.390625 43.28125 13.890625 
Q 47.125 21.390625 47.125 36.375 
Q 47.125 51.421875 43.28125 58.90625 
Q 39.453125 66.40625 31.78125 66.40625 
z
M 31.78125 74.21875 
Q 44.046875 74.21875 50.515625 64.515625 
Q 56.984375 54.828125 56.984375 36.375 
Q 56.984375 17.96875 50.515625 8.265625 
Q 44.046875 -1.421875 31.78125 -1.421875 
Q 19.53125 -1.421875 13.0625 8.265625 
Q 6.59375 17.96875 6.59375 36.375 
Q 6.59375 54.828125 13.0625 64.515625 
Q 19.53125 74.21875 31.78125 74.21875 
z
" id="DejaVuSans-48"/>
       </defs>
       <use xlink:href="#DejaVuSans-48"/>
      </g>
     </g>
    </g>
    <g id="xtick_2">
     <g id="line2d_2">
      <g>
       <use style="stroke:#000000;stroke-width:0.8;" x="172.104839" xlink:href="#mf97788d7fa" y="320.4"/>
      </g>
     </g>
     <g id="text_2">
      <!-- 1 -->
      <g transform="translate(168.923589 334.998438)scale(0.1 -0.1)">
       <defs>
        <path d="M 12.40625 8.296875 
L 28.515625 8.296875 
L 28.515625 63.921875 
L 10.984375 60.40625 
L 10.984375 69.390625 
L 28.421875 72.90625 
L 38.28125 72.90625 
L 38.28125 8.296875 
L 54.390625 8.296875 
L 54.390625 0 
L 12.40625 0 
z
" id="DejaVuSans-49"/>
       </defs>
       <use xlink:href="#DejaVuSans-49"/>
      </g>
     </g>
    </g>
    <g id="xtick_3">
     <g id="line2d_3">
      <g>
       <use style="stroke:#000000;stroke-width:0.8;" x="251.918769" xlink:href="#mf97788d7fa" y="320.4"/>
      </g>
     </g>
     <g id="text_3">
      <!-- 2 -->
      <g transform="translate(248.737519 334.998438)scale(0.1 -0.1)">
       <defs>
        <path d="M 19.1875 8.296875 
L 53.609375 8.296875 
L 53.609375 0 
L 7.328125 0 
L 7.328125 8.296875 
Q 12.9375 14.109375 22.625 23.890625 
Q 32.328125 33.6875 34.8125 36.53125 
Q 39.546875 41.84375 41.421875 45.53125 
Q 43.3125 49.21875 43.3125 52.78125 
Q 43.3125 58.59375 39.234375 62.25 
Q 35.15625 65.921875 28.609375 65.921875 
Q 23.96875 65.921875 18.8125 64.3125 
Q 13.671875 62.703125 7.8125 59.421875 
L 7.8125 69.390625 
Q 13.765625 71.78125 18.9375 73 
Q 24.125 74.21875 28.421875 74.21875 
Q 39.75 74.21875 46.484375 68.546875 
Q 53.21875 62.890625 53.21875 53.421875 
Q 53.21875 48.921875 51.53125 44.890625 
Q 49.859375 40.875 45.40625 35.40625 
Q 44.1875 33.984375 37.640625 27.21875 
Q 31.109375 20.453125 19.1875 8.296875 
z
" id="DejaVuSans-50"/>
       </defs>
       <use xlink:href="#DejaVuSans-50"/>
      </g>
     </g>
    </g>
    <g id="xtick_4">
     <g id="line2d_4">
      <g>
       <use style="stroke:#000000;stroke-width:0.8;" x="331.732699" xlink:href="#mf97788d7fa" y="320.4"/>
      </g>
     </g>
     <g id="text_4">
      <!-- 3 -->
      <g transform="translate(328.551449 334.998438)scale(0.1 -0.1)">
       <defs>
        <path d="M 40.578125 39.3125 
Q 47.65625 37.796875 51.625 33 
Q 55.609375 28.21875 55.609375 21.1875 
Q 55.609375 10.40625 48.1875 4.484375 
Q 40.765625 -1.421875 27.09375 -1.421875 
Q 22.515625 -1.421875 17.65625 -0.515625 
Q 12.796875 0.390625 7.625 2.203125 
L 7.625 11.71875 
Q 11.71875 9.328125 16.59375 8.109375 
Q 21.484375 6.890625 26.8125 6.890625 
Q 36.078125 6.890625 40.9375 10.546875 
Q 45.796875 14.203125 45.796875 21.1875 
Q 45.796875 27.640625 41.28125 31.265625 
Q 36.765625 34.90625 28.71875 34.90625 
L 20.21875 34.90625 
L 20.21875 43.015625 
L 29.109375 43.015625 
Q 36.375 43.015625 40.234375 45.921875 
Q 44.09375 48.828125 44.09375 54.296875 
Q 44.09375 59.90625 40.109375 62.90625 
Q 36.140625 65.921875 28.71875 65.921875 
Q 24.65625 65.921875 20.015625 65.03125 
Q 15.375 64.15625 9.8125 62.3125 
L 9.8125 71.09375 
Q 15.4375 72.65625 20.34375 73.4375 
Q 25.25 74.21875 29.59375 74.21875 
Q 40.828125 74.21875 47.359375 69.109375 
Q 53.90625 64.015625 53.90625 55.328125 
Q 53.90625 49.265625 50.4375 45.09375 
Q 46.96875 40.921875 40.578125 39.3125 
z
" id="DejaVuSans-51"/>
       </defs>
       <use xlink:href="#DejaVuSans-51"/>
      </g>
     </g>
    </g>
    <g id="xtick_5">
     <g id="line2d_5">
      <g>
       <use style="stroke:#000000;stroke-width:0.8;" x="411.54663" xlink:href="#mf97788d7fa" y="320.4"/>
      </g>
     </g>
     <g id="text_5">
      <!-- 4 -->
      <g transform="translate(408.36538 334.998438)scale(0.1 -0.1)">
       <defs>
        <path d="M 37.796875 64.3125 
L 12.890625 25.390625 
L 37.796875 25.390625 
z
M 35.203125 72.90625 
L 47.609375 72.90625 
L 47.609375 25.390625 
L 58.015625 25.390625 
L 58.015625 17.1875 
L 47.609375 17.1875 
L 47.609375 0 
L 37.796875 0 
L 37.796875 17.1875 
L 4.890625 17.1875 
L 4.890625 26.703125 
z
" id="DejaVuSans-52"/>
       </defs>
       <use xlink:href="#DejaVuSans-52"/>
      </g>
     </g>
    </g>
    <g id="xtick_6">
     <g id="line2d_6">
      <g>
       <use style="stroke:#000000;stroke-width:0.8;" x="491.36056" xlink:href="#mf97788d7fa" y="320.4"/>
      </g>
     </g>
     <g id="text_6">
      <!-- 5 -->
      <g transform="translate(488.17931 334.998438)scale(0.1 -0.1)">
       <defs>
        <path d="M 10.796875 72.90625 
L 49.515625 72.90625 
L 49.515625 64.59375 
L 19.828125 64.59375 
L 19.828125 46.734375 
Q 21.96875 47.46875 24.109375 47.828125 
Q 26.265625 48.1875 28.421875 48.1875 
Q 40.625 48.1875 47.75 41.5 
Q 54.890625 34.8125 54.890625 23.390625 
Q 54.890625 11.625 47.5625 5.09375 
Q 40.234375 -1.421875 26.90625 -1.421875 
Q 22.3125 -1.421875 17.546875 -0.640625 
Q 12.796875 0.140625 7.71875 1.703125 
L 7.71875 11.625 
Q 12.109375 9.234375 16.796875 8.0625 
Q 21.484375 6.890625 26.703125 6.890625 
Q 35.15625 6.890625 40.078125 11.328125 
Q 45.015625 15.765625 45.015625 23.390625 
Q 45.015625 31 40.078125 35.4375 
Q 35.15625 39.890625 26.703125 39.890625 
Q 22.75 39.890625 18.8125 39.015625 
Q 14.890625 38.140625 10.796875 36.28125 
z
" id="DejaVuSans-53"/>
       </defs>
       <use xlink:href="#DejaVuSans-53"/>
      </g>
     </g>
    </g>
    <g id="text_7">
     <!-- Primes Quantity -->
     <g transform="translate(255.08125 348.676562)scale(0.1 -0.1)">
      <defs>
       <path d="M 19.671875 64.796875 
L 19.671875 37.40625 
L 32.078125 37.40625 
Q 38.96875 37.40625 42.71875 40.96875 
Q 46.484375 44.53125 46.484375 51.125 
Q 46.484375 57.671875 42.71875 61.234375 
Q 38.96875 64.796875 32.078125 64.796875 
z
M 9.8125 72.90625 
L 32.078125 72.90625 
Q 44.34375 72.90625 50.609375 67.359375 
Q 56.890625 61.8125 56.890625 51.125 
Q 56.890625 40.328125 50.609375 34.8125 
Q 44.34375 29.296875 32.078125 29.296875 
L 19.671875 29.296875 
L 19.671875 0 
L 9.8125 0 
z
" id="DejaVuSans-80"/>
       <path d="M 41.109375 46.296875 
Q 39.59375 47.171875 37.8125 47.578125 
Q 36.03125 48 33.890625 48 
Q 26.265625 48 22.1875 43.046875 
Q 18.109375 38.09375 18.109375 28.8125 
L 18.109375 0 
L 9.078125 0 
L 9.078125 54.6875 
L 18.109375 54.6875 
L 18.109375 46.1875 
Q 20.953125 51.171875 25.484375 53.578125 
Q 30.03125 56 36.53125 56 
Q 37.453125 56 38.578125 55.875 
Q 39.703125 55.765625 41.0625 55.515625 
z
" id="DejaVuSans-114"/>
       <path d="M 9.421875 54.6875 
L 18.40625 54.6875 
L 18.40625 0 
L 9.421875 0 
z
M 9.421875 75.984375 
L 18.40625 75.984375 
L 18.40625 64.59375 
L 9.421875 64.59375 
z
" id="DejaVuSans-105"/>
       <path d="M 52 44.1875 
Q 55.375 50.25 60.0625 53.125 
Q 64.75 56 71.09375 56 
Q 79.640625 56 84.28125 50.015625 
Q 88.921875 44.046875 88.921875 33.015625 
L 88.921875 0 
L 79.890625 0 
L 79.890625 32.71875 
Q 79.890625 40.578125 77.09375 44.375 
Q 74.3125 48.1875 68.609375 48.1875 
Q 61.625 48.1875 57.5625 43.546875 
Q 53.515625 38.921875 53.515625 30.90625 
L 53.515625 0 
L 44.484375 0 
L 44.484375 32.71875 
Q 44.484375 40.625 41.703125 44.40625 
Q 38.921875 48.1875 33.109375 48.1875 
Q 26.21875 48.1875 22.15625 43.53125 
Q 18.109375 38.875 18.109375 30.90625 
L 18.109375 0 
L 9.078125 0 
L 9.078125 54.6875 
L 18.109375 54.6875 
L 18.109375 46.1875 
Q 21.1875 51.21875 25.484375 53.609375 
Q 29.78125 56 35.6875 56 
Q 41.65625 56 45.828125 52.96875 
Q 50 49.953125 52 44.1875 
z
" id="DejaVuSans-109"/>
       <path d="M 56.203125 29.59375 
L 56.203125 25.203125 
L 14.890625 25.203125 
Q 15.484375 15.921875 20.484375 11.0625 
Q 25.484375 6.203125 34.421875 6.203125 
Q 39.59375 6.203125 44.453125 7.46875 
Q 49.3125 8.734375 54.109375 11.28125 
L 54.109375 2.78125 
Q 49.265625 0.734375 44.1875 -0.34375 
Q 39.109375 -1.421875 33.890625 -1.421875 
Q 20.796875 -1.421875 13.15625 6.1875 
Q 5.515625 13.8125 5.515625 26.8125 
Q 5.515625 40.234375 12.765625 48.109375 
Q 20.015625 56 32.328125 56 
Q 43.359375 56 49.78125 48.890625 
Q 56.203125 41.796875 56.203125 29.59375 
z
M 47.21875 32.234375 
Q 47.125 39.59375 43.09375 43.984375 
Q 39.0625 48.390625 32.421875 48.390625 
Q 24.90625 48.390625 20.390625 44.140625 
Q 15.875 39.890625 15.1875 32.171875 
z
" id="DejaVuSans-101"/>
       <path d="M 44.28125 53.078125 
L 44.28125 44.578125 
Q 40.484375 46.53125 36.375 47.5 
Q 32.28125 48.484375 27.875 48.484375 
Q 21.1875 48.484375 17.84375 46.4375 
Q 14.5 44.390625 14.5 40.28125 
Q 14.5 37.15625 16.890625 35.375 
Q 19.28125 33.59375 26.515625 31.984375 
L 29.59375 31.296875 
Q 39.15625 29.25 43.1875 25.515625 
Q 47.21875 21.78125 47.21875 15.09375 
Q 47.21875 7.46875 41.1875 3.015625 
Q 35.15625 -1.421875 24.609375 -1.421875 
Q 20.21875 -1.421875 15.453125 -0.5625 
Q 10.6875 0.296875 5.421875 2 
L 5.421875 11.28125 
Q 10.40625 8.6875 15.234375 7.390625 
Q 20.0625 6.109375 24.8125 6.109375 
Q 31.15625 6.109375 34.5625 8.28125 
Q 37.984375 10.453125 37.984375 14.40625 
Q 37.984375 18.0625 35.515625 20.015625 
Q 33.0625 21.96875 24.703125 23.78125 
L 21.578125 24.515625 
Q 13.234375 26.265625 9.515625 29.90625 
Q 5.8125 33.546875 5.8125 39.890625 
Q 5.8125 47.609375 11.28125 51.796875 
Q 16.75 56 26.8125 56 
Q 31.78125 56 36.171875 55.265625 
Q 40.578125 54.546875 44.28125 53.078125 
z
" id="DejaVuSans-115"/>
       <path id="DejaVuSans-32"/>
       <path d="M 39.40625 66.21875 
Q 28.65625 66.21875 22.328125 58.203125 
Q 16.015625 50.203125 16.015625 36.375 
Q 16.015625 22.609375 22.328125 14.59375 
Q 28.65625 6.59375 39.40625 6.59375 
Q 50.140625 6.59375 56.421875 14.59375 
Q 62.703125 22.609375 62.703125 36.375 
Q 62.703125 50.203125 56.421875 58.203125 
Q 50.140625 66.21875 39.40625 66.21875 
z
M 53.21875 1.3125 
L 66.21875 -12.890625 
L 54.296875 -12.890625 
L 43.5 -1.21875 
Q 41.890625 -1.3125 41.03125 -1.359375 
Q 40.1875 -1.421875 39.40625 -1.421875 
Q 24.03125 -1.421875 14.8125 8.859375 
Q 5.609375 19.140625 5.609375 36.375 
Q 5.609375 53.65625 14.8125 63.9375 
Q 24.03125 74.21875 39.40625 74.21875 
Q 54.734375 74.21875 63.90625 63.9375 
Q 73.09375 53.65625 73.09375 36.375 
Q 73.09375 23.6875 67.984375 14.640625 
Q 62.890625 5.609375 53.21875 1.3125 
z
" id="DejaVuSans-81"/>
       <path d="M 8.5 21.578125 
L 8.5 54.6875 
L 17.484375 54.6875 
L 17.484375 21.921875 
Q 17.484375 14.15625 20.5 10.265625 
Q 23.53125 6.390625 29.59375 6.390625 
Q 36.859375 6.390625 41.078125 11.03125 
Q 45.3125 15.671875 45.3125 23.6875 
L 45.3125 54.6875 
L 54.296875 54.6875 
L 54.296875 0 
L 45.3125 0 
L 45.3125 8.40625 
Q 42.046875 3.421875 37.71875 1 
Q 33.40625 -1.421875 27.6875 -1.421875 
Q 18.265625 -1.421875 13.375 4.4375 
Q 8.5 10.296875 8.5 21.578125 
z
M 31.109375 56 
z
" id="DejaVuSans-117"/>
       <path d="M 34.28125 27.484375 
Q 23.390625 27.484375 19.1875 25 
Q 14.984375 22.515625 14.984375 16.5 
Q 14.984375 11.71875 18.140625 8.90625 
Q 21.296875 6.109375 26.703125 6.109375 
Q 34.1875 6.109375 38.703125 11.40625 
Q 43.21875 16.703125 43.21875 25.484375 
L 43.21875 27.484375 
z
M 52.203125 31.203125 
L 52.203125 0 
L 43.21875 0 
L 43.21875 8.296875 
Q 40.140625 3.328125 35.546875 0.953125 
Q 30.953125 -1.421875 24.3125 -1.421875 
Q 15.921875 -1.421875 10.953125 3.296875 
Q 6 8.015625 6 15.921875 
Q 6 25.140625 12.171875 29.828125 
Q 18.359375 34.515625 30.609375 34.515625 
L 43.21875 34.515625 
L 43.21875 35.40625 
Q 43.21875 41.609375 39.140625 45 
Q 35.0625 48.390625 27.6875 48.390625 
Q 23 48.390625 18.546875 47.265625 
Q 14.109375 46.140625 10.015625 43.890625 
L 10.015625 52.203125 
Q 14.9375 54.109375 19.578125 55.046875 
Q 24.21875 56 28.609375 56 
Q 40.484375 56 46.34375 49.84375 
Q 52.203125 43.703125 52.203125 31.203125 
z
" id="DejaVuSans-97"/>
       <path d="M 54.890625 33.015625 
L 54.890625 0 
L 45.90625 0 
L 45.90625 32.71875 
Q 45.90625 40.484375 42.875 44.328125 
Q 39.84375 48.1875 33.796875 48.1875 
Q 26.515625 48.1875 22.3125 43.546875 
Q 18.109375 38.921875 18.109375 30.90625 
L 18.109375 0 
L 9.078125 0 
L 9.078125 54.6875 
L 18.109375 54.6875 
L 18.109375 46.1875 
Q 21.34375 51.125 25.703125 53.5625 
Q 30.078125 56 35.796875 56 
Q 45.21875 56 50.046875 50.171875 
Q 54.890625 44.34375 54.890625 33.015625 
z
" id="DejaVuSans-110"/>
       <path d="M 18.3125 70.21875 
L 18.3125 54.6875 
L 36.8125 54.6875 
L 36.8125 47.703125 
L 18.3125 47.703125 
L 18.3125 18.015625 
Q 18.3125 11.328125 20.140625 9.421875 
Q 21.96875 7.515625 27.59375 7.515625 
L 36.8125 7.515625 
L 36.8125 0 
L 27.59375 0 
Q 17.1875 0 13.234375 3.875 
Q 9.28125 7.765625 9.28125 18.015625 
L 9.28125 47.703125 
L 2.6875 47.703125 
L 2.6875 54.6875 
L 9.28125 54.6875 
L 9.28125 70.21875 
z
" id="DejaVuSans-116"/>
       <path d="M 32.171875 -5.078125 
Q 28.375 -14.84375 24.75 -17.8125 
Q 21.140625 -20.796875 15.09375 -20.796875 
L 7.90625 -20.796875 
L 7.90625 -13.28125 
L 13.1875 -13.28125 
Q 16.890625 -13.28125 18.9375 -11.515625 
Q 21 -9.765625 23.484375 -3.21875 
L 25.09375 0.875 
L 2.984375 54.6875 
L 12.5 54.6875 
L 29.59375 11.921875 
L 46.6875 54.6875 
L 56.203125 54.6875 
z
" id="DejaVuSans-121"/>
      </defs>
      <use xlink:href="#DejaVuSans-80"/>
      <use x="58.552734" xlink:href="#DejaVuSans-114"/>
      <use x="99.666016" xlink:href="#DejaVuSans-105"/>
      <use x="127.449219" xlink:href="#DejaVuSans-109"/>
      <use x="224.861328" xlink:href="#DejaVuSans-101"/>
      <use x="286.384766" xlink:href="#DejaVuSans-115"/>
      <use x="338.484375" xlink:href="#DejaVuSans-32"/>
      <use x="370.271484" xlink:href="#DejaVuSans-81"/>
      <use x="448.982422" xlink:href="#DejaVuSans-117"/>
      <use x="512.361328" xlink:href="#DejaVuSans-97"/>
      <use x="573.640625" xlink:href="#DejaVuSans-110"/>
      <use x="637.019531" xlink:href="#DejaVuSans-116"/>
      <use x="676.228516" xlink:href="#DejaVuSans-105"/>
      <use x="704.011719" xlink:href="#DejaVuSans-116"/>
      <use x="743.220703" xlink:href="#DejaVuSans-121"/>
     </g>
    </g>
    <g id="text_8">
     <!-- 1e7 -->
     <g transform="translate(499.521875 347.676562)scale(0.1 -0.1)">
      <defs>
       <path d="M 8.203125 72.90625 
L 55.078125 72.90625 
L 55.078125 68.703125 
L 28.609375 0 
L 18.3125 0 
L 43.21875 64.59375 
L 8.203125 64.59375 
z
" id="DejaVuSans-55"/>
      </defs>
      <use xlink:href="#DejaVuSans-49"/>
      <use x="63.623047" xlink:href="#DejaVuSans-101"/>
      <use x="125.146484" xlink:href="#DejaVuSans-55"/>
     </g>
    </g>
   </g>
   <g id="matplotlib.axis_2">
    <g id="ytick_1">
     <g id="line2d_7">
      <defs>
       <path d="M 0 0 
L -3.5 0 
" id="m7b2c8a7511" style="stroke:#000000;stroke-width:0.8;"/>
      </defs>
      <g>
       <use style="stroke:#000000;stroke-width:0.8;" x="72" xlink:href="#m7b2c8a7511" y="307.800084"/>
      </g>
     </g>
     <g id="text_9">
      <!-- 0.0 -->
      <g transform="translate(49.096875 311.599302)scale(0.1 -0.1)">
       <defs>
        <path d="M 10.6875 12.40625 
L 21 12.40625 
L 21 0 
L 10.6875 0 
z
" id="DejaVuSans-46"/>
       </defs>
       <use xlink:href="#DejaVuSans-48"/>
       <use x="63.623047" xlink:href="#DejaVuSans-46"/>
       <use x="95.410156" xlink:href="#DejaVuSans-48"/>
      </g>
     </g>
    </g>
    <g id="ytick_2">
     <g id="line2d_8">
      <g>
       <use style="stroke:#000000;stroke-width:0.8;" x="72" xlink:href="#m7b2c8a7511" y="265.963233"/>
      </g>
     </g>
     <g id="text_10">
      <!-- 0.5 -->
      <g transform="translate(49.096875 269.762452)scale(0.1 -0.1)">
       <use xlink:href="#DejaVuSans-48"/>
       <use x="63.623047" xlink:href="#DejaVuSans-46"/>
       <use x="95.410156" xlink:href="#DejaVuSans-53"/>
      </g>
     </g>
    </g>
    <g id="ytick_3">
     <g id="line2d_9">
      <g>
       <use style="stroke:#000000;stroke-width:0.8;" x="72" xlink:href="#m7b2c8a7511" y="224.126383"/>
      </g>
     </g>
     <g id="text_11">
      <!-- 1.0 -->
      <g transform="translate(49.096875 227.925602)scale(0.1 -0.1)">
       <use xlink:href="#DejaVuSans-49"/>
       <use x="63.623047" xlink:href="#DejaVuSans-46"/>
       <use x="95.410156" xlink:href="#DejaVuSans-48"/>
      </g>
     </g>
    </g>
    <g id="ytick_4">
     <g id="line2d_10">
      <g>
       <use style="stroke:#000000;stroke-width:0.8;" x="72" xlink:href="#m7b2c8a7511" y="182.289533"/>
      </g>
     </g>
     <g id="text_12">
      <!-- 1.5 -->
      <g transform="translate(49.096875 186.088752)scale(0.1 -0.1)">
       <use xlink:href="#DejaVuSans-49"/>
       <use x="63.623047" xlink:href="#DejaVuSans-46"/>
       <use x="95.410156" xlink:href="#DejaVuSans-53"/>
      </g>
     </g>
    </g>
    <g id="ytick_5">
     <g id="line2d_11">
      <g>
       <use style="stroke:#000000;stroke-width:0.8;" x="72" xlink:href="#m7b2c8a7511" y="140.452683"/>
      </g>
     </g>
     <g id="text_13">
      <!-- 2.0 -->
      <g transform="translate(49.096875 144.251902)scale(0.1 -0.1)">
       <use xlink:href="#DejaVuSans-50"/>
       <use x="63.623047" xlink:href="#DejaVuSans-46"/>
       <use x="95.410156" xlink:href="#DejaVuSans-48"/>
      </g>
     </g>
    </g>
    <g id="ytick_6">
     <g id="line2d_12">
      <g>
       <use style="stroke:#000000;stroke-width:0.8;" x="72" xlink:href="#m7b2c8a7511" y="98.615833"/>
      </g>
     </g>
     <g id="text_14">
      <!-- 2.5 -->
      <g transform="translate(49.096875 102.415051)scale(0.1 -0.1)">
       <use xlink:href="#DejaVuSans-50"/>
       <use x="63.623047" xlink:href="#DejaVuSans-46"/>
       <use x="95.410156" xlink:href="#DejaVuSans-53"/>
      </g>
     </g>
    </g>
    <g id="ytick_7">
     <g id="line2d_13">
      <g>
       <use style="stroke:#000000;stroke-width:0.8;" x="72" xlink:href="#m7b2c8a7511" y="56.778982"/>
      </g>
     </g>
     <g id="text_15">
      <!-- 3.0 -->
      <g transform="translate(49.096875 60.578201)scale(0.1 -0.1)">
       <use xlink:href="#DejaVuSans-51"/>
       <use x="63.623047" xlink:href="#DejaVuSans-46"/>
       <use x="95.410156" xlink:href="#DejaVuSans-48"/>
      </g>
     </g>
    </g>
    <g id="text_16">
     <!-- $\delta$ Quantity -->
     <g transform="translate(42.996875 208.1)rotate(-90)scale(0.1 -0.1)">
      <defs>
       <path d="M 54.25 63.328125 
Q 49.953125 66.75 38.28125 66.75 
Q 25.921875 66.75 24.8125 61.03125 
Q 23.921875 56.546875 36.375 54.203125 
Q 46.140625 52.390625 50.828125 46.921875 
Q 56.5 40.328125 53.859375 26.8125 
Q 51.3125 13.875 43.171875 6.25 
Q 34.96875 -1.421875 23.25 -1.421875 
Q 11.578125 -1.421875 6.34375 6.25 
Q 1.125 13.875 3.765625 27.296875 
Q 5.671875 37.25 13.921875 45.3125 
Q 17.140625 48.4375 21.140625 50.203125 
Q 14.265625 54.046875 15.625 60.9375 
Q 18.21875 74.21875 39.75 74.21875 
Q 50.53125 74.21875 55.71875 70.796875 
z
M 27.390625 47.75 
Q 23.828125 46.34375 20.40625 42.78125 
Q 15.140625 37.25 13.234375 27.296875 
Q 11.28125 17.390625 14.359375 11.8125 
Q 17.484375 6.203125 24.75 6.203125 
Q 31.9375 6.203125 37.203125 11.859375 
Q 42.53125 17.53125 44.34375 26.8125 
Q 46.1875 36.53125 42.671875 41.21875 
Q 38.921875 46.234375 32.859375 46.78125 
Q 29.78125 47.078125 27.390625 47.75 
z
" id="DejaVuSans-Oblique-948"/>
      </defs>
      <use transform="translate(0 0.015625)" xlink:href="#DejaVuSans-Oblique-948"/>
      <use transform="translate(61.181641 0.015625)" xlink:href="#DejaVuSans-32"/>
      <use transform="translate(92.96875 0.015625)" xlink:href="#DejaVuSans-81"/>
      <use transform="translate(171.679688 0.015625)" xlink:href="#DejaVuSans-117"/>
      <use transform="translate(235.058594 0.015625)" xlink:href="#DejaVuSans-97"/>
      <use transform="translate(296.337891 0.015625)" xlink:href="#DejaVuSans-110"/>
      <use transform="translate(359.716797 0.015625)" xlink:href="#DejaVuSans-116"/>
      <use transform="translate(398.925781 0.015625)" xlink:href="#DejaVuSans-105"/>
      <use transform="translate(426.708984 0.015625)" xlink:href="#DejaVuSans-116"/>
      <use transform="translate(465.917969 0.015625)" xlink:href="#DejaVuSans-121"/>
     </g>
    </g>
    <g id="text_17">
     <!-- 1e6 -->
     <g transform="translate(72 40.2)scale(0.1 -0.1)">
      <defs>
       <path d="M 33.015625 40.375 
Q 26.375 40.375 22.484375 35.828125 
Q 18.609375 31.296875 18.609375 23.390625 
Q 18.609375 15.53125 22.484375 10.953125 
Q 26.375 6.390625 33.015625 6.390625 
Q 39.65625 6.390625 43.53125 10.953125 
Q 47.40625 15.53125 47.40625 23.390625 
Q 47.40625 31.296875 43.53125 35.828125 
Q 39.65625 40.375 33.015625 40.375 
z
M 52.59375 71.296875 
L 52.59375 62.3125 
Q 48.875 64.0625 45.09375 64.984375 
Q 41.3125 65.921875 37.59375 65.921875 
Q 27.828125 65.921875 22.671875 59.328125 
Q 17.53125 52.734375 16.796875 39.40625 
Q 19.671875 43.65625 24.015625 45.921875 
Q 28.375 48.1875 33.59375 48.1875 
Q 44.578125 48.1875 50.953125 41.515625 
Q 57.328125 34.859375 57.328125 23.390625 
Q 57.328125 12.15625 50.6875 5.359375 
Q 44.046875 -1.421875 33.015625 -1.421875 
Q 20.359375 -1.421875 13.671875 8.265625 
Q 6.984375 17.96875 6.984375 36.375 
Q 6.984375 53.65625 15.1875 63.9375 
Q 23.390625 74.21875 37.203125 74.21875 
Q 40.921875 74.21875 44.703125 73.484375 
Q 48.484375 72.75 52.59375 71.296875 
z
" id="DejaVuSans-54"/>
      </defs>
      <use xlink:href="#DejaVuSans-49"/>
      <use x="63.623047" xlink:href="#DejaVuSans-101"/>
      <use x="125.146484" xlink:href="#DejaVuSans-54"/>
     </g>
    </g>
   </g>
   <g id="line2d_14">
    <path clip-path="url(#pf8931a57ea)" d="M 92.290909 307.8 
L 92.419553 307.777073 
L 117.073438 307.666038 
L 117.621288 307.664616 
L 329.083212 307.553581 
L 329.635126 307.553497 
L 498.109091 307.520781 
L 498.109091 307.520781 
" style="fill:none;stroke:#2ca02c;stroke-linecap:square;stroke-width:2;"/>
   </g>
   <g id="line2d_15">
    <path clip-path="url(#pf8931a57ea)" d="M 92.290909 307.8 
L 92.421173 307.637171 
L 92.870414 307.490491 
L 93.830983 307.37954 
L 93.959635 307.368913 
L 94.320402 307.337954 
L 96.577971 307.226919 
L 97.234991 307.205247 
L 100.767236 307.094212 
L 101.389761 307.079653 
L 108.160441 306.968618 
L 108.466024 306.963012 
L 118.34568 306.851977 
L 118.557514 306.849969 
L 133.679939 306.739017 
L 133.977406 306.736758 
L 155.957755 306.625891 
L 156.08153 306.624803 
L 187.075921 306.513768 
L 187.372175 306.512094 
L 229.601246 306.401059 
L 229.757083 306.399888 
L 289.372238 306.288853 
L 289.927807 306.288016 
L 363.678433 306.176981 
L 364.234408 306.176061 
L 468.863774 306.065026 
L 469.408784 306.064273 
L 498.109091 306.032979 
L 498.109091 306.032979 
" style="fill:none;stroke:#d62728;stroke-linecap:square;stroke-width:2;"/>
   </g>
   <g id="line2d_16">
    <path clip-path="url(#pf8931a57ea)" d="M 92.290909 307.8 
L 92.536832 306.503225 
L 92.699564 305.968968 
L 92.914647 305.466508 
L 93.05587 305.206952 
L 93.351309 304.694953 
L 95.088619 303.068671 
L 95.318714 302.959309 
L 95.444525 302.883919 
L 95.856836 302.684776 
L 95.990756 302.636161 
L 97.124201 302.051282 
L 97.252039 302.008357 
L 97.544629 301.897322 
L 98.051903 301.714997 
L 98.337604 301.604548 
L 98.493034 301.538279 
L 98.745047 301.427578 
L 98.929688 301.356121 
L 99.664224 301.092716 
L 99.791647 301.058912 
L 100.112243 300.948128 
L 100.36345 300.885122 
L 100.735989 300.775928 
L 100.852462 300.739278 
L 101.31915 300.629248 
L 101.441305 300.593184 
L 101.866601 300.482233 
L 102.678237 300.268614 
L 103.062549 300.157663 
L 103.400593 300.079511 
L 103.954941 299.968476 
L 104.127818 299.931493 
L 104.664311 299.820625 
L 104.831106 299.775274 
L 105.196343 299.664824 
L 105.341221 299.630184 
L 105.814813 299.519567 
L 105.959683 299.493377 
L 106.45073 299.382342 
L 109.193656 298.920714 
L 109.99474 298.809679 
L 110.349018 298.721571 
L 111.04419 298.612293 
L 111.161061 298.588362 
L 111.979601 298.477495 
L 112.1123 298.465111 
L 112.997795 298.354327 
L 113.129281 298.338011 
L 113.816335 298.227143 
L 114.080926 298.194343 
L 115.073564 298.084061 
L 115.193684 298.064398 
L 116.512593 297.906673 
L 117.495079 297.795805 
L 117.64726 297.784091 
L 118.432924 297.673641 
L 118.5567 297.658915 
L 119.69056 297.54788 
L 119.816363 297.532568 
L 120.740409 297.456006 
L 121.714378 297.344971 
L 121.835312 297.325894 
L 122.992702 297.215528 
L 123.117292 297.198626 
L 124.096122 297.08893 
L 124.21625 297.059393 
L 125.075367 296.948441 
L 125.200355 296.931456 
L 126.304589 296.820421 
L 126.462453 296.801678 
L 128.022017 296.690726 
L 128.273623 296.663616 
L 129.422496 296.553083 
L 129.570216 296.534759 
L 131.175226 296.423724 
L 131.315635 296.415858 
L 132.913749 296.304907 
L 133.065531 296.293778 
L 134.527284 296.182743 
L 134.782545 296.155633 
L 136.327495 296.045686 
L 136.448022 296.037068 
L 138.00069 295.926953 
L 138.119589 295.922686 
L 140.541519 295.811734 
L 140.707907 295.799853 
L 142.370543 295.689571 
L 142.485794 295.677187 
L 143.962567 295.566403 
L 144.09446 295.555693 
L 145.871541 295.444992 
L 145.988005 295.431019 
L 147.650242 295.320068 
L 147.811762 295.313123 
L 149.687453 295.202171 
L 149.814469 295.195059 
L 151.959221 295.084359 
L 152.126016 295.072226 
L 153.869814 294.961275 
L 154.026465 294.959601 
L 155.889985 294.84865 
L 156.246697 294.822125 
L 156.968646 294.78715 
L 158.684047 294.677454 
L 158.802539 294.658711 
L 161.381518 294.547676 
L 161.508949 294.538974 
L 163.530732 294.428357 
L 163.649639 294.419153 
L 166.035852 294.308118 
L 166.36091 294.294563 
L 168.937048 294.183528 
L 169.074216 294.162777 
L 172.186441 294.052746 
L 172.304127 294.04647 
L 174.716311 293.937109 
L 174.831155 293.925645 
L 177.876831 293.815698 
L 177.991675 293.808502 
L 180.848639 293.698304 
L 180.972007 293.693953 
L 183.415439 293.583002 
L 183.643914 293.572542 
L 187.292632 293.461758 
L 187.459419 293.449291 
L 190.427987 293.33834 
L 190.561906 293.331395 
L 194.428947 293.22036 
L 194.577888 293.21308 
L 197.559026 293.103049 
L 197.673471 293.097694 
L 200.439527 292.986659 
L 201.074638 292.969506 
L 204.377187 292.858722 
L 204.548037 292.842071 
L 207.424882 292.731036 
L 207.610345 292.722334 
L 210.828076 292.611299 
L 211.49809 292.58695 
L 214.652512 292.476668 
L 214.76817 292.468552 
L 218.448135 292.358772 
L 218.564608 292.35509 
L 223.319179 292.244055 
L 223.9762 292.21979 
L 227.486121 292.109006 
L 227.636275 292.100136 
L 232.003693 291.989269 
L 232.131124 291.986507 
L 236.888936 291.87656 
L 237.007029 291.860244 
L 240.480435 291.749209 
L 240.79697 291.736825 
L 244.851908 291.62579 
L 245.459827 291.614243 
L 251.393705 291.503292 
L 251.698475 291.498104 
L 256.255818 291.388575 
L 256.371477 291.381546 
L 259.819718 291.271432 
L 259.941466 291.266244 
L 264.373813 291.155209 
L 264.489471 291.152364 
L 269.87996 291.041664 
L 270.016315 291.040074 
L 275.066725 290.929374 
L 275.21039 290.928453 
L 281.665341 290.817586 
L 281.89341 290.805202 
L 287.931174 290.694251 
L 288.069156 290.690151 
L 293.357779 290.579199 
L 293.651191 290.578614 
L 300.690109 290.467997 
L 300.810237 290.466826 
L 306.929571 290.356627 
L 307.044822 290.353197 
L 311.644371 290.243835 
L 311.758002 290.24099 
L 318.313192 290.130457 
L 318.442651 290.124182 
L 318.749854 290.115814 
L 326.671834 290.004779 
L 327.259871 289.997332 
L 334.816614 289.886716 
L 334.963112 289.882448 
L 341.561729 289.771497 
L 341.687125 289.766142 
L 347.915221 289.655191 
L 348.040617 289.651007 
L 354.450929 289.540139 
L 354.575518 289.537629 
L 361.609975 289.428184 
L 361.723199 289.423833 
L 369.38465 289.313384 
L 369.502335 289.307192 
L 377.069231 289.197077 
L 377.188137 289.187036 
L 385.450196 289.076085 
L 385.746034 289.074579 
L 393.471201 288.963795 
L 393.593348 288.953921 
L 400.007722 288.844811 
L 400.121345 288.840042 
L 408.570089 288.729258 
L 408.7454 288.726998 
L 419.011395 288.6168 
L 419.125425 288.612198 
L 427.247482 288.501163 
L 427.542107 288.500159 
L 434.441423 288.389375 
L 434.616742 288.388873 
L 442.889759 288.277838 
L 443.067098 288.275662 
L 451.959399 288.164627 
L 452.522271 288.162285 
L 462.825188 288.051752 
L 462.945316 288.046731 
L 474.970937 287.935864 
L 475.190888 287.930676 
L 484.997897 287.819641 
L 485.566452 287.816126 
L 493.214917 287.705426 
L 493.375215 287.69982 
L 498.109091 287.640579 
L 498.109091 287.640579 
" style="fill:none;stroke:#1f77b4;stroke-linecap:square;stroke-width:2;"/>
   </g>
   <g id="line2d_17">
    <path clip-path="url(#pf8931a57ea)" d="M 92.290909 307.8 
L 93.062367 301.020757 
L 93.760371 295.717601 
L 95.863325 283.031832 
L 95.920543 282.726172 
L 96.219638 281.341958 
L 96.293897 280.965426 
L 96.972834 277.589359 
L 97.021936 277.325118 
L 100.101692 264.522372 
L 100.213703 264.124337 
L 100.390642 263.600707 
L 100.420668 263.467916 
L 100.536734 263.107868 
L 100.757906 262.300083 
L 102.95947 254.57951 
L 102.978952 254.462451 
L 103.255308 253.781849 
L 103.46877 253.153292 
L 103.662351 252.618115 
L 103.733768 252.413616 
L 104.102253 251.314897 
L 104.39039 250.470044 
L 104.54906 250.127316 
L 104.701241 249.664182 
L 104.967867 248.617173 
L 105.678451 246.412706 
L 105.762862 246.260085 
L 105.948733 245.682151 
L 106.307065 244.500344 
L 106.508763 243.955126 
L 106.78796 243.155624 
L 106.83707 243.046011 
L 107.017657 242.51393 
L 107.206768 242.172876 
L 107.302537 242.040839 
L 107.45878 241.657195 
L 107.799666 240.703566 
L 108.012314 240.212234 
L 108.079685 240.086305 
L 108.355641 239.42135 
L 108.50823 239.153761 
L 108.652294 238.93052 
L 108.737112 238.820824 
L 108.902279 238.488137 
L 108.940422 238.335851 
L 109.14983 237.697002 
L 109.293894 237.387577 
L 109.458247 236.934066 
L 109.538197 236.805208 
L 109.702956 236.481725 
L 109.791023 236.297476 
L 109.935893 235.991565 
L 110.021119 235.778783 
L 110.16721 235.430533 
L 110.290179 234.925646 
L 110.422878 234.750266 
L 110.454125 234.618396 
L 110.631065 234.262783 
L 110.6964 234.136854 
L 110.898904 233.695893 
L 111.235735 233.0173 
L 111.400495 232.706703 
L 111.512905 232.507727 
L 111.738946 232.024176 
L 111.899244 231.750563 
L 112.046557 231.495359 
L 112.1119 231.386164 
L 112.260833 231.082262 
L 112.660972 230.147961 
L 112.789209 229.974003 
L 113.091545 229.240436 
L 113.233174 229.022801 
L 113.421879 228.634136 
L 113.585425 228.256099 
L 113.980688 227.636913 
L 114.037914 227.512407 
L 114.210384 227.160308 
L 114.30332 227.049524 
L 114.49121 226.584214 
L 114.711975 226.215548 
L 114.814241 226.104681 
L 115.252523 225.250456 
L 115.328418 225.1221 
L 115.497232 224.742138 
L 115.575961 224.590856 
L 115.792672 224.035514 
L 115.887227 223.925315 
L 116.026016 223.805076 
L 116.209045 223.610116 
L 116.506503 223.162295 
L 116.64083 222.951688 
L 116.79788 222.608626 
L 116.883512 222.499013 
L 117.097781 222.108843 
L 117.201268 222.000653 
L 117.351422 221.677421 
L 117.560414 221.418619 
L 117.991801 220.515528 
L 118.103812 220.379559 
L 118.269785 219.958429 
L 118.374493 219.764557 
L 118.531135 219.406935 
L 118.795319 219.050904 
L 118.871215 218.923134 
L 119.009189 218.804569 
L 119.042463 218.693868 
L 119.180039 218.463682 
L 119.317207 218.249812 
L 119.494146 217.976868 
L 119.575309 217.86667 
L 119.726676 217.665518 
L 120.124381 216.998974 
L 120.282245 216.728289 
L 120.319574 216.617422 
L 120.436046 216.33929 
L 120.626786 216.041496 
L 120.708356 215.930879 
L 121.165306 215.305167 
L 121.221304 215.194467 
L 121.391347 214.837598 
L 121.47251 214.726898 
L 121.752928 214.367101 
L 121.83896 214.256066 
L 121.981404 214.044288 
L 122.06987 213.935931 
L 122.206232 213.71863 
L 122.288201 213.607679 
L 122.573088 213.302019 
L 122.70985 213.102624 
L 123.376607 211.869358 
L 123.449653 211.759327 
L 123.577898 211.586959 
L 123.765788 211.432497 
L 123.831531 211.321546 
L 124.627339 210.347835 
L 124.761666 210.122083 
L 125.136648 209.579878 
L 125.279491 209.347349 
L 125.38095 209.237318 
L 125.545303 208.842629 
L 125.657713 208.706157 
L 125.791226 208.532283 
L 125.900802 208.42175 
L 126.06759 208.085549 
L 126.291603 207.926736 
L 126.435261 207.665172 
L 126.656433 207.454566 
L 126.785077 207.321943 
L 126.893025 207.211745 
L 127.075241 206.810529 
L 127.132459 206.701921 
L 127.283427 206.455334 
L 127.511903 206.136287 
L 127.602396 206.025252 
L 130.023104 202.73654 
L 130.124157 202.626342 
L 130.346542 202.300433 
L 130.495076 202.156849 
L 130.70853 201.739234 
L 130.777928 201.628366 
L 130.927675 201.464784 
L 132.964886 198.727733 
L 133.114633 198.585153 
L 133.245304 198.43931 
L 134.075202 197.287793 
L 134.156364 197.177929 
L 134.315449 196.909253 
L 134.358469 196.798971 
L 134.478996 196.746675 
L 134.540676 196.636309 
L 134.674189 196.501093 
L 134.759414 196.318015 
L 134.910382 196.158365 
L 135.040647 196.04892 
L 135.192828 195.847768 
L 135.225703 195.73757 
L 135.364492 195.545121 
L 135.465536 195.436679 
L 135.603112 195.247744 
L 135.71877 195.138885 
L 135.854717 194.946101 
L 136.107544 194.782519 
L 136.233346 194.658765 
L 136.341702 194.548734 
L 136.476029 194.417199 
L 136.567336 194.306248 
L 136.622934 194.163919 
L 136.75442 193.997659 
L 136.892394 193.863279 
L 137.052692 193.588327 
L 137.178096 193.48817 
L 137.331083 193.377219 
L 137.559566 193.032316 
L 137.693079 192.922787 
L 137.91303 192.464924 
L 138.303831 191.975182 
L 139.923048 190.500768 
L 140.054534 190.39559 
L 140.141379 190.286061 
L 140.265562 190.235271 
L 140.313857 190.12591 
L 140.444529 190.019393 
L 140.622681 189.908358 
L 141.016731 189.441877 
L 141.138479 189.400124 
L 141.262653 189.195123 
L 141.38765 189.072625 
L 141.564183 188.961674 
L 141.736652 188.770647 
L 141.882752 188.697098 
L 142.099048 188.587736 
L 142.228099 188.480048 
L 142.35877 188.371105 
L 142.487015 188.23137 
L 142.660299 188.121674 
L 142.822218 187.686821 
L 143.030404 187.481988 
L 143.333546 186.988899 
L 143.419178 186.879203 
L 143.540926 186.78599 
L 143.571359 186.677466 
L 143.717858 186.406948 
L 143.879784 186.222197 
L 144.064833 186.111413 
L 144.326183 185.69681 
L 144.512453 185.547117 
L 144.646373 185.339523 
L 144.785976 185.229576 
L 144.915027 185.099631 
L 145.056657 184.972614 
L 145.469781 184.683354 
L 145.619935 184.559098 
L 147.244827 182.694765 
L 147.361707 182.66665 
L 147.444083 182.556117 
L 147.611692 182.178665 
L 147.812568 182.067881 
L 148.281291 181.666164 
L 148.388018 181.556802 
L 148.525186 181.438571 
L 151.155702 179.686695 
L 151.295304 179.544032 
L 151.399597 179.434168 
L 151.524187 179.336604 
L 151.682458 179.226574 
L 151.807446 179.151267 
L 151.928381 179.040483 
L 152.064735 178.919993 
L 152.556588 178.373855 
L 152.681178 178.260812 
L 153.00705 177.938752 
L 153.369852 177.8278 
L 153.639312 177.528165 
L 153.838974 177.233131 
L 154.091394 177.122347 
L 154.208672 177.086451 
L 154.23221 176.976086 
L 154.375875 176.901114 
L 154.461906 176.790497 
L 154.6429 176.486009 
L 155.329954 175.938783 
L 155.471584 175.829421 
L 155.61849 175.686507 
L 155.805574 175.441594 
L 155.930155 175.32102 
L 156.039732 175.21375 
L 156.161472 175.115852 
L 156.466241 174.941811 
L 156.590831 174.855292 
L 156.803479 174.744843 
L 156.921572 174.726016 
L 157.087553 174.614981 
L 157.451975 174.261376 
L 157.581434 174.139045 
L 157.967366 173.839242 
L 158.160947 173.728458 
L 158.298107 173.683777 
L 158.513197 173.573578 
L 158.690536 173.427317 
L 158.775354 173.296535 
L 158.911708 173.222902 
L 159.947765 172.228022 
L 160.124696 171.970056 
L 160.276479 171.859021 
L 161.218786 171.213478 
L 161.435896 171.102443 
L 161.685881 170.879536 
L 162.087241 170.693279 
L 162.118081 170.582578 
L 162.235767 170.534047 
L 162.401341 170.423012 
L 162.508882 170.289386 
L 162.623327 170.266375 
L 162.785246 170.158269 
L 162.917138 169.984479 
L 163.48163 169.366381 
L 163.701582 169.25794 
L 163.829827 169.141299 
L 163.958064 169.099964 
L 164.187353 168.990184 
L 164.305446 168.94249 
L 164.496991 168.832375 
L 164.683261 168.650552 
L 164.870345 168.540522 
L 164.998582 168.431327 
L 165.236388 168.322803 
L 165.363004 168.195033 
L 165.609741 168.084584 
L 165.752185 167.926859 
L 165.893815 167.84946 
L 166.035445 167.738676 
L 166.159627 167.675419 
L 166.237949 167.566392 
L 166.386482 167.303322 
L 166.474541 167.193124 
L 166.589792 167.162416 
L 166.803255 167.052468 
L 166.931492 167.012054 
L 167.106404 166.901019 
L 167.244785 166.855166 
L 167.383167 166.745721 
L 167.500046 166.703382 
L 167.797513 166.594606 
L 167.91804 166.526077 
L 168.006099 166.416967 
L 168.133122 166.309864 
L 168.408265 166.200754 
L 168.538537 166.059513 
L 168.747937 165.903127 
L 168.978041 165.710928 
L 169.144421 165.600395 
L 169.309995 165.541572 
L 169.595697 165.431123 
L 169.758836 165.272478 
L 169.988525 165.161527 
L 170.351327 164.890005 
L 170.557886 164.780727 
L 170.685724 164.700903 
L 170.873215 164.625596 
L 170.994141 164.515733 
L 171.11102 164.465696 
L 171.229113 164.355414 
L 171.422686 164.173424 
L 171.617072 164.063644 
L 171.755055 163.860735 
L 172.320768 163.63331 
L 172.446163 163.535914 
L 172.613765 163.425883 
L 172.739567 163.381369 
L 172.994828 163.215611 
L 173.185967 163.00308 
L 173.339776 162.892045 
L 173.543493 162.705452 
L 174.845769 162.032883 
L 174.975227 161.925028 
L 175.103465 161.791485 
L 175.240633 161.650494 
L 175.36725 161.544898 
L 175.494265 161.434114 
L 175.686625 161.236142 
L 175.791732 161.101846 
L 175.969079 160.990476 
L 176.20607 160.880445 
L 176.343645 160.720378 
L 176.363934 160.602983 
L 176.586727 160.533199 
L 176.881759 160.422415 
L 177.02623 160.305774 
L 177.191397 160.195409 
L 177.347234 160.064627 
L 177.427183 159.956018 
L 177.543249 159.915269 
L 177.87561 159.805657 
L 178.000199 159.742734 
L 178.589442 159.632368 
L 178.757051 159.487529 
L 178.907205 159.3452 
L 179.048021 159.185383 
L 179.147445 159.074767 
L 179.502537 158.813119 
L 179.704634 158.702168 
L 179.849512 158.615147 
L 180.058912 158.505953 
L 180.183094 158.43709 
L 180.40995 158.326055 
L 181.336023 157.627212 
L 181.467508 157.478607 
L 181.729673 157.367907 
L 181.878606 157.203656 
L 182.185809 157.093123 
L 182.349763 156.876659 
L 182.615975 156.769222 
L 182.73813 156.657015 
L 182.842016 156.547654 
L 182.994604 156.353698 
L 183.136641 156.242914 
L 183.272588 156.153969 
L 183.690182 156.043185 
L 183.826944 155.999758 
L 184.066369 155.889644 
L 184.200696 155.6823 
L 184.557417 155.571935 
L 184.692142 155.52081 
L 185.063469 155.410361 
L 185.186837 155.344426 
L 185.504592 155.233893 
L 185.728199 154.977433 
L 185.814638 154.866398 
L 186.237907 154.662067 
L 186.402268 154.55212 
L 186.524415 154.455728 
L 186.73909 154.301433 
L 186.860839 154.193829 
L 187.117321 154.082794 
L 187.627427 153.863736 
L 187.76379 153.678483 
L 188.426892 153.130169 
L 188.552694 153.074944 
L 188.766564 152.965248 
L 188.895208 152.914709 
L 188.981646 152.804176 
L 189.107449 152.732049 
L 189.25639 152.621684 
L 189.395585 152.435008 
L 189.494195 152.324307 
L 189.611881 152.272848 
L 189.762849 152.161897 
L 189.948305 152.034378 
L 190.195449 151.923761 
L 190.486019 151.74152 
L 190.665385 151.630485 
L 190.827312 151.479705 
L 190.968941 151.369423 
L 191.100834 151.248264 
L 191.302931 151.137898 
L 191.436036 151.039665 
L 191.866609 150.929216 
L 192.011487 150.82613 
L 192.198978 150.715848 
L 192.329649 150.54758 
L 192.614944 150.376886 
L 192.735878 150.294049 
L 192.871418 150.183767 
L 193.008179 150.066958 
L 193.280081 149.956258 
L 193.418463 149.916011 
L 193.795464 149.749668 
L 193.943591 149.606669 
L 194.073456 149.514963 
L 194.295434 149.404346 
L 194.592494 149.129227 
L 194.757661 149.018276 
L 194.900512 148.878708 
L 195.329871 148.76784 
L 195.457294 148.71111 
L 195.56078 148.600326 
L 195.730409 148.550623 
L 195.940623 148.44168 
L 196.065213 148.375913 
L 196.484419 148.265296 
L 196.612257 148.240194 
L 196.919461 148.12941 
L 197.186079 148.014693 
L 197.38737 147.903658 
L 197.900326 147.685605 
L 198.024908 147.621845 
L 198.417744 147.342041 
L 198.53705 147.291585 
L 198.700597 147.181722 
L 198.830462 147.108173 
L 198.979802 146.998644 
L 199.103984 146.904678 
L 199.427414 146.795902 
L 199.550384 146.715492 
L 199.690792 146.606883 
L 199.809699 146.555424 
L 199.91115 146.445728 
L 200.033713 146.407489 
L 200.325089 146.235289 
L 200.462258 146.153372 
L 200.812473 146.04309 
L 200.930574 146.015729 
L 201.077878 145.904694 
L 202.171154 145.3368 
L 202.301019 145.228276 
L 202.424387 145.118412 
L 202.544507 145.089712 
L 202.695475 144.978677 
L 202.849277 144.916507 
L 202.983604 144.80656 
L 203.104131 144.738617 
L 203.349247 144.628921 
L 203.47343 144.565245 
L 203.849218 144.454545 
L 204.047659 144.409612 
L 204.070797 144.298661 
L 204.25666 144.149219 
L 204.491632 144.039607 
L 204.634475 143.918196 
L 204.933562 143.80758 
L 205.134038 143.713614 
L 206.089738 143.201196 
L 206.206211 143.182788 
L 206.393702 143.073427 
L 206.51098 143.03318 
L 206.831984 142.922312 
L 207.249978 142.448635 
L 207.480887 142.337684 
L 207.982885 142.251416 
L 208.204464 142.140549 
L 208.348936 141.855556 
L 208.436188 141.745107 
L 208.562797 141.683774 
L 208.772612 141.573325 
L 208.893546 141.531069 
L 209.181267 141.39033 
L 210.201497 140.631159 
L 210.330548 140.578863 
L 211.160038 140.296799 
L 211.282999 140.240319 
L 211.654733 140.129535 
L 212.459473 139.611595 
L 212.709857 139.50056 
L 212.829985 139.470688 
L 213.057646 139.361159 
L 213.187918 139.277235 
L 213.34943 139.168459 
L 213.465495 139.126204 
L 213.616056 139.015252 
L 214.512103 138.582827 
L 214.665091 138.472712 
L 214.798611 138.438406 
L 215.040879 138.327705 
L 215.289651 138.164374 
L 215.617957 138.055013 
L 215.761614 137.89051 
L 215.865915 137.781651 
L 215.992931 137.646518 
L 216.317997 137.537324 
L 216.446234 137.418674 
L 216.748977 137.307639 
L 216.912922 137.221288 
L 217.195783 137.111174 
L 217.313061 137.105818 
L 217.524489 136.997712 
L 217.649892 136.898893 
L 217.997673 136.78903 
L 218.129973 136.693809 
L 218.587331 136.585452 
L 218.702989 136.550225 
L 219.633939 136.048769 
L 219.749597 136.027097 
L 219.972797 135.916982 
L 220.096572 135.85565 
L 220.253215 135.744698 
L 220.688656 135.685708 
L 220.939455 135.574673 
L 221.457687 135.357205 
L 221.58958 135.175215 
L 222.042875 135.064347 
L 222.232393 134.892398 
L 222.617519 134.781447 
L 222.753059 134.697104 
L 223.112613 134.586487 
L 223.246533 134.458132 
L 223.95631 134.018259 
L 224.140553 133.907893 
L 224.266355 133.787487 
L 224.282997 133.679966 
L 224.400275 133.623821 
L 224.604 133.512786 
L 224.796352 133.47438 
L 225.109238 133.365102 
L 225.226932 133.310045 
L 225.601906 133.19901 
L 226.147322 132.97376 
L 226.262582 132.962882 
L 226.293015 132.852182 
L 226.411107 132.795619 
L 226.590074 132.685253 
L 226.724401 132.550706 
L 227.070969 132.440006 
L 227.41713 132.243205 
L 227.494645 132.134011 
L 227.624095 132.054353 
L 227.989739 131.944908 
L 228.115949 131.866673 
L 228.359852 131.755806 
L 228.971825 131.23979 
L 229.091538 131.179545 
L 229.357351 131.070183 
L 229.49127 130.963416 
L 229.630466 130.915387 
L 230.013557 130.804436 
L 230.505003 130.722519 
L 230.757423 130.612154 
L 230.892971 130.453676 
L 231.042718 130.432339 
L 231.317453 130.321973 
L 231.452187 130.272187 
L 231.577176 130.161152 
L 231.69811 130.132536 
L 231.908731 130.021836 
L 232.068215 129.935484 
L 232.536124 129.62472 
L 232.658279 129.55661 
L 232.91354 129.445575 
L 233.462205 129.339979 
L 233.547023 129.232709 
L 233.671605 129.105023 
L 233.88913 128.994239 
L 234.066468 128.949473 
L 234.256394 128.839359 
L 234.421561 128.618544 
L 234.610672 128.464919 
L 235.00188 128.272135 
L 235.120786 128.237996 
L 235.58951 128.127045 
L 235.991676 127.866317 
L 236.466888 127.755533 
L 236.704694 127.548859 
L 236.88204 127.438661 
L 237.011499 127.372141 
L 237.439636 127.168981 
L 237.580045 127.038868 
L 238.097463 126.928335 
L 238.23017 126.909174 
L 238.569842 126.800482 
L 238.699699 126.666018 
L 238.96876 126.555736 
L 239.102272 126.509716 
L 239.251205 126.398681 
L 239.383098 126.265472 
L 239.653372 126.15586 
L 239.786884 126.08139 
L 240.109923 125.971861 
L 240.245056 125.833632 
L 240.591217 125.477768 
L 241.000695 125.36757 
L 241.138669 125.320545 
L 241.338331 125.209845 
L 241.623626 124.915648 
L 241.797717 124.805366 
L 241.937319 124.72688 
L 242.402794 124.615845 
L 242.569182 124.555433 
L 242.875165 124.445653 
L 243.00503 124.321816 
L 243.251767 124.210781 
L 243.378791 124.16543 
L 243.587783 124.054813 
L 243.728607 124.01875 
L 244.60233 123.722628 
L 244.737471 123.635942 
L 245.199697 123.526414 
L 245.33483 123.439895 
L 245.766217 123.328944 
L 245.888372 123.301415 
L 246.278359 123.192137 
L 246.409844 123.102021 
L 246.514552 122.993496 
L 246.634265 122.934171 
L 247.163048 122.823554 
L 247.36149 122.732601 
L 247.451177 122.62165 
L 247.719423 122.54467 
L 248.055033 122.433886 
L 248.234407 122.270806 
L 248.789568 122.16044 
L 248.915778 122.130485 
L 249.365833 122.021542 
L 249.48027 122.007569 
L 249.706718 121.896534 
L 249.843887 121.853191 
L 250.210743 121.743745 
L 250.334926 121.653712 
L 250.739527 121.542761 
L 250.88968 121.498247 
L 251.437531 121.387379 
L 251.571451 121.334581 
L 252.023134 121.129999 
L 252.141227 121.083142 
L 252.661486 120.974533 
L 252.775923 120.949933 
L 252.932566 120.839065 
L 253.188641 120.772294 
L 253.644778 120.66151 
L 253.795339 120.651971 
L 254.108225 120.540936 
L 254.266089 120.482532 
L 254.934882 120.371664 
L 255.086656 120.333927 
L 255.381688 120.224147 
L 255.512767 120.075041 
L 255.852032 119.965261 
L 255.976613 119.924595 
L 256.167353 119.813728 
L 256.323588 119.731811 
L 256.507017 119.620776 
L 256.925824 119.421968 
L 257.047573 119.333524 
L 257.337728 119.222991 
L 257.461504 119.197806 
L 257.909124 118.992972 
L 258.055623 118.743709 
L 258.539359 118.634682 
L 258.673686 118.500051 
L 258.795027 118.476706 
L 259.197999 118.366842 
L 259.32381 118.288273 
L 259.788471 118.079005 
L 259.926038 117.916929 
L 260.346067 117.806563 
L 260.467001 117.773094 
L 260.820058 117.662895 
L 261.013231 117.500652 
L 261.358171 117.360833 
L 261.628852 117.250384 
L 261.746139 117.213986 
L 262.281411 117.103118 
L 262.431565 117.081447 
L 262.62311 116.972838 
L 262.737556 116.959534 
L 263.005802 116.848499 
L 263.123895 116.829254 
L 263.492779 116.71847 
L 263.623458 116.654795 
L 263.725317 116.519913 
L 263.847057 116.4718 
L 265.532424 116.012013 
L 265.665538 115.961391 
L 265.855455 115.85295 
L 265.984506 115.721582 
L 266.13304 115.690874 
L 266.255594 115.58009 
L 266.428064 115.47943 
L 266.821307 115.368395 
L 267.600475 114.930363 
L 267.727906 114.807279 
L 268.155636 114.697248 
L 268.279005 114.676079 
L 268.497743 114.566132 
L 268.619084 114.544711 
L 268.906805 114.436354 
L 269.026119 114.384225 
L 269.575598 114.278378 
L 269.801639 114.167845 
L 269.928256 114.090698 
L 270.275231 113.944603 
L 270.633971 113.834238 
L 270.778035 113.80127 
L 271.144085 113.690737 
L 271.290991 113.652331 
L 271.523928 113.54138 
L 271.739018 113.332865 
L 271.857111 113.290359 
L 272.37737 113.179575 
L 272.768578 112.996162 
L 273.157352 112.885211 
L 273.297761 112.87768 
L 273.506761 112.767398 
L 273.636619 112.692929 
L 274.352486 112.582061 
L 274.706357 112.494371 
L 274.794423 112.383754 
L 274.916571 112.284517 
L 275.42141 112.174068 
L 275.595915 112.023706 
L 275.873085 111.913006 
L 276.002136 111.855355 
L 276.220467 111.744654 
L 276.340994 111.693279 
L 276.757367 111.583666 
L 276.883984 111.532291 
L 277.065385 111.421423 
L 277.204174 111.397576 
L 277.438332 111.287629 
L 277.560886 111.252235 
L 277.856325 111.142957 
L 277.980907 111.073006 
L 278.348586 110.962389 
L 278.476823 110.935362 
L 278.761303 110.824662 
L 278.910643 110.802572 
L 279.626095 110.692458 
L 279.774629 110.593723 
L 280.227525 110.483441 
L 280.399995 110.379853 
L 280.596002 110.362532 
L 280.929185 110.251497 
L 282.665681 109.403966 
L 282.793104 109.278121 
L 283.34299 109.167672 
L 283.50004 109.031786 
L 284.003259 108.921588 
L 284.140427 108.864187 
L 284.485774 108.754575 
L 284.600219 108.741856 
L 285.300658 108.631323 
L 285.418751 108.626136 
L 285.575809 108.515101 
L 285.88504 108.304243 
L 286.236884 108.196555 
L 286.356198 108.127273 
L 286.740103 108.016907 
L 286.875235 107.87416 
L 289.123873 107.069805 
L 289.503724 106.962033 
L 289.635616 106.787992 
L 290.357158 106.678463 
L 290.474844 106.647587 
L 290.795847 106.53764 
L 290.91394 106.517977 
L 291.093721 106.408615 
L 291.221144 106.303856 
L 291.605863 106.192821 
L 291.73857 106.148725 
L 292.215809 106.037773 
L 292.437388 105.969328 
L 292.558323 105.861389 
L 292.673981 105.828171 
L 293.056665 105.717136 
L 293.201136 105.623254 
L 293.788359 105.512219 
L 293.913755 105.432478 
L 294.02373 105.324706 
L 294.147913 105.203547 
L 294.589443 105.093097 
L 294.714025 105.072012 
L 295.291511 104.96173 
L 295.425023 104.90935 
L 296.399799 104.628625 
L 296.675349 104.518008 
L 296.809675 104.469812 
L 297.846538 104.358861 
L 298.18621 104.09964 
L 298.305117 104.065501 
L 298.694298 103.955051 
L 298.816445 103.878992 
L 299.381751 103.766618 
L 299.756733 103.65801 
L 299.887811 103.529989 
L 300.105735 103.465226 
L 300.417401 103.354358 
L 300.550913 103.333439 
L 301.100392 103.224245 
L 301.223761 103.148019 
L 301.976965 103.038741 
L 302.096678 103.007028 
L 302.674164 102.896077 
L 303.302371 102.512433 
L 303.419243 102.506994 
L 303.728075 102.39621 
L 303.885531 102.288606 
L 304.260505 102.177822 
L 304.379005 102.157155 
L 304.548227 102.049215 
L 304.662672 102.029385 
L 304.932132 101.91835 
L 305.054694 101.907221 
L 305.68006 101.79627 
L 305.810731 101.774766 
L 306.427166 101.665237 
L 306.615064 101.362171 
L 306.964881 101.25214 
L 307.116655 101.124872 
L 307.440093 101.055758 
L 307.507456 100.947065 
L 307.626362 100.886737 
L 308.195324 100.77612 
L 308.327217 100.765159 
L 310.237403 100.251904 
L 310.351434 100.242533 
L 311.847689 99.747436 
L 312.102136 99.636652 
L 312.321281 99.515911 
L 312.675559 99.406633 
L 312.803796 99.328565 
L 312.874408 99.218702 
L 313.002246 99.170589 
L 313.595551 99.060307 
L 313.71567 99.036377 
L 314.481046 98.925593 
L 314.610097 98.90275 
L 315.006581 98.793053 
L 315.132384 98.690888 
L 316.035734 98.58069 
L 316.176964 98.504965 
L 316.806792 98.395854 
L 316.954919 98.214617 
L 317.366416 98.103917 
L 317.59205 98.001584 
L 317.896819 97.891135 
L 318.034394 97.814238 
L 318.428037 97.703287 
L 318.786784 97.552089 
L 319.286747 97.441388 
L 319.4507 97.432184 
L 319.845157 97.322655 
L 319.962842 97.304247 
L 320.168595 97.193463 
L 320.296832 97.147945 
L 320.998899 97.037914 
L 321.138502 96.926879 
L 321.577191 96.816346 
L 321.69447 96.780868 
L 321.839348 96.756017 
L 322.737023 96.645233 
L 322.885142 96.592602 
L 323.147706 96.560974 
L 323.542976 96.450022 
L 323.666752 96.440316 
L 324.302669 96.33062 
L 324.417106 96.313969 
L 324.606217 96.203269 
L 324.840376 96.060605 
L 325.184509 95.949821 
L 325.354952 95.916017 
L 326.200277 95.806906 
L 326.31999 95.75779 
L 326.801699 95.647173 
L 326.987562 95.593873 
L 327.221313 95.483591 
L 327.350771 95.471375 
L 327.821115 95.360507 
L 327.991557 95.293401 
L 328.238294 95.183454 
L 328.354766 95.165129 
L 329.045875 95.055266 
L 329.193188 94.918459 
L 329.583183 94.807424 
L 329.700054 94.786924 
L 330.174053 94.677395 
L 330.290925 94.659907 
L 330.39157 94.548872 
L 330.53158 94.542011 
L 330.886672 94.432148 
L 331.01937 94.369058 
L 331.33023 94.258023 
L 331.593201 94.226227 
L 332.436491 94.116028 
L 332.561886 94.007671 
L 333.477823 93.896719 
L 333.721311 93.704688 
L 333.998888 93.593988 
L 334.116981 93.561104 
L 334.434337 93.452161 
L 334.551616 93.423796 
L 334.748437 93.313848 
L 334.902246 93.189509 
L 336.81446 92.675837 
L 336.93296 92.630485 
L 337.643951 92.219396 
L 337.758396 92.199398 
L 338.08873 92.088866 
L 338.232794 92.075729 
L 338.653222 91.964945 
L 338.808244 91.936161 
L 339.226645 91.82772 
L 339.351234 91.743377 
L 339.632874 91.632677 
L 339.75989 91.618619 
L 340.363746 91.507584 
L 340.990333 91.267022 
L 341.104371 91.257484 
L 341.526419 91.146867 
L 341.735013 91.041103 
L 342.087663 90.930319 
L 342.209818 90.861372 
L 343.088825 90.751425 
L 343.223551 90.694192 
L 343.672385 90.584831 
L 343.790884 90.556047 
L 344.289642 90.445681 
L 344.405699 90.409869 
L 344.56235 90.299085 
L 344.695863 90.230222 
L 344.781894 90.119187 
L 344.904049 90.117513 
L 345.45799 90.007733 
L 345.586227 89.962633 
L 346.024916 89.8521 
L 346.202263 89.791353 
L 346.721301 89.681155 
L 346.862531 89.628273 
L 347.341798 89.517656 
L 347.458271 89.507532 
L 347.664023 89.396497 
L 347.791853 89.292658 
L 348.90339 88.951938 
L 349.018641 88.925079 
L 349.204104 88.815467 
L 349.332342 88.764593 
L 349.834339 88.654227 
L 349.965011 88.627452 
L 350.161832 88.51809 
L 350.28196 88.450064 
L 350.564812 88.339949 
L 350.717808 88.227324 
L 350.959269 88.116624 
L 351.100898 88.016969 
L 351.522947 87.906854 
L 351.672286 87.779754 
L 352.300494 87.668719 
L 352.455117 87.654076 
L 352.816698 87.543208 
L 352.932357 87.530071 
L 353.409197 87.42071 
L 353.532965 87.326744 
L 353.985047 87.216128 
L 354.118567 87.137223 
L 354.526816 87.026356 
L 354.66926 86.924023 
L 355.142037 86.814326 
L 355.263786 86.732494 
L 355.483737 86.622797 
L 355.607919 86.542805 
L 356.098144 86.432858 
L 356.232064 86.37914 
L 356.723511 86.269443 
L 356.839983 86.241747 
L 357.197102 86.131884 
L 357.317629 86.077161 
L 357.8038 85.966377 
L 357.979119 85.891322 
L 358.868262 85.780705 
L 358.992038 85.716528 
L 359.666106 85.605576 
L 360.391304 85.427519 
L 360.764657 85.316818 
L 360.9213 85.299581 
L 361.527591 85.189383 
L 361.648932 85.142108 
L 362.235341 85.031491 
L 362.362365 84.98614 
L 363.472281 84.871339 
L 363.996595 84.760304 
L 364.234408 84.54292 
L 364.3667 84.499075 
L 364.750198 84.388375 
L 364.902786 84.36344 
L 365.421425 84.252656 
L 365.587813 84.178019 
L 366.004586 84.067319 
L 366.123492 84.008998 
L 366.564616 83.947665 
L 367.431036 83.836714 
L 367.592148 83.771951 
L 367.838885 83.662757 
L 367.954137 83.64552 
L 368.183019 83.534485 
L 371.284285 83.010353 
L 371.37722 82.901912 
L 371.48963 82.895552 
L 371.848777 82.786024 
L 371.980263 82.677248 
L 372.987099 82.566296 
L 373.470428 82.487559 
L 373.544695 82.376524 
L 373.689574 82.280802 
L 374.163166 82.170018 
L 374.3474 82.13772 
L 374.661101 82.027019 
L 374.78569 82.019823 
L 375.129824 81.909374 
L 375.254813 81.895819 
L 376.285594 81.785955 
L 376.411803 81.743449 
L 376.910145 81.633502 
L 377.02337 81.627059 
L 377.815531 81.517196 
L 377.929561 81.507238 
L 378.727812 81.396203 
L 379.377928 81.149701 
L 379.493587 81.130288 
L 380.188758 81.02168 
L 380.306851 80.982019 
L 380.904617 80.872155 
L 381.047468 80.791745 
L 381.438676 80.681295 
L 381.598567 80.63176 
L 382.364757 80.520725 
L 382.596074 80.474287 
L 383.042473 80.363419 
L 383.20764 80.320411 
L 383.710452 80.103696 
L 383.827731 80.075163 
L 384.294826 79.964463 
L 384.490027 79.922793 
L 385.096317 79.812093 
L 385.240389 79.778958 
L 385.542317 79.668007 
L 385.671368 79.635039 
L 386.020778 79.52618 
L 386.137649 79.48359 
L 386.261832 79.452714 
L 387.052365 79.343855 
L 387.178575 79.211399 
L 387.364038 79.100364 
L 389.424778 78.555063 
L 389.542472 78.504273 
L 390.53226 78.394158 
L 390.662932 78.285131 
L 391.418163 78.174682 
L 391.55858 78.002398 
L 392.136864 77.891447 
L 392.340182 77.868018 
L 392.711101 77.759075 
L 392.825945 77.729538 
L 393.030077 77.618921 
L 393.1575 77.570391 
L 393.484186 77.461364 
L 393.622568 77.318951 
L 393.761763 77.303388 
L 394.264982 77.192437 
L 394.385102 77.184655 
L 394.790517 77.073955 
L 394.922003 76.950536 
L 395.388691 76.839501 
L 395.803843 76.788795 
L 396.618727 76.678011 
L 396.882512 76.604713 
L 398.19249 76.496188 
L 398.316265 76.417618 
L 398.560161 76.306667 
L 399.067434 76.218224 
L 399.310931 76.10995 
L 399.426589 76.076229 
L 399.684284 75.966533 
L 399.809273 75.929549 
L 400.57302 75.8191 
L 400.713437 75.776259 
L 401.421993 75.667065 
L 401.542121 75.634265 
L 402.360246 75.524485 
L 402.485242 75.480473 
L 402.622004 75.37245 
L 402.739282 75.332621 
L 403.663336 75.221754 
L 403.820793 75.161592 
L 404.204291 75.050557 
L 404.319135 75.045035 
L 404.411663 74.934 
L 404.532597 74.897267 
L 405.159584 74.788324 
L 405.279712 74.738454 
L 406.336863 74.628423 
L 406.459832 74.605497 
L 406.726044 74.495215 
L 406.846978 74.455219 
L 407.164733 74.344853 
L 407.332342 74.268041 
L 407.653745 74.157759 
L 407.772652 74.150479 
L 408.458485 74.039528 
L 408.579826 74.031244 
L 409.281486 73.920377 
L 409.404448 73.894354 
L 409.72261 73.784323 
L 409.845978 73.749766 
L 411.097118 73.638898 
L 411.255389 73.544096 
L 411.482643 73.433145 
L 411.613322 73.418334 
L 412.302396 73.307299 
L 414.954014 72.875627 
L 415.746989 72.76568 
L 415.861427 72.747271 
L 417.480644 72.636236 
L 417.616998 72.616908 
L 417.90432 72.508132 
L 418.020792 72.473826 
L 418.69526 72.362874 
L 418.835669 72.32815 
L 419.861174 72.219039 
L 419.976425 72.204229 
L 420.452451 72.093529 
L 420.75438 71.942163 
L 421.238523 71.831797 
L 421.354588 71.793475 
L 421.654082 71.683025 
L 421.800581 71.63575 
L 422.262408 71.526556 
L 422.380094 71.499027 
L 423.451859 71.38841 
L 423.582123 71.37427 
L 423.843474 71.265828 
L 423.961567 71.205416 
L 424.590995 71.094967 
L 424.707867 71.054971 
L 425.334454 70.945358 
L 425.477297 70.839511 
L 425.842534 70.729229 
L 425.991067 70.677268 
L 426.26783 70.5664 
L 426.38633 70.537282 
L 427.342445 70.426581 
L 427.465813 70.412273 
L 428.094827 70.302409 
L 428.21252 70.254715 
L 429.134539 69.949976 
L 429.259528 69.875674 
L 429.327298 69.764639 
L 429.479886 69.726902 
L 429.913707 69.61662 
L 430.035048 69.605073 
L 430.394601 69.494205 
L 430.519598 69.476299 
L 431.040264 69.365515 
L 431.17337 69.344346 
L 431.529268 69.23398 
L 431.644927 69.218417 
L 432.694783 69.107465 
L 432.820179 69.007141 
L 433.608684 68.896189 
L 433.725971 68.879371 
L 434.019375 68.768419 
L 434.361074 68.688009 
L 434.854955 68.578815 
L 434.970613 68.565092 
L 435.404027 68.454225 
L 435.591518 68.420755 
L 436.37312 68.30972 
L 436.513129 68.29332 
L 436.74526 68.184377 
L 436.869036 68.109991 
L 437.67945 67.999207 
L 437.84706 67.985903 
L 438.295893 67.876793 
L 438.419262 67.802323 
L 440.477974 67.266644 
L 440.593233 67.243717 
L 441.393911 67.13285 
L 441.512411 67.099966 
L 441.903211 66.990772 
L 442.02496 66.930108 
L 442.51113 66.822169 
L 442.630843 66.759498 
L 443.34671 66.585205 
L 443.664058 66.475676 
L 443.784585 66.414929 
L 443.952594 66.3095 
L 444.24073 66.262225 
L 444.753279 66.15278 
L 444.871372 66.12408 
L 445.273538 66.013296 
L 445.430181 65.879334 
L 446.295388 65.769219 
L 446.414295 65.756752 
L 446.97229 65.64739 
L 447.093224 65.599027 
L 448.175541 65.488076 
L 448.351666 65.429337 
L 448.506689 65.414192 
L 449.228646 65.303241 
L 451.406672 64.527836 
L 451.86241 64.417554 
L 452.019867 64.309866 
L 452.884259 64.198831 
L 454.117137 63.812092 
L 455.446598 63.703399 
L 455.562663 63.679385 
L 456.117418 63.569019 
L 456.240379 63.552201 
L 457.227326 63.441501 
L 457.35435 63.423092 
L 458.971939 63.203951 
L 459.699579 63.093753 
L 459.82416 63.064049 
L 460.104986 62.953599 
L 460.236471 62.951173 
L 460.524607 62.840138 
L 460.947877 62.783072 
L 461.258321 62.673794 
L 461.397923 62.549121 
L 461.677129 62.438169 
L 461.804152 62.425116 
L 462.664483 62.314081 
L 463.294318 62.056032 
L 464.25124 61.945917 
L 464.381097 61.919643 
L 464.844137 61.809194 
L 464.96994 61.765516 
L 465.154997 61.756898 
L 466.063622 61.64829 
L 466.181308 61.600345 
L 466.561965 61.489393 
L 466.68412 61.483703 
L 467.723824 61.373422 
L 467.858151 61.28456 
L 468.173065 61.173776 
L 468.297247 61.115707 
L 468.605672 61.004839 
L 468.724172 60.957731 
L 470.083658 60.847365 
L 470.198511 60.826614 
L 470.756913 60.717838 
L 470.87744 60.648389 
L 472.072175 60.539864 
L 472.191481 60.494764 
L 472.69632 60.383729 
L 472.819281 60.367245 
L 473.781478 60.256963 
L 473.902005 60.247508 
L 474.597176 60.138816 
L 474.715269 60.092628 
L 474.970937 59.982346 
L 475.084161 59.975067 
L 475.783786 59.864366 
L 475.902286 59.858007 
L 476.110472 59.746972 
L 478.229253 59.424828 
L 479.277481 59.313961 
L 479.451986 59.163683 
L 480.290807 59.052899 
L 480.408093 59.028048 
L 481.505423 58.917096 
L 481.842254 58.898604 
L 482.509011 58.787904 
L 482.628325 58.782047 
L 483.443616 58.672183 
L 483.560488 58.65821 
L 484.374965 58.549267 
L 484.492252 58.523746 
L 485.162258 58.412711 
L 491.055152 57.088659 
L 491.176892 57.050754 
L 492.201583 56.939719 
L 492.507574 56.881315 
L 493.229523 56.772958 
L 493.353298 56.683092 
L 497.510095 55.941994 
L 497.98166 55.832633 
L 498.10178 55.8 
L 498.109091 55.8 
L 498.109091 55.8 
" style="fill:none;stroke:#ff7f0e;stroke-linecap:square;stroke-width:2;"/>
   </g>
   <g id="patch_3">
    <path d="M 72 320.4 
L 72 43.2 
" style="fill:none;stroke:#000000;stroke-linecap:square;stroke-linejoin:miter;stroke-width:0.8;"/>
   </g>
   <g id="patch_4">
    <path d="M 518.4 320.4 
L 518.4 43.2 
" style="fill:none;stroke:#000000;stroke-linecap:square;stroke-linejoin:miter;stroke-width:0.8;"/>
   </g>
   <g id="patch_5">
    <path d="M 72 320.4 
L 518.4 320.4 
" style="fill:none;stroke:#000000;stroke-linecap:square;stroke-linejoin:miter;stroke-width:0.8;"/>
   </g>
   <g id="patch_6">
    <path d="M 72 43.2 
L 518.4 43.2 
" style="fill:none;stroke:#000000;stroke-linecap:square;stroke-linejoin:miter;stroke-width:0.8;"/>
   </g>
   <g id="text_18">
    <!-- $\delta$ vs Primes Quantity -->
    <g transform="translate(232.74 37.2)scale(0.12 -0.12)">
     <defs>
      <path d="M 2.984375 54.6875 
L 12.5 54.6875 
L 29.59375 8.796875 
L 46.6875 54.6875 
L 56.203125 54.6875 
L 35.6875 0 
L 23.484375 0 
z
" id="DejaVuSans-118"/>
     </defs>
     <use transform="translate(0 0.015625)" xlink:href="#DejaVuSans-Oblique-948"/>
     <use transform="translate(61.181641 0.015625)" xlink:href="#DejaVuSans-32"/>
     <use transform="translate(92.96875 0.015625)" xlink:href="#DejaVuSans-118"/>
     <use transform="translate(152.148438 0.015625)" xlink:href="#DejaVuSans-115"/>
     <use transform="translate(204.248047 0.015625)" xlink:href="#DejaVuSans-32"/>
     <use transform="translate(236.035156 0.015625)" xlink:href="#DejaVuSans-80"/>
     <use transform="translate(296.337891 0.015625)" xlink:href="#DejaVuSans-114"/>
     <use transform="translate(337.451172 0.015625)" xlink:href="#DejaVuSans-105"/>
     <use transform="translate(365.234375 0.015625)" xlink:href="#DejaVuSans-109"/>
     <use transform="translate(462.646484 0.015625)" xlink:href="#DejaVuSans-101"/>
     <use transform="translate(524.169922 0.015625)" xlink:href="#DejaVuSans-115"/>
     <use transform="translate(576.269531 0.015625)" xlink:href="#DejaVuSans-32"/>
     <use transform="translate(608.056641 0.015625)" xlink:href="#DejaVuSans-81"/>
     <use transform="translate(686.767578 0.015625)" xlink:href="#DejaVuSans-117"/>
     <use transform="translate(750.146484 0.015625)" xlink:href="#DejaVuSans-97"/>
     <use transform="translate(811.425781 0.015625)" xlink:href="#DejaVuSans-110"/>
     <use transform="translate(874.804688 0.015625)" xlink:href="#DejaVuSans-116"/>
     <use transform="translate(914.013672 0.015625)" xlink:href="#DejaVuSans-105"/>
     <use transform="translate(941.796875 0.015625)" xlink:href="#DejaVuSans-116"/>
     <use transform="translate(981.005859 0.015625)" xlink:href="#DejaVuSans-121"/>
    </g>
   </g>
   <g id="legend_1">
    <g id="line2d_18">
     <path d="M 81 56.298437 
L 101 56.298437 
" style="fill:none;stroke:#2ca02c;stroke-linecap:square;stroke-width:2;"/>
    </g>
    <g id="line2d_19"/>
    <g id="text_19">
     <!-- $\delta^{1}$ -->
     <g transform="translate(109 59.798437)scale(0.1 -0.1)">
      <use transform="translate(0 0.684375)" xlink:href="#DejaVuSans-Oblique-948"/>
      <use transform="translate(68.382161 38.965625)scale(0.7)" xlink:href="#DejaVuSans-49"/>
     </g>
    </g>
    <g id="line2d_20">
     <path d="M 81 70.976562 
L 101 70.976562 
" style="fill:none;stroke:#d62728;stroke-linecap:square;stroke-width:2;"/>
    </g>
    <g id="line2d_21"/>
    <g id="text_20">
     <!-- $\delta^{10}$ -->
     <g transform="translate(109 74.476562)scale(0.1 -0.1)">
      <use transform="translate(0 0.765625)" xlink:href="#DejaVuSans-Oblique-948"/>
      <use transform="translate(68.382161 39.046875)scale(0.7)" xlink:href="#DejaVuSans-49"/>
      <use transform="translate(112.918294 39.046875)scale(0.7)" xlink:href="#DejaVuSans-48"/>
     </g>
    </g>
    <g id="line2d_22">
     <path d="M 81 85.654687 
L 101 85.654687 
" style="fill:none;stroke:#1f77b4;stroke-linecap:square;stroke-width:2;"/>
    </g>
    <g id="line2d_23"/>
    <g id="text_21">
     <!-- $\delta^{100}$ -->
     <g transform="translate(109 89.154687)scale(0.1 -0.1)">
      <use transform="translate(0 0.765625)" xlink:href="#DejaVuSans-Oblique-948"/>
      <use transform="translate(68.382161 39.046875)scale(0.7)" xlink:href="#DejaVuSans-49"/>
      <use transform="translate(112.918294 39.046875)scale(0.7)" xlink:href="#DejaVuSans-48"/>
      <use transform="translate(157.454427 39.046875)scale(0.7)" xlink:href="#DejaVuSans-48"/>
     </g>
    </g>
    <g id="line2d_24">
     <path d="M 81 100.332812 
L 101 100.332812 
" style="fill:none;stroke:#ff7f0e;stroke-linecap:square;stroke-width:2;"/>
    </g>
    <g id="line2d_25"/>
    <g id="text_22">
     <!-- $\delta^{1000}$ -->
     <g transform="translate(109 103.832812)scale(0.1 -0.1)">
      <use transform="translate(0 0.765625)" xlink:href="#DejaVuSans-Oblique-948"/>
      <use transform="translate(68.382161 39.046875)scale(0.7)" xlink:href="#DejaVuSans-49"/>
      <use transform="translate(112.918294 39.046875)scale(0.7)" xlink:href="#DejaVuSans-48"/>
      <use transform="translate(157.454427 39.046875)scale(0.7)" xlink:href="#DejaVuSans-48"/>
      <use transform="translate(201.99056 39.046875)scale(0.7)" xlink:href="#DejaVuSans-48"/>
     </g>
    </g>
   </g>
  </g>
 </g>
 <defs>
  <clipPath id="pf8931a57ea">
   <rect height="277.2" width="446.4" x="72" y="43.2"/>
  </clipPath>
 </defs>
</svg>
