<?xml version="1.0" encoding="utf-8" standalone="no"?>
<!DOCTYPE svg PUBLIC "-//W3C//DTD SVG 1.1//EN"
  "http://www.w3.org/Graphics/SVG/1.1/DTD/svg11.dtd">
<!-- Created with matplotlib (https://matplotlib.org/) -->
<svg height="360pt" version="1.1" viewBox="0 0 576 360" width="576pt" xmlns="http://www.w3.org/2000/svg" xmlns:xlink="http://www.w3.org/1999/xlink">
 <metadata>
  <rdf:RDF xmlns:cc="http://creativecommons.org/ns#" xmlns:dc="http://purl.org/dc/elements/1.1/" xmlns:rdf="http://www.w3.org/1999/02/22-rdf-syntax-ns#">
   <cc:Work>
    <dc:type rdf:resource="http://purl.org/dc/dcmitype/StillImage"/>
    <dc:date>2021-04-11T20:45:15.850125</dc:date>
    <dc:format>image/svg+xml</dc:format>
    <dc:creator>
     <cc:Agent>
      <dc:title>Matplotlib v3.3.4, https://matplotlib.org/</dc:title>
     </cc:Agent>
    </dc:creator>
   </cc:Work>
  </rdf:RDF>
 </metadata>
 <defs>
  <style type="text/css">*{stroke-linecap:butt;stroke-linejoin:round;}</style>
 </defs>
 <g id="figure_1">
  <g id="patch_1">
   <path d="M 0 360 
L 576 360 
L 576 0 
L 0 0 
z
" style="fill:none;"/>
  </g>
  <g id="axes_1">
   <g id="patch_2">
    <path d="M 72 320.4 
L 518.4 320.4 
L 518.4 43.2 
L 72 43.2 
z
" style="fill:none;"/>
   </g>
   <g id="matplotlib.axis_1">
    <g id="xtick_1">
     <g id="line2d_1">
      <defs>
       <path d="M 0 0 
L 0 3.5 
" id="mbd37fab291" style="stroke:#000000;stroke-width:0.8;"/>
      </defs>
      <g>
       <use style="stroke:#000000;stroke-width:0.8;" x="92.290909" xlink:href="#mbd37fab291" y="320.4"/>
      </g>
     </g>
     <g id="text_1">
      <!-- 0 -->
      <g transform="translate(89.109659 334.998438)scale(0.1 -0.1)">
       <defs>
        <path d="M 31.78125 66.40625 
Q 24.171875 66.40625 20.328125 58.90625 
Q 16.5 51.421875 16.5 36.375 
Q 16.5 21.390625 20.328125 13.890625 
Q 24.171875 6.390625 31.78125 6.390625 
Q 39.453125 6.390625 43.28125 13.890625 
Q 47.125 21.390625 47.125 36.375 
Q 47.125 51.421875 43.28125 58.90625 
Q 39.453125 66.40625 31.78125 66.40625 
z
M 31.78125 74.21875 
Q 44.046875 74.21875 50.515625 64.515625 
Q 56.984375 54.828125 56.984375 36.375 
Q 56.984375 17.96875 50.515625 8.265625 
Q 44.046875 -1.421875 31.78125 -1.421875 
Q 19.53125 -1.421875 13.0625 8.265625 
Q 6.59375 17.96875 6.59375 36.375 
Q 6.59375 54.828125 13.0625 64.515625 
Q 19.53125 74.21875 31.78125 74.21875 
z
" id="DejaVuSans-48"/>
       </defs>
       <use xlink:href="#DejaVuSans-48"/>
      </g>
     </g>
    </g>
    <g id="xtick_2">
     <g id="line2d_2">
      <g>
       <use style="stroke:#000000;stroke-width:0.8;" x="172.104839" xlink:href="#mbd37fab291" y="320.4"/>
      </g>
     </g>
     <g id="text_2">
      <!-- 1 -->
      <g transform="translate(168.923589 334.998438)scale(0.1 -0.1)">
       <defs>
        <path d="M 12.40625 8.296875 
L 28.515625 8.296875 
L 28.515625 63.921875 
L 10.984375 60.40625 
L 10.984375 69.390625 
L 28.421875 72.90625 
L 38.28125 72.90625 
L 38.28125 8.296875 
L 54.390625 8.296875 
L 54.390625 0 
L 12.40625 0 
z
" id="DejaVuSans-49"/>
       </defs>
       <use xlink:href="#DejaVuSans-49"/>
      </g>
     </g>
    </g>
    <g id="xtick_3">
     <g id="line2d_3">
      <g>
       <use style="stroke:#000000;stroke-width:0.8;" x="251.918769" xlink:href="#mbd37fab291" y="320.4"/>
      </g>
     </g>
     <g id="text_3">
      <!-- 2 -->
      <g transform="translate(248.737519 334.998438)scale(0.1 -0.1)">
       <defs>
        <path d="M 19.1875 8.296875 
L 53.609375 8.296875 
L 53.609375 0 
L 7.328125 0 
L 7.328125 8.296875 
Q 12.9375 14.109375 22.625 23.890625 
Q 32.328125 33.6875 34.8125 36.53125 
Q 39.546875 41.84375 41.421875 45.53125 
Q 43.3125 49.21875 43.3125 52.78125 
Q 43.3125 58.59375 39.234375 62.25 
Q 35.15625 65.921875 28.609375 65.921875 
Q 23.96875 65.921875 18.8125 64.3125 
Q 13.671875 62.703125 7.8125 59.421875 
L 7.8125 69.390625 
Q 13.765625 71.78125 18.9375 73 
Q 24.125 74.21875 28.421875 74.21875 
Q 39.75 74.21875 46.484375 68.546875 
Q 53.21875 62.890625 53.21875 53.421875 
Q 53.21875 48.921875 51.53125 44.890625 
Q 49.859375 40.875 45.40625 35.40625 
Q 44.1875 33.984375 37.640625 27.21875 
Q 31.109375 20.453125 19.1875 8.296875 
z
" id="DejaVuSans-50"/>
       </defs>
       <use xlink:href="#DejaVuSans-50"/>
      </g>
     </g>
    </g>
    <g id="xtick_4">
     <g id="line2d_4">
      <g>
       <use style="stroke:#000000;stroke-width:0.8;" x="331.732699" xlink:href="#mbd37fab291" y="320.4"/>
      </g>
     </g>
     <g id="text_4">
      <!-- 3 -->
      <g transform="translate(328.551449 334.998438)scale(0.1 -0.1)">
       <defs>
        <path d="M 40.578125 39.3125 
Q 47.65625 37.796875 51.625 33 
Q 55.609375 28.21875 55.609375 21.1875 
Q 55.609375 10.40625 48.1875 4.484375 
Q 40.765625 -1.421875 27.09375 -1.421875 
Q 22.515625 -1.421875 17.65625 -0.515625 
Q 12.796875 0.390625 7.625 2.203125 
L 7.625 11.71875 
Q 11.71875 9.328125 16.59375 8.109375 
Q 21.484375 6.890625 26.8125 6.890625 
Q 36.078125 6.890625 40.9375 10.546875 
Q 45.796875 14.203125 45.796875 21.1875 
Q 45.796875 27.640625 41.28125 31.265625 
Q 36.765625 34.90625 28.71875 34.90625 
L 20.21875 34.90625 
L 20.21875 43.015625 
L 29.109375 43.015625 
Q 36.375 43.015625 40.234375 45.921875 
Q 44.09375 48.828125 44.09375 54.296875 
Q 44.09375 59.90625 40.109375 62.90625 
Q 36.140625 65.921875 28.71875 65.921875 
Q 24.65625 65.921875 20.015625 65.03125 
Q 15.375 64.15625 9.8125 62.3125 
L 9.8125 71.09375 
Q 15.4375 72.65625 20.34375 73.4375 
Q 25.25 74.21875 29.59375 74.21875 
Q 40.828125 74.21875 47.359375 69.109375 
Q 53.90625 64.015625 53.90625 55.328125 
Q 53.90625 49.265625 50.4375 45.09375 
Q 46.96875 40.921875 40.578125 39.3125 
z
" id="DejaVuSans-51"/>
       </defs>
       <use xlink:href="#DejaVuSans-51"/>
      </g>
     </g>
    </g>
    <g id="xtick_5">
     <g id="line2d_5">
      <g>
       <use style="stroke:#000000;stroke-width:0.8;" x="411.54663" xlink:href="#mbd37fab291" y="320.4"/>
      </g>
     </g>
     <g id="text_5">
      <!-- 4 -->
      <g transform="translate(408.36538 334.998438)scale(0.1 -0.1)">
       <defs>
        <path d="M 37.796875 64.3125 
L 12.890625 25.390625 
L 37.796875 25.390625 
z
M 35.203125 72.90625 
L 47.609375 72.90625 
L 47.609375 25.390625 
L 58.015625 25.390625 
L 58.015625 17.1875 
L 47.609375 17.1875 
L 47.609375 0 
L 37.796875 0 
L 37.796875 17.1875 
L 4.890625 17.1875 
L 4.890625 26.703125 
z
" id="DejaVuSans-52"/>
       </defs>
       <use xlink:href="#DejaVuSans-52"/>
      </g>
     </g>
    </g>
    <g id="xtick_6">
     <g id="line2d_6">
      <g>
       <use style="stroke:#000000;stroke-width:0.8;" x="491.36056" xlink:href="#mbd37fab291" y="320.4"/>
      </g>
     </g>
     <g id="text_6">
      <!-- 5 -->
      <g transform="translate(488.17931 334.998438)scale(0.1 -0.1)">
       <defs>
        <path d="M 10.796875 72.90625 
L 49.515625 72.90625 
L 49.515625 64.59375 
L 19.828125 64.59375 
L 19.828125 46.734375 
Q 21.96875 47.46875 24.109375 47.828125 
Q 26.265625 48.1875 28.421875 48.1875 
Q 40.625 48.1875 47.75 41.5 
Q 54.890625 34.8125 54.890625 23.390625 
Q 54.890625 11.625 47.5625 5.09375 
Q 40.234375 -1.421875 26.90625 -1.421875 
Q 22.3125 -1.421875 17.546875 -0.640625 
Q 12.796875 0.140625 7.71875 1.703125 
L 7.71875 11.625 
Q 12.109375 9.234375 16.796875 8.0625 
Q 21.484375 6.890625 26.703125 6.890625 
Q 35.15625 6.890625 40.078125 11.328125 
Q 45.015625 15.765625 45.015625 23.390625 
Q 45.015625 31 40.078125 35.4375 
Q 35.15625 39.890625 26.703125 39.890625 
Q 22.75 39.890625 18.8125 39.015625 
Q 14.890625 38.140625 10.796875 36.28125 
z
" id="DejaVuSans-53"/>
       </defs>
       <use xlink:href="#DejaVuSans-53"/>
      </g>
     </g>
    </g>
    <g id="text_7">
     <!-- Primes Quantity -->
     <g transform="translate(255.08125 348.676562)scale(0.1 -0.1)">
      <defs>
       <path d="M 19.671875 64.796875 
L 19.671875 37.40625 
L 32.078125 37.40625 
Q 38.96875 37.40625 42.71875 40.96875 
Q 46.484375 44.53125 46.484375 51.125 
Q 46.484375 57.671875 42.71875 61.234375 
Q 38.96875 64.796875 32.078125 64.796875 
z
M 9.8125 72.90625 
L 32.078125 72.90625 
Q 44.34375 72.90625 50.609375 67.359375 
Q 56.890625 61.8125 56.890625 51.125 
Q 56.890625 40.328125 50.609375 34.8125 
Q 44.34375 29.296875 32.078125 29.296875 
L 19.671875 29.296875 
L 19.671875 0 
L 9.8125 0 
z
" id="DejaVuSans-80"/>
       <path d="M 41.109375 46.296875 
Q 39.59375 47.171875 37.8125 47.578125 
Q 36.03125 48 33.890625 48 
Q 26.265625 48 22.1875 43.046875 
Q 18.109375 38.09375 18.109375 28.8125 
L 18.109375 0 
L 9.078125 0 
L 9.078125 54.6875 
L 18.109375 54.6875 
L 18.109375 46.1875 
Q 20.953125 51.171875 25.484375 53.578125 
Q 30.03125 56 36.53125 56 
Q 37.453125 56 38.578125 55.875 
Q 39.703125 55.765625 41.0625 55.515625 
z
" id="DejaVuSans-114"/>
       <path d="M 9.421875 54.6875 
L 18.40625 54.6875 
L 18.40625 0 
L 9.421875 0 
z
M 9.421875 75.984375 
L 18.40625 75.984375 
L 18.40625 64.59375 
L 9.421875 64.59375 
z
" id="DejaVuSans-105"/>
       <path d="M 52 44.1875 
Q 55.375 50.25 60.0625 53.125 
Q 64.75 56 71.09375 56 
Q 79.640625 56 84.28125 50.015625 
Q 88.921875 44.046875 88.921875 33.015625 
L 88.921875 0 
L 79.890625 0 
L 79.890625 32.71875 
Q 79.890625 40.578125 77.09375 44.375 
Q 74.3125 48.1875 68.609375 48.1875 
Q 61.625 48.1875 57.5625 43.546875 
Q 53.515625 38.921875 53.515625 30.90625 
L 53.515625 0 
L 44.484375 0 
L 44.484375 32.71875 
Q 44.484375 40.625 41.703125 44.40625 
Q 38.921875 48.1875 33.109375 48.1875 
Q 26.21875 48.1875 22.15625 43.53125 
Q 18.109375 38.875 18.109375 30.90625 
L 18.109375 0 
L 9.078125 0 
L 9.078125 54.6875 
L 18.109375 54.6875 
L 18.109375 46.1875 
Q 21.1875 51.21875 25.484375 53.609375 
Q 29.78125 56 35.6875 56 
Q 41.65625 56 45.828125 52.96875 
Q 50 49.953125 52 44.1875 
z
" id="DejaVuSans-109"/>
       <path d="M 56.203125 29.59375 
L 56.203125 25.203125 
L 14.890625 25.203125 
Q 15.484375 15.921875 20.484375 11.0625 
Q 25.484375 6.203125 34.421875 6.203125 
Q 39.59375 6.203125 44.453125 7.46875 
Q 49.3125 8.734375 54.109375 11.28125 
L 54.109375 2.78125 
Q 49.265625 0.734375 44.1875 -0.34375 
Q 39.109375 -1.421875 33.890625 -1.421875 
Q 20.796875 -1.421875 13.15625 6.1875 
Q 5.515625 13.8125 5.515625 26.8125 
Q 5.515625 40.234375 12.765625 48.109375 
Q 20.015625 56 32.328125 56 
Q 43.359375 56 49.78125 48.890625 
Q 56.203125 41.796875 56.203125 29.59375 
z
M 47.21875 32.234375 
Q 47.125 39.59375 43.09375 43.984375 
Q 39.0625 48.390625 32.421875 48.390625 
Q 24.90625 48.390625 20.390625 44.140625 
Q 15.875 39.890625 15.1875 32.171875 
z
" id="DejaVuSans-101"/>
       <path d="M 44.28125 53.078125 
L 44.28125 44.578125 
Q 40.484375 46.53125 36.375 47.5 
Q 32.28125 48.484375 27.875 48.484375 
Q 21.1875 48.484375 17.84375 46.4375 
Q 14.5 44.390625 14.5 40.28125 
Q 14.5 37.15625 16.890625 35.375 
Q 19.28125 33.59375 26.515625 31.984375 
L 29.59375 31.296875 
Q 39.15625 29.25 43.1875 25.515625 
Q 47.21875 21.78125 47.21875 15.09375 
Q 47.21875 7.46875 41.1875 3.015625 
Q 35.15625 -1.421875 24.609375 -1.421875 
Q 20.21875 -1.421875 15.453125 -0.5625 
Q 10.6875 0.296875 5.421875 2 
L 5.421875 11.28125 
Q 10.40625 8.6875 15.234375 7.390625 
Q 20.0625 6.109375 24.8125 6.109375 
Q 31.15625 6.109375 34.5625 8.28125 
Q 37.984375 10.453125 37.984375 14.40625 
Q 37.984375 18.0625 35.515625 20.015625 
Q 33.0625 21.96875 24.703125 23.78125 
L 21.578125 24.515625 
Q 13.234375 26.265625 9.515625 29.90625 
Q 5.8125 33.546875 5.8125 39.890625 
Q 5.8125 47.609375 11.28125 51.796875 
Q 16.75 56 26.8125 56 
Q 31.78125 56 36.171875 55.265625 
Q 40.578125 54.546875 44.28125 53.078125 
z
" id="DejaVuSans-115"/>
       <path id="DejaVuSans-32"/>
       <path d="M 39.40625 66.21875 
Q 28.65625 66.21875 22.328125 58.203125 
Q 16.015625 50.203125 16.015625 36.375 
Q 16.015625 22.609375 22.328125 14.59375 
Q 28.65625 6.59375 39.40625 6.59375 
Q 50.140625 6.59375 56.421875 14.59375 
Q 62.703125 22.609375 62.703125 36.375 
Q 62.703125 50.203125 56.421875 58.203125 
Q 50.140625 66.21875 39.40625 66.21875 
z
M 53.21875 1.3125 
L 66.21875 -12.890625 
L 54.296875 -12.890625 
L 43.5 -1.21875 
Q 41.890625 -1.3125 41.03125 -1.359375 
Q 40.1875 -1.421875 39.40625 -1.421875 
Q 24.03125 -1.421875 14.8125 8.859375 
Q 5.609375 19.140625 5.609375 36.375 
Q 5.609375 53.65625 14.8125 63.9375 
Q 24.03125 74.21875 39.40625 74.21875 
Q 54.734375 74.21875 63.90625 63.9375 
Q 73.09375 53.65625 73.09375 36.375 
Q 73.09375 23.6875 67.984375 14.640625 
Q 62.890625 5.609375 53.21875 1.3125 
z
" id="DejaVuSans-81"/>
       <path d="M 8.5 21.578125 
L 8.5 54.6875 
L 17.484375 54.6875 
L 17.484375 21.921875 
Q 17.484375 14.15625 20.5 10.265625 
Q 23.53125 6.390625 29.59375 6.390625 
Q 36.859375 6.390625 41.078125 11.03125 
Q 45.3125 15.671875 45.3125 23.6875 
L 45.3125 54.6875 
L 54.296875 54.6875 
L 54.296875 0 
L 45.3125 0 
L 45.3125 8.40625 
Q 42.046875 3.421875 37.71875 1 
Q 33.40625 -1.421875 27.6875 -1.421875 
Q 18.265625 -1.421875 13.375 4.4375 
Q 8.5 10.296875 8.5 21.578125 
z
M 31.109375 56 
z
" id="DejaVuSans-117"/>
       <path d="M 34.28125 27.484375 
Q 23.390625 27.484375 19.1875 25 
Q 14.984375 22.515625 14.984375 16.5 
Q 14.984375 11.71875 18.140625 8.90625 
Q 21.296875 6.109375 26.703125 6.109375 
Q 34.1875 6.109375 38.703125 11.40625 
Q 43.21875 16.703125 43.21875 25.484375 
L 43.21875 27.484375 
z
M 52.203125 31.203125 
L 52.203125 0 
L 43.21875 0 
L 43.21875 8.296875 
Q 40.140625 3.328125 35.546875 0.953125 
Q 30.953125 -1.421875 24.3125 -1.421875 
Q 15.921875 -1.421875 10.953125 3.296875 
Q 6 8.015625 6 15.921875 
Q 6 25.140625 12.171875 29.828125 
Q 18.359375 34.515625 30.609375 34.515625 
L 43.21875 34.515625 
L 43.21875 35.40625 
Q 43.21875 41.609375 39.140625 45 
Q 35.0625 48.390625 27.6875 48.390625 
Q 23 48.390625 18.546875 47.265625 
Q 14.109375 46.140625 10.015625 43.890625 
L 10.015625 52.203125 
Q 14.9375 54.109375 19.578125 55.046875 
Q 24.21875 56 28.609375 56 
Q 40.484375 56 46.34375 49.84375 
Q 52.203125 43.703125 52.203125 31.203125 
z
" id="DejaVuSans-97"/>
       <path d="M 54.890625 33.015625 
L 54.890625 0 
L 45.90625 0 
L 45.90625 32.71875 
Q 45.90625 40.484375 42.875 44.328125 
Q 39.84375 48.1875 33.796875 48.1875 
Q 26.515625 48.1875 22.3125 43.546875 
Q 18.109375 38.921875 18.109375 30.90625 
L 18.109375 0 
L 9.078125 0 
L 9.078125 54.6875 
L 18.109375 54.6875 
L 18.109375 46.1875 
Q 21.34375 51.125 25.703125 53.5625 
Q 30.078125 56 35.796875 56 
Q 45.21875 56 50.046875 50.171875 
Q 54.890625 44.34375 54.890625 33.015625 
z
" id="DejaVuSans-110"/>
       <path d="M 18.3125 70.21875 
L 18.3125 54.6875 
L 36.8125 54.6875 
L 36.8125 47.703125 
L 18.3125 47.703125 
L 18.3125 18.015625 
Q 18.3125 11.328125 20.140625 9.421875 
Q 21.96875 7.515625 27.59375 7.515625 
L 36.8125 7.515625 
L 36.8125 0 
L 27.59375 0 
Q 17.1875 0 13.234375 3.875 
Q 9.28125 7.765625 9.28125 18.015625 
L 9.28125 47.703125 
L 2.6875 47.703125 
L 2.6875 54.6875 
L 9.28125 54.6875 
L 9.28125 70.21875 
z
" id="DejaVuSans-116"/>
       <path d="M 32.171875 -5.078125 
Q 28.375 -14.84375 24.75 -17.8125 
Q 21.140625 -20.796875 15.09375 -20.796875 
L 7.90625 -20.796875 
L 7.90625 -13.28125 
L 13.1875 -13.28125 
Q 16.890625 -13.28125 18.9375 -11.515625 
Q 21 -9.765625 23.484375 -3.21875 
L 25.09375 0.875 
L 2.984375 54.6875 
L 12.5 54.6875 
L 29.59375 11.921875 
L 46.6875 54.6875 
L 56.203125 54.6875 
z
" id="DejaVuSans-121"/>
      </defs>
      <use xlink:href="#DejaVuSans-80"/>
      <use x="58.552734" xlink:href="#DejaVuSans-114"/>
      <use x="99.666016" xlink:href="#DejaVuSans-105"/>
      <use x="127.449219" xlink:href="#DejaVuSans-109"/>
      <use x="224.861328" xlink:href="#DejaVuSans-101"/>
      <use x="286.384766" xlink:href="#DejaVuSans-115"/>
      <use x="338.484375" xlink:href="#DejaVuSans-32"/>
      <use x="370.271484" xlink:href="#DejaVuSans-81"/>
      <use x="448.982422" xlink:href="#DejaVuSans-117"/>
      <use x="512.361328" xlink:href="#DejaVuSans-97"/>
      <use x="573.640625" xlink:href="#DejaVuSans-110"/>
      <use x="637.019531" xlink:href="#DejaVuSans-116"/>
      <use x="676.228516" xlink:href="#DejaVuSans-105"/>
      <use x="704.011719" xlink:href="#DejaVuSans-116"/>
      <use x="743.220703" xlink:href="#DejaVuSans-121"/>
     </g>
    </g>
    <g id="text_8">
     <!-- 1e7 -->
     <g transform="translate(499.521875 347.676562)scale(0.1 -0.1)">
      <defs>
       <path d="M 8.203125 72.90625 
L 55.078125 72.90625 
L 55.078125 68.703125 
L 28.609375 0 
L 18.3125 0 
L 43.21875 64.59375 
L 8.203125 64.59375 
z
" id="DejaVuSans-55"/>
      </defs>
      <use xlink:href="#DejaVuSans-49"/>
      <use x="63.623047" xlink:href="#DejaVuSans-101"/>
      <use x="125.146484" xlink:href="#DejaVuSans-55"/>
     </g>
    </g>
   </g>
   <g id="matplotlib.axis_2">
    <g id="ytick_1">
     <g id="line2d_7">
      <defs>
       <path d="M 0 0 
L -3.5 0 
" id="m19db859f90" style="stroke:#000000;stroke-width:0.8;"/>
      </defs>
      <g>
       <use style="stroke:#000000;stroke-width:0.8;" x="72" xlink:href="#m19db859f90" y="307.816545"/>
      </g>
     </g>
     <g id="text_9">
      <!-- 0.0 -->
      <g transform="translate(49.096875 311.615764)scale(0.1 -0.1)">
       <defs>
        <path d="M 10.6875 12.40625 
L 21 12.40625 
L 21 0 
L 10.6875 0 
z
" id="DejaVuSans-46"/>
       </defs>
       <use xlink:href="#DejaVuSans-48"/>
       <use x="63.623047" xlink:href="#DejaVuSans-46"/>
       <use x="95.410156" xlink:href="#DejaVuSans-48"/>
      </g>
     </g>
    </g>
    <g id="ytick_2">
     <g id="line2d_8">
      <g>
       <use style="stroke:#000000;stroke-width:0.8;" x="72" xlink:href="#m19db859f90" y="257.413236"/>
      </g>
     </g>
     <g id="text_10">
      <!-- 0.2 -->
      <g transform="translate(49.096875 261.212455)scale(0.1 -0.1)">
       <use xlink:href="#DejaVuSans-48"/>
       <use x="63.623047" xlink:href="#DejaVuSans-46"/>
       <use x="95.410156" xlink:href="#DejaVuSans-50"/>
      </g>
     </g>
    </g>
    <g id="ytick_3">
     <g id="line2d_9">
      <g>
       <use style="stroke:#000000;stroke-width:0.8;" x="72" xlink:href="#m19db859f90" y="207.009927"/>
      </g>
     </g>
     <g id="text_11">
      <!-- 0.4 -->
      <g transform="translate(49.096875 210.809146)scale(0.1 -0.1)">
       <use xlink:href="#DejaVuSans-48"/>
       <use x="63.623047" xlink:href="#DejaVuSans-46"/>
       <use x="95.410156" xlink:href="#DejaVuSans-52"/>
      </g>
     </g>
    </g>
    <g id="ytick_4">
     <g id="line2d_10">
      <g>
       <use style="stroke:#000000;stroke-width:0.8;" x="72" xlink:href="#m19db859f90" y="156.606618"/>
      </g>
     </g>
     <g id="text_12">
      <!-- 0.6 -->
      <g transform="translate(49.096875 160.405837)scale(0.1 -0.1)">
       <defs>
        <path d="M 33.015625 40.375 
Q 26.375 40.375 22.484375 35.828125 
Q 18.609375 31.296875 18.609375 23.390625 
Q 18.609375 15.53125 22.484375 10.953125 
Q 26.375 6.390625 33.015625 6.390625 
Q 39.65625 6.390625 43.53125 10.953125 
Q 47.40625 15.53125 47.40625 23.390625 
Q 47.40625 31.296875 43.53125 35.828125 
Q 39.65625 40.375 33.015625 40.375 
z
M 52.59375 71.296875 
L 52.59375 62.3125 
Q 48.875 64.0625 45.09375 64.984375 
Q 41.3125 65.921875 37.59375 65.921875 
Q 27.828125 65.921875 22.671875 59.328125 
Q 17.53125 52.734375 16.796875 39.40625 
Q 19.671875 43.65625 24.015625 45.921875 
Q 28.375 48.1875 33.59375 48.1875 
Q 44.578125 48.1875 50.953125 41.515625 
Q 57.328125 34.859375 57.328125 23.390625 
Q 57.328125 12.15625 50.6875 5.359375 
Q 44.046875 -1.421875 33.015625 -1.421875 
Q 20.359375 -1.421875 13.671875 8.265625 
Q 6.984375 17.96875 6.984375 36.375 
Q 6.984375 53.65625 15.1875 63.9375 
Q 23.390625 74.21875 37.203125 74.21875 
Q 40.921875 74.21875 44.703125 73.484375 
Q 48.484375 72.75 52.59375 71.296875 
z
" id="DejaVuSans-54"/>
       </defs>
       <use xlink:href="#DejaVuSans-48"/>
       <use x="63.623047" xlink:href="#DejaVuSans-46"/>
       <use x="95.410156" xlink:href="#DejaVuSans-54"/>
      </g>
     </g>
    </g>
    <g id="ytick_5">
     <g id="line2d_11">
      <g>
       <use style="stroke:#000000;stroke-width:0.8;" x="72" xlink:href="#m19db859f90" y="106.203309"/>
      </g>
     </g>
     <g id="text_13">
      <!-- 0.8 -->
      <g transform="translate(49.096875 110.002528)scale(0.1 -0.1)">
       <defs>
        <path d="M 31.78125 34.625 
Q 24.75 34.625 20.71875 30.859375 
Q 16.703125 27.09375 16.703125 20.515625 
Q 16.703125 13.921875 20.71875 10.15625 
Q 24.75 6.390625 31.78125 6.390625 
Q 38.8125 6.390625 42.859375 10.171875 
Q 46.921875 13.96875 46.921875 20.515625 
Q 46.921875 27.09375 42.890625 30.859375 
Q 38.875 34.625 31.78125 34.625 
z
M 21.921875 38.8125 
Q 15.578125 40.375 12.03125 44.71875 
Q 8.5 49.078125 8.5 55.328125 
Q 8.5 64.0625 14.71875 69.140625 
Q 20.953125 74.21875 31.78125 74.21875 
Q 42.671875 74.21875 48.875 69.140625 
Q 55.078125 64.0625 55.078125 55.328125 
Q 55.078125 49.078125 51.53125 44.71875 
Q 48 40.375 41.703125 38.8125 
Q 48.828125 37.15625 52.796875 32.3125 
Q 56.78125 27.484375 56.78125 20.515625 
Q 56.78125 9.90625 50.3125 4.234375 
Q 43.84375 -1.421875 31.78125 -1.421875 
Q 19.734375 -1.421875 13.25 4.234375 
Q 6.78125 9.90625 6.78125 20.515625 
Q 6.78125 27.484375 10.78125 32.3125 
Q 14.796875 37.15625 21.921875 38.8125 
z
M 18.3125 54.390625 
Q 18.3125 48.734375 21.84375 45.5625 
Q 25.390625 42.390625 31.78125 42.390625 
Q 38.140625 42.390625 41.71875 45.5625 
Q 45.3125 48.734375 45.3125 54.390625 
Q 45.3125 60.0625 41.71875 63.234375 
Q 38.140625 66.40625 31.78125 66.40625 
Q 25.390625 66.40625 21.84375 63.234375 
Q 18.3125 60.0625 18.3125 54.390625 
z
" id="DejaVuSans-56"/>
       </defs>
       <use xlink:href="#DejaVuSans-48"/>
       <use x="63.623047" xlink:href="#DejaVuSans-46"/>
       <use x="95.410156" xlink:href="#DejaVuSans-56"/>
      </g>
     </g>
    </g>
    <g id="ytick_6">
     <g id="line2d_12">
      <g>
       <use style="stroke:#000000;stroke-width:0.8;" x="72" xlink:href="#m19db859f90" y="55.8"/>
      </g>
     </g>
     <g id="text_14">
      <!-- 1.0 -->
      <g transform="translate(49.096875 59.599219)scale(0.1 -0.1)">
       <use xlink:href="#DejaVuSans-49"/>
       <use x="63.623047" xlink:href="#DejaVuSans-46"/>
       <use x="95.410156" xlink:href="#DejaVuSans-48"/>
      </g>
     </g>
    </g>
    <g id="text_15">
     <!-- Relative $\delta$ Quantity -->
     <g transform="translate(42.996875 230.05)rotate(-90)scale(0.1 -0.1)">
      <defs>
       <path d="M 44.390625 34.1875 
Q 47.5625 33.109375 50.5625 29.59375 
Q 53.5625 26.078125 56.59375 19.921875 
L 66.609375 0 
L 56 0 
L 46.6875 18.703125 
Q 43.0625 26.03125 39.671875 28.421875 
Q 36.28125 30.8125 30.421875 30.8125 
L 19.671875 30.8125 
L 19.671875 0 
L 9.8125 0 
L 9.8125 72.90625 
L 32.078125 72.90625 
Q 44.578125 72.90625 50.734375 67.671875 
Q 56.890625 62.453125 56.890625 51.90625 
Q 56.890625 45.015625 53.6875 40.46875 
Q 50.484375 35.9375 44.390625 34.1875 
z
M 19.671875 64.796875 
L 19.671875 38.921875 
L 32.078125 38.921875 
Q 39.203125 38.921875 42.84375 42.21875 
Q 46.484375 45.515625 46.484375 51.90625 
Q 46.484375 58.296875 42.84375 61.546875 
Q 39.203125 64.796875 32.078125 64.796875 
z
" id="DejaVuSans-82"/>
       <path d="M 9.421875 75.984375 
L 18.40625 75.984375 
L 18.40625 0 
L 9.421875 0 
z
" id="DejaVuSans-108"/>
       <path d="M 2.984375 54.6875 
L 12.5 54.6875 
L 29.59375 8.796875 
L 46.6875 54.6875 
L 56.203125 54.6875 
L 35.6875 0 
L 23.484375 0 
z
" id="DejaVuSans-118"/>
       <path d="M 54.25 63.328125 
Q 49.953125 66.75 38.28125 66.75 
Q 25.921875 66.75 24.8125 61.03125 
Q 23.921875 56.546875 36.375 54.203125 
Q 46.140625 52.390625 50.828125 46.921875 
Q 56.5 40.328125 53.859375 26.8125 
Q 51.3125 13.875 43.171875 6.25 
Q 34.96875 -1.421875 23.25 -1.421875 
Q 11.578125 -1.421875 6.34375 6.25 
Q 1.125 13.875 3.765625 27.296875 
Q 5.671875 37.25 13.921875 45.3125 
Q 17.140625 48.4375 21.140625 50.203125 
Q 14.265625 54.046875 15.625 60.9375 
Q 18.21875 74.21875 39.75 74.21875 
Q 50.53125 74.21875 55.71875 70.796875 
z
M 27.390625 47.75 
Q 23.828125 46.34375 20.40625 42.78125 
Q 15.140625 37.25 13.234375 27.296875 
Q 11.28125 17.390625 14.359375 11.8125 
Q 17.484375 6.203125 24.75 6.203125 
Q 31.9375 6.203125 37.203125 11.859375 
Q 42.53125 17.53125 44.34375 26.8125 
Q 46.1875 36.53125 42.671875 41.21875 
Q 38.921875 46.234375 32.859375 46.78125 
Q 29.78125 47.078125 27.390625 47.75 
z
" id="DejaVuSans-Oblique-948"/>
      </defs>
      <use transform="translate(0 0.015625)" xlink:href="#DejaVuSans-82"/>
      <use transform="translate(69.482422 0.015625)" xlink:href="#DejaVuSans-101"/>
      <use transform="translate(131.005859 0.015625)" xlink:href="#DejaVuSans-108"/>
      <use transform="translate(158.789062 0.015625)" xlink:href="#DejaVuSans-97"/>
      <use transform="translate(220.068359 0.015625)" xlink:href="#DejaVuSans-116"/>
      <use transform="translate(259.277344 0.015625)" xlink:href="#DejaVuSans-105"/>
      <use transform="translate(287.060547 0.015625)" xlink:href="#DejaVuSans-118"/>
      <use transform="translate(346.240234 0.015625)" xlink:href="#DejaVuSans-101"/>
      <use transform="translate(407.763672 0.015625)" xlink:href="#DejaVuSans-32"/>
      <use transform="translate(439.550781 0.015625)" xlink:href="#DejaVuSans-Oblique-948"/>
      <use transform="translate(500.732422 0.015625)" xlink:href="#DejaVuSans-32"/>
      <use transform="translate(532.519531 0.015625)" xlink:href="#DejaVuSans-81"/>
      <use transform="translate(611.230469 0.015625)" xlink:href="#DejaVuSans-117"/>
      <use transform="translate(674.609375 0.015625)" xlink:href="#DejaVuSans-97"/>
      <use transform="translate(735.888672 0.015625)" xlink:href="#DejaVuSans-110"/>
      <use transform="translate(799.267578 0.015625)" xlink:href="#DejaVuSans-116"/>
      <use transform="translate(838.476562 0.015625)" xlink:href="#DejaVuSans-105"/>
      <use transform="translate(866.259766 0.015625)" xlink:href="#DejaVuSans-116"/>
      <use transform="translate(905.46875 0.015625)" xlink:href="#DejaVuSans-121"/>
     </g>
    </g>
   </g>
   <g id="line2d_13">
    <path clip-path="url(#pc3210694b9)" d="M 92.290909 55.8 
L 92.400885 303.207824 
L 92.402505 303.20264 
L 92.558342 305.048785 
L 92.564024 305.025362 
L 92.625705 305.407404 
L 92.626112 305.404329 
L 92.813603 305.961728 
L 92.81563 305.961227 
L 92.818878 305.957403 
L 92.89882 306.132398 
L 93.123648 306.430087 
L 93.124047 306.428337 
L 93.216982 306.519864 
L 93.507146 306.73495 
L 93.861017 306.903135 
L 93.861424 306.902091 
L 93.897947 306.91286 
L 93.928787 306.929876 
L 93.96491 306.9418 
L 94.487604 307.089507 
L 95.263124 307.229128 
L 96.44892 307.350209 
L 98.462593 307.464231 
L 102.207894 307.566864 
L 102.459906 307.57048 
L 110.582769 307.655888 
L 130.664297 307.721145 
L 194.902132 307.769734 
L 498.109091 307.8 
L 498.109091 307.8 
" style="fill:none;stroke:#2ca02c;stroke-linecap:square;stroke-width:2;"/>
   </g>
   <g id="line2d_14">
    <path clip-path="url(#pc3210694b9)" d="M 92.290909 55.8 
L 92.403726 275.458733 
L 92.404125 275.39513 
L 92.556713 287.286852 
L 92.736087 292.55856 
L 92.952391 296.185573 
L 92.952798 296.180571 
L 92.953197 296.157211 
L 93.046132 297.139187 
L 93.047354 297.124515 
L 93.612253 300.575145 
L 93.61266 300.571288 
L 93.613466 300.562016 
L 93.697063 300.834522 
L 93.69747 300.830823 
L 93.699098 300.821759 
L 93.975055 301.646612 
L 94.242487 302.206603 
L 94.246949 302.202946 
L 94.330953 302.365082 
L 94.33298 302.362613 
L 94.637758 302.871196 
L 94.336229 302.351607 
L 94.640591 302.868598 
L 94.640998 302.867744 
L 94.710804 302.978081 
L 94.711211 302.977233 
L 95.109315 303.526619 
L 95.110129 303.517869 
L 95.212801 303.624174 
L 95.590616 303.973748 
L 95.593051 303.971098 
L 95.690041 304.0394 
L 96.123454 304.355284 
L 96.246017 304.426943 
L 96.715546 304.682988 
L 97.276382 304.944312 
L 97.326306 304.952416 
L 97.38109 304.981662 
L 98.026745 305.214152 
L 98.139155 305.250759 
L 98.818092 305.427352 
L 98.823368 305.424047 
L 98.922792 305.451119 
L 98.926847 305.451049 
L 99.758779 305.630802 
L 99.781095 305.63248 
L 99.861452 305.653537 
L 99.867542 305.652887 
L 100.968527 305.851838 
L 101.204305 305.885981 
L 102.708271 306.098277 
L 102.822708 306.114083 
L 104.756839 306.314651 
L 104.878587 306.322466 
L 107.425913 306.512929 
L 110.707359 306.684044 
L 115.351141 306.858284 
L 122.061353 307.026101 
L 122.261822 307.029912 
L 132.410538 307.185131 
L 148.580378 307.328491 
L 176.461331 307.459257 
L 176.796134 307.460315 
L 229.524952 307.571479 
L 343.159436 307.66329 
L 498.109091 307.711868 
L 498.109091 307.711868 
" style="fill:none;stroke:#d62728;stroke-linecap:square;stroke-width:2;"/>
   </g>
   <g id="line2d_15">
    <path clip-path="url(#pc3210694b9)" d="M 92.290909 55.8 
L 92.403319 152.992323 
L 92.403726 152.873436 
L 92.556314 183.907526 
L 92.766528 206.704591 
L 92.770176 206.517217 
L 93.550972 244.458031 
L 93.775791 249.418073 
L 93.777827 249.374907 
L 93.778234 249.366558 
L 93.828149 250.61809 
L 94.091519 255.291222 
L 94.091926 255.288574 
L 94.126829 255.787584 
L 94.333387 258.497699 
L 94.335822 258.445259 
L 94.354083 258.831553 
L 94.585807 261.69257 
L 94.874342 265.265011 
L 94.875563 265.261768 
L 94.913715 265.602378 
L 95.190477 268.265101 
L 95.468868 270.543069 
L 95.836946 273.191916 
L 96.153895 275.26892 
L 96.159171 275.252472 
L 96.160384 275.229413 
L 96.24561 275.705341 
L 96.246823 275.699426 
L 96.476519 276.656516 
L 96.491532 276.637636 
L 96.681457 277.535105 
L 96.97649 278.796161 
L 97.005702 278.891067 
L 96.98744 278.858258 
L 97.008144 278.902632 
L 97.474832 280.609706 
L 97.763774 281.560595 
L 97.478487 280.605226 
L 97.764995 281.545875 
L 97.766209 281.531858 
L 97.861171 281.878131 
L 98.180954 282.838674 
L 98.182175 282.818927 
L 98.278758 283.061228 
L 98.281192 283.057185 
L 99.305077 285.320721 
L 98.28282 283.056528 
L 99.30629 285.309415 
L 99.307511 285.301866 
L 99.404094 285.519626 
L 99.405307 285.516643 
L 99.405714 285.515374 
L 99.480795 285.642786 
L 99.764055 286.156228 
L 100.325299 287.153081 
L 100.32652 287.144206 
L 100.327334 287.139042 
L 100.413772 287.318468 
L 100.42351 287.31803 
L 100.75263 287.846474 
L 101.551687 289.046987 
L 101.552494 289.040802 
L 101.553308 289.0342 
L 101.648677 289.138566 
L 101.657201 289.135592 
L 102.004177 289.597069 
L 102.006611 289.586521 
L 102.008231 289.568447 
L 102.11009 289.667199 
L 102.52849 290.211487 
L 102.534987 290.201839 
L 102.623046 290.329578 
L 102.628322 290.323714 
L 102.935118 290.647063 
L 102.942022 290.636663 
L 102.944457 290.635869 
L 103.019122 290.716631 
L 103.375436 291.080854 
L 103.376242 291.078442 
L 103.376649 291.076153 
L 103.465522 291.181211 
L 103.471205 291.177972 
L 103.563733 291.267437 
L 104.027986 291.755279 
L 104.028801 291.753137 
L 104.128632 291.83763 
L 104.524708 292.189389 
L 104.525523 292.187305 
L 104.606278 292.247325 
L 104.574225 292.234536 
L 104.613182 292.255395 
L 104.949199 292.513061 
L 104.950819 292.502945 
L 104.98897 292.517115 
L 104.978826 292.529613 
L 105.040506 292.568545 
L 105.368813 292.793372 
L 105.36922 292.789072 
L 105.372468 292.763435 
L 105.475141 292.837486 
L 105.480824 292.830824 
L 105.933305 293.189855 
L 106.344809 293.468138 
L 106.701522 293.67354 
L 107.163341 293.986254 
L 107.167811 293.9777 
L 107.168218 293.97578 
L 107.265615 294.051698 
L 110.450071 295.778792 
L 110.451284 295.776163 
L 110.532048 295.821423 
L 110.55315 295.820965 
L 111.155785 296.085703 
L 111.156193 296.084996 
L 111.183385 296.077714 
L 111.262928 296.11813 
L 111.997862 296.441718 
L 112.047778 296.461701 
L 112.098101 296.488823 
L 112.831008 296.7804 
L 112.831415 296.779052 
L 112.923943 296.821237 
L 112.934495 296.821791 
L 113.293642 296.948795 
L 114.024522 297.202096 
L 114.145456 297.243621 
L 115.040689 297.560123 
L 115.041503 297.556334 
L 115.042309 297.552896 
L 115.149044 297.588503 
L 115.973666 297.836433 
L 116.081614 297.867936 
L 116.933021 298.103841 
L 117.069782 298.150386 
L 118.122073 298.44363 
L 118.122472 298.442061 
L 118.224746 298.455375 
L 118.233262 298.458448 
L 119.321668 298.736659 
L 119.322483 298.734105 
L 119.431237 298.75953 
L 120.6909 299.062943 
L 120.83091 299.097851 
L 121.902675 299.309146 
L 123.498355 299.613171 
L 124.54537 299.774008 
L 124.674014 299.788068 
L 125.994951 300.001148 
L 126.153629 300.030523 
L 127.979812 300.336611 
L 128.225734 300.369441 
L 129.905011 300.604109 
L 130.226829 300.65225 
L 132.25186 300.92188 
L 132.365898 300.934172 
L 134.651873 301.214215 
L 134.774427 301.227627 
L 137.18986 301.489805 
L 140.339015 301.821372 
L 142.032499 301.969637 
L 144.884179 302.193078 
L 145.150805 302.214365 
L 148.452141 302.452528 
L 148.596612 302.461683 
L 152.634103 302.735004 
L 152.753409 302.738577 
L 156.926848 302.977825 
L 157.139496 302.989566 
L 161.791395 303.224409 
L 167.223683 303.472037 
L 168.180604 303.512718 
L 174.717125 303.772439 
L 174.855507 303.776099 
L 182.482462 304.038135 
L 182.684152 304.044251 
L 191.924641 304.318667 
L 201.802677 304.55428 
L 213.277198 304.78514 
L 213.431407 304.786591 
L 227.45406 305.026202 
L 227.716624 305.028804 
L 244.609633 305.265456 
L 245.497571 305.27688 
L 266.387486 305.512121 
L 266.672773 305.514599 
L 293.815137 305.761776 
L 296.177413 305.781193 
L 331.070906 306.01841 
L 374.603475 306.235178 
L 375.321369 306.238492 
L 432.743078 306.447537 
L 498.109091 306.622372 
L 498.109091 306.622372 
" style="fill:none;stroke:#1f77b4;stroke-linecap:square;stroke-width:2;"/>
   </g>
   <g id="line2d_16">
    <path clip-path="url(#pc3210694b9)" d="M 92.290909 55.8 
L 92.389519 81.111794 
L 92.403726 80.990958 
L 92.415898 80.404642 
L 92.501929 83.146273 
L 92.622049 85.192819 
L 92.622456 85.181 
L 92.678055 86.723423 
L 92.815223 91.96842 
L 92.816843 91.925839 
L 92.822526 91.815876 
L 92.865138 93.259031 
L 92.867573 93.222985 
L 94.020908 115.269882 
L 92.907751 93.06151 
L 94.036735 115.211191 
L 94.10654 116.728039 
L 94.250604 120.540295 
L 94.2851 120.081084 
L 94.307823 119.881452 
L 94.342319 120.609017 
L 94.466501 121.821856 
L 94.367077 120.401965 
L 94.475017 121.81124 
L 94.479894 121.783636 
L 94.4945 122.029056 
L 94.683611 124.361285 
L 94.687266 124.350709 
L 94.699438 124.303263 
L 94.763561 124.914339 
L 94.935623 128.173159 
L 94.937252 128.143832 
L 94.939686 128.138856 
L 95.181953 132.648821 
L 95.32399 135.265919 
L 95.351997 135.02052 
L 95.352404 135.013929 
L 95.418147 135.74714 
L 95.418546 135.742084 
L 95.41936 135.739927 
L 95.427477 135.931291 
L 95.590209 138.04747 
L 95.595078 137.979851 
L 95.604009 137.911311 
L 95.659608 138.921215 
L 95.75457 140.054646 
L 95.694103 138.874226 
L 95.797175 140.015861 
L 95.804486 140.000348 
L 95.832485 140.447867 
L 96.17175 145.228486 
L 96.173777 145.224273 
L 96.174591 145.22003 
L 96.218824 145.906534 
L 96.401039 147.261797 
L 96.402659 147.258532 
L 96.403066 147.258284 
L 96.410369 147.374465 
L 96.599481 149.195344 
L 96.604349 149.185989 
L 96.622204 149.401037 
L 96.798736 150.619277 
L 96.647369 149.221407 
L 96.818626 150.473742 
L 96.819839 150.463926 
L 96.856769 151.199177 
L 97.013012 153.018309 
L 97.026804 152.96454 
L 97.028025 152.952656 
L 97.087678 153.527042 
L 97.10594 153.333945 
L 97.140435 153.706129 
L 97.382711 155.910961 
L 97.15667 153.610971 
L 97.393669 155.902128 
L 97.396917 155.899109 
L 97.461846 156.564996 
L 97.478886 156.534504 
L 97.645274 157.849013 
L 97.786904 158.874321 
L 98.01538 161.294603 
L 98.024718 161.285214 
L 98.027152 161.262891 
L 98.066516 161.782877 
L 98.205712 163.002293 
L 98.234118 162.972537 
L 98.235738 162.968028 
L 98.295399 163.359401 
L 98.298647 163.353473 
L 98.300267 163.350583 
L 98.345722 163.643456 
L 98.486537 164.496055 
L 98.497089 164.404597 
L 98.502364 164.36449 
L 98.563645 165.074904 
L 98.564053 165.072623 
L 98.570134 165.070574 
L 98.943081 167.175661 
L 99.078222 167.974661 
L 99.092022 167.888718 
L 99.111903 167.770787 
L 99.153295 168.094048 
L 99.331855 169.270023 
L 99.405307 170.064027 
L 100.110623 174.696462 
L 100.121581 174.634107 
L 100.128477 174.602179 
L 100.17271 175.131329 
L 100.530237 177.560465 
L 100.539982 177.51635 
L 100.544037 177.477514 
L 100.611807 177.791142 
L 100.767236 178.65383 
L 100.780222 178.584138 
L 100.783063 178.564373 
L 100.840282 179.02828 
L 101.29764 181.470714 
L 100.845965 179.025425 
L 101.317936 181.36708 
L 101.359328 181.363105 
L 101.343094 181.484964 
L 101.405995 181.461708 
L 101.539109 182.008912 
L 101.553715 181.968422 
L 101.567922 181.916791 
L 101.596327 182.123215 
L 101.7899 183.095414 
L 101.802479 183.003201 
L 101.804913 182.989682 
L 101.875125 183.363725 
L 102.174212 184.618872 
L 102.185171 184.582927 
L 102.230617 184.510543 
L 102.273229 184.761865 
L 102.57313 186.241193 
L 102.586116 186.219092 
L 102.920105 187.71002 
L 103.116519 188.629601 
L 103.39329 190.273357 
L 103.144925 188.612769 
L 103.403435 190.241465 
L 103.420076 190.125746 
L 103.496777 190.382938 
L 103.605531 190.742998 
L 103.877026 192.28117 
L 103.878647 192.27337 
L 103.937901 192.178681 
L 103.969962 192.387798 
L 104.14568 193.049488 
L 104.147707 193.04095 
L 104.148114 193.038444 
L 104.213043 193.331163 
L 104.409864 194.018378 
L 104.411085 194.015903 
L 104.411492 194.014249 
L 104.453291 194.305463 
L 104.678111 195.268248 
L 104.681766 195.249667 
L 104.70611 195.179729 
L 104.770232 195.404535 
L 104.838816 195.603134 
L 104.804728 195.371396 
L 104.887918 195.449565 
L 104.901311 195.388502 
L 104.971515 195.596618 
L 104.982473 195.575283 
L 105.184977 196.212688 
L 105.186605 196.210401 
L 105.217038 196.322222 
L 105.354614 196.688336 
L 105.234486 196.277483 
L 105.365971 196.615029 
L 105.372468 196.563392 
L 105.443487 196.882107 
L 105.445514 196.877185 
L 105.462562 196.75002 
L 105.503139 196.970705 
L 105.710512 197.772279 
L 105.948733 198.482852 
L 105.949132 198.48266 
L 105.950353 198.477856 
L 105.994586 198.765756 
L 106.01691 198.752464 
L 106.050184 198.804829 
L 106.115113 198.69219 
L 106.115927 198.685667 
L 106.190194 199.04302 
L 106.338312 199.439064 
L 106.214944 198.982554 
L 106.354954 199.39868 
L 106.474675 199.754066 
L 106.663379 200.282229 
L 107.145894 201.886357 
L 107.362197 202.5716 
L 107.363411 202.567526 
L 107.363818 202.566766 
L 107.39872 202.735892 
L 108.117828 204.763638 
L 108.118235 204.76273 
L 108.145428 204.738394 
L 108.190067 204.948102 
L 108.50052 206.042327 
L 109.096259 207.840675 
L 108.521622 206.03201 
L 109.113299 207.800495 
L 109.125072 207.764694 
L 109.193656 208.048686 
L 109.406711 208.46395 
L 109.407525 208.462565 
L 109.408331 208.461368 
L 109.460274 208.594069 
L 109.461902 208.594575 
L 109.780871 209.618505 
L 109.791422 209.593807 
L 109.796299 209.587043 
L 109.86691 209.764238 
L 110.047497 210.222577 
L 110.058456 210.205335 
L 110.063324 210.200838 
L 110.10715 210.386431 
L 110.249187 210.616488 
L 110.259331 210.555615 
L 110.297889 210.437146 
L 110.353081 210.693274 
L 110.590479 211.345401 
L 110.593321 211.342574 
L 110.604686 211.318753 
L 110.658656 211.477891 
L 110.866436 211.974664 
L 111.227211 212.948856 
L 110.86887 211.972282 
L 111.242224 212.903755 
L 111.283623 213.016067 
L 111.570938 213.875967 
L 111.575806 213.861926 
L 111.58271 213.841332 
L 111.614771 213.971644 
L 111.816054 214.38948 
L 111.62897 213.966179 
L 111.818081 214.38548 
L 111.853391 214.495614 
L 112.104997 215.177317 
L 112.107431 215.168599 
L 112.125285 215.074021 
L 112.202394 215.274166 
L 112.413829 215.794016 
L 112.420725 215.76089 
L 112.44913 215.682064 
L 112.498639 215.849462 
L 112.758369 216.488091 
L 112.759583 216.483383 
L 112.771754 216.48394 
L 112.791237 216.551115 
L 112.817208 216.579573 
L 113.003885 217.022441 
L 113.023775 216.969934 
L 113.031078 216.953819 
L 113.102503 217.054867 
L 113.338281 217.698508 
L 113.367094 217.674161 
L 113.377646 217.646199 
L 113.44785 217.812021 
L 113.699056 218.297077 
L 113.699455 218.296961 
L 113.701084 218.299541 
L 113.735579 218.401516 
L 113.993674 219.003399 
L 113.996116 218.999307 
L 114.077686 219.095674 
L 114.331318 219.692456 
L 114.338214 219.656521 
L 114.350801 219.60625 
L 114.408427 219.800335 
L 114.408834 219.799954 
L 114.750932 220.480004 
L 114.426281 219.741294 
L 114.76027 220.464021 
L 114.765139 220.457706 
L 114.808558 220.607214 
L 115.009034 220.943042 
L 115.009849 220.942436 
L 115.426214 221.669258 
L 115.433118 221.640548 
L 115.442041 221.608862 
L 115.511846 221.805905 
L 115.662806 221.95188 
L 115.533755 221.799661 
L 115.665241 221.949894 
L 115.681068 221.917185 
L 115.742349 222.029976 
L 115.745597 222.030795 
L 116.341743 223.42537 
L 116.351481 223.40485 
L 116.355136 223.396859 
L 116.426562 223.550262 
L 116.741069 224.1605 
L 116.803563 224.270305 
L 117.064507 224.739228 
L 117.065321 224.737006 
L 117.069375 224.736638 
L 117.132277 224.879881 
L 117.947161 226.149615 
L 117.964209 226.109828 
L 118.021021 226.226131 
L 118.195119 226.46855 
L 118.20567 226.444234 
L 118.212159 226.429064 
L 118.27506 226.548054 
L 118.412229 226.745801 
L 118.433331 226.680058 
L 118.452814 226.656983 
L 118.513688 226.811714 
L 118.901241 227.485249 
L 118.906109 227.487852 
L 118.938577 227.570706 
L 118.951563 227.583385 
L 119.1983 227.989669 
L 119.201141 227.983448 
L 119.211286 227.975798 
L 119.282711 228.148098 
L 119.503477 228.453813 
L 120.238411 229.612659 
L 120.246935 229.581175 
L 120.255867 229.546821 
L 120.347581 229.636135 
L 120.533036 229.824249 
L 121.84505 231.714835 
L 121.86047 231.662688 
L 121.861691 231.660731 
L 121.937171 231.811542 
L 122.267098 232.360077 
L 122.276843 232.338717 
L 122.281712 232.318039 
L 122.352323 232.459982 
L 122.36044 232.451694 
L 122.36653 232.446288 
L 122.415224 232.552429 
L 122.704981 232.977686 
L 122.771937 232.989577 
L 122.738255 233.038201 
L 122.795474 233.04217 
L 122.985806 233.219986 
L 122.987019 233.218151 
L 123.25446 233.425285 
L 123.978436 234.479681 
L 123.978843 234.478782 
L 123.981277 234.474196 
L 124.039717 234.600644 
L 124.495854 235.273389 
L 124.498695 235.269547 
L 124.510875 235.255393 
L 124.569714 235.349212 
L 124.577017 235.352894 
L 124.767756 235.514142 
L 124.768969 235.510959 
L 124.823354 235.487958 
L 124.865153 235.56706 
L 125.133807 235.940273 
L 125.143951 235.915385 
L 125.148005 235.915381 
L 125.210907 236.01256 
L 125.211314 236.012593 
L 125.277057 236.068075 
L 125.291264 236.096099 
L 125.482402 236.25592 
L 125.486456 236.24212 
L 125.50107 236.203964 
L 125.578985 236.348679 
L 125.898368 236.742434 
L 125.906485 236.722317 
L 125.941787 236.646987 
L 126.006317 236.771091 
L 126.362215 237.26998 
L 126.371553 237.242743 
L 126.378449 237.220022 
L 126.448653 237.344685 
L 126.796035 237.806881 
L 127.564252 238.513318 
L 127.918531 238.87247 
L 127.924213 238.865063 
L 128.486271 239.385888 
L 128.779675 239.740111 
L 128.790633 239.72517 
L 128.865714 239.72515 
L 128.849887 239.757789 
L 128.895333 239.761619 
L 129.183063 240.036683 
L 129.330782 240.208163 
L 129.538961 240.392808 
L 129.549512 240.360022 
L 129.561285 240.325957 
L 129.646502 240.42182 
L 130.072214 240.961491 
L 130.169204 241.044209 
L 130.450436 241.330688 
L 130.637113 241.421559 
L 130.648063 241.396727 
L 130.650905 241.394725 
L 130.733696 241.491885 
L 130.96866 241.675704 
L 131.324973 242.061997 
L 131.331869 242.044296 
L 131.35013 242.007997 
L 131.435356 242.086633 
L 131.682093 242.283934 
L 137.918306 247.046877 
L 137.920333 247.043494 
L 137.964167 247.038094 
L 138.029503 247.069898 
L 138.554224 247.540716 
L 138.555844 247.537479 
L 138.619559 247.525689 
L 138.600484 247.556581 
L 138.659738 247.576542 
L 139.057842 247.923446 
L 139.061904 247.916865 
L 139.070428 247.911397 
L 139.139818 247.995661 
L 139.615438 248.431958 
L 139.618686 248.427321 
L 139.622342 248.424089 
L 139.707559 248.492226 
L 139.712428 248.493693 
L 140.056561 248.728773 
L 140.059403 248.723319 
L 140.074424 248.720637 
L 140.130828 248.778456 
L 140.155993 248.785122 
L 140.60604 249.163883 
L 141.621401 249.90278 
L 142.037367 250.226153 
L 142.039395 250.222637 
L 142.114875 250.276662 
L 142.091338 250.279679 
L 142.12786 250.289153 
L 142.605108 250.670352 
L 142.721979 250.675233 
L 142.734558 250.649647 
L 142.840479 250.668323 
L 142.849003 250.677203 
L 143.129014 250.871087 
L 143.141601 250.841275 
L 143.221136 250.84048 
L 143.199626 250.877451 
L 143.249949 250.867524 
L 143.277141 250.860064 
L 143.343698 250.930062 
L 143.602606 251.053085 
L 143.714617 251.069316 
L 143.623302 251.066487 
L 143.715423 251.069971 
L 144.128548 251.371315 
L 144.142755 251.342906 
L 144.44509 251.521296 
L 144.701157 251.634654 
L 144.79774 251.68042 
L 144.774203 251.707099 
L 144.800582 251.683304 
L 145.286345 252.040392 
L 145.407279 252.123946 
L 145.891422 252.432899 
L 145.98273 252.453881 
L 145.998557 252.46851 
L 146.358518 252.688372 
L 146.361359 252.682936 
L 146.446177 252.679774 
L 146.476211 252.70989 
L 146.949396 253.046231 
L 146.955071 253.039148 
L 147.047599 253.0369 
L 147.001746 253.068196 
L 147.070729 253.056359 
L 147.37063 253.199571 
L 147.510233 253.223599 
L 147.862483 253.422946 
L 147.864112 253.41835 
L 147.875469 253.395269 
L 147.972459 253.443138 
L 148.623804 253.872871 
L 148.71998 253.933194 
L 149.260935 254.301422 
L 149.262962 254.298595 
L 149.369698 254.359133 
L 150.143589 254.931888 
L 150.253166 254.990361 
L 150.954826 255.447777 
L 151.199129 255.517109 
L 151.54691 255.701011 
L 152.027805 255.976134 
L 152.220164 256.079028 
L 152.537512 256.233399 
L 152.546444 256.215341 
L 152.563484 256.174398 
L 152.656012 256.238494 
L 152.871909 256.306496 
L 153.556122 256.760252 
L 153.564646 256.749891 
L 153.689227 256.779175 
L 154.217604 257.075069 
L 154.218011 257.074299 
L 154.233024 257.044155 
L 154.328393 257.095425 
L 154.618549 257.211335 
L 154.627073 257.196442 
L 154.771137 257.218962 
L 155.36445 257.557661 
L 155.364857 257.557061 
L 155.389607 257.549041 
L 155.466716 257.604154 
L 155.78325 257.754373 
L 155.79867 257.72659 
L 155.916363 257.765471 
L 156.456504 258.049494 
L 156.578659 258.104854 
L 159.016001 259.301605 
L 159.024932 259.29779 
L 159.108122 259.352177 
L 159.113398 259.354799 
L 159.582528 259.557874 
L 159.711173 259.57716 
L 160.036638 259.675481 
L 160.037452 259.674219 
L 160.197343 259.704458 
L 160.769545 259.973976 
L 160.878707 260.038008 
L 161.470391 260.314765 
L 161.956969 260.514099 
L 163.917071 261.266601 
L 164.611429 261.585593 
L 164.777817 261.658497 
L 167.773569 262.867444 
L 168.329137 263.068966 
L 168.935835 263.260831 
L 169.075438 263.313625 
L 169.783587 263.596414 
L 169.793731 263.594364 
L 169.883418 263.642291 
L 169.884639 263.642701 
L 170.863469 264.013344 
L 171.097627 264.093955 
L 171.614638 264.26317 
L 171.618294 264.256252 
L 171.739228 264.2661 
L 172.606869 264.61558 
L 172.715623 264.65184 
L 173.216815 264.794991 
L 173.323135 264.836818 
L 175.943099 265.629817 
L 176.051454 265.66883 
L 176.69833 265.870209 
L 176.841181 265.923142 
L 178.956713 266.605453 
L 179.094281 266.643051 
L 180.139676 266.954419 
L 180.859597 267.167127 
L 180.985807 267.178933 
L 181.584388 267.331149 
L 181.8088 267.397229 
L 182.469883 267.574091 
L 182.581479 267.610441 
L 183.053451 267.699045 
L 183.184122 267.721334 
L 184.183249 268.041159 
L 184.30012 268.069602 
L 185.512302 268.472537 
L 185.745247 268.504185 
L 189.766098 269.43055 
L 189.934513 269.468309 
L 190.677565 269.640804 
L 190.94459 269.709453 
L 191.863767 269.945456 
L 192.76347 270.131149 
L 193.556844 270.310736 
L 193.666421 270.343696 
L 194.445995 270.513412 
L 194.589652 270.5306 
L 195.536836 270.7577 
L 195.672783 270.788746 
L 196.988045 271.141903 
L 197.44743 271.262161 
L 198.41084 271.479971 
L 198.539484 271.500909 
L 199.435531 271.689892 
L 199.963101 271.784185 
L 201.135512 272.059466 
L 201.547823 272.153332 
L 202.406533 272.316838 
L 202.528281 272.334787 
L 203.505491 272.532594 
L 207.050722 273.228451 
L 207.194379 273.231327 
L 208.299427 273.448017 
L 208.460938 273.446418 
L 228.790424 276.754627 
L 228.93286 276.768856 
L 230.679101 277.051865 
L 230.881198 277.055087 
L 232.392467 277.276935 
L 232.651383 277.289347 
L 234.188624 277.510528 
L 234.321322 277.514286 
L 235.605337 277.674941 
L 235.770911 277.690448 
L 237.12999 277.862325 
L 237.9392 277.975136 
L 240.120874 278.234434 
L 240.24587 278.251228 
L 241.307491 278.361687 
L 242.634111 278.510683 
L 243.167763 278.568503 
L 259.786443 280.589515 
L 259.952417 280.590278 
L 262.06146 280.820229 
L 264.995524 281.141971 
L 266.880146 281.320647 
L 286.913786 283.115559 
L 287.129682 283.13049 
L 289.610052 283.332788 
L 289.784956 283.346669 
L 334.612083 286.546302 
L 334.827572 286.54562 
L 338.087916 286.720195 
L 338.310716 286.73697 
L 342.082387 286.948843 
L 342.264195 286.953761 
L 351.073706 287.403759 
L 351.286354 287.410353 
L 351.966512 287.445916 
L 355.493075 287.611216 
L 355.685427 287.622741 
L 373.550378 288.546103 
L 373.76384 288.556051 
L 379.858017 288.861716 
L 380.544656 288.90065 
L 385.448169 289.111102 
L 387.944357 289.209808 
L 393.014649 289.417715 
L 393.368121 289.427564 
L 397.108553 289.582952 
L 403.158904 289.83357 
L 406.509748 289.975532 
L 412.611635 290.210731 
L 412.805207 290.218829 
L 421.326989 290.575508 
L 421.624862 290.584195 
L 428.206838 290.817388 
L 429.102885 290.842546 
L 435.199089 291.038571 
L 435.68688 291.056131 
L 442.203926 291.262979 
L 443.955435 291.308596 
L 450.750059 291.516377 
L 451.095007 291.520477 
L 460.076987 291.817229 
L 460.372426 291.81866 
L 467.96123 292.037276 
L 468.53546 292.053157 
L 477.734151 292.327353 
L 484.226032 292.532893 
L 492.556268 292.746542 
L 498.109091 292.889015 
L 498.109091 292.889015 
" style="fill:none;stroke:#ff7f0e;stroke-linecap:square;stroke-width:2;"/>
   </g>
   <g id="patch_3">
    <path d="M 72 320.4 
L 72 43.2 
" style="fill:none;stroke:#000000;stroke-linecap:square;stroke-linejoin:miter;stroke-width:0.8;"/>
   </g>
   <g id="patch_4">
    <path d="M 518.4 320.4 
L 518.4 43.2 
" style="fill:none;stroke:#000000;stroke-linecap:square;stroke-linejoin:miter;stroke-width:0.8;"/>
   </g>
   <g id="patch_5">
    <path d="M 72 320.4 
L 518.4 320.4 
" style="fill:none;stroke:#000000;stroke-linecap:square;stroke-linejoin:miter;stroke-width:0.8;"/>
   </g>
   <g id="patch_6">
    <path d="M 72 43.2 
L 518.4 43.2 
" style="fill:none;stroke:#000000;stroke-linecap:square;stroke-linejoin:miter;stroke-width:0.8;"/>
   </g>
   <g id="text_16">
    <!-- Relative $\delta$ Quantity vs Primes Quantity -->
    <g transform="translate(178.56 37.2)scale(0.12 -0.12)">
     <use transform="translate(0 0.015625)" xlink:href="#DejaVuSans-82"/>
     <use transform="translate(69.482422 0.015625)" xlink:href="#DejaVuSans-101"/>
     <use transform="translate(131.005859 0.015625)" xlink:href="#DejaVuSans-108"/>
     <use transform="translate(158.789062 0.015625)" xlink:href="#DejaVuSans-97"/>
     <use transform="translate(220.068359 0.015625)" xlink:href="#DejaVuSans-116"/>
     <use transform="translate(259.277344 0.015625)" xlink:href="#DejaVuSans-105"/>
     <use transform="translate(287.060547 0.015625)" xlink:href="#DejaVuSans-118"/>
     <use transform="translate(346.240234 0.015625)" xlink:href="#DejaVuSans-101"/>
     <use transform="translate(407.763672 0.015625)" xlink:href="#DejaVuSans-32"/>
     <use transform="translate(439.550781 0.015625)" xlink:href="#DejaVuSans-Oblique-948"/>
     <use transform="translate(500.732422 0.015625)" xlink:href="#DejaVuSans-32"/>
     <use transform="translate(532.519531 0.015625)" xlink:href="#DejaVuSans-81"/>
     <use transform="translate(611.230469 0.015625)" xlink:href="#DejaVuSans-117"/>
     <use transform="translate(674.609375 0.015625)" xlink:href="#DejaVuSans-97"/>
     <use transform="translate(735.888672 0.015625)" xlink:href="#DejaVuSans-110"/>
     <use transform="translate(799.267578 0.015625)" xlink:href="#DejaVuSans-116"/>
     <use transform="translate(838.476562 0.015625)" xlink:href="#DejaVuSans-105"/>
     <use transform="translate(866.259766 0.015625)" xlink:href="#DejaVuSans-116"/>
     <use transform="translate(905.46875 0.015625)" xlink:href="#DejaVuSans-121"/>
     <use transform="translate(964.648438 0.015625)" xlink:href="#DejaVuSans-32"/>
     <use transform="translate(996.435547 0.015625)" xlink:href="#DejaVuSans-118"/>
     <use transform="translate(1055.615234 0.015625)" xlink:href="#DejaVuSans-115"/>
     <use transform="translate(1107.714844 0.015625)" xlink:href="#DejaVuSans-32"/>
     <use transform="translate(1139.501953 0.015625)" xlink:href="#DejaVuSans-80"/>
     <use transform="translate(1199.804688 0.015625)" xlink:href="#DejaVuSans-114"/>
     <use transform="translate(1240.917969 0.015625)" xlink:href="#DejaVuSans-105"/>
     <use transform="translate(1268.701172 0.015625)" xlink:href="#DejaVuSans-109"/>
     <use transform="translate(1366.113281 0.015625)" xlink:href="#DejaVuSans-101"/>
     <use transform="translate(1427.636719 0.015625)" xlink:href="#DejaVuSans-115"/>
     <use transform="translate(1479.736328 0.015625)" xlink:href="#DejaVuSans-32"/>
     <use transform="translate(1511.523438 0.015625)" xlink:href="#DejaVuSans-81"/>
     <use transform="translate(1590.234375 0.015625)" xlink:href="#DejaVuSans-117"/>
     <use transform="translate(1653.613281 0.015625)" xlink:href="#DejaVuSans-97"/>
     <use transform="translate(1714.892578 0.015625)" xlink:href="#DejaVuSans-110"/>
     <use transform="translate(1778.271484 0.015625)" xlink:href="#DejaVuSans-116"/>
     <use transform="translate(1817.480469 0.015625)" xlink:href="#DejaVuSans-105"/>
     <use transform="translate(1845.263672 0.015625)" xlink:href="#DejaVuSans-116"/>
     <use transform="translate(1884.472656 0.015625)" xlink:href="#DejaVuSans-121"/>
    </g>
   </g>
   <g id="legend_1">
    <g id="line2d_17">
     <path d="M 456.4 56.298437 
L 476.4 56.298437 
" style="fill:none;stroke:#2ca02c;stroke-linecap:square;stroke-width:2;"/>
    </g>
    <g id="line2d_18"/>
    <g id="text_17">
     <!-- $\delta^{1}$ -->
     <g transform="translate(484.4 59.798437)scale(0.1 -0.1)">
      <use transform="translate(0 0.684375)" xlink:href="#DejaVuSans-Oblique-948"/>
      <use transform="translate(68.382161 38.965625)scale(0.7)" xlink:href="#DejaVuSans-49"/>
     </g>
    </g>
    <g id="line2d_19">
     <path d="M 456.4 70.976562 
L 476.4 70.976562 
" style="fill:none;stroke:#d62728;stroke-linecap:square;stroke-width:2;"/>
    </g>
    <g id="line2d_20"/>
    <g id="text_18">
     <!-- $\delta^{10}$ -->
     <g transform="translate(484.4 74.476562)scale(0.1 -0.1)">
      <use transform="translate(0 0.765625)" xlink:href="#DejaVuSans-Oblique-948"/>
      <use transform="translate(68.382161 39.046875)scale(0.7)" xlink:href="#DejaVuSans-49"/>
      <use transform="translate(112.918294 39.046875)scale(0.7)" xlink:href="#DejaVuSans-48"/>
     </g>
    </g>
    <g id="line2d_21">
     <path d="M 456.4 85.654687 
L 476.4 85.654687 
" style="fill:none;stroke:#1f77b4;stroke-linecap:square;stroke-width:2;"/>
    </g>
    <g id="line2d_22"/>
    <g id="text_19">
     <!-- $\delta^{100}$ -->
     <g transform="translate(484.4 89.154687)scale(0.1 -0.1)">
      <use transform="translate(0 0.765625)" xlink:href="#DejaVuSans-Oblique-948"/>
      <use transform="translate(68.382161 39.046875)scale(0.7)" xlink:href="#DejaVuSans-49"/>
      <use transform="translate(112.918294 39.046875)scale(0.7)" xlink:href="#DejaVuSans-48"/>
      <use transform="translate(157.454427 39.046875)scale(0.7)" xlink:href="#DejaVuSans-48"/>
     </g>
    </g>
    <g id="line2d_23">
     <path d="M 456.4 100.332812 
L 476.4 100.332812 
" style="fill:none;stroke:#ff7f0e;stroke-linecap:square;stroke-width:2;"/>
    </g>
    <g id="line2d_24"/>
    <g id="text_20">
     <!-- $\delta^{1000}$ -->
     <g transform="translate(484.4 103.832812)scale(0.1 -0.1)">
      <use transform="translate(0 0.765625)" xlink:href="#DejaVuSans-Oblique-948"/>
      <use transform="translate(68.382161 39.046875)scale(0.7)" xlink:href="#DejaVuSans-49"/>
      <use transform="translate(112.918294 39.046875)scale(0.7)" xlink:href="#DejaVuSans-48"/>
      <use transform="translate(157.454427 39.046875)scale(0.7)" xlink:href="#DejaVuSans-48"/>
      <use transform="translate(201.99056 39.046875)scale(0.7)" xlink:href="#DejaVuSans-48"/>
     </g>
    </g>
   </g>
  </g>
 </g>
 <defs>
  <clipPath id="pc3210694b9">
   <rect height="277.2" width="446.4" x="72" y="43.2"/>
  </clipPath>
 </defs>
</svg>
